<?xml version="1.0" encoding="utf-8"?>
<!-- Generator: Adobe Illustrator 19.2.1, SVG Export Plug-In . SVG Version: 6.00 Build 0)  -->
<svg version="1.1" id="Слой_1" xmlns="http://www.w3.org/2000/svg" xmlns:xlink="http://www.w3.org/1999/xlink" x="0px" y="0px"
	 viewBox="0 0 68.3 68.3" style="enable-background:new 0 0 68.3 68.3;" xml:space="preserve">
<style type="text/css">
	.st0{fill:#969797;}
</style>
<g>
	<path class="st0" d="M34.2,0C15.3,0,0,15.3,0,34.2s15.3,34.2,34.2,34.2S68.3,53,68.3,34.2S53,0,34.2,0z M36,62.9V58h-3.7v4.9
		C17.9,62,6.3,50.5,5.4,36h4.9v-3.7H5.4c0.9-14.5,12.5-26,26.9-26.9v4.9H36V5.4c14.5,0.9,26,12.5,26.9,26.9H58V36h4.9
		C62,50.5,50.5,62,36,62.9z"/>
	<path class="st0" d="M32.2,30.8l-11.6-9.3c-0.2-0.2-0.5,0.1-0.3,0.3l9.9,12.4c0,2.2,1.8,4,4,4s4-1.8,4-4l13.6-17.8
		c0.2-0.2-0.1-0.5-0.4-0.3L34.2,30.2C33.4,30.2,32.8,30.4,32.2,30.8z"/>
</g>
</svg>
