<?xml version="1.0" encoding="utf-8"?>
<!-- Generator: Adobe Illustrator 19.2.1, SVG Export Plug-In . SVG Version: 6.00 Build 0)  -->
<svg version="1.1" id="Слой_1" xmlns="http://www.w3.org/2000/svg" xmlns:xlink="http://www.w3.org/1999/xlink" x="0px" y="0px"
	 viewBox="0 0 57.9 70.5" style="enable-background:new 0 0 57.9 70.5;" xml:space="preserve">
<style type="text/css">
	.st0{fill:#828282;}
</style>
<g>
	<g>
		<path class="st0" d="M53.8,45c-6-8.2-13-9.8-13-9.8s-5,7.5-11.8,7.4c-6.9,0-12.1-7.7-12.1-7.7c-4.2,1-7.9,4.8-7.9,4.8
			S0,48.3,0,54.8s9.3,15.3,28.9,15.3s27.5-10.8,27.5-10.8S59.8,53.2,53.8,45z"/>
		<path class="st0" d="M28.7,39c0,0,6.1,2.1,13-9.9s0-22.3,0-22.3s-4-6.5-13-6.5c-8,0-14.6,5.9-15.2,14.6C12.6,26.2,19.1,39,28.7,39
			z"/>
	</g>
</g>
</svg>
