<?xml version="1.0" encoding="utf-8"?>
<!-- Generator: Adobe Illustrator 19.2.1, SVG Export Plug-In . SVG Version: 6.00 Build 0)  -->
<svg version="1.1" id="Слой_1" xmlns="http://www.w3.org/2000/svg" xmlns:xlink="http://www.w3.org/1999/xlink" x="0px" y="0px"
	 viewBox="0 0 50 50" style="enable-background:new 0 0 50 50;" xml:space="preserve">
<style type="text/css">
	.st0{fill:url(#SVGID_1_);}
	.st1{fill:#FEFEFE;}
</style>
<linearGradient id="SVGID_1_" gradientUnits="userSpaceOnUse" x1="29.55" y1="5.6" x2="29.55" y2="44.464" gradientTransform="matrix(1 0 0 -1 0 50)">
	<stop  offset="0.2" style="stop-color:#6C83B3"/>
	<stop  offset="0.2" style="stop-color:#3B5998"/>
</linearGradient>
<path class="st0" d="M44.4,44.4H14.6c-2.5,0-4.5-2-4.5-4.5V10.1c0-2.5,2-4.5,4.5-4.5h29.9c2.5,0,4.5,2,4.5,4.5V40
	C48.9,42.4,46.9,44.4,44.4,44.4z"/>
<path class="st1" d="M44.1,25.1c-1.2,0-2.5,0-3.7,0c-0.2,0-0.4,0-0.4-0.3c0-0.9,0-1.7,0-2.6c0.1-1,0.7-1.6,1.7-1.6
	c0.8,0,1.6,0,2.4,0c0.3,0,0.4,0,0.4-0.4c0-1.4,0-2.8,0-4.2c0-0.3-0.1-0.4-0.3-0.4c-1.6,0-3.3,0-4.9,0c-1,0-2,0.3-2.9,0.9
	c-1.6,1.1-2.3,2.7-2.4,4.6c-0.1,1.2,0,2.4,0,3.6c0,0.3-0.1,0.4-0.4,0.4c-0.7,0-1.5,0-2.2,0c-0.3,0-0.4,0.1-0.4,0.4
	c0,1.4,0,2.8,0,4.2c0,0.4,0.1,0.5,0.5,0.4c0.6,0,1.3,0,1.9,0c0.5,0,0.6,0.1,0.6,0.6c0,2.2,0,4.5,0,6.7c0,2.3,0,4.5,0,6.8
	c0,0.1,0,0.1,0,0.1h6.1c0-0.1,0-0.2,0-0.3c0-4.5,0-8.9,0-13.4c0-0.5,0.1-0.6,0.6-0.6c1,0,2,0,3,0c0.3,0,0.4,0,0.4-0.4
	c0.1-1.4,0.3-2.9,0.4-4.3C44.6,25.2,44.5,25.1,44.1,25.1z"/>
</svg>
