<?xml version="1.0" encoding="utf-8"?>
<!-- Generator: Adobe Illustrator 19.2.1, SVG Export Plug-In . SVG Version: 6.00 Build 0)  -->
<svg version="1.1" id="Слой_1" xmlns="http://www.w3.org/2000/svg" xmlns:xlink="http://www.w3.org/1999/xlink" x="0px" y="0px"
	 viewBox="0 0 34 50" style="enable-background:new 0 0 34 50;" xml:space="preserve">
<style type="text/css">
	.st0{fill:#DA573B;}
</style>
<path class="st0" d="M28.2,47.4c1.1-3.2,0.5-6.1-1.9-8.6c-1.6-1.7-3.4-3.1-5.3-4.5c-2.8-2-2.3-4.1-0.1-6c0.9-0.7,1.8-1.4,2.5-2.2
	c3.6-3.9,3.4-9.8-0.4-13.7c-0.2-0.2-0.4-0.4-0.6-0.7c1.1,0,2.2,0,3.2,0c1-0.8,2-1.5,3-2.3C28.8,9.3,29,9.2,29.1,9
	c-0.1,0-0.2,0-0.3,0c-4.3,0-8.6,0-12.9,0c-0.6,0-1.3-0.1-1.9,0.1c-3.4,0.2-6.4,1.4-9.2,3.7v15.5c0,0,0-0.1,0.1-0.1
	c2.5,1.9,5.8,2.5,9,2.1c-1.2,2.5-0.5,4.6,1.2,6.5c-1.7,0.2-3.3,0.3-4.8,0.6c-1.6,0.3-3.1,0.6-4.6,1.2c0,0.1-0.4,0.3-0.7,0.4v9h3.5
	c-1.7,0-3.2-1.4-3.2-3.2c0-0.3,0.1-0.7,0-1c-0.2-1.1,0.4-1.8,1.2-2.4c1.8-1.5,4-2,6.2-2.4l1.1-0.2c1,0,2-0.1,3-0.1
	c0.3,0,0.6,0,0.8,0.2c1.6,1.2,3.2,2.2,4.7,3.6c1.5,1.3,2.5,2.8,2.4,4.8c0,0.4-0.4,0.6-0.8,0.6h4.3C28.2,47.8,28.2,47.6,28.2,47.4z
	 M15.6,28.2c-2,0.2-3.7-0.6-4.9-2.1c-2.6-3-3.5-6.6-2.9-10.5c0.4-2.2,1.7-3.7,3.9-4.4s4.1-0.1,5.6,1.5c1.9,2,2.8,4.5,3.3,7.1
	c0.1,0.7,0.2,1.3,0.2,2C21,25.3,18.8,28,15.6,28.2z"/>
</svg>
