<?xml version="1.0" encoding="utf-8"?>
<!-- Generator: Adobe Illustrator 19.2.1, SVG Export Plug-In . SVG Version: 6.00 Build 0)  -->
<svg version="1.1" id="Слой_1" xmlns="http://www.w3.org/2000/svg" xmlns:xlink="http://www.w3.org/1999/xlink" x="0px" y="0px"
	 viewBox="0 0 50 50" style="enable-background:new 0 0 50 50;" xml:space="preserve">
<style type="text/css">
	.st0{fill:#359AEC;}
</style>
<g>
	<path class="st0" d="M13.1,27.8c0.9,0.1,1.8,0.1,2.8-0.2c-3.8-1.2-5.8-3.7-6-7.6c1.1,0.4,2.1,0.9,3.3,0.9c-0.1-0.3-0.3-0.4-0.5-0.5
		c-2.6-2.2-3.4-6-1.9-9c0.2-0.5,0.4-0.6,0.8-0.1c3.9,4.4,8.8,6.9,14.7,7.5c0.5,0,0.7,0,0.6-0.6c-0.5-3.2,1.1-6.3,3.9-7.9
		c2.9-1.5,6.4-1.1,8.8,1.1c0.4,0.4,0.7,0.4,1.2,0.3c1.4-0.4,2.7-0.9,4.1-1.7c-0.6,1.8-1.7,3.1-3,4.1c1.3,0,2.5-0.5,3.8-0.9
		c0,0.4-0.2,0.5-0.3,0.7c-0.7,1-1.6,1.9-2.6,2.6c-0.5,0.4-0.6,0.8-0.6,1.3c0.1,9.5-6.4,20-18.3,21.7c-5.3,0.8-10.2-0.1-14.8-2.9
		c0.1-0.4,0.3-0.2,0.5-0.2c0.8-0.1,1.5,0.1,2.3-0.1c2.9-0.3,5.5-1.3,7.9-3.2c-3.4-0.4-5.8-2-7-5.1C12.7,27.6,12.9,27.8,13.1,27.8z"
		/>
</g>
</svg>
