<svg width="24" height="24" viewBox="0 0 24 24" fill="none" xmlns="http://www.w3.org/2000/svg">
<path d="M13.875 9.1875V4.5H5.4375V19.5H11.115C11.4225 19.8909 11.7938 20.2359 12.2213 20.5172L13.5244 21.375H4.49344C4.2467 21.375 4.01005 21.277 3.8355 21.1027C3.66094 20.9283 3.56275 20.6917 3.5625 20.445V3.555C3.5625 3.05156 3.98344 2.625 4.50187 2.625H14.8097L20.4375 8.25V9.1875H13.875ZM12 11.0625H20.4375V16.6397C20.4375 17.5678 19.9678 18.4359 19.185 18.9506L16.2188 20.9044L13.2525 18.9506C12.8687 18.6995 12.5533 18.3569 12.3347 17.9537C12.1161 17.5505 12.0011 17.0993 12 16.6406V11.0625ZM13.875 16.6397C13.875 16.9359 14.0269 17.2153 14.2837 17.385L16.2188 18.66L18.1537 17.385C18.2784 17.3044 18.381 17.1941 18.4523 17.064C18.5237 16.9339 18.5615 16.7881 18.5625 16.6397V12.9375H13.875V16.6397Z" fill="#F4522B"/>
</svg>
