<svg width="24" height="24" viewBox="0 0 24 24" fill="none" xmlns="http://www.w3.org/2000/svg">
<path d="M9.96375 5.4375L8.08875 7.3125H4.5V18.5625H19.5V7.3125H15.9113L14.0362 5.4375H9.96375ZM9.1875 3.5625H14.8125L16.6875 5.4375H20.4375C20.6861 5.4375 20.9246 5.53627 21.1004 5.71209C21.2762 5.8879 21.375 6.12636 21.375 6.375V19.5C21.375 19.7486 21.2762 19.9871 21.1004 20.1629C20.9246 20.3387 20.6861 20.4375 20.4375 20.4375H3.5625C3.31386 20.4375 3.0754 20.3387 2.89959 20.1629C2.72377 19.9871 2.625 19.7486 2.625 19.5V6.375C2.625 6.12636 2.72377 5.8879 2.89959 5.71209C3.0754 5.53627 3.31386 5.4375 3.5625 5.4375H7.3125L9.1875 3.5625ZM12 17.625C10.6325 17.625 9.32096 17.0818 8.35398 16.1148C7.387 15.1478 6.84375 13.8363 6.84375 12.4688C6.84375 11.1012 7.387 9.78971 8.35398 8.82273C9.32096 7.85575 10.6325 7.3125 12 7.3125C13.3675 7.3125 14.679 7.85575 15.646 8.82273C16.613 9.78971 17.1562 11.1012 17.1562 12.4688C17.1562 13.8363 16.613 15.1478 15.646 16.1148C14.679 17.0818 13.3675 17.625 12 17.625ZM12 15.75C12.8702 15.75 13.7048 15.4043 14.3202 14.7889C14.9355 14.1736 15.2812 13.339 15.2812 12.4688C15.2812 11.5985 14.9355 10.7639 14.3202 10.1486C13.7048 9.5332 12.8702 9.1875 12 9.1875C11.1298 9.1875 10.2952 9.5332 9.67981 10.1486C9.06445 10.7639 8.71875 11.5985 8.71875 12.4688C8.71875 13.339 9.06445 14.1736 9.67981 14.7889C10.2952 15.4043 11.1298 15.75 12 15.75V15.75Z" fill="#F4522B"/>
</svg>
