<svg width="24" height="24" viewBox="0 0 24 24" fill="none" xmlns="http://www.w3.org/2000/svg">
<path d="M2.74878 3H20.7488C21.014 3 21.2684 3.10536 21.4559 3.29289C21.6434 3.48043 21.7488 3.73478 21.7488 4V20C21.7488 20.2652 21.6434 20.5196 21.4559 20.7071C21.2684 20.8946 21.014 21 20.7488 21H2.74878C2.48356 21 2.22921 20.8946 2.04167 20.7071C1.85414 20.5196 1.74878 20.2652 1.74878 20V4C1.74878 3.73478 1.85414 3.48043 2.04167 3.29289C2.22921 3.10536 2.48356 3 2.74878 3V3ZM19.7488 11H3.74878V19H19.7488V11ZM19.7488 9V5H3.74878V9H19.7488ZM13.7488 15H17.7488V17H13.7488V15Z" fill="#F4522B"/>
</svg>
