<svg width="24" height="24" viewBox="0 0 24 24" fill="none" xmlns="http://www.w3.org/2000/svg">
<path d="M3.0078 3.00781H20.9922C21.2572 3.00781 21.5113 3.11308 21.6987 3.30045C21.8861 3.48783 21.9913 3.74196 21.9913 4.00695V19.9931C21.9913 20.2581 21.8861 20.5122 21.6987 20.6996C21.5113 20.8869 21.2572 20.9922 20.9922 20.9922H3.0078C2.74281 20.9922 2.48868 20.8869 2.30131 20.6996C2.11393 20.5122 2.00867 20.2581 2.00867 19.9931V4.00695C2.00867 3.74196 2.11393 3.48783 2.30131 3.30045C2.48868 3.11308 2.74281 3.00781 3.0078 3.00781V3.00781ZM19.9931 7.24214L12.0719 14.336L4.00693 7.22016V18.9939H19.9931V7.24214ZM4.51749 5.00608L12.0609 11.6623L19.4955 5.00608H4.51749Z" fill="#F4522B"/>
</svg>
