<svg width="24" height="24" viewBox="0 0 24 24" fill="none" xmlns="http://www.w3.org/2000/svg">
<path d="M12 20.6665C14.2985 20.6665 16.5029 19.7534 18.1282 18.1281C19.7535 16.5028 20.6666 14.2984 20.6666 11.9998C20.6666 9.70129 19.7535 7.49689 18.1282 5.87158C16.5029 4.24626 14.2985 3.33317 12 3.33317C9.70142 3.33317 7.49702 4.24626 5.8717 5.87158C4.24639 7.49689 3.33329 9.70129 3.33329 11.9998C3.33329 14.2984 4.24639 16.5028 5.8717 18.1281C7.49702 19.7534 9.70142 20.6665 12 20.6665V20.6665ZM12 22.8332C6.01671 22.8332 1.16663 17.9831 1.16663 11.9998C1.16663 6.01659 6.01671 1.1665 12 1.1665C17.9832 1.1665 22.8333 6.01659 22.8333 11.9998C22.8333 17.9831 17.9832 22.8332 12 22.8332ZM8.63079 13.2673L5.92463 12.4234C5.33963 12.2447 5.33638 11.8417 6.05571 11.5524L16.5998 7.47909C17.2119 7.22992 17.5585 7.54517 17.3603 8.33492L15.5652 16.8066C15.4395 17.41 15.0766 17.5541 14.5729 17.2757L11.8093 15.2303L10.5212 16.474C10.389 16.6018 10.2818 16.7113 10.0781 16.7383C9.87554 16.7665 9.70871 16.7058 9.58629 16.37L8.64379 13.2598L8.63079 13.2684V13.2673Z" fill="#F4522B"/>
</svg>
