<svg width="24" height="24" viewBox="0 0 24 24" fill="none" xmlns="http://www.w3.org/2000/svg">
<path d="M14.1667 19.5833H19.5833V4.41667H4.41667V19.5833H12V14.1667H9.83333V12H12V10.2082C12 8.75975 12.1517 8.23433 12.4333 7.70458C12.7108 7.18045 13.1396 6.752 13.664 6.475C14.0778 6.25292 14.5924 6.11967 15.4916 6.06225C15.848 6.0395 16.3095 6.06767 16.8761 6.14892V8.20725H16.3333C15.3399 8.20725 14.9293 8.25383 14.6845 8.38492C14.5384 8.46005 14.4195 8.57899 14.3443 8.72508C14.2143 8.96992 14.1667 9.21258 14.1667 10.2071V12H16.875L16.3333 14.1667H14.1667V19.5833ZM3.33333 2.25H20.6667C20.954 2.25 21.2295 2.36414 21.4327 2.5673C21.6359 2.77047 21.75 3.04602 21.75 3.33333V20.6667C21.75 20.954 21.6359 21.2295 21.4327 21.4327C21.2295 21.6359 20.954 21.75 20.6667 21.75H3.33333C3.04602 21.75 2.77047 21.6359 2.5673 21.4327C2.36414 21.2295 2.25 20.954 2.25 20.6667V3.33333C2.25 3.04602 2.36414 2.77047 2.5673 2.5673C2.77047 2.36414 3.04602 2.25 3.33333 2.25V2.25Z" fill="#F4522B"/>
</svg>
