<svg width="16" height="19" viewBox="0 0 16 19" fill="none" xmlns="http://www.w3.org/2000/svg">
<path d="M8.10054 5.38812C7.37054 5.38812 6.24054 4.55813 5.05054 4.58813C3.48054 4.60813 2.04054 5.49812 1.23054 6.90812C-0.399464 9.73812 0.810536 13.9181 2.40054 16.2181C3.18054 17.3381 4.10054 18.5981 5.32054 18.5581C6.49054 18.5081 6.93054 17.7981 8.35054 17.7981C9.76054 17.7981 10.1605 18.5581 11.4005 18.5281C12.6605 18.5081 13.4605 17.3881 14.2305 16.2581C15.1205 14.9581 15.4905 13.6981 15.5105 13.6281C15.4805 13.6181 13.0605 12.6881 13.0305 9.88812C13.0105 7.54812 14.9405 6.42812 15.0305 6.37812C13.9305 4.76812 12.2405 4.58813 11.6505 4.54813C10.1105 4.42813 8.82054 5.38812 8.10054 5.38812V5.38812ZM10.7005 3.02812C11.3505 2.24812 11.7805 1.15813 11.6605 0.078125C10.7305 0.118125 9.61054 0.698125 8.94054 1.47812C8.34054 2.16812 7.82054 3.27813 7.96054 4.33813C8.99054 4.41813 10.0505 3.80812 10.7005 3.02812" fill="white"/>
</svg>
