<svg width="15" height="18" viewBox="0 0 15 18" fill="none" xmlns="http://www.w3.org/2000/svg">
<path d="M12.5718 3.97333H10.7618C10.4818 2.11333 8.72178 0.973328 7.07178 0.973328C5.42178 0.973328 3.65178 2.11333 3.38178 3.97333H1.57178C0.741777 3.97333 0.0717773 4.64333 0.0717773 5.47333V16.4733C0.0717773 17.3033 0.741777 17.9733 1.57178 17.9733H12.5718C13.4018 17.9733 14.0718 17.3033 14.0718 16.4733V5.47333C14.0718 4.64333 13.4018 3.97333 12.5718 3.97333ZM7.07178 1.97333C8.25178 1.97333 9.50178 2.72333 9.77178 3.97333H4.37178C4.64178 2.72333 5.89178 1.97333 7.07178 1.97333ZM13.0718 16.4733C13.0718 16.7533 12.8518 16.9733 12.5718 16.9733H1.57178C1.29178 16.9733 1.07178 16.7533 1.07178 16.4733V5.47333C1.07178 5.19333 1.29178 4.97333 1.57178 4.97333H12.5718C12.8518 4.97333 13.0718 5.19333 13.0718 5.47333V16.4733Z" fill="white"/>
</svg>
