<svg width="16" height="17" viewBox="0 0 16 17" fill="none" xmlns="http://www.w3.org/2000/svg">
<path d="M15.2632 15.0133L11.2032 10.9533C12.0765 9.8678 12.5528 8.51653 12.5532 7.12333C12.5532 3.73333 9.79317 0.973328 6.40317 0.973328C3.01317 0.973328 0.253174 3.73333 0.253174 7.12333C0.253174 10.5133 3.01317 13.2733 6.40317 13.2733C7.83317 13.2733 9.15317 12.7733 10.2032 11.9433L14.2632 16.0033L15.2632 15.0133ZM6.39317 12.0533C5.08912 12.0507 3.83923 11.5315 2.91713 10.6094C1.99502 9.68727 1.47582 8.43738 1.47317 7.13333C1.47317 4.42333 3.67317 2.21333 6.39317 2.21333C9.11317 2.21333 11.3132 4.42333 11.3132 7.13333C11.3232 9.84333 9.11317 12.0533 6.39317 12.0533Z" fill="white"/>
</svg>
