<svg width="32" height="32" viewBox="0 0 32 32" fill="none" xmlns="http://www.w3.org/2000/svg">
<circle cx="16" cy="16" r="15" fill="white"/>
<path fill-rule="evenodd" clip-rule="evenodd" d="M16 5.04018C9.94703 5.04018 5.04015 9.94706 5.04015 16C5.04015 22.0529 9.94704 26.9598 16 26.9598C22.0529 26.9598 26.9598 22.0529 26.9598 16C26.9598 9.94707 22.0529 5.04018 16 5.04018ZM3.47446 16C3.47446 9.08236 9.08233 3.47449 16 3.47449C22.9176 3.47449 28.5255 9.08236 28.5255 16C28.5255 22.9176 22.9176 28.5255 16 28.5255C9.08233 28.5255 3.47446 22.9176 3.47446 16Z" fill="#555555"/>
<path d="M19.6797 14.5127L18.5446 18.0903C18.5446 17.8163 17.7617 11.8823 17.7617 11.8823C15.9612 11.8823 15.0061 13.1584 14.5051 14.5127L13.1195 18.0982C13.1195 17.8398 12.9238 14.5441 12.9238 14.5441C12.8569 13.8306 12.5308 13.1664 12.007 12.6773C11.4833 12.1881 10.7984 11.9081 10.082 11.8902L11.5538 20.8773C13.4326 20.8773 14.4503 19.6012 14.9748 18.2469L16.1491 15.1938C16.1491 15.3191 16.9319 20.8773 16.9319 20.8773C17.7002 20.8762 18.4483 20.6307 19.0675 20.176C19.6868 19.7213 20.1453 19.0813 20.3764 18.3487L23.0381 11.8823C21.1593 11.8823 20.1729 13.1584 19.6719 14.5127H19.6797Z" fill="#555555"/>
</svg>
