<?xml version="1.0" encoding="utf-8"?>
<!-- Generator: Adobe Illustrator 19.2.1, SVG Export Plug-In . SVG Version: 6.00 Build 0)  -->
<svg version="1.1" id="Слой_1" xmlns="http://www.w3.org/2000/svg" xmlns:xlink="http://www.w3.org/1999/xlink" x="0px" y="0px"
	 viewBox="0 0 50 50" style="enable-background:new 0 0 50 50;" xml:space="preserve">
<style type="text/css">
	.st0{fill:#FFFFFF;}
</style>
<rect x="9.4" y="9" class="st0" width="31.1" height="6.1"/>
<rect x="9.4" y="22.1" class="st0" width="31.1" height="6.1"/>
<rect x="9.4" y="35.2" class="st0" width="31.1" height="6.1"/>
<path class="st0" d="M44.5,4C45.3,4,46,4.7,46,5.5v38.9c0,0.8-0.7,1.5-1.5,1.5H5.5C4.7,46,4,45.3,4,44.5V5.5C4,4.7,4.7,4,5.5,4H44.5
	 M44.5,0H5.5C2.5,0,0,2.5,0,5.5v38.9C0,47.5,2.5,50,5.5,50h38.9c3.1,0,5.5-2.5,5.5-5.5V5.5C50,2.5,47.5,0,44.5,0L44.5,0z"/>
</svg>
