<?xml version="1.0" encoding="utf-8"?>
<!-- Generator: Adobe Illustrator 19.2.1, SVG Export Plug-In . SVG Version: 6.00 Build 0)  -->
<svg version="1.1" id="Слой_1" xmlns="http://www.w3.org/2000/svg" xmlns:xlink="http://www.w3.org/1999/xlink" x="0px" y="0px"
	 viewBox="0 0 50 50" style="enable-background:new 0 0 50 50;" xml:space="preserve">
<style type="text/css">
	.st0{fill:#B2B1B1;}
</style>
<g>
	<path class="st0" d="M34.7,16.7c0-8.3-7.8-15-17.3-15S0,8.4,0,16.7c0,3,1,5.7,2.7,8.1L2.2,35.1l13.2-3.4c0.6,0.1,1.3,0.1,2,0.1
		C26.9,31.8,34.7,25.1,34.7,16.7z"/>
	<path class="st0" d="M50,31.1c0-6.8-5.3-12.5-12.5-14.1c-0.3,9.4-9.2,17-20.2,17c0,0,0,0,0,0c1.5,6.6,8.2,11.6,16.2,11.6
		c1.1,0,2.3-0.1,3.3-0.3L47.1,48l-0.8-7.8C48.6,37.7,50,34.6,50,31.1z"/>
</g>
</svg>
