<?xml version="1.0" encoding="utf-8"?>
<!-- Generator: Adobe Illustrator 19.2.1, SVG Export Plug-In . SVG Version: 6.00 Build 0)  -->
<svg version="1.1" id="Слой_1" xmlns="http://www.w3.org/2000/svg" xmlns:xlink="http://www.w3.org/1999/xlink" x="0px" y="0px"
	 viewBox="0 0 50 50" style="enable-background:new 0 0 50 50;" xml:space="preserve">
<style type="text/css">
	.st0{fill:#B1B1B1;}
</style>
<g>
	<path class="st0" d="M25,0C11.2,0,0,11.2,0,25s11.2,25,25,25s25-11.2,25-25S38.8,0,25,0z M26.9,43.8C15,45,5,35,6.2,23.1
		c0.9-8.8,8-16,16.9-16.9C35,5,45,15,43.8,26.9C42.9,35.8,35.8,42.9,26.9,43.8z"/>
	<path class="st0" d="M28,23.5l0-8.9c0-1.3-0.8-2.5-2-2.9c-2.1-0.7-4,0.9-4,2.8v10c0,1.1,0.5,2.2,1.3,3.1l6,5.9
		c0.6,0.6,1.3,0.9,2.1,0.9c1,0,1.9-0.5,2.5-1.4c0.8-1.2,0.5-2.8-0.5-3.9l-5.2-5.1C28.1,23.8,28,23.7,28,23.5z"/>
</g>
</svg>
