<?xml version="1.0" encoding="utf-8"?>
<!-- Generator: Adobe Illustrator 17.1.0, SVG Export Plug-In . SVG Version: 6.00 Build 0)  -->
<!DOCTYPE svg PUBLIC "-//W3C//DTD SVG 1.1//EN" "http://www.w3.org/Graphics/SVG/1.1/DTD/svg11.dtd">
<svg version="1.1" id="Слой_1" xmlns="http://www.w3.org/2000/svg" xmlns:xlink="http://www.w3.org/1999/xlink" x="0px" y="0px"
	 viewBox="0 0 62 62" enable-background="new 0 0 62 62" xml:space="preserve">
<g opacity="0.6">
	<g opacity="0.5">
		<g>
			<g>
				<g>
					<path fill="#F9E489" d="M43.1,12.1c-0.6-0.4-1-0.9-1.4-1.1c0.2,0.1,0.3,0.2,0.5,0.4c-0.3-0.2-0.4-0.4-0.6-0.7
						c0.2-0.1,0.3,0.1,0.4,0c0.6,0.5,1.1,1.3,1.5,2.2C42.8,13,43.3,12.3,43.1,12.1z"/>
					<path fill="#F9E489" d="M41.2,10.2L41.2,10.2L41.2,10.2z"/>
					<path fill="#F9E489" d="M48.7,15.9c0.1,0.1,0.2,0.2,0.2,0.3C48.8,16.1,48.7,16,48.7,15.9z"/>
					<path fill="#F9E489" d="M44.8,12.2c0.1,0,0.1,0,0.2,0.1c0.2,0.4,0.5,0.8,0.7,1.2C45.5,13,45,12.7,44.8,12.2z"/>
					<path fill="#F9E489" d="M44.9,11.5c-0.3-0.3-0.6-0.7-0.7-1.2C44.4,10.7,44.6,11.1,44.9,11.5z"/>
					<path fill="#F9E489" d="M52.8,17.8L52.8,17.8c0.1,0,0.1,0,0.2,0c0,0.2,0.1,0.4,0.1,0.6c0,0-0.1,0-0.2-0.1
						C52.9,18,53,17.9,52.8,17.8z"/>
					<path fill="#F9E489" d="M48.6,15.8L48.6,15.8l-0.1-0.1l0,0L48.6,15.8z"/>
					<path fill="#F9E489" d="M52.8,17.6c0.1,0,0.2-0.1,0.2-0.1c0,0.1,0,0.1,0,0.3c0,0,0,0-0.1,0C52.8,17.7,52.9,17.6,52.8,17.6z"/>
					<path fill="#F9E489" d="M52.1,14.9c0-0.1-0.2,0-0.3,0c0-0.2,0-0.5-0.1-0.7c-0.1,0-0.1-0.1-0.2-0.1c0-0.1,0.1-0.1,0.1-0.2
						c0.3,0.4,0.5,0.9,0.7,1.4C52.2,15.1,52.1,15,52.1,14.9z"/>
					<path fill="#F9E489" d="M53.4,27.2c0.1-0.7,0.6-1.6,0.1-2.3c-0.2,0.8-0.5,1.9-1.3,1.7c-0.4-0.1-0.3-0.2-0.2-0.5
						s0.3-0.6,0.3-0.9c-0.1,0.1-0.1,0.1-0.2,0.1c0.1-0.1,0.2-0.1,0.1-0.2c-0.2,0.1-0.3,0.4-0.6,0.4l-0.2-0.1
						c-0.5,0.3-0.8,0.7-1.3,0.6c1,0,1.3-1,1.1-2s-0.8-1.9-1.4-2.8c-0.4-0.5-0.8-0.9-1.4-1.3c-0.3-0.2-0.6-0.5-0.8-0.6
						s-0.5-0.2-0.8-0.4c-0.2-0.1-0.3-0.5-0.4-0.8c-0.4-0.4-0.8-0.8-1.3-1.1c-0.9-0.8-1.2-2-2.1-2.8c-0.2-0.2,0.2-0.9,0.7-0.6
						c0.5,0.2,0.9,0.6,1.2,1c-0.2,0.1-0.3-0.2-0.5-0.2c0.1,0.4,0.3,0.7,0.5,1l-0.5-0.6c0.4,0.5,0.8,1.1,1.3,1.6
						c0.2,0.2-0.4,0.8,0.3,0.8c-0.3-0.9-0.6-1.8-1.1-2.6l0,0c-0.3-0.3-0.5-0.6-0.7-0.9c0.1,0.1,0.2,0.2,0.3,0.3
						c-0.2-0.6-0.5-1.1-0.9-1.5c1.7,0.7,2.4,2.6,3.5,3.8c0.1-0.6-0.7-0.8-0.6-1.5c0.4,0.6,0.8,1.3,1.2,2.1c-0.1,0-0.1-0.1-0.2-0.1
						c0,0.6,0.5,0.9,0.7,1.4v0.1v-0.1c-0.1-0.4-0.3-0.8-0.5-1.3c0.2,0.1,0.3,0.3,0.4,0.6c0.1-0.2,0-0.4,0-0.6
						c-0.1-0.2-0.2-0.5-0.4-0.7c0.2,0.3,0.5,0.6,0.9,0.8c-0.1-0.6-0.4-1.1-0.7-1.6l0.6,0.7c0.2,0.5,0.4,1,0.6,1.5l0,0l0.1,0.1
						c0.1,0.2,0.2,0.4,0.2,0.6c0.1,0.2,0.3,0.3,0.4,0.4v0.1c-0.1,0-0.2,0-0.2,0.1c0,0.6,0.6,0.9,0.6,1.5c0,0.2,0.1,0.3,0.3,0.5
						c0,0.1,0,0.1,0.1,0.1l0.1,0.1c0.1,0.1,0.1,0.2,0.2,0.3c-0.1-0.1-0.1-0.2-0.2-0.3c0,0,0-0.1-0.1-0.1c0.1,0,0.1,0,0.2,0
						c-0.3-0.7-0.6-1.5-1-2.2C50,19,50,19,50.1,19c-0.1-0.1-0.2-0.1-0.3-0.2c-0.1-0.2-0.3-0.5-0.4-0.7c0.1,0,0.2,0.1,0.3,0.1
						c-0.3-0.7-0.7-1.3-1.2-1.9c-0.3-0.7-0.6-1.3-0.9-1.9c0,0.4,0.2,0.8,0.3,1.2c-0.7-0.8-1.3-1.7-1.8-2.7c0.3,0,0.6,0.1,1,0
						c0.1-0.1,0-0.4,0.2-0.3c0.8,0.3,0.8,1,1.8,0.7c0.2-0.1,0.5-1.3,0.8-1.2c0.2,0.1,0.5,0.4,0.8,0.8c0.1,0.1,0.1,0.2,0.2,0.4H51
						c0.3,0.4,0.6,0.8,0.7,1.1c0,0.1,0.1,0.2,0.1,0.3s-0.1,0.1-0.1,0.2c0.1,0,0.2,0,0.2,0.1c0.1,0.3,0.2,0.5,0.3,0.7
						c0,0.2,0,0.3,0,0.5c0.1,0,0.1-0.1,0.2-0.1c0.1,0.3,0.3,0.6,0.4,1c0,0.2,0,0.4-0.2,0.5c0.5-0.1,0.6,0.7,0.9,1.2l0,0
						c0.1,0.2,0.2,0.5,0.4,0.8c0,0.1-0.1,0.1-0.1,0.2c0.1,0,0.1,0.1,0.2,0.1c0,0.2,0,0.5,0,0.7c0.1,0,0.2,0,0.3,0.1
						c0,0.2,0.1,0.3,0.2,0.4c0.1,0.2,0.1,0.3,0.1,0.5c0.1,0.6,0.2,1.3,0.2,1.9c-0.1,0-0.1,0.1-0.2,0.1c0.1,0.1,0.1,0.2,0.1,0.3h-0.1
						c0.2,0.3,0,0.4,0,0.6c0,0.1,0.1,0.1,0.1,0.2v0.1c-0.3,0.3-0.2,0.6-0.2,1c-0.1,0.3-0.3,0.7-0.4,1C53.9,27,53.6,27.1,53.4,27.2z"
						/>
					<path fill="#F9E489" d="M53.1,18.4c0,0.3,0.1,0.5,0.1,0.8C53.1,18.9,52.8,18.8,53.1,18.4z"/>
					<path fill="#F9E489" d="M49.9,11.9c0.1-0.2,0.1-0.3,0.1-0.5c0.4,0.6,0.8,1.1,1.1,1.7l0,0C50.8,12.7,50.6,11.8,49.9,11.9z"/>
					<path fill="#F9E489" d="M52.9,17.7C52.9,17.7,53,17.7,52.9,17.7L52.9,17.7C53,17.7,52.9,17.7,52.9,17.7z"/>
					<path fill="#F9E489" d="M46.6,12.8L46.6,12.8c0.1,0,0.2,0.2,0.3,0.3C46.8,13,46.7,12.9,46.6,12.8z"/>
					<path fill="#F9E489" d="M45.7,11.4c-0.2-0.2-0.5-0.4-0.7-0.7s-0.4-0.7-0.6-1.1C44.9,10.2,45.3,10.8,45.7,11.4z"/>
					<path fill="#F9E489" d="M49.3,10.7c0-0.2-0.1-0.3-0.1-0.5c0.1,0.1,0.2,0.3,0.2,0.4C49.4,10.6,49.4,10.6,49.3,10.7z"/>
					<path fill="#F9E489" d="M47.5,13.7L47.5,13.7c0,0,0.1,0,0.2,0C47.7,13.8,47.6,13.7,47.5,13.7z"/>
					<path fill="#F9E489" d="M48.7,9.2c0.1,0.1,0.1,0.2,0.2,0.3c-0.1,0-0.1,0-0.2-0.1C48.6,9.4,48.7,9.3,48.7,9.2z"/>
					<path fill="#F9E489" d="M47.5,7.9c-0.1-0.1-0.2-0.2-0.3-0.4c0.1,0.1,0.3,0.2,0.4,0.4C47.5,7.9,47.5,7.9,47.5,7.9z"/>
				</g>
			</g>
		</g>
	</g>
	<g opacity="0.5">
		<g>
			<g>
				<g>
					<path fill="#F9E489" d="M22.8,9.2c-0.5,0.2-1,0.3-1.4,0.5c0.2-0.1,0.3-0.2,0.5-0.2c-0.2,0.1-0.5,0.1-0.7,0.1
						c0-0.2,0.2-0.2,0.2-0.4c0.6-0.3,1.4-0.1,2.2,0.1C23.2,9.9,23,9.2,22.8,9.2z"/>
					<path fill="#F9E489" d="M20.4,9.8c0.1,0,0.1-0.1,0.2-0.1C20.5,9.7,20.4,9.8,20.4,9.8z"/>
					<path fill="#F9E489" d="M29.1,7.5c0.1,0,0.2,0,0.3,0C29.4,7.5,29.2,7.5,29.1,7.5z"/>
					<path fill="#F9E489" d="M23.8,7.9c0.1,0,0.1-0.1,0.2-0.1c0.4,0.1,0.9,0.2,1.3,0.3C24.8,8,24.3,8.2,23.8,7.9z"/>
					<path fill="#F9E489" d="M23.3,7.4c-0.5,0-0.9,0-1.4-0.2C22.4,7.3,22.9,7.4,23.3,7.4z"/>
					<path fill="#F9E489" d="M33.2,5.1L33.2,5.1C33.2,5,33.2,5,33.2,5.1c0.3,0,0.5,0.1,0.7,0.2c-0.1,0-0.1,0.1-0.2,0.1
						C33.5,5.2,33.5,5,33.2,5.1z"/>
					<path fill="#F9E489" d="M29,7.5L29,7.5h-0.1l0,0H29z"/>
					<path fill="#F9E489" d="M32.9,5c0-0.1,0-0.2,0-0.2C33,4.9,33.1,4.9,33.3,5c0,0,0,0-0.1,0C33.1,5.1,33,5,32.9,5z"/>
					<path fill="#F9E489" d="M30,4.1c-0.1,0-0.1,0.2-0.1,0.2c-0.1-0.1-0.3-0.2-0.4-0.3c0,0-0.1,0-0.1,0.1c0-0.1-0.1-0.1-0.1-0.2
						C29.6,4,30,4,30.5,4.1C30.3,4.1,30.1,4.1,30,4.1z"/>
					<path fill="#F9E489" d="M40.7,9c-0.5,0.2-0.9-0.4-1.6-0.1c0.5,0.5,1.3,0.7,1.5,1.4c0.1,0.4-0.2,0.4-0.6,0.3
						c-0.4-0.1-0.8-0.4-1-0.4c0.1,0.1,0.1,0.1,0.1,0.2c-0.1-0.1-0.1-0.2-0.2-0.1c0.1,0.2,0.4,0.4,0.4,0.7l-0.2,0
						c0.1,0.3,0.5,0.6,0.8,0.8c0.4,0.2,0.8,0.4,1.2,0.6c-0.4-0.2-0.8-0.4-1.2-0.6c-0.3-0.2-0.7-0.4-0.9-0.5
						c-0.6-0.3-1.1-0.6-1.7-0.8c-0.5-0.2-1.1-0.4-1.6-0.5c-0.4-0.1-1-0.1-1.6-0.2c-0.6,0-1.2,0.1-1.8,0.2c-0.5,0.2-1.1,0.4-1.5,0.8
						c-0.2,0.1-0.5,0-0.8-0.1c-0.3,0.1-0.7,0.1-1.1,0.2c-0.4,0.1-0.7,0.1-1.1,0.2c-1.5,0.2-2.6-0.4-3.7-0.4c-0.2,0-0.5-0.7,0.1-0.9
						c0.5-0.2,1-0.3,1.6-0.2c-0.1,0.2-0.3,0.1-0.5,0.2c0.4,0.2,0.7,0.3,1.1,0.3h-0.8c0.6,0,1.4,0.2,2.2,0.1c0.3,0,0.5,0.8,1,0.3
						c-1.1-0.3-2.1-0.8-3.1-0.9l0,0c-0.4,0-0.8-0.1-1.2-0.1c0.1,0,0.2-0.1,0.3,0c-0.5-0.3-1.1-0.3-1.6-0.4c1.5-0.8,3.4,0.1,5.3-0.1
						c-0.5-0.4-1.2,0-1.6-0.5c0.8,0.1,1.7,0.3,2.6,0.4c-0.1,0-0.1,0.1-0.2,0.1c0.6,0.3,1,0.1,1.5,0.2h0.1h-0.1
						c-0.2-0.1-0.4-0.1-0.6-0.2c0,0.1-0.2,0-0.5,0c0.3-0.1,0.5-0.1,0.7,0c-0.1-0.2-0.3-0.3-0.5-0.3c-0.3,0-0.6,0-0.9-0.1
						c0.4,0,0.9-0.1,1.3-0.3c-0.5-0.2-1.2-0.2-1.8-0.4c0.3,0,0.7,0,1,0C30,8,30.5,8.1,31,8.2h-0.1H31c0.2,0,0.4,0.1,0.6,0.1
						s0.4,0,0.6-0.1h0.1c-0.1,0.1-0.1,0.1,0,0.2c0.4,0.3,1,0.1,1.5,0.5C33.9,9,34.1,9,34.4,9c0,0.1,0.1,0,0.1,0h0.1
						c0.1,0,0.2,0,0.3,0c-0.1,0-0.2,0-0.3,0h-0.1c0-0.1,0.1-0.1,0.2-0.1c-0.8-0.2-1.5-0.5-2.3-0.6c0.1,0,0.1-0.1,0.2-0.1
						c-0.1,0-0.2,0.1-0.3,0.1c-0.3,0-0.5,0-0.8,0c0.1,0,0.2-0.1,0.2-0.2C31.3,8,31,8,30.6,8s-0.7,0-1.1,0c-0.7-0.1-1.4-0.3-2.1-0.5
						c0.4,0.3,0.7,0.4,1.1,0.5c-1.1,0-2.2-0.1-3.2-0.4c0.2-0.2,0.5-0.4,0.7-0.7c0-0.2-0.3-0.3-0.1-0.3c0.8-0.4,1.3,0.1,1.7-0.8
						c0.1-0.2-0.6-1.3-0.3-1.4c0.2-0.1,0.6-0.1,1-0.1c0.1,0,0.2,0.1,0.3,0.1c0,0,0,0,0.1-0.1c0.4,0,0.8,0,1,0.1c0.1,0,0.1,0,0.2,0.1
						c0,0.1,0.1,0.1,0.1,0.2c0-0.1,0.1-0.1,0.1-0.1c0.3,0.1,0.6,0.1,0.9,0.2c0.2,0.1,0.3,0.2,0.5,0.3c0-0.1,0-0.1,0-0.2
						c0.4,0,0.7,0.1,1.1,0.2c0.1,0.1,0.2,0.2,0.3,0.4c0.5-0.5,1.2,0,1.8,0.1l0,0c0.3,0.1,0.5,0.1,0.8,0.2c0,0.1,0.1,0.1,0.1,0.2
						c0.1-0.1,0.2-0.1,0.2-0.1C36,6,36.1,6.2,36.3,6.3c0,0,0.1-0.2,0.2-0.2C36.4,5.9,36.6,6,36.8,6c0.2,0.1,0.4,0.2,0.5,0.2
						c0.6,0.3,1,0.6,1.4,0.9c0,0.1,0,0.1-0.1,0.2c0.1-0.1,0.2,0,0.3,0c0,0,0,0.1-0.1,0.1c0.3-0.1,0.2,0.1,0.4,0.3l0.1-0.1l0,0
						C39.4,8,39.6,7.9,39.8,8c0.2,0.1,0.3,0.3,0.5,0.4C40.5,8.6,40.5,8.9,40.7,9z"/>
					<path fill="#F9E489" d="M33.9,5.3c0.2,0.1,0.5,0.3,0.7,0.4C34.4,5.7,34.1,5.8,33.9,5.3z"/>
					<path fill="#F9E489" d="M27,3.9c-0.1-0.2-0.2-0.3-0.3-0.4c0.7,0.1,1.3,0.2,1.8,0.3l0,0C28.1,3.9,27.4,3.4,27,3.9z"/>
					<path fill="#F9E489" d="M33.2,5L33.2,5L33.2,5C33.3,5,33.2,5,33.2,5z"/>
					<path fill="#F9E489" d="M25.4,7L25.4,7c0.1,0,0.3,0,0.4,0C25.7,7,25.6,7,25.4,7z"/>
					<path fill="#F9E489" d="M23.8,6.7c-0.3,0-0.6,0.1-1,0.1S22,6.7,21.5,6.6C22.3,6.5,23,6.6,23.8,6.7z"/>
					<path fill="#F9E489" d="M25.8,3.6c-0.1-0.1-0.3-0.2-0.4-0.3c0.2,0,0.3,0.1,0.4,0.1C25.7,3.4,25.8,3.5,25.8,3.6z"/>
					<path fill="#F9E489" d="M26.7,7L26.7,7c0,0,0.1-0.1,0.2-0.1C26.9,6.9,26.8,6.9,26.7,7z"/>
					<path fill="#F9E489" d="M24.1,3c0.1,0,0.2,0,0.4,0.1c-0.1,0-0.1,0.1-0.2,0.1C24.2,3.2,24.2,3.1,24.1,3z"/>
					<path fill="#F9E489" d="M22.1,3.1c-0.2,0-0.4,0-0.6,0c0.2,0,0.5,0,0.7-0.1C22.1,3.1,22.1,3.2,22.1,3.1z"/>
				</g>
			</g>
		</g>
	</g>
	<g opacity="0.5">
		<g>
			<g>
				<g>
					<path fill="#F9E489" d="M48.3,51.3c0.3-0.2,0.5-0.4,0.8-0.7s0.6-0.6,0.9-0.9c0.6-0.6,1.2-1.2,1.7-1.9c1.1-1.3,2.1-2.7,2.7-3.9
						c-0.5,1-1.2,2-2,3c1.2-1.5,2-2.7,2.8-4.3c0,0.6-0.6,1.5-0.6,1.9c-0.6,0.9-1.2,1.9-2,2.8l-1.1,1.3c-0.4,0.4-0.8,0.8-1.2,1.2
						l-0.6,0.6l-0.3,0.3l-0.3,0.2C48.8,51.1,48.6,51.2,48.3,51.3c-0.1,0.1-0.3,0.2-0.5,0.3c-0.8,0.4-1.9,0.7-3,1
						C46.4,51.6,47.4,51.9,48.3,51.3z"/>
					<path fill="#F9E489" d="M57.4,37.2c-0.4,0.6-0.7,1.2-0.9,1.7C56.7,38.3,57.1,37.7,57.4,37.2z"/>
					<path fill="#F9E489" d="M18.3,52.7c-0.5-0.3-1-0.6-1.4-0.9C17.4,52.1,17.9,52.4,18.3,52.7z"/>
					<path fill="#F9E489" d="M43.2,54.6c-0.3,0.1-0.5,0.2-0.8,0.3c-2.2,0.5-4.4,0.8-6.7,0.9C38.2,55.7,40.8,55,43.2,54.6z"/>
					<path fill="#F9E489" d="M45.7,54.3c1.1-0.4,2.2-0.7,3.1-1.2c1-0.5,1.8-1.2,2.7-1.9c-0.8,0.7-1.6,1.5-2.6,2
						C47.9,53.7,46.8,54,45.7,54.3z"/>
					<path fill="#F9E489" d="M4.6,41.1C4.6,41.1,4.5,41.1,4.6,41.1c-0.1-0.2-0.2-0.2-0.2-0.3c-0.2-0.5-0.3-0.9-0.5-1.4
						c-0.2-0.5-0.3-1-0.4-1.5c0.1,0.2,0.2,0.4,0.3,0.7C4,39.7,3.9,40.1,4.6,41.1z"/>
					<path fill="#F9E489" d="M18.9,53.1L18.9,53.1c0.2,0.1,0.4,0.2,0.6,0.3c0,0,0,0,0.1,0C19.3,53.3,19.1,53.2,18.9,53.1z"/>
					<path fill="#F9E489" d="M5.1,42.3C5,42.4,5,42.4,4.9,42.5c-0.2-0.5-0.4-1-0.6-1.6C4.3,41,4.4,41,4.4,41
						C4.6,41.4,4.8,41.9,5.1,42.3z"/>
					<path fill="#F9E489" d="M12.9,53c0.3,0.2,0.6,0.3,0.8,0.3c0.7,0.7,1.3,1.3,2.1,2c0.2,0.1,0.5,0.3,0.9,0.4
						c0.1,0.2,0.3,0.4,0.5,0.5c-0.5-0.4-1.1-0.8-1.6-1.1c-0.5-0.4-0.9-0.7-1.4-1.1c-1-0.7-1.9-1.5-2.9-2.4
						C11.8,52.1,12.3,52.5,12.9,53z"/>
					<path fill="#F9E489" d="M23.7,7.2c-1,0.1-1.9,0.5-2.6,0.8c-0.4,0.2-0.7,0.3-1.1,0.5c-0.3,0.1-0.6,0.3-1,0.4
						c-1.4,0.5-3.1,0.8-4.5,1.7c1.8-0.7,3.8-0.9,5.4-1.4c0.8-0.2,1.5-0.6,2-0.7c0.6-0.1,1-0.1,1.2,0s0,0.3-0.4,0.5S21.8,9.5,21,9.8
						c-1.6,0.7-3.6,0.9-4.8,1.4c0.4,0,0.4,0,0.7-0.1c-0.4,0-0.7,0.1-1,0.3c0.7-0.1,2-0.3,2.5-0.2l-0.6,0.3c0.5,0,1,0,1.7-0.1
						c0.3-0.1,0.6-0.1,1-0.2c0.4-0.1,0.8-0.2,1.1-0.4c0.6-0.3,1.2-0.4,1.6-0.5h0.2c0.1,0,0.1,0,0.2,0.1c0.1,0,0.2,0.1,0.3,0.2
						c-0.2-0.1-0.3-0.2-0.7-0.2c-0.4,0.1-0.9,0.2-1.5,0.4s-1.4,0.5-2.1,0.7c-0.6,0.1-1.3,0.3-1.9,0.4c-1.2,0.3-2.4,0.6-3.3,1.1
						c-0.9,0.5-1.7,1.5-2.3,2.6s-1.3,2.4-1.8,3.6S9.4,21.7,8.9,23c-0.4,1.3-0.9,2.8-1.4,4c-0.2,0.6-0.4,1.2-0.6,1.9
						c-0.1,0.6-0.3,1.2-0.3,1.8c-0.3,2.6,0.7,5.1,2,7.4c0.7,1.2,1.4,2.3,2.1,3.4c0.2,0.3,0.4,0.5,0.5,0.7l0.5,0.6
						c0.4,0.4,0.8,0.8,1.2,1.1c0.6,0.6,2,2.1,3.2,3.1c1.1,0.8,2.3,1.7,3.6,2.5c1.1,0.6,2.2,1.2,3.4,1.6c0.6,0.3,1.3,0.4,1.9,0.7
						c0.7,0.2,1.3,0.4,1.9,0.5c1.3,0.3,2.7,0.5,4,0.7c2.8,0.2,5.7,0.1,8.7-0.5c1.2-0.3,3,0,0.1,0.9c-2.4,0.7-5.1,1.1-7.6,1
						c0.3-0.2,1.5-0.1,2.1-0.3c-1.9-0.1-3.4-0.2-5.2-0.4c0.6,0.1,1.2,0.1,1.8,0.2c0.6,0,1.2,0.1,1.8,0.1c-3.1,0-6.4-0.6-9.4-1.7
						c-1.1-0.5-1.7-1.5-3.3-2c3.2,2.6,7.6,4.1,12.2,4.2l0,0c2,0,3.9-0.1,5.8-0.4c-0.6,0.1-1.2,0.2-1.8,0.2c1.4,0,2.9-0.2,4.3-0.5
						c1.4-0.3,2.7-0.7,4.3-1.1l-1.5,0.6c-0.5,0.2-1,0.4-1.5,0.5c-1,0.3-2,0.6-3.1,0.8c-2.1,0.4-4.3,0.6-6.4,0.5
						c-4.3-0.1-8.6-1.2-12.1-3.2c0.9,0.7,2.1,1.3,3.3,1.7c1.2,0.5,2.4,0.7,3.4,1.2c-1.9-0.4-3.7-1-5.3-1.9c-0.8-0.4-1.7-0.9-2.4-1.5
						c-0.8-0.5-1.6-1.2-2.4-1.8c0.3,0.2,0.5,0.3,0.8,0.5c-1.8-1.7-4-3.2-5.5-5l-0.4-0.5l0.4,0.5c1.3,1.7,3,3.1,4.7,4.5
						c-0.9-0.5-1.7-1.2-2.6-2.1c0.4,0.6,1.1,1.3,1.9,1.9l1.6,1.2l0.8,0.6l0.8,0.5c-1.7-1.1-3.3-2.2-4.9-3.3c1,0.9,2.1,1.8,3.2,2.7
						s2.3,1.6,3.5,2.3c-1.4-0.7-2.6-1.5-3.9-2.4c-2-1.6-4-3.3-5.7-5.2l0.2,0.2l-0.3,0c-0.3-0.4-0.6-0.8-0.9-1.2L10,44.2l-0.4-0.6
						c-0.5-0.7-1-1.6-1.5-2.3l-0.2-0.4C8.1,41,8.2,41.1,8,40.6c-0.8-2.2-2.1-4.5-2.2-7.2c0-0.7-0.1-1.6,0-2.6c0.1-0.3,0.1-0.4,0-0.5
						L6,29.6c0.1-0.5,0.2-1.1,0.4-1.6c-0.2,0.5-0.3,1-0.4,1.6l-0.1,0.6c0-0.1-0.1-0.3,0-0.6c-1,3.6,0.3,7.6,2,11.2
						c-0.2-0.2-0.4-0.5-0.5-0.6c0.2,0.3,0.4,0.7,0.7,1c0.3,0.6,0.6,1.2,0.9,1.7c0.3,0.5,0.6,1.1,1,1.6c-0.3-0.3-0.5-0.6-0.7-0.8
						c1.8,3.2,4.8,5.5,7.9,7.7c2.7,2.2,5.8,3.8,9.1,4.7c-1.8-0.6-3.6-1.3-5.3-2.3c4.7,2.2,10,2.9,15.2,2.6c-0.9,0.4-2.2,0.6-2.8,0.9
						c0,0.2,1.8,0.2,0.8,0.3c-3.7,0.6-6.3-0.3-8,0.3c-0.2,0.1,0.7,0.6,1.6,1c0.8,0.4,1.5,0.8,0.8,0.8c-1.2-0.1-3.4-0.3-5.7-1.1
						c-0.6-0.3-1.3-0.5-2-0.8c-0.1-0.1-0.2-0.1-0.4-0.1c-1.2-0.5-2.3-1.1-3.3-1.7c-0.5-0.3-0.9-0.6-1.3-0.9
						c-0.3-0.3-0.6-0.5-0.9-0.7c-0.4-0.3-0.7-0.6-1.1-0.9c-0.2-0.2-0.3-0.4-0.4-0.5c-0.3-0.1-0.5-0.3-0.8-0.4
						c-1-0.8-1.9-1.7-2.8-2.6l-0.7-0.9c-0.2-0.3-0.4-0.6-0.6-0.9c0,0.1,0,0.2-0.2,0.1c-0.6-0.6-1-1.3-1.5-2
						c-0.2-0.3-0.4-0.7-0.7-1.1c-0.2-0.4-0.5-0.8-0.6-1.1c-0.2-0.6-0.4-1.1-0.4-1.6c-1.2-1.2-2.6-4.9-3-8l0,0c0-0.4-0.1-0.8-0.1-1.1
						v-1.2c0-0.8,0.1-1.6,0.2-2.4c0.1-0.3,0.2-0.5,0.3-0.7c0-0.4,0.1-0.8,0.1-1c0.4-1.1,0.8-2,1.2-2.8c0-0.2,0-0.5,0.1-0.9
						c0.2-0.6,0.4-1.2,0.6-1.7c0.3-0.7,0.5-1.4,0.8-2.1C5.8,20,6,19.4,6.3,18.7c0.3-0.6,0.6-1.4,0.9-1.9c0.6-1.1,1.3-2.3,2.1-3.4
						c0.1,0,0.2,0,0.3,0c0.1-0.4,0.6-0.9,0.8-1.3c0,0.1,0,0.1,0,0.2c0.8-1.2,1.2-1.2,2.3-2c0.2-0.2,0.4-0.4,0.7-0.5
						c0.1-0.1,0.3-0.1,0.4-0.2c1.4-0.3,2.6-0.7,3.8-1.1c0.6-0.1,1.2-0.3,1.7-0.4c0.5-0.1,1-0.4,1.7-0.7C22.1,7,22.8,7.1,23.7,7.2z"
						/>
					<path fill="#F9E489" d="M3.3,37.6c-0.3-1.3-0.5-2.7-0.6-4.1C2.8,35,3.2,36.3,3.3,37.6z"/>
					<path fill="#F9E489" d="M29.6,60.1c0.5,0.2,1.1,0.4,1.7,0.5c-3.4-0.2-6.9-0.9-10.2-2.3l0,0c1.4,0.5,3,1.1,4.6,1.5
						C27.2,60.1,28.7,60.2,29.6,60.1z"/>
					<path fill="#F9E489" d="M4.4,41.1L4.4,41.1L4.4,41.1C4.3,40.9,4.4,41,4.4,41.1z"/>
					<path fill="#F9E489" d="M35.8,56.9h0.3c-0.8,0.1-1.5,0.2-2.3,0.2C34.4,57,35.1,57,35.8,56.9z"/>
					<path fill="#F9E489" d="M43.9,55.6c1.5-0.5,3-0.9,4.4-1.6c0.9-0.4,1.8-0.9,2.6-1.6c0.7-0.7,1.4-1.3,2.2-1.9l-1.9,1.9
						C50.5,53,49.8,53.6,49,54C47.3,54.8,45.6,55.1,43.9,55.6z"/>
					<path fill="#F9E489" d="M36.1,60.4c0.7,0,1.4,0,2.1,0c-0.7,0.1-1.4,0.1-2.1,0.2C36.2,60.5,36.1,60.4,36.1,60.4z"/>
					<path fill="#F9E489" d="M29.4,57h0.5c-0.4,0-0.8,0-1.2,0C28.8,57,29.2,57,29.4,57z"/>
					<path fill="#F9E489" d="M43.6,59.5c-0.5,0.1-1,0.2-1.5,0.3c0.3-0.1,0.6-0.2,0.9-0.4C43.1,59.5,43.4,59.5,43.6,59.5z"/>
					<path fill="#F9E489" d="M51.7,56.4c0.4-0.3,0.8-0.5,1.1-0.8l0.5-0.4l0.4-0.4c-0.2,0.2-0.2,0.3-0.5,0.5l-0.6,0.6
						c-0.4,0.4-0.9,0.7-1.3,1C51.4,56.6,51.6,56.4,51.7,56.4z"/>
				</g>
			</g>
		</g>
	</g>
	<g opacity="0.5">
		<g>
			<g>
				<g>
					<path fill="#F9E489" d="M48.1,50.9c0,0.1,0,0.1-0.1,0.2c0,0.1,0,0.2-0.1,0.4s-0.1,0.5-0.3,0.8c0.1-0.3,0.2-0.6,0.2-0.8
						c-0.1,0.3-0.3,0.7-0.7,1.2c0-0.3,0.2-0.5,0-0.7c0-0.1,0.1-0.3,0.2-0.4c0-0.1,0.1-0.2,0.1-0.3c0.1-0.1,0.2-0.2,0.3-0.3
						c0.2-0.1,0.4-0.2,0.7-0.4C48.8,51.1,48.2,50.7,48.1,50.9z"/>
					<path fill="#F9E489" d="M45.6,53.9c0.2-0.1,0.3-0.2,0.4-0.3C45.9,53.7,45.8,53.9,45.6,53.9z"/>
					<path fill="#F9E489" d="M50.6,46c0.1-0.1,0.1-0.2,0.2-0.2C50.7,45.9,50.6,45.9,50.6,46z"/>
					<path fill="#F9E489" d="M47.6,49.4c0-0.1,0-0.1,0-0.2c0.3-0.2,0.6-0.4,1-0.6C48.3,48.8,48.1,49.3,47.6,49.4z"/>
					<path fill="#F9E489" d="M47,49.4c-0.2,0.3-0.4,0.5-0.8,0.7h-0.1c0,0,0,0,0.1-0.1C46.5,49.9,46.7,49.6,47,49.4z"/>
					<path fill="#F9E489" d="M51.6,42.1C51.6,42.1,51.6,42,51.6,42.1c0-0.1,0-0.1-0.1-0.2c0.2,0,0.3-0.1,0.5-0.1c0,0,0,0.1,0,0.2
						C51.9,42,51.7,41.9,51.6,42.1z"/>
					<path fill="#F9E489" d="M50.5,46.1L50.5,46.1L50.5,46.1L50.5,46.1C50.4,46.1,50.4,46.1,50.5,46.1z"/>
					<path fill="#F9E489" d="M51.5,42.2c0-0.1-0.1-0.1-0.1-0.2l0.3-0.1c0,0,0,0,0,0.1C51.6,42.1,51.5,42.1,51.5,42.2z"/>
					<path fill="#F9E489" d="M49.4,42.7c0,0,0,0.2,0,0.3c-0.2,0-0.4,0-0.6,0c0,0.1-0.1,0.1-0.1,0.2c-0.1,0-0.1-0.1-0.2-0.1
						c0.4-0.2,0.7-0.4,1.1-0.5C49.6,42.6,49.5,42.6,49.4,42.7z"/>
					<path fill="#F9E489" d="M57.6,38.6c-0.2,0.3-0.5,0.4-0.7,0.6c-0.2,0.2-0.4,0.4-0.4,0.8c0.6-0.3,1.3-0.9,1.9-0.4
						c0.6,0.5-0.5,0.5-0.7,1c0.1,0,0.1,0,0.2,0c-0.1,0-0.2,0-0.2,0.1c0.2,0,0.5-0.1,0.7,0l0.1,0.2c0.6,0.1,1-0.1,1.5,0.2
						c-0.4-0.1-0.9-0.2-1.3,0c-0.2,0.1-0.4,0.2-0.5,0.4c-0.2,0.2-0.3,0.4-0.5,0.6c-0.3,0.4-0.7,0.9-1,1.3c-0.4,0.4-0.7,0.8-1.1,1.2
						c-0.4,0.5-0.7,1-1,1.5s-0.5,1.1-0.7,1.7c-0.1,0.2-0.5,0.3-0.8,0.4c-0.4,0.4-0.8,0.8-1,1.3c-0.3,0.4-0.7,0.6-1.1,0.9
						c-0.4,0.2-0.7,0.4-1,0.7c-0.1,0.1-0.8-0.2-0.6-0.7c0.1-0.4,0.3-0.8,0.6-1c0.1,0.2-0.1,0.2-0.1,0.4c0.2,0,0.3-0.1,0.4-0.1
						c0.1-0.1,0.3-0.1,0.4-0.2c-0.2,0.1-0.3,0.3-0.4,0.4c0.3-0.3,0.9-0.6,1.2-1c0.2-0.1,0.7,0.4,0.7-0.2c-0.8,0.2-1.6,0.4-2.2,0.8
						l0,0c-0.2,0.2-0.5,0.4-0.7,0.6c0-0.1,0.1-0.2,0.2-0.2c-0.5,0.1-0.8,0.4-1.1,0.7c0.1-0.7,0.6-1.3,1.1-1.7
						c0.6-0.4,1.2-0.8,1.7-1.3c-0.5-0.1-0.7,0.7-1.2,0.5c0.5-0.4,1.1-0.7,1.8-1c0,0-0.1,0.1-0.1,0.2c0.5,0,0.8-0.4,1.2-0.6H53h-0.1
						c-0.4,0.1-0.8,0.3-1.1,0.4c0.1-0.2,0.3-0.3,0.5-0.3c-0.2-0.1-0.4,0-0.6,0c-0.2,0.1-0.4,0.2-0.6,0.3c0.3-0.2,0.5-0.5,0.7-0.8
						c-0.5,0.1-1,0.4-1.4,0.6c0.2-0.2,0.4-0.3,0.6-0.5c0.4-0.2,0.9-0.3,1.3-0.5l0,0l0.1-0.1c0.2-0.1,0.3-0.2,0.5-0.3
						c0.1-0.1,0.2-0.3,0.3-0.5h0.1c0,0.1,0,0.2,0.1,0.1c0.5-0.1,0.7-0.6,1.3-0.7c0.2,0,0.3-0.2,0.4-0.3c0.1,0,0.1,0,0.1-0.1l0.1-0.1
						c0.1-0.1,0.2-0.1,0.2-0.2c-0.1,0.1-0.1,0.2-0.2,0.2L55.2,44c0-0.1,0-0.1,0-0.2c-0.6,0.4-1.2,0.7-1.8,1.2c0-0.1,0-0.2,0-0.2
						c0,0.1-0.1,0.2-0.1,0.3c-0.2,0.1-0.4,0.3-0.5,0.5c0-0.1,0.1-0.2,0.1-0.3c-0.6,0.3-1.1,0.7-1.6,1.1c-0.6,0.2-1.1,0.5-1.7,0.7
						c0.4,0,0.7-0.1,1-0.2c-0.7,0.6-1.4,1.1-2.2,1.5c-0.1-0.3,0-0.6-0.1-0.9c-0.1-0.1-0.4,0-0.3-0.2c0.2-0.8,0.9-0.7,0.5-1.6
						c-0.1-0.2-1.3-0.5-1.2-0.8c0.1-0.2,0.4-0.5,0.7-0.8c0.1,0,0.2-0.1,0.3-0.2v-0.1c0.4-0.3,0.7-0.5,0.9-0.6c0.1,0,0.2,0,0.2-0.1
						c0.1,0,0.1,0.1,0.2,0.1c0-0.1,0-0.1,0.1-0.2c0.2-0.1,0.4-0.1,0.6-0.2c0.1,0,0.3,0,0.4,0c0-0.1-0.1-0.1-0.1-0.2
						c0.3-0.1,0.4-0.2,0.6-0.3c0.1,0,0.3,0.1,0.4,0.2c-0.1-0.6,0.6-0.6,0.9-0.9l0,0c0.1-0.1,0.3-0.2,0.4-0.3c0.1,0,0.1,0.1,0.2,0.1
						c0-0.1,0-0.1,0-0.2c0.2,0,0.3,0,0.5,0L53.5,41c0.1,0,0.2-0.1,0.2-0.2c0.1-0.1,0.2-0.1,0.3-0.2c0.3-0.2,0.5-0.3,0.9-0.5
						c0.1,0,0.1,0.1,0.2,0.1c0-0.1,0.1-0.1,0.1-0.2c0,0,0,0.1,0.1,0.1c0-0.2,0.2-0.1,0.4-0.2c0,0,0-0.1,0-0.2h0.1
						c0.4,0.1,0.5-0.2,0.6-0.4c0.2-0.1,0.5-0.3,0.8-0.4C57.2,38.5,57.4,38.6,57.6,38.6z"/>
					<path fill="#F9E489" d="M52.1,41.8c0.2,0,0.4-0.1,0.6-0.1C52.6,41.9,52.5,42,52.1,41.8z"/>
					<path fill="#F9E489" d="M46.8,44.5c-0.2-0.1-0.3-0.1-0.5-0.1c0.5-0.3,1.1-0.7,1.6-1l0,0C47.5,43.8,46.7,43.9,46.8,44.5z"/>
					<path fill="#F9E489" d="M51.6,42L51.6,42L51.6,42L51.6,42z"/>
					<path fill="#F9E489" d="M47.9,47.8L47.9,47.8c0-0.1,0.1-0.2,0.2-0.3C48.1,47.6,48,47.7,47.9,47.8z"/>
					<path fill="#F9E489" d="M46.7,48.7c-0.2,0.2-0.3,0.4-0.5,0.7c-0.2,0.2-0.3,0.3-0.6,0.5c-0.1,0.1-0.2,0.2-0.3,0.3
						c0.1-0.1,0.1-0.2,0.2-0.3C46,49.3,46.3,49,46.7,48.7z"/>
					<path fill="#F9E489" d="M45.7,45.2c-0.1,0-0.3,0.1-0.5,0.1c0.1-0.1,0.2-0.2,0.4-0.3C45.5,45.1,45.6,45.1,45.7,45.2z"/>
					<path fill="#F9E489" d="M48.7,47L48.7,47c0,0,0-0.1,0-0.2C48.7,46.8,48.7,46.9,48.7,47z"/>
					<path fill="#F9E489" d="M44.2,45.9c0.1-0.1,0.2-0.1,0.3-0.2c0,0.1,0,0.1,0,0.2C44.4,45.9,44.3,45.9,44.2,45.9z"/>
					<path fill="#F9E489" d="M43,47.5c-0.1,0.2-0.2,0.3-0.4,0.5C42.7,47.8,42.8,47.6,43,47.5C43,47.4,43.1,47.5,43,47.5z"/>
				</g>
			</g>
		</g>
	</g>
	<g opacity="0.5">
		<g>
			<g>
				<g>
					<path fill="#F9E489" d="M43.2,55.4c-0.3,0.3-0.5,0.4-0.7,0.6l0.2-0.2c-0.1,0.1-0.3,0.1-0.5,0.1c-0.1-0.2,0.1-0.1,0-0.3
						c0.3-0.3,0.9-0.2,1.4-0.3C43.8,55.9,43.3,55.3,43.2,55.4z"/>
					<path fill="#F9E489" d="M41.7,56C41.7,55.9,41.7,55.9,41.7,56C41.7,55.9,41.7,56,41.7,56z"/>
					<path fill="#F9E489" d="M44.9,51.8C44.9,51.7,45,51.7,44.9,51.8L44.9,51.8z"/>
					<path fill="#F9E489" d="M43.1,54C43.1,53.9,43.1,53.9,43.1,54c0.2-0.2,0.5-0.2,0.7-0.3C43.5,53.7,43.4,54.1,43.1,54z"/>
					<path fill="#F9E489" d="M42.6,53.6c-0.2,0.1-0.4,0.2-0.8,0.1C42.1,53.8,42.4,53.7,42.6,53.6z"/>
					<path fill="#F9E489" d="M44.8,48.6C44.7,48.5,44.7,48.5,44.8,48.6c-0.1-0.1-0.1-0.1-0.1-0.2c0.1,0,0.2,0,0.4,0v0.1
						C44.9,48.5,44.8,48.4,44.8,48.6z"/>
					<path fill="#F9E489" d="M44.9,51.8L44.9,51.8L44.9,51.8L44.9,51.8C44.8,51.9,44.8,51.9,44.9,51.8z"/>
					<path fill="#F9E489" d="M44.6,48.6c-0.1-0.1-0.1-0.1-0.1-0.2h0.2c0,0,0,0,0,0.1C44.7,48.5,44.6,48.5,44.6,48.6z"/>
					<path fill="#F9E489" d="M43.3,48.7l0.1,0.2c-0.1-0.1-0.3-0.1-0.4-0.1c0,0,0,0.1,0,0.2c-0.1-0.1-0.1-0.1-0.1-0.1
						c0.2-0.1,0.3-0.1,0.6-0.2C43.4,48.7,43.4,48.7,43.3,48.7z"/>
					<path fill="#F9E489" d="M50.2,48.2c-0.2,0.1-0.5,0-0.7-0.1c-0.2,0-0.4,0-0.6,0.3c0.5,0.1,1.1,0.3,1,1c0,0.4-0.1,0.4-0.2,0.3
						c-0.1-0.1-0.3-0.2-0.4-0.2c0,0.1,0,0.1,0.1,0.1c0-0.1-0.1-0.1-0.1,0c0.1,0.1,0.2,0.3,0.3,0.5v0.2c0.2,0.5,0.2,0.7,0.1,1.2
						c0.1-0.4,0.1-0.8-0.1-0.9c-0.2-0.1-0.3-0.2-0.6-0.1c-0.2,0.1-0.4,0.2-0.6,0.4c-0.2,0.2-0.4,0.4-0.5,0.5
						c-0.3,0.5-0.4,1.4-0.4,2.3c0,0.1-0.3,0.3-0.5,0.3c-0.2,0.3-0.5,0.6-0.6,1c-0.5,0.8-1.2,0.6-1.8,1.1c-0.1,0.1-0.6-0.5-0.4-0.8
						c0.1-0.4,0.3-0.6,0.6-0.7c0.1,0.2-0.1,0.2-0.1,0.4c0.3,0,0.4,0,0.6-0.2L45,55.1c0.3-0.2,0.6-0.4,1-0.7c0.1-0.1,0.6,0.4,0.5-0.1
						c-0.6,0.1-1.3,0.2-1.7,0.4l0,0c-0.2,0.1-0.4,0.2-0.6,0.3c0-0.1,0.1-0.1,0.2-0.1c-0.4,0-0.7,0.1-0.9,0.2
						c0.1-0.5,0.5-0.8,0.9-1.1c0.4-0.2,0.9-0.4,1.2-0.8c-0.4-0.2-0.5,0.5-0.9,0.2c0.4-0.2,0.8-0.4,1.2-0.6v0.1
						c0.4,0.1,0.5-0.3,0.8-0.4h0.1h-0.1c-0.3,0.1-0.5,0.2-0.7,0.3c0-0.1,0.1-0.2,0.3-0.2c-0.2-0.1-0.3-0.1-0.4-0.1
						c-0.1,0.1-0.3,0.1-0.4,0.2c0.2-0.1,0.3-0.3,0.4-0.6c-0.3,0-0.6,0.2-0.9,0.3l0.4-0.3c0.3-0.1,0.5-0.2,0.8-0.3l0,0l0,0
						c0.1,0,0.2-0.1,0.3-0.2c0.1-0.1,0.1-0.2,0.1-0.4l0,0c0,0.1,0.1,0.1,0.1,0.1c0.3,0,0.3-0.4,0.7-0.3c0.1,0,0.2-0.1,0.2-0.2
						c0.1,0,0,0,0-0.1v-0.1l0.1-0.1l-0.1,0.1l0,0c0-0.1-0.1-0.1,0-0.2c-0.3,0.2-0.7,0.3-1,0.6c0-0.1,0-0.1,0-0.2c0,0.1,0,0.1,0,0.2
						c-0.1,0.1-0.2,0.2-0.3,0.3c0-0.1,0-0.1,0-0.2c-0.3,0.2-0.6,0.5-0.9,0.7c-0.4,0.1-0.7,0.2-1.1,0.3c0.3,0.1,0.5,0.1,0.7,0
						c-0.4,0.4-0.9,0.7-1.5,0.8c0-0.3,0-0.5-0.1-0.8c-0.1-0.1-0.3-0.1-0.2-0.2c0.1-0.6,0.5-0.4,0.2-1.2c-0.1-0.2-0.9-0.8-0.9-1.1
						c0.1-0.1,0.2-0.3,0.3-0.4c0.1,0,0.1,0,0.2,0c0,0,0,0,0-0.1c0.1-0.1,0.3-0.2,0.4-0.2h0.1c0,0,0.1,0.1,0.2,0.1c0-0.1,0-0.1,0-0.2
						c0.1,0,0.2-0.1,0.3-0.1s0.2,0.1,0.3,0.1c0,0-0.1-0.1-0.1-0.2c0.1-0.1,0.3-0.1,0.4-0.2c0.1,0,0.2,0.1,0.3,0.2
						c-0.2-0.5,0.4-0.5,0.5-0.7l0,0c0.1-0.1,0.3-0.2,0.4-0.2c0.1,0,0.1,0.1,0.2,0.1c0-0.1,0-0.1,0-0.2c0.1,0,0.3,0,0.4,0.1
						c0,0-0.1-0.2,0-0.2s0.2-0.1,0.2-0.1c0.1,0,0.2-0.1,0.3-0.1c0.3-0.1,0.7-0.1,1.1-0.1c0,0.1,0.1,0.1,0.1,0.2
						c0-0.1,0.1-0.1,0.1-0.1v0.1c0.1-0.2,0.2,0,0.4,0c0,0,0-0.1,0.1-0.1h0.1c0.3,0.3,0.4,0.2,0.6,0.1c0.2,0.1,0.5,0.2,0.7,0.3
						C50.1,47.8,50.2,48,50.2,48.2z"/>
					<path fill="#F9E489" d="M45.1,48.4c0.2,0,0.3,0,0.5,0C45.5,48.4,45.4,48.6,45.1,48.4z"/>
					<path fill="#F9E489" d="M42.2,49.6c-0.1-0.1-0.2-0.2-0.3-0.2c0.1-0.1,0.3-0.1,0.4-0.2l0.3-0.2l0,0c-0.1,0.1-0.2,0.1-0.3,0.2
						C42.2,49.2,42.1,49.3,42.2,49.6z"/>
					<path fill="#F9E489" d="M44.7,48.5C44.7,48.4,44.7,48.4,44.7,48.5L44.7,48.5C44.7,48.4,44.7,48.5,44.7,48.5z"/>
					<path fill="#F9E489" d="M43.3,52.7L43.3,52.7c0-0.1,0.1-0.1,0.1-0.2C43.4,52.6,43.3,52.7,43.3,52.7z"/>
					<path fill="#F9E489" d="M42.5,53c-0.1,0.1-0.2,0.2-0.4,0.3c-0.2,0-0.4,0.1-0.7,0C41.7,53.1,42.1,53.1,42.5,53z"/>
					<path fill="#F9E489" d="M41.6,49.7c-0.1,0-0.2-0.1-0.3-0.1c0.1,0,0.1,0,0.2-0.1C41.5,49.6,41.5,49.7,41.6,49.7z"/>
					<path fill="#F9E489" d="M43.7,52.2L43.7,52.2c0,0,0-0.1,0-0.2C43.7,52.1,43.7,52.2,43.7,52.2z"/>
					<path fill="#F9E489" d="M40.7,49.7c0.1,0,0.1,0,0.2,0c0,0,0,0.1,0,0.2C40.8,49.8,40.8,49.7,40.7,49.7z"/>
					<path fill="#F9E489" d="M40,50.2c-0.1,0-0.1,0.1-0.2,0.1c0.1-0.1,0.1-0.1,0.2-0.2V50.2z"/>
				</g>
			</g>
		</g>
	</g>
	<g opacity="0.84">
		<g>
			<g>
				<g>
					<path fill="#FFFFFF" d="M40.1,8c-0.4,0.1-1-0.1-0.8-0.5c-0.2,0.4-0.2,0.3-0.7,0.4c0.1-0.2-0.3-0.3-0.5-0.4
						c0.1,0.3,0.4,0.4,0.8,0.7c0.3-0.1,0.7,0.1,0.9,0.3c0.3,0.2,0.5,0.5,0.9,0.3C40.6,8.6,40.5,8,40.1,8z"/>
					<path fill="#FFFFFF" d="M38.6,5.5L38.6,5.5c-0.1,0.1,0.1,0.1,0.4,0.2c0.2,0,0.5,0.1,0.5,0.1C39.2,5.7,38.6,5.6,38.6,5.5z"/>
					<path fill="#D47575" d="M35.5,4.9c0.2-0.3-0.3-0.5-0.2-0.8C35.2,4.6,34.5,4,34.1,4l-0.2,0.4c0.3,0.4,1.4,0.5,2.2,0.7L35.5,4.9z
						"/>
					<path fill="#FFFFFF" d="M34.8,4.4l-0.3,0.2C34.7,4.6,35.3,4.7,34.8,4.4z"/>
					<path fill="#FFFFFF" d="M35,6c0.6,0.2-0.3-0.3,0.3-0.2C35.1,5.9,34.9,5.8,35,6z"/>
					<polygon fill="#D47575" points="32.5,4.7 34,4.7 33.4,4.4 					"/>
					<path fill="#D47575" d="M32.6,3.7c0.2,0,0.5,0.2,0.2,0.3c-0.5-0.4-0.9,0-1.3-0.3L32,3.6c0-0.4-1,0.3-0.9-0.3
						c-0.7,0.4,0.4,0.6-0.4,0.8c0.8,0,1.3,0.1,1.9,0.3c-0.2-0.2-0.2-0.2-0.5-0.3c0.5,0,1.1-0.1,1.6,0C33.4,3.7,33,4.1,32.6,3.7z"/>
					<path fill="#D47575" d="M30.2,3.5c-0.5,0-1.3,0-1.4,0.4c0.5,0.3,0.6-0.1,0.8-0.3C29.8,3.7,30.2,3.7,30,4
						C30,3.9,30.4,3.7,30.2,3.5z"/>
					<path fill="#D47575" d="M28.2,3.4l-0.3,0.5l0.2-0.1v0.3c0-0.1,0.2-0.7,0.7-0.7C28.6,3.2,28.5,3.5,28.2,3.4z"/>
					<path fill="#D47575" d="M28.3,5.6c-0.3-0.2-0.5,0-0.8,0.1c0.5-0.1,1.2-0.1,1.3-0.3v0.1c0,0,0.1-0.1,0.3-0.2
						c0.2-0.1,0.4-0.2,0.5-0.4C29,5.2,28.1,4.8,28.3,5.6z"/>
					<path fill="#D47575" d="M28.9,5.6l-0.3,0.3L28.9,5.6z"/>
					<path fill="#D47575" d="M26.7,3.7c0,0,0.2,0,0.4,0c0.2,0,0.4,0,0.4,0l-0.2-0.1C27.3,3.6,26.7,3.7,26.7,3.7z"/>
					<path fill="#D47575" d="M27.7,4.9c-0.6,0,0.3,0.3-0.2,0.3c-0.1,0.1,0.8-0.1,0.8-0.3C28.2,4.9,27.8,5.3,27.7,4.9z"/>
					<path fill="#D47575" d="M26.2,3.8l-0.6,0.4L26.2,3.8z"/>
					<path fill="#D47575" d="M24.6,3.9l-0.1,0.3c-0.7-0.1-1.3,0.5-1.9,0.2C22.8,4.6,22.5,5,23.1,5c0-0.2,0.2-0.2,0.1-0.4
						c0.2,0,0.2,0.2,0.4,0.2c0.3-0.4,1-0.3,1.2-0.6c-0.1,0.1-0.2,0-0.3,0c0.6-0.5,0.9,0.4,1-0.3C25.4,4,24.9,3.7,24.6,3.9z"/>
					<path fill="#D47575" d="M25,5.4h0.5c-0.1,0.3-0.6,0.2-0.6,0.5c0.1,0.1,0.6,0,0.4,0.2c-0.1-0.7,0.6-0.2,0.2-0.9
						c0.6-0.2,0.3,0.4,1,0.2L26.7,5C25.9,5.3,25.7,5,25,5.4z"/>
					<path fill="#D47575" d="M23.1,5.8l-0.3-0.1L23,5.9c-0.5,0.2-1,0.1-1.5,0s-1-0.3-1.2,0c-0.6,0.8-1.7,0.6-2.4,1.1
						c-0.2,0.5,0.5-0.1,0.6,0.1c0.2,0.6-0.5,0-0.5,0.5c0.2,0.4,1-0.1,1.5,0c0.3-0.2,0.2-0.3,0.2-0.6c0.1,0,0.4,0,0.6,0.1
						c0.5-0.6,1.1-0.2,1.5-0.7c0.3,0.2-0.4,0.2-0.2,0.2l0.3-0.1h-0.1C22.1,6,23.1,6,23.5,6.1c-0.3,0-0.5-0.2-0.3-0.4L23.5,6
						c0,0,0.1-0.2,0.2-0.4c0.1-0.2,0.2-0.3,0.2-0.3C23.7,5.6,23,5.2,23.1,5.8z"/>
					<path fill="#D47575" d="M24,6.2c0.8,0-0.2-0.5,0.6-0.6c0,0-0.2,0.1-0.4,0.1c-0.2,0.1-0.4,0.2-0.4,0.2L24,6.2z"/>
					<path fill="#FFFFFF" d="M20.2,6.7l-0.5-0.1C20.2,7,20.4,6.1,20.2,6.7z"/>
					<polygon fill="#FFFFFF" points="19,7.3 18.9,6.8 18.7,7.2 					"/>
					<path fill="#D47575" d="M17.6,7.5c-0.1,0.3,0.3,0.3,0.5,0.1C17.8,7.8,17.6,7.7,17.6,7.5z"/>
					<path fill="#FFFFFF" d="M15.2,7.9c0.6-0.4-0.6,0.3-0.4-0.4C14.9,7.8,14.7,8.2,15.2,7.9z"/>
					<path fill="#D47575" d="M12.8,8.4c0.1-0.2,0.3-0.2,0.4-0.2C13,8.3,12.9,8.4,12.8,8.4z"/>
					<path fill="#D47575" d="M20.9,5.2c0.1,0,0.1-0.1,0.2-0.1L20.9,5.2z"/>
					<path fill="#D47575" d="M20.7,5.2l0.1-0.1C20.8,5.2,20.8,5.2,20.7,5.2z"/>
					<path fill="#D47575" d="M15.8,6.8L15.8,6.8L15.8,6.8L15.8,6.8z"/>
					<path fill="#D47575" d="M36.8,4.6c0.1,0,0.2,0,0.3,0.1L36.8,4.6L36.8,4.6z"/>
					<path fill="#D47575" d="M37,5.4c-0.6,0.1-0.3-0.9-1.3-0.9c0.4,0,0.7,0.1,1.1,0.1C37.2,5.2,36.4,4.8,37,5.4z"/>
					<path fill="#D47575" d="M29.8,4.7C29.8,4.8,29.8,4.8,29.8,4.7C29.7,4.8,29.8,4.8,29.8,4.7z"/>
					<polygon fill="#FFFFFF" points="53.6,21.2 53.8,21.2 53.6,21.7 					"/>
					<path fill="#FFFFFF" d="M53.9,21.1l0.2-0.9c0.1,0,0.1,1.3,0.1,2.6c-0.1,1.3-0.2,2.5-0.2,2.5l-0.2-0.2c-0.1,0,0-1,0.1-2
						C54,22.1,54,21,53.9,21.1z"/>
					<path fill="#FFFFFF" d="M53.7,20.9c-0.3-0.2-0.2-0.4-0.2-0.6s0.1-0.5-0.2-0.7c0.4,0.3,0.7,0.6,0.6,1L53.7,20.9z"/>
					<path fill="none" d="M52.4,19.5c0-0.3-0.3-0.4-0.3-0.6C52.6,18.9,52.4,19.3,52.4,19.5z"/>
					<path fill="#D47575" d="M50.7,19.5L50.7,19.5C50.7,19.5,50.8,19.5,50.7,19.5L50.7,19.5z"/>
					<path fill="#D47575" d="M50.8,19.5l0.2-0.1C50.9,19.5,50.9,19.5,50.8,19.5z"/>
					<path fill="#D47575" d="M50.7,19.4c-0.1,0-0.2-0.1-0.3-0.1v0.1c-0.1-0.1-0.3-0.2-0.2-0.3c0.1,0.2,0.2,0.2,0.4,0.1l-0.1-0.4
						C51.1,18.6,50.6,19.1,50.7,19.4z"/>
					<path fill="none" d="M50,18.5l0.5,0.2C50.3,18.9,50.1,18.6,50,18.5z"/>
					<path fill="#D47575" d="M50,17.7c0.2,0,0.3,0.4,0.3,0.1c0.1,0,0.1,0.1,0.2,0.2C50.3,17.8,50.1,18.3,50,17.7z"/>
					<path fill="#D47575" d="M50.5,18C50.6,18,50.6,18,50.5,18C50.6,18.1,50.6,18,50.5,18z"/>
					<path fill="none" d="M53.1,22C53.1,21.9,53.2,21.9,53.1,22L53.1,22z"/>
					<path fill="#D47575" d="M49.8,16.8l-0.1-0.1C49.7,16.7,49.8,16.7,49.8,16.8L49.8,16.8z"/>
					<path fill="#D47575" d="M54.7,30.7c0.1-0.6,0.2-1.2-0.1-2.1c-0.4,0-0.1-0.4-0.6-0.4c0,1,0-3.7-0.3-2.9l0.2,0.3l-0.4-0.3
						c0.2-0.5,0.6-1.1,0.3-1.4c0.1-0.1-0.3,4-0.1,3.9c-0.3,0.2-0.3-1.2-0.3-2.7c0-0.7,0-1.5,0-2c0-0.6-0.1-1-0.2-1l0.3-0.1
						c-0.2-0.4-0.3-0.7-0.5-0.9c-0.2-0.3-0.3-0.5-0.5-0.8l0.3-0.2c0,0.4,0.2,0.5,0.4,1c0-0.4,0-0.6,0-0.8c0-0.2,0-0.4-0.1-0.7
						c-0.4,0.1-0.1,0.5-0.5-0.1c0.1-0.3,0.7,0.1,0.4-0.5c-0.2-0.8-0.7-0.4-1.1-1l0.1,0.5c-0.1-0.2-0.4-0.6-0.4-0.9
						c0.1,0.3,0.7,0.8,1.1,0.6c-0.2-0.2-0.4-0.9-0.6-1.1h0.3c0.1-0.4-0.4-0.3-0.4-0.8c-0.4-0.2-0.2,0.4-0.5,0.3
						c0-0.1-0.2-0.8-0.5-0.8c-0.4,0.5,0.7,0.5,0.4,1.2l-0.3-0.6c-0.7,0.1,0.6,0.8,0,0.9c-0.8,0,0-1.2-1-1c0.1,0.3,0.6,1,0.3,1.1
						c0-0.4-0.5-0.3-0.8-0.6c0,0,0-0.1,0-0.3c0-0.1-0.1-0.3-0.1-0.3c-0.3,0-0.2,0.1-0.2,0.3c-0.2-0.8-1.4-1.5-1.9-2.6
						c-0.5-0.4-0.3,0.1-0.6,0.1c0-0.5-0.7-0.7-0.9-1c-0.1-0.1-0.5,0-0.5,0.2l0.9,0.5c-0.2,0.1-0.3,0.5,0,0.7
						c0.4-0.7,0.6,1.3,1.3,0.7l-0.3,0.3l1,0.6v-0.1c-0.1,0.1,0.8,0.5,1.1,1.1c-0.2-0.1-0.8-0.9-0.7-0.2c-0.5-0.2-0.7-1-1.5-1.5
						l-0.1,0.3c-0.4-0.2-0.8-0.6-1.2-1c-0.2-0.2-0.4-0.5-0.6-0.7c-0.2-0.2-0.4-0.5-0.6-0.6l0.5-0.1c-0.2-0.3-0.3-0.8-0.7-0.8
						c0.3,0.3,0,0.3-0.1,0.3c-0.3-0.1-0.5-0.3-0.8-0.6c-0.1-0.1-0.3-0.2-0.4-0.4c-0.2-0.1-0.4-0.3-0.5-0.4c0,0,0.1,0,0.1-0.1
						L42,10.9c-0.3-0.3-0.3-0.6-0.3-0.9c-0.2-0.1-0.5-0.3-0.5,0c0.1,0.1,0.1,0.1,0.2,0.2c-0.6,0-0.2-0.3-0.7-0.3
						c0.5-0.1,0.2-0.4,0.4-0.7c-0.5-0.2-0.4,0.5-0.5,0.5c-0.4-0.5-0.3-0.8-0.9-1.2C39.6,8.6,40,8.8,40,9c-0.1-0.1-0.3-0.2-0.4-0.2
						l0.3,0.3C39.4,8.6,38.8,8.2,38,8v0.1l-0.5-0.2l0.3-0.3c-0.3,0-0.5-0.4-0.7-0.2l0.1,0.1h-0.4l0.5-0.2c-0.4-0.3-1.2,0.3-1.9,0
						c0-0.5,1.3,0.2,1.5-0.4c-0.2-0.2-0.6-0.4-0.8-0.3c0,0.2,0.1,0.2,0.3,0.3c-0.7,0.1-1.5-0.6-2-0.2L34.8,7c-0.5-0.1-0.8-0.8-1-0.5
						l0.6-0.6c-0.6,0.2-1.3,0-1.9,0.2c-0.1,0.4,0.7,0.1,0.7,0.2l-0.3,0.2c-0.8-0.3-0.2-0.3-1.1-0.6v0.3c-0.3-0.4-1.2,0.3-0.9-0.4
						L31.2,6V5.7c0,0-0.3,0-0.6,0.1C30.3,5.9,30,6,30,6c0.1-0.2-0.4-0.2-0.3-0.5l-0.4,0.3c-0.2-0.4,0.8-0.5,0.8-0.9
						c0-0.2-0.2-0.2-0.3-0.1c0.5-0.3,0.8,0.4,1.3,0.5L31.4,5v0.4c0.2-0.1,0.4-0.3,0.5-0.4c0.5,0.6,1.1,0,1.9,0.3
						c-0.7,0.1,0.3,0.4,0.2,0.5c0.3,0.1,1.4-0.4,1.6,0.2c0.2,0.2-0.5,0.2,0,0.4c0.3,0,0.6-0.1,0.4-0.3c0.7,0.1,1.5,0.4,2.3,0.7
						l-0.3,0c0.4,0.4,0.9,0.2,1.3,0.1c0,0.1,0.1,0.1,0,0.2c0.4,0.7,1-0.2,1.8,0.5C41.2,7.3,40.8,7,40.5,7l0.3-0.3
						c-0.8-0.4-1.9-0.8-2.7-0.8l0.4-0.2c-0.4-0.7-0.6,0.3-1-0.5c-0.5,0,0.2,0.3-0.1,0.4c-0.3-0.2,0.3-0.7-0.2-0.8
						c2.1,0.4,4.3,1.4,6.1,2.8c0.1,0,0-0.1-0.1-0.2c0.5,0,1.6,1.2,2.8,2.4c0.6,0.6,1.1,1.2,1.6,1.6c0.4,0.4,0.8,0.6,1,0.5
						c0,0.2-0.4,0.1-0.1,0.4c0.1,0,0.2,0,0.3-0.2c0.4,1.2,2,1.9,2.6,3.3c0.1-0.1,0.4,0,0.5,0c0,0.6,0.8,1.1,0.9,1.6l0.1-0.2
						c0,0,0.8,1.3,0.7,1.3c0.1,0,0-0.2,0-0.3c0.2,0.3,0.1,0.4-0.1,0.5c0,0,0.2,0.1,0.3,0.2c0.2,0.1,0.3,0.3,0.3,0.3
						c0,0.6,0.1,1.1,0.2,1.7c0.1,0.6,0.1,1.1,0.2,1.7c0.2,1.2,0.2,2.3-0.1,3.3c0.3,0.4,0.5,0.6,0.5,1.1l0.1-0.2
						c0.3,0.5-0.2,0-0.1,0.5c0.2,0.3,0.5,0.1,0.4-0.3c0.1-0.2,0.3-0.1,0.3,0.1C55.4,28.1,55.3,29.4,54.7,30.7z"/>
					<path fill="#D47575" d="M7.6,11.9c0.3,0-0.4,0.7,0.2,0.6c0.7-0.3,1.5-0.9,2.2-1.6c0.8-0.6,1.5-1.4,2.4-1.7
						c0.5-0.1,0.6-0.2,1-0.3c0-0.1-0.1-0.1-0.1-0.2c0.4-0.3,1-0.8,1.4-0.9c0.1-0.1,0-0.4-0.2-0.2C14.9,7,15.8,7.3,16,6.9
						c-0.4,0,0.2-0.4-0.3-0.3c0.6-0.4,1.1,0.4,1.7,0.2c0-0.1,0-0.2-0.1-0.1c0.8,0,1.6-1.2,2-0.6l0.1-0.4c0.4,0.1,0.4,0.3,0.8,0.1
						c0.2-0.2-0.1-0.2-0.1-0.4c0.2,0.2,0.9-0.2,1.4,0c0.2,0.4-0.8-0.3-1,0.2c0,0.1,0.1,0.1,0.2,0.1c-0.9,0.4-1.8,0.4-2.7,0.6
						c-0.4,0.1-0.8,0.2-1.2,0.3c-0.4,0.2-0.7,0.4-1,0.7c-0.5-0.1-0.5,0.3-0.5,0.7c0.3,0,1.2-0.2,0.9-0.8l0.6,0.1
						c0.1-0.1,0.5,0.4,0.6,0.4c-0.3,0.1-0.3,0.8,0.2,0.8c-0.7,0.5-0.4-1.3-1-0.7l0.1,0.4c0-0.3-0.7-0.1-0.8,0.2H16
						c-1.9,1-4,3-5.6,4.8c-1.2-0.4-0.9,1.5-2,1.3c-0.1,0.3,0.5,0,0.3,0.5c-0.1,0.2-0.4,0-0.4,0c0,0.1-0.1,0.1-0.1,0.2
						C7.3,14.5,6.9,13.6,7.6,11.9z"/>
				</g>
			</g>
		</g>
	</g>
	<g id="_x3C_Контур_x3E_2" opacity="0.43">
		<g>
			<g>
				<path fill="#FFFFFF" d="M38,9c-0.5,0.4-1,0.4-0.6-0.5c-0.4,0.9-0.4,0.9-1,1.4c0.3-0.6-0.1-0.5-0.3-0.6c0,0.5,0.2,0.6,0.5,1
					c0.5-0.5,0.7-0.3,0.9,0s0.3,0.5,0.9-0.1C38.3,9.8,38.5,8.8,38,9z"/>
				<path fill="#FFFFFF" d="M37.7,4.2l-0.2,0.3c0,0,0.3-0.1,0.6-0.1s0.6-0.1,0.6-0.1C38.3,4.6,37.6,4.6,37.7,4.2z"/>
				<path fill="#D47575" d="M34.4,4.3c0.3-0.7-0.1-1.2,0-1.8c-0.3,1.4-0.8,0.1-1.3,0.2l-0.4,1c0.2,0.8,1.3,0.7,2.1,1L34.4,4.3z"/>
				<path fill="#FFFFFF" d="M33.9,3.3l-0.4,0.6C33.7,3.8,34.3,3.8,33.9,3.3z"/>
				<path fill="#FFFFFF" d="M33.5,7.1c0.6,0.2-0.2-0.5,0.4-0.6C33.7,6.7,33.4,6.6,33.5,7.1z"/>
				<path fill="#D47575" d="M31.4,4.5l1.4-0.3l-0.5-0.6c0,0-0.2,0.2-0.5,0.4C31.6,4.3,31.4,4.5,31.4,4.5z"/>
				<path fill="#D47575" d="M31.6,2.2c0.2,0,0.4,0.5,0.1,0.8c-0.4-0.9-0.9,0.2-1.3-0.5l0.5-0.3C31,1.3,29.9,3,30,1.5
					c-0.7,1,0.4,1.4-0.4,2.1c0.8-0.2,1.3,0.1,1.9,0.5c-0.1-0.3-0.2-0.3-0.4-0.6c0.4,0,1.1-0.4,1.7-0.4C32.5,2,32,2.9,31.6,2.2z"/>
				<path fill="#D47575" d="M29.2,1.9c-0.5-0.1-1.3-0.1-1.4,1.1c0.5,0.8,0.6-0.2,0.8-0.6c0.2,0.2,0.7,0.3,0.4,0.9
					C29,2.9,29.4,2.3,29.2,1.9z"/>
				<path fill="#D47575" d="M27.2,1.7l-0.3,1l0.2-0.2l0.1,0.7c0-0.2,0.1-1.5,0.6-1.5C27.5,1.3,27.5,2,27.2,1.7z"/>
				<path fill="#D47575" d="M27.4,6.7c-0.3-0.5-0.5-0.2-0.7,0.1c0.4-0.1,1.1-0.1,1.2-0.5v0.2c0,0,0.1-0.1,0.2-0.3
					c0.1-0.2,0.3-0.5,0.5-0.9C28.1,5.9,27.2,4.9,27.4,6.7z"/>
				<path fill="#D47575" d="M28,6.8l-0.3,0.6L28,6.8z"/>
				<path fill="#D47575" d="M25.6,2.2c0,0,0.2,0,0.4,0.1c0.2,0.1,0.4,0.1,0.4,0.1l-0.2-0.3C26.2,2.1,25.6,2.2,25.6,2.2z"/>
				<path fill="#D47575" d="M26.8,5c-0.6-0.1,0.4,0.8-0.1,0.8c-0.1,0.1,0.7,0,0.7-0.5C27.3,5.1,27,5.9,26.8,5z"/>
				<path fill="#D47575" d="M25.1,2.2L24.6,3L25.1,2.2z"/>
				<path fill="#D47575" d="M23.4,2.1v0.5c-0.7-0.2-1.3,0.7-2.1-0.1C21.6,3,21.5,3.7,22,3.7c0-0.3,0.2-0.4,0-0.7
					c0.3,0,0.3,0.5,0.5,0.6c0.2-0.6,0.9-0.4,1.1-0.9c-0.1,0.1-0.2,0-0.3,0c0.5-1,1,1,1-0.5C24.3,2.6,23.7,1.8,23.4,2.1z"/>
				<path fill="#D47575" d="M24.3,5.4l0.5,0.1c0,0.7-0.6,0.1-0.5,0.7c0.1,0.4,0.6,0.5,0.5,0.8c-0.3-1.5,0.6-0.2,0-1.9
					c0.6-0.3,0.4,0.9,1,0.8V5C25.2,5.6,24.9,4.9,24.3,5.4z"/>
				<path fill="#D47575" d="M22.4,5.6L22,5.2l0.4,0.6c-1,0.3-2.7-1.9-3.2-1.2c-0.2,0.6-0.7,0.7-1.1,0.7c-0.5,0-1,0.1-1.3,0.3
					c-0.1,0.7,0.5,0,0.7,0.3c0.4,0.9-0.6-0.2-0.4,0.6c0.3,0.6,1.2,0.2,1.7,0.4c0.3-0.2,0.1-0.4,0-0.8c0.3,0.3,0.6,0.3,0.9,0.7
					c0.2-0.4,0.5-0.4,0.8-0.3c0.3,0,0.6,0.1,0.8-0.3c0.4,0.5-0.4,0.3-0.2,0.3l0.3-0.1l-0.1-0.1c0.2-0.8,1.3-0.4,1.7-0.1
					c-0.3-0.2-0.6-0.6-0.4-0.9L23,5.9c0,0,0.1-0.3,0.1-0.6c0.1-0.3,0.2-0.6,0.2-0.6C23,5.5,22,4.3,22.4,5.6z"/>
				<path fill="#D47575" d="M23.4,6.8C24.2,7,23,5.7,23.9,5.9c0,0-0.2,0.1-0.4,0.1c-0.2,0.1-0.4,0.1-0.4,0.1L23.4,6.8z"/>
				<path fill="#FFFFFF" d="M19.4,6.1l-0.5-0.3C19.5,6.6,19.5,5.2,19.4,6.1z"/>
				<polygon fill="#FFFFFF" points="18.2,6.7 18,5.9 17.9,6.5 				"/>
				<path fill="#D47575" d="M16.6,6.5C16.5,7,17,7.1,17.2,6.8C16.9,6.9,16.6,6.7,16.6,6.5z"/>
				<path fill="#FFFFFF" d="M14,6.6c0.5-0.5-0.6,0.3-0.5-0.5C13.6,6.4,13.5,6.9,14,6.6z"/>
				<path fill="#D47575" d="M11.6,7.1c0.1-0.3,0.2-0.3,0.3-0.2C11.8,7,11.6,7.1,11.6,7.1z"/>
				<path fill="#D47575" d="M19.7,3.7c0.1,0,0.1-0.1,0.2-0.1L19.7,3.7z"/>
				<path fill="#D47575" d="M19.5,3.7l0.2-0.1C19.6,3.7,19.6,3.7,19.5,3.7z"/>
				<path fill="#D47575" d="M14.3,5.1L14.3,5.1C14.3,5.1,14.4,5.1,14.3,5.1L14.3,5.1z"/>
				<path fill="#D47575" d="M36,3.1c0.1,0,0.2,0,0.3,0H36L36,3.1z"/>
				<path fill="#D47575" d="M35.8,4.7c-0.7,0.6,0-1.9-1.1-1.6C35.1,3,35.5,3,35.9,3C36.1,4.4,35.4,3.6,35.8,4.7z"/>
				<path fill="#D47575" d="M28.8,4.9L28.8,4.9C28.7,5,28.8,4.9,28.8,4.9z"/>
				<polygon fill="#FFFFFF" points="52.7,20.2 52.9,20.2 52.7,20.7 				"/>
				<path fill="#FFFFFF" d="M53,20.1c0,0,0.4-0.9,0.3-0.9c0.1,0,0,1.3-0.1,2.6c-0.1,1.3-0.4,2.5-0.4,2.5l-0.1-0.2
					c-0.1,0,0.1-1,0.2-2C53.1,21.1,53.2,20,53,20.1z"/>
				<path fill="#FFFFFF" d="M52.8,19.9c-0.4-0.2-0.3-0.4-0.3-0.6c0.1-0.2,0.2-0.5-0.2-0.7c0.5,0.3,0.9,0.6,0.8,1L52.8,19.9z"/>
				<path fill="none" d="M51,18.7c0.1-0.3-0.4-0.4-0.3-0.5C51.3,18,51,18.5,51,18.7z"/>
				<path fill="#D47575" d="M48.4,19.1C48.3,19.1,48.3,19.1,48.4,19.1L48.4,19.1L48.4,19.1z"/>
				<path fill="#D47575" d="M48.5,19l0.3-0.1C48.7,19,48.6,19,48.5,19z"/>
				<path fill="#D47575" d="M48.3,19c-0.1,0-0.3,0-0.4,0v0.1c-0.1,0-0.5,0-0.4-0.1c0.1,0.1,0.3,0,0.7-0.1L48,18.7
					C49,18.2,48.2,18.8,48.3,19z"/>
				<path fill="none" d="M47.4,18.5c0,0,0.2,0,0.4,0s0.4,0,0.4,0C47.7,18.7,47.5,18.6,47.4,18.5z"/>
				<path fill="#D47575" d="M47.6,17.7c0.2,0,0.4,0.2,0.5-0.1c0.1,0,0.2,0,0.2,0.1C48,17.7,47.6,18.2,47.6,17.7z"/>
				<path fill="#D47575" d="M48.3,17.8c0,0,0.1,0,0.1,0.1C48.4,17.8,48.4,17.8,48.3,17.8z"/>
				<path fill="none" d="M52.1,21c0.1-0.1,0.1-0.1,0.2,0H52.1z"/>
				<path fill="#D47575" d="M47.6,16.8l-0.1-0.1C47.5,16.7,47.5,16.7,47.6,16.8L47.6,16.8z"/>
				<path fill="#D47575" d="M52.1,29.9c0.2-0.7,0.4-1.3,0.6-2.2c-0.2,0,0-0.4-0.2-0.4c0,0.2,0,0.1,0-0.1c0.1-0.3,0.1-0.8,0.2-1.2
					c0.1-0.9,0.1-1.9,0-1.5l0.1,0.3l-0.4-0.3c0.1-0.5,0.6-1.1,0.4-1.4c0.2-0.1-0.6,4-0.5,3.9c-0.2,0.2-0.1-1.2,0-2.6
					c0-0.7,0.1-1.5,0.1-2c0-0.6-0.1-1-0.2-1l0.4-0.1c-0.2-0.4-0.4-0.7-0.7-0.9c-0.2-0.3-0.5-0.5-0.7-0.7l0.5-0.2
					c-0.1,0.4,0.3,0.5,0.5,0.9c0-0.4,0-0.6,0-0.8c0-0.2,0-0.4-0.1-0.7c-0.7,0.2-0.2,0.5-0.8,0c0.2-0.3,1.1,0,0.7-0.6
					c-0.1-0.9-1.1-0.3-1.4-0.8c0,0,0,0.1,0,0.3c0,0.1,0,0.2,0,0.2c-0.1-0.2-0.5-0.5-0.3-0.9c0.1,0.2,0.8,0.6,1.5,0.3
					c-0.3-0.2-0.4-0.9-0.5-1.2l0.6-0.1c0.3-0.5-0.5-0.3-0.3-0.9c-0.5-0.1-0.5,0.7-0.8,0.6c0.1-0.2,0-0.9-0.5-0.9
					c-0.4,0.5-0.2,0.5,0,0.7c0.2,0.1,0.4,0.3,0.1,0.8l-0.4-1c-1.2,0.4,0.6,0.8-0.3,1.1c-0.6,0.2-0.5-0.2-0.5-0.5
					c0.1-0.3,0.1-0.6-0.7-0.3c0,0.4,0.5,1,0.1,1.2c0.2-0.5-0.6-0.1-1.1-0.3c0,0,0-0.2,0.1-0.3c0-0.2,0-0.4,0-0.4
					c-0.5,0.1-0.3,0.2-0.4,0.5c0.1-1-1.6-1.2-1.7-2.6c-0.7-0.3-0.5,0.4-1.1,0.5c0.3-0.8-0.7-0.7-1-1c0-0.1-0.8,0.3-1,0.7
					c0,0,0.3,0.1,0.6,0.1c0.3,0.1,0.6,0.1,0.6,0.1c-0.4,0.3-0.8,0.9-0.4,1c1-1.3,0.4,1.5,1.7,0.2L44.3,16l1.3,0.3l0.1-0.1
					c-0.2,0.2,1.1,0.2,1.3,0.8c-0.3,0-0.8-0.7-1,0.2c-0.7,0.1-0.7-0.9-1.7-1.1L44,16.7c-0.6,0-1-0.3-1.4-0.7
					c-0.2-0.2-0.4-0.5-0.6-0.7c-0.1-0.1-0.2-0.2-0.3-0.3s-0.2-0.1-0.3-0.2l0.8-0.4c0-0.4,0.1-1.1-0.6-0.7c0.3,0.2-0.1,0.4-0.4,0.6
					c-0.3,0-0.6-0.1-0.8-0.3c-0.1-0.1-0.2-0.2-0.3-0.3c-0.2-0.1-0.4-0.2-0.6-0.3c0,0,0.1-0.1,0.2-0.2L38.5,13
					c-0.3-0.4-0.1-0.8,0.1-1.4c-0.2,0-0.5-0.2-0.7,0.2c0,0.1,0.1,0.2,0.2,0.2c-1,0.5-0.1-0.4-0.7,0c0.6-0.6,0.6-0.9,1.1-1.6
					c-0.5,0.1-0.8,1.2-1.1,1.5c0-0.3,0-0.6,0.1-0.8c0-0.3,0-0.5-0.2-0.7c-0.2,0.4,0.2,0.5-0.1,1c0-0.2-0.2-0.2-0.3,0v0.5
					c-0.1-0.7-0.6-1.1-1.3-1v0.3L35.2,11l0.5-0.8c-0.3,0.2-0.3-0.7-0.6-0.1L35,10l-0.4,0.2l0.6-0.8c-0.2-0.5-1.4,1.2-1.9,0.9
					c0.2-1.3,1.1-0.1,1.7-1.7c-0.1-0.3-0.4-0.7-0.7-0.3c-0.1,0.4,0,0.5,0.2,0.5c-0.8,0.7-1.3-0.9-2,0.4l0.3,0.6
					c-0.5,0-0.4-1.7-0.8-0.9l0.7-1.5C32,8,31.4,7.8,30.9,8.3c-0.1,0.9,0.6,0.1,0.6,0.3l-0.3,0.6c-0.6-0.7-0.1-0.6-0.9-1.3l-0.1,0.6
					c-0.2-1-1.1,0.7-0.7-0.9L29.7,8V7.2c0,0-0.3,0.1-0.5,0.2c0,0.2-0.2,0.4-0.2,0.4c0.1-0.5-0.4-0.4-0.3-1.1l-0.4,0.6
					c-0.2-1.1,0.7-1.2,0.8-2c0-0.5-0.2-0.4-0.3-0.4C29.3,4.1,29.5,6,30,6l0.3-0.6l-0.1,0.9c0.2-0.2,0.4-0.8,0.6-1.1
					c0.3,1.3,1-0.1,1.8,0.3c-0.7,0.4,0.2,1,0.1,1.2c0.3,0.1,1.5-1.4,1.5-0.1c0.1,0.5-0.6,0.6-0.2,0.9c0.3,0,0.7-0.5,0.6-1
					c0.7-0.1,1.5,0.4,2.2,0.6l-0.4,0.5c0.2,0.7,0.9,0,1.5-0.5c0,0.3,0.1,0.1-0.2,0.4c0,0.6,0.3,0.4,0.7,0.1s0.9-0.6,1.3-0.3
					c0.4-0.8,0-1.1-0.4-0.9l0.5-0.9C39,5,37.9,4.8,37,5.1l0.6-0.6c-0.2-1.5-0.9,1.1-1-0.6C36,4.3,36.7,4.7,36.2,5
					c-0.2-0.4,0.6-1.7,0.1-1.9c2.2,0.1,4.5,1.2,6.5,2.6C43,5.6,43,5.5,42.9,5.4c0.4-0.1,0.8,0.2,1.2,0.7C44.6,6.5,45,7.2,45.5,8
					c0.5,0.7,1,1.4,1.5,1.8c0.4,0.4,0.9,0.5,1.3,0.1c-0.2,0.3-0.7,0.3-0.3,0.6c0.1-0.1,0.4-0.2,0.5-0.5c-0.1,0.9,0.4,1.4,1,1.9
					c0.5,0.5,1.1,1,1.3,1.9c0.3-0.3,0.6-0.1,0.8-0.2c-0.3,0.9,0.8,1.2,0.7,1.9l0.2-0.3l0.7,1.5c0.1,0,0.1-0.2,0.1-0.4
					c0.3,0.3,0,0.5-0.3,0.7l0.9,0.4c-0.1,0.7-0.1,1.3-0.1,1.9s0,1.1,0.1,1.7c0.1,1.2-0.1,2.3-0.5,3.3c0.2,0.4,0.3,0.6,0.2,1.1
					l0.2-0.2c0.1,0.5-0.1,0-0.2,0.5c0.1,0.3,0.4,0.1,0.4-0.3c0.2-0.2,0.2-0.1,0.2,0.1C53.3,27,52.5,28.4,52.1,29.9z"/>
				<path fill="#D47575" d="M7.9,12.2C8,12,7.7,13,7.9,12.6c0.3-0.7,0.9-1.5,1.4-2.4c0.6-0.8,1.1-1.8,1.9-2.2c0.5-0.1,0.6-0.2,1-0.4
					c0-0.1-0.1-0.1-0.2-0.2c0.3-0.3,0.8-1,1.3-1.1c0-0.2-0.1-0.6-0.2-0.3c0.3-0.8,1.4-0.2,1.5-0.8c-0.4,0,0.1-0.6-0.4-0.5
					c0.6-0.6,1.3,0.8,1.9,0.6c0-0.1-0.1-0.3-0.2-0.2c0.9,0.3,1.5-1.5,2.1-0.4V4.1c0.4,0.2,0.5,0.5,1,0.5c0.2-0.3-0.2-0.4-0.2-0.7
					c0.3,0.4,1-0.1,1.6,0.4c0.3,0.8-1-0.8-1.1,0.1c0.1,0.2,0.1,0.2,0.2,0.2c-0.9,0.3-2,0.1-2.9,0.2c-0.5,0-0.9,0.1-1.3,0.2
					c-0.4,0.2-0.7,0.4-1,0.8C14,5.6,14,6.2,14.1,6.6c0.3,0,1.3-0.1,0.8-0.9c0,0,0.2,0.1,0.4,0.1c0.2,0.1,0.4,0.1,0.4,0.1
					c0.1-0.2,0.6,0.7,0.8,0.8c-0.3,0.1-0.2,1.1,0.4,1.2c-0.7,0.5-0.8-1.9-1.4-1.2l0.3,0.6c-0.1-0.4-0.8-0.2-0.9,0.1h0.2
					c-1.9,1-3.9,3.2-5.6,4.8c-0.4,0-0.6,0.4-0.9,0.7c-0.2,0.4-0.5,0.7-0.8,0.8c-0.2,0.2,0.3-0.2,0,0.1C7.6,14,7.6,14,7.6,14
					l-0.1,0.2C7.2,14.4,7.6,14.1,7.9,12.2z"/>
			</g>
		</g>
	</g>
	<g opacity="0.84">
		<g>
			<g>
				<path fill="#FFFFFF" d="M11.1,48.6c0.5,0.2,1.1,0.9,0.7,1.2c0.4-0.3,0.4-0.3,1.1-0.1c-0.3,0.2,0.2,0.6,0.4,0.8
					c-0.1-0.3-0.3-0.7-0.7-1.3c-1-0.1-1-2-2-2.3C10.8,47.5,10.6,48.1,11.1,48.6z"/>
				<path fill="#FFFFFF" d="M11.8,52.8l0.2-0.1c0,0-0.3-0.2-0.7-0.4c-0.2-0.1-0.3-0.2-0.4-0.3c-0.1-0.1-0.2-0.1-0.2-0.1
					C11.1,52,12,52.6,11.8,52.8z"/>
				<path fill="#D47575" d="M16.1,55c-0.3,0.3,0.3,0.8,0.2,1.1c0.3-0.7,1.2,0.4,1.9,0.4l0.4-0.5c-0.2-0.3-0.8-0.5-1.3-0.8
					c-0.3-0.1-0.6-0.2-0.9-0.4l-0.5-0.2c-0.1-0.1-0.3-0.2-0.4-0.3c0,0,0.2,0.1,0.3,0.3C16,54.9,16.1,55,16.1,55z"/>
				<path fill="#FFFFFF" d="M17.1,55.9l0.5-0.2C17.3,55.6,16.5,55.4,17.1,55.9z"/>
				<path fill="#FFFFFF" d="M17.1,53.6c-0.9-0.4,0.4,0.4-0.5,0.2C16.9,53.8,17.3,54,17.1,53.6z"/>
				<path fill="#D47575" d="M20.7,56.1c0,0-0.6,0-1.1-0.2c-0.6-0.1-1.1-0.2-1.1-0.2l0.8,0.5c0,0,0.4,0,0.7-0.1
					C20.4,56.1,20.7,56.1,20.7,56.1z"/>
				<path fill="#D47575" d="M20.5,57.3c-0.3-0.1-0.7-0.4-0.2-0.5c0.7,0.7,1.3,0.2,2,0.7c0,0-0.2,0-0.4,0c-0.2,0-0.4,0-0.4,0
					c0,0.5,1.6-0.2,1.4,0.7c1.1-0.4-0.6-0.9,0.7-1.1c-0.6,0-1.1-0.1-1.6-0.3s-0.9-0.4-1.4-0.6c0.2,0.2,0.4,0.2,0.7,0.5
					c-0.7-0.1-1.7-0.1-2.5-0.3C19.2,57.2,19.9,56.9,20.5,57.3z"/>
				<path fill="#D47575" d="M24.1,58.2c0.8,0.1,2,0.3,2.2-0.4c-0.8-0.6-1,0-1.4,0.2c-0.2-0.1-1-0.3-0.6-0.6
					C24.5,57.6,23.8,57.9,24.1,58.2z"/>
				<path fill="#D47575" d="M27.2,58.6l0.6-0.6l-0.4,0.1v-0.4c-0.1,0.1-0.4,0.9-1.2,0.8C26.6,58.8,26.7,58.5,27.2,58.6z"/>
				<path fill="#D47575" d="M27.5,55.7c0.5,0.3,0.8,0.2,1.3,0c-0.8,0-1.9-0.1-2.2,0.2l0.1-0.1c0,0-0.2,0.1-0.5,0.2
					c-0.3,0.1-0.6,0.2-0.9,0.4C26.3,56.1,27.7,56.8,27.5,55.7z"/>
				<path fill="#D47575" d="M26.5,55.6l0.6-0.3L26.5,55.6z"/>
				<path fill="#D47575" d="M29.6,58.6c0,0-0.3,0-0.6-0.1c-0.3,0-0.6-0.1-0.6-0.1l0.3,0.2L29.6,58.6z"/>
				<path fill="#D47575" d="M28.2,56.7c0.9,0.1-0.5-0.5,0.4-0.4c0.2-0.1-1.2-0.1-1.3,0.2C27.5,56.6,28.1,56.2,28.2,56.7z"/>
				<path fill="#D47575" d="M30.4,58.6c0,0,0.2-0.1,0.5-0.2c0.2-0.1,0.5-0.2,0.5-0.2s-0.2,0.1-0.5,0.2S30.4,58.6,30.4,58.6z"/>
				<path fill="#D47575" d="M32.8,58.8l0.2-0.3c1,0.2,2.2-0.4,3,0.2c-0.2-0.4,0.3-0.9-0.6-0.9C35.3,58,35,58,35.1,58.3
					c-0.4,0-0.3-0.3-0.6-0.4c-0.3,0.2-0.7,0.3-1,0.3c-0.4,0-0.7,0.1-1,0.2c0.2-0.1,0.3,0,0.5,0c-1,0.6-1.3-0.7-1.7,0.2
					C31.7,58.4,32.4,59,32.8,58.8z"/>
				<path fill="#D47575" d="M32.6,56.6l-0.8-0.1c0.2-0.4,1-0.1,1.1-0.5c-0.1-0.2-0.9-0.3-0.6-0.5c0,1-1.1,0.1-0.6,1.2
					c-1,0.2-0.3-0.6-1.4-0.5L30,56.8C31.2,56.5,31.4,57,32.6,56.6z"/>
				<path fill="#D47575" d="M35.7,56.4l0.4,0.2l-0.3-0.4c0.8-0.2,1.6,0.1,2.4,0.4c0.7,0.2,1.4,0.4,1.9,0.1c0.5-0.6,1.2-0.8,1.8-1
					c0.7-0.2,1.4-0.4,1.9-0.9c0.3-0.7-0.7,0.2-0.9,0c-0.3-0.7,0.8,0,0.7-0.8c-0.3-0.5-1.5,0.4-2.2,0.3c-0.4,0.3-0.3,0.5-0.3,0.8
					c-0.3-0.2-0.8-0.1-1-0.3c-0.2,0.2-0.4,0.3-0.6,0.4c-0.2,0.1-0.4,0.1-0.6,0.1c-0.4,0-0.8,0.1-1.2,0.4c-0.4-0.3,0.7-0.3,0.4-0.3
					l-0.5,0.2l0.1,0.1c-0.7,0.6-2.1,0.5-2.7,0.2c0.4,0.1,0.7,0.4,0.3,0.6L34.8,56L34,57.1C34.7,56.5,35.7,57.4,35.7,56.4z"/>
				<path fill="#D47575" d="M34.5,55.7c-1.2-0.1,0.2,0.7-1.1,0.7l1.3-0.2L34.5,55.7z"/>
				<path fill="#FFFFFF" d="M40.2,55.6l0.7,0.1C40.3,55.1,39.8,56.4,40.2,55.6z"/>
				<path fill="#FFFFFF" d="M42.1,54.6l0.1,0.7c0,0,0.1-0.1,0.2-0.3c0.1-0.2,0.1-0.3,0.1-0.3L42.1,54.6z"/>
				<path fill="#D47575" d="M44.1,54c0.2-0.5-0.4-0.4-0.8,0C43.7,53.7,44.1,53.8,44.1,54z"/>
				<path fill="#FFFFFF" d="M47.5,52.8c-0.8,0.7,0.8-0.5,0.6,0.4C48,52.9,48.2,52.3,47.5,52.8z"/>
				<path fill="#D47575" d="M50.9,51.7c-0.3,0.4-0.4,0.3-0.5,0.3c0.1-0.1,0.2-0.1,0.3-0.2C50.8,51.8,50.9,51.7,50.9,51.7z"/>
				<path fill="#D47575" d="M38.9,57.6c-0.1,0-0.2,0.1-0.4,0.1C38.7,57.7,38.8,57.7,38.9,57.6z"/>
				<path fill="#D47575" d="M39.2,57.6L39,57.7C39,57.6,39.1,57.6,39.2,57.6z"/>
				<path fill="#D47575" d="M46.8,54.5L46.8,54.5L46.8,54.5L46.8,54.5z"/>
				<path fill="#D47575" d="M14.1,54.9c-0.2-0.1-0.3-0.1-0.5-0.2L14.1,54.9L14.1,54.9z"/>
				<path fill="#D47575" d="M14.1,53.9c0.9,0,0.3,1.3,1.7,1.7c-0.6-0.1-1.1-0.4-1.7-0.7C13.8,54,14.8,54.9,14.1,53.9z"/>
				<path fill="#D47575" d="M25,56.5L25,56.5C25.1,56.5,25,56.5,25,56.5z"/>
				<polygon fill="#FFFFFF" points="5.6,20.2 5.5,20.2 6,19.5 				"/>
				<path fill="#FFFFFF" d="M5.4,20.2l-0.7,1.1c0,0,0.7-1.8,1.6-3.6C7,16,8,14.3,8,14.3v0.3c0.1,0-0.7,1.4-1.5,2.8
					C5.9,18.8,5.2,20.3,5.4,20.2z"/>
				<path fill="#FFFFFF" d="M5.4,20.6c0.2,0.9-0.7,1.1-0.6,2.1C4.7,22,4.7,21.5,5,21L5.4,20.6z"/>
				<path fill="none" d="M5.4,23.4c-0.2,0.3-0.2,0.9-0.3,1.1C4.7,24.2,5.2,23.7,5.4,23.4z"/>
				<path fill="#D47575" d="M6.5,24.9c0,0.1,0,0.1-0.1,0.2C6.5,25,6.4,24.9,6.5,24.9L6.5,24.9z"/>
				<path fill="#D47575" d="M6.4,24.9l-0.2-0.1C6.4,24.7,6.4,24.7,6.4,24.9z"/>
				<path fill="#D47575" d="M6.5,25.1c0,0.2,0,0.4,0.1,0.5l0.1-0.1c0,0.2,0,0.6-0.1,0.7c0.1-0.4,0-0.5-0.2-0.5L6,26.2
					C5.5,25.9,6.2,25.7,6.5,25.1z"/>
				<path fill="none" d="M6.1,27.2l-0.2-0.8C6.2,26.4,6.1,27,6.1,27.2z"/>
				<path fill="#D47575" d="M5.5,28.2c-0.1-0.2,0.1-0.9-0.1-0.5c0-0.1,0-0.3,0-0.4C5.3,27.8,5.8,27.4,5.5,28.2z"/>
				<path fill="#D47575" d="M5.3,27.3c0-0.1,0-0.1,0-0.2C5.4,27.2,5.4,27.2,5.3,27.3z"/>
				<path fill="none" d="M6.6,19.2C6.5,19.3,6.5,19.2,6.6,19.2L6.6,19.2z"/>
				<path fill="#D47575" d="M4.9,29.6v0.3C4.9,29.8,4.9,29.7,4.9,29.6L4.9,29.6z"/>
				<path fill="#D47575" d="M15.4,7.8c-1.5-0.2-3.1,0.3-4.3,1.6c0.3,0.3-0.4,0.5-0.2,0.9c0.6-0.6-0.6,0.5-1.4,1.8
					c-0.9,1.3-1.6,2.7-1.2,2.2v-0.4l0.2,0.6c-0.5,0.6-1.3,1.3-1.3,1.9c-0.1,0,0.6-1.4,1.5-2.7s2-2.5,1.8-2.5c0.4,0-1,1.7-2.1,3.7
					s-2,4.2-2,4.3H6.1c-0.2,1.2-0.1,2-0.3,2.9l-0.4,0.1c0.4-0.6,0.2-0.9,0.4-1.6c-0.4,1.2-0.7,1.3-1,2.2c0.4,0.1,0.5-0.7,0.3,0.5
					c-0.3,0.3-0.5-0.7-0.7,0.4C3.9,25,4.6,24.9,4.3,26l0.4-0.7c-0.1,0.4-0.2,1.1-0.5,1.5c0.1-0.4,0.2-1.6-0.2-1.7
					c-0.1,0.5-0.5,1.5-0.5,1.9l-0.2-0.3c-0.4,0.4,0,0.7-0.4,1.3c0.1,0.6,0.5-0.3,0.6,0.1c-0.2,0.1-0.4,1.1-0.3,1.5
					c0.7-0.2-0.1-1.3,0.7-1.8c0,0-0.3,0.9-0.3,1c0.3,0.4,0.3,0,0.4-0.5c0-0.6,0-1,0.2-0.8c0.3,0.4,0,0.8-0.2,1.1
					c-0.2,0.3-0.3,0.7,0.1,1.1c0.1-0.2,0.2-0.7,0.3-1c0.1-0.4,0.2-0.7,0.3-0.5c-0.4,0.4,0.1,0.9,0.1,1.5l-0.4,0.8
					c0.2,0.4,0.2,0.1,0.4-0.2c-0.3,0.6-0.2,1.4-0.2,2.2c0,0.4,0.1,0.9,0.1,1.3c0,0.4,0,0.9,0,1.3c0.3,1,0.3,0.1,0.7,0.5
					c-0.3,0.6,0.2,1.4,0.4,1.9c0,0.2,0.5,0.3,0.7,0.1c0,0-0.2-0.3-0.4-0.6c-0.2-0.3-0.3-0.6-0.3-0.6c0.2,0,0.5-0.3,0.4-0.7
					c-0.4,0.3-0.4-0.2-0.4-0.8c0-0.5,0-1.1-0.4-1.1h0.4c0,0-0.1-0.4-0.3-0.8c-0.1-0.4-0.2-0.8-0.2-0.8l-0.1,0.1
					c0.1,0-0.4-1.4-0.1-2.4c0.1,0.3-0.1,1.8,0.3,0.9C5.8,31,5.8,31.5,5.8,32c0,0.3,0,0.6,0,0.9c0,0.3,0.1,0.6,0.2,0.9l0.2-0.3
					c0.3,0.6,0.4,1.3,0.5,2.1c0.1,0.4,0.1,0.8,0.2,1.2s0.2,0.8,0.4,1.1l-0.5-0.3c0.1,0.5-0.1,1.3,0.5,1.7c-0.3-0.6,0-0.4,0.3-0.3
					c0.6,0.7,0.9,2,1.6,3c0,0-0.1,0-0.1,0.1l0.8,1c0.3,0.6,0.1,0.9,0.1,1.4c0.2,0.2,0.4,0.7,0.6,0.4c0-0.1-0.1-0.2-0.1-0.3
					c0.8,0.4,0.1,0.5,0.8,1.1c-0.7-0.4-0.4,0.4-0.8,0.6C11,47,11,46,11.2,46c0.4,1.1,0.1,1.4,0.7,2.4c0.2-0.1-0.3-0.7-0.1-1
					c0.1,0.3,0.3,0.6,0.4,0.6L12,47.3c0.3,1.1,0.9,2,1.9,2.6v-0.2l0.5,0.5l-0.5,0.2c0.4,0.2,0.4,0.8,0.8,0.6l-0.1-0.1l0.5,0.1
					l-0.7,0.1c0.2,0.3,0.6,0.3,1.1,0.4c0.5,0,1,0,1.4,0.2c-0.1,0.7-1.6-0.5-2.2,0c0.2,0.3,0.6,0.8,0.9,0.6c0.1-0.2-0.1-0.3-0.3-0.5
					c0.5,0,1,0.3,1.4,0.6s1,0.4,1.4,0.2l-0.5-0.5c0.8,0.2,0.9,1.3,1.4,0.9c0,0-0.2,0.2-0.5,0.3c-0.2,0.1-0.5,0.3-0.5,0.3
					c0.5,0,1,0,1.5,0.1s1,0.2,1.4,0.1c0.1-0.5-1.2-0.3-1.1-0.4l0.5-0.3c1.2,0.6,0.3,0.4,1.8,1.1l0.1-0.3c0.4,0.7,1.9-0.1,1.3,0.7
					l-0.4-0.3L23,54.8h1.8c-0.2,0.3,0.7,0.3,0.4,0.7l0.7-0.3c0.3,0.6-1.3,0.6-1.5,1c0,0.3,0.3,0.3,0.5,0.3c-0.9,0.4-1.2-0.8-1.9-0.9
					l-0.5,0.3l0.1-0.5c-0.3,0-0.7,0.3-0.9,0.5c-0.6-0.9-1.7-0.3-2.9-0.8c1.1,0-0.5-0.7-0.3-0.7c-0.5-0.2-2.1,0.2-2.3-0.6
					c-0.2-0.4,0.7-0.1,0.1-0.5c-0.4-0.2-0.8-0.1-0.7,0.3c-1-0.4-2.1-1.2-2.9-2l0.4-0.1c-0.2-0.4-0.5-0.5-0.8-0.7s-0.6-0.2-0.9-0.3
					c0-0.2-0.1-0.1,0.2-0.2c-0.1-0.5-0.4-0.7-0.8-0.9c-0.4-0.2-0.9-0.4-1.3-1.2c-0.3,0.3,0,1,0.5,1.3l-0.5,0.2c0.8,1.3,2,2.4,3.1,3
					l-0.7-0.1c0.1,0.6,0.4,0.6,0.6,0.6c0.2,0,0.5,0,0.6,0.6c0.7,0.3-0.2-0.5,0.3-0.4c0.3,0.4-0.7,0.7,0,1.2c-1.5-0.8-2.9-2-4-3.4
					s-1.9-3.1-2.7-4.5c-0.1,0-0.1,0.2,0,0.3c-0.3-0.2-0.7-0.9-1.1-1.9s-0.9-2.2-1.3-3.4c-0.9-2.4-1.3-4.9-1.9-4.9
					c0.1-0.2,0.4,0.3,0.3-0.4c-0.1,0-0.2-0.2-0.4,0c0.1-1,0-2.1-0.2-3.2C2.1,32.6,2,32,2,31.5c0-0.3,0-0.6,0-0.9
					c0.1-0.3,0.1-0.6,0.2-0.8c-0.2,0-0.2-0.5-0.4-0.5c0.3-0.4,0.3-0.9,0.4-1.4s0.1-1,0.3-1.4l-0.3,0.2c0,0,0.1-0.6,0.2-1.1
					c0.2-0.6,0.3-1.1,0.3-1.1c-0.1-0.1-0.2,0.2-0.2,0.4c0.1-0.5,0.3-0.5,0.5-0.5l-0.1-1.1c0.8-1.3,1.4-2.8,1.9-4.4
					c0.6-1.6,1.3-3.3,2.3-4.6c0-0.6,0.1-1.1,0.6-1.8l-0.3,0.3c0.3-0.9,0.2,0.1,0.5-0.7c0.1-0.6-0.3-0.4-0.6,0.3
					c-0.4,0.3-0.3,0-0.2-0.3c0.9-1.2,1.8-2.3,3.1-3.2c0.6-0.4,1.3-0.8,2.1-1C13.7,7.7,14.6,7.6,15.4,7.8z"/>
				<path fill="#D47575" d="M57.9,44c-0.3,0.2,0.4-1.3-0.3-0.7c-0.4,0.5-0.8,1.1-1.2,1.7c-0.4,0.6-0.8,1.3-1.3,2
					c-0.9,1.4-2.1,2.7-3.3,3.5c-0.8,0.3-1,0.4-1.6,0.7c0,0.1,0.1,0.1,0.2,0.2c-0.5,0.4-1.3,1.2-2,1.5c-0.1,0.2,0,0.6,0.3,0.3
					c-0.6,0.9-1.8,0.7-2.2,1.3c0.6-0.2-0.2,0.6,0.4,0.3c-0.9,0.8-1.6-0.3-2.4,0.1c0,0.1,0,0.2,0.2,0.1c-0.6,0.1-1.2,0.6-1.7,1
					c-0.6,0.4-1.1,0.7-1.3,0.3l-0.2,0.5c-0.6-0.1-0.5-0.3-1.3-0.1c-0.4,0.3,0.1,0.3,0,0.5c-0.3-0.3-1.5,0.3-2.2-0.1
					c-0.2-0.5,1.2,0.5,1.6-0.2c0-0.1-0.1-0.1-0.2-0.1c1.5-0.3,2.9-0.7,4.2-1.1c1.3-0.4,2.4-1,3.3-2c0.7,0,0.7-0.6,0.7-1.1
					c-0.4,0.2-1.7,0.7-1.2,1.3L45.5,54c-0.2,0.2-0.7-0.4-0.9-0.5c0.5-0.3,0.5-1.3-0.3-1c1-1,0.7,1.6,1.6,0.7l-0.2-0.6
					c0,0.4,1-0.1,1.2-0.5h-0.2c0.7-0.5,1.4-1,2.1-1.6c0.7-0.6,1.5-1.2,2.2-1.9c1.4-1.5,2.6-3.2,3.5-4.8c0.8-0.1,1-0.8,1.2-1.4
					c0.2-0.7,0.3-1.3,0.9-1.6c0-0.4-0.6,0.4-0.4-0.4c0.1-0.4,0.3-0.3,0.4-0.3c0-0.1,0-0.2,0-0.4c0.6,0,1,0.2,1.3,0.8
					c0.1,0.3,0.3,0.8,0.3,1.3C58.1,42.6,58.1,43.3,57.9,44z"/>
			</g>
		</g>
	</g>
	<g id="_x3C_Контур_x3E_2_1_" opacity="0.43">
		<g>
			<g>
				<path fill="#FFFFFF" d="M12.7,47.6c0.7,0,1.3,0.5,0.6,1.1c0.8-0.6,0.8-0.6,1.6-0.6c-0.5,0.4-0.1,0.7,0.2,0.8
					c0.1-0.5,0-0.8-0.3-1.3c-0.7,0.2-0.9-0.3-1-0.8s-0.3-1-1.1-1C12.6,46.4,12.1,47.3,12.7,47.6z"/>
				<path fill="#FFFFFF" d="M11.7,53l0.4-0.2c0,0-0.4-0.2-0.8-0.3c-0.2-0.1-0.4-0.2-0.5-0.2c-0.1-0.1-0.2-0.1-0.2-0.1
					C11,52.2,12,52.6,11.7,53z"/>
				<path fill="#D47575" d="M16.3,54.8c-0.4,0.6,0.1,1.2-0.1,1.8c0.5-1.3,1.2,0.2,2,0.2l0.6-0.9c-0.2-0.5-0.7-0.7-1.2-1
					c-0.3-0.1-0.6-0.2-0.9-0.4l-0.5-0.2c-0.1-0.1-0.3-0.2-0.4-0.3c0,0,0.1,0.2,0.3,0.4C16.1,54.6,16.3,54.8,16.3,54.8z"/>
				<path fill="#FFFFFF" d="M17.1,56l0.6-0.5C17.3,55.5,16.5,55.3,17.1,56z"/>
				<path fill="#FFFFFF" d="M17.7,52.1c-0.8-0.4,0.3,0.6-0.6,0.5C17.5,52.6,17.8,52.6,17.7,52.1z"/>
				<path fill="#D47575" d="M20.9,55.5c0,0-0.6,0-1.1-0.1c-0.6,0-1.1-0.1-1.1-0.1l0.7,0.7c0,0,0.4-0.1,0.8-0.3
					C20.5,55.6,20.9,55.5,20.9,55.5z"/>
				<path fill="#D47575" d="M20.4,57.7c-0.3-0.1-0.6-0.6-0.1-0.8c0.6,1,1.4,0,1.9,0.8c0,0-0.2,0.1-0.4,0.1c-0.2,0-0.4,0.1-0.4,0.1
					c-0.1,0.9,1.7-0.6,1.4,0.9c1.2-0.9-0.5-1.4,0.9-2c-0.6,0-1.1-0.1-1.6-0.3s-0.9-0.5-1.3-0.7c0.2,0.4,0.3,0.4,0.7,0.7
					c-0.7-0.1-1.8,0.1-2.6-0.1C19,57.7,19.9,57,20.4,57.7z"/>
				<path fill="#D47575" d="M24,58.7c0.8,0.2,2,0.3,2.3-0.8c-0.7-0.9-1,0-1.4,0.5c-0.2-0.2-1-0.4-0.6-1C24.5,57.7,23.7,58.2,24,58.7
					z"/>
				<path fill="#D47575" d="M27.1,59.1l0.6-1l-0.4,0.2v-0.7c-0.1,0.2-0.4,1.5-1.2,1.4C26.5,59.5,26.7,58.9,27.1,59.1z"/>
				<path fill="#D47575" d="M27.6,54.2c0.4,0.5,0.7,0.3,1.3,0c-0.8,0-1.8-0.1-2.1,0.3l0.1-0.2c0,0-0.2,0.1-0.4,0.3
					c-0.3,0.2-0.6,0.4-0.9,0.8C26.4,54.8,27.7,56,27.6,54.2z"/>
				<path fill="#D47575" d="M26.6,54l0.6-0.5L26.6,54z"/>
				<path fill="#D47575" d="M29.6,58.9c0,0-0.3-0.1-0.6-0.2c-0.3-0.1-0.6-0.2-0.6-0.2l0.3,0.3L29.6,58.9z"/>
				<path fill="#D47575" d="M28.3,55.9c0.9,0.2-0.5-0.8,0.4-0.7c0.2-0.1-1.2-0.1-1.3,0.4C27.5,55.8,28.2,55.1,28.3,55.9z"/>
				<path fill="#D47575" d="M30.4,59c0,0,0.2-0.2,0.5-0.4c0.2-0.2,0.5-0.4,0.5-0.4s-0.2,0.2-0.5,0.4S30.4,59,30.4,59z"/>
				<path fill="#D47575" d="M32.9,59.3l0.2-0.5c1,0.3,2.2-0.6,3.1,0.4c-0.3-0.6,0.2-1.3-0.7-1.3c-0.1,0.3-0.4,0.4-0.3,0.7
					c-0.4-0.1-0.4-0.5-0.6-0.6c-0.3,0.3-0.7,0.4-1,0.5c-0.4,0.1-0.7,0.1-1,0.4c0.2-0.1,0.3,0,0.5,0c-1,1-1.3-1.2-1.7,0.3
					C31.7,58.7,32.4,59.6,32.9,59.3z"/>
				<path fill="#D47575" d="M32.6,55.9l-0.8-0.2c0.2-0.7,1-0.1,1-0.7c-0.1-0.4-0.8-0.6-0.6-0.8c0,1.6-1,0.1-0.5,1.9
					c-1,0.2-0.4-1-1.4-0.9L29.9,56C31.1,55.7,31.4,56.4,32.6,55.9z"/>
				<path fill="#D47575" d="M35.6,55.9l0.5,0.4l-0.3-0.6c0.8-0.2,1.7,0.4,2.4,0.8c0.8,0.4,1.5,0.8,2,0.4c0.5-0.7,1.1-0.8,1.8-1.1
					c0.7-0.2,1.4-0.4,2-0.9c0.3-0.8-0.7,0.2-1-0.1c-0.4-0.9,0.9,0,0.7-0.8c-0.3-0.6-1.6,0.2-2.3,0.1c-0.4,0.3-0.3,0.5-0.2,1
					c-0.3-0.3-0.8-0.2-1.1-0.6c-0.2,0.2-0.3,0.3-0.5,0.4c-0.2,0-0.4,0-0.6,0c-0.4,0-0.8-0.1-1.2,0.4c-0.4-0.5,0.7-0.3,0.3-0.3
					c0,0-0.5,0.2-0.5,0.1l0.1,0.1c-0.6,0.7-2.1,0.5-2.7,0c0.4,0.2,0.8,0.7,0.3,0.9l-0.5-0.7L34,56.6C34.6,55.9,35.7,57.3,35.6,55.9z
					"/>
				<path fill="#D47575" d="M34.3,54.6c-1.2-0.3,0.3,1.1-1,0.9l1.3-0.2L34.3,54.6z"/>
				<path fill="#FFFFFF" d="M40.1,55.3c0,0,0.2,0,0.4,0.1c0.2,0,0.4,0.1,0.4,0.1C40.1,54.8,39.8,56.3,40.1,55.3z"/>
				<path fill="#FFFFFF" d="M41.9,54.4l0.2,0.8c0,0,0.1-0.2,0.1-0.3c0.1-0.2,0.1-0.3,0.1-0.3L41.9,54.4z"/>
				<path fill="#D47575" d="M44.2,54c0.1-0.6-0.5-0.5-0.9-0.1C43.7,53.6,44.1,53.7,44.2,54z"/>
				<path fill="#FFFFFF" d="M47.6,52.9c-0.8,0.7,0.8-0.5,0.6,0.5C48.1,53,48.3,52.4,47.6,52.9z"/>
				<path fill="#D47575" d="M50.8,51.6c-0.2,0.4-0.4,0.4-0.5,0.3C50.5,51.8,50.7,51.7,50.8,51.6z"/>
				<path fill="#D47575" d="M39,57.9c-0.1,0-0.2,0.1-0.4,0.1C38.8,58,38.9,58,39,57.9z"/>
				<path fill="#D47575" d="M39.3,57.9H39C39.1,57.9,39.2,57.9,39.3,57.9z"/>
				<path fill="#D47575" d="M47,54.8L47,54.8L47,54.8L47,54.8z"/>
				<path fill="#D47575" d="M13.9,55.3c-0.2-0.1-0.4-0.1-0.5-0.2L13.9,55.3L13.9,55.3z"/>
				<path fill="#D47575" d="M14.3,53.6c0.6-0.1,0.5,0.4,0.5,0.9s0.1,1.2,0.9,1.2c-0.6-0.1-1.2-0.3-1.8-0.5
					C13.8,53.9,14.7,55,14.3,53.6z"/>
				<path fill="#D47575" d="M25.1,55.7L25.1,55.7C25.2,55.7,25.1,55.7,25.1,55.7z"/>
				<polygon fill="#FFFFFF" points="5.5,20.2 5.4,20.1 5.9,19.5 				"/>
				<path fill="#FFFFFF" d="M5.2,20.1l-0.9,1.1c0,0,0.8-1.8,1.7-3.5s2-3.3,2-3.3v0.3c0.1,0-0.8,1.3-1.6,2.7
					C5.7,18.8,5,20.2,5.2,20.1z"/>
				<path fill="#FFFFFF" d="M5.3,20.6c0.4,1-0.8,1-0.6,2.1C4.6,22,4.4,21.4,4.8,21L5.3,20.6z"/>
				<path fill="none" d="M5.8,23.5c-0.3,0.3-0.1,0.9-0.3,1.1C5,24.3,5.6,23.8,5.8,23.5z"/>
				<path fill="#D47575" d="M7.9,25.4c0,0.1,0,0.1,0,0.2C7.9,25.5,7.8,25.4,7.9,25.4L7.9,25.4z"/>
				<path fill="#D47575" d="M7.8,25.3l-0.3-0.1C7.7,25.1,7.8,25.2,7.8,25.3z"/>
				<path fill="#D47575" d="M7.9,25.5C8,25.7,8,25.9,8.1,26.1L8.2,26c0,0.2,0.2,0.7,0.1,0.7c0.1-0.4-0.1-0.5-0.5-0.6l-0.2,0.6
					C6.6,26.3,7.7,26.1,7.9,25.5z"/>
				<path fill="none" d="M7.9,27.7c0,0-0.1-0.2-0.3-0.4c-0.1-0.2-0.3-0.4-0.3-0.4C7.9,26.8,7.9,27.4,7.9,27.7z"/>
				<path fill="#D47575" d="M7.1,28.5c-0.2-0.2,0-0.8-0.4-0.5c-0.1-0.1-0.1-0.3-0.1-0.4C6.8,28.1,7.6,27.8,7.1,28.5z"/>
				<path fill="#D47575" d="M6.7,27.6c0-0.1,0-0.1,0-0.2C6.7,27.5,6.7,27.6,6.7,27.6z"/>
				<path fill="none" d="M6.7,19.3c-0.1,0.1-0.1,0-0.2,0H6.7z"/>
				<path fill="#D47575" d="M6.4,29.7V30C6.4,29.9,6.4,29.8,6.4,29.7L6.4,29.7z"/>
				<path fill="#D47575" d="M15.2,9.4c-1-0.3-2.2-0.1-3.6,0.8c0.1,0.1-0.5,0.4-0.4,0.6c0.6-0.5-0.6,0.4-1.6,1.6S7.9,15,8.3,14.5
					L8.4,14c0,0,0,0.1,0.1,0.3c0,0.1,0.1,0.3,0.1,0.3c-0.5,0.6-1.4,1.3-1.4,1.8c-0.1,0,0.7-1.4,1.6-2.7s2.1-2.4,2-2.4
					c0.3-0.1-1.2,1.5-2.3,3.5s-2,4.2-1.9,4.3L6.2,19c-0.1,1.2,0.1,2.1,0.1,3.1H5.8c0.4-0.6,0.1-0.9,0.2-1.6c-0.4,1.2-0.7,1.3-1,2.2
					c0.7,0.2,0.6-0.6,0.6,0.6c-0.4,0.2-0.8-0.8-1.1,0.3c-0.6,1.2,0.5,1.3,0.3,2.3l0.4-0.6c-0.1,0.4-0.1,1.1-0.5,1.4
					c0.1-0.2,0-0.6-0.1-1S4.3,25,3.9,24.9c0,0.5-0.5,1.5-0.6,1.9l-0.5-0.4c-0.6,0.4,0.1,0.8-0.5,1.3c0.2,0.6,0.9-0.2,1,0.1
					c-0.2,0.1-0.7,1.1-0.3,1.5c0.6-0.1,0.6-0.4,0.5-0.8c-0.1-0.4-0.1-0.8,0.6-1l-0.4,0.9c0.6,0.4,0.6,0,0.6-0.4s0.1-0.9,0.5-0.6
					c0.5,0.5,0.2,0.8-0.1,1.1C4.5,29,4.2,29.4,5,29.8c0.2-0.2,0.3-0.6,0.4-1c0.1-0.3,0.3-0.6,0.5-0.5c-0.5,0.4,0.3,0.9,0.5,1.5
					l-0.6,0.7c0.4,0.3,0.4,0.1,0.7-0.1c-0.4,0.5-0.3,1.3-0.2,2c0,0.4,0.1,0.8,0.1,1.2s0,0.8-0.2,1.3c0.5,0.9,0.6,0,1.2,0.3
					c-0.7,0.6,0.2,1.3,0.4,1.8c0,0,1,0,1.2-0.2c0,0-0.3-0.2-0.5-0.5s-0.4-0.5-0.4-0.5C8.5,35.7,9.2,35.4,9,35
					c-0.7,0.3-0.6-0.1-0.6-0.6c0.1-0.5,0.2-1-0.7-0.9l0.8-0.1c0,0-0.2-0.3-0.5-0.7C7.8,32.4,7.7,32,7.7,32H7.6
					c0.3,0-0.8-1.3-0.4-2.1c0.2,0.3,0,1.7,0.8,0.9c0.2,0.3,0.3,0.7,0.3,1.2c0,0.2,0,0.5,0,0.7c0.1,0.3,0.2,0.5,0.3,0.8l0.5-0.3
					c0.5,0.5,0.6,1.1,0.8,1.7c0.1,0.3,0.1,0.7,0.1,1c0.1,0.3,0.2,0.7,0.4,1l-0.9-0.1c-0.1,0.5-0.5,1.3,0.4,1.5
					c-0.3-0.5,0.3-0.4,0.6-0.4c0.8,0.6,0.8,1.8,1.7,2.7c0,0-0.2,0-0.3,0.1c0,0,1,0.8,1.1,0.9c0.2,0.6-0.1,1.1-0.4,1.7
					c0.2,0.1,0.5,0.6,0.8,0.2c0-0.1,0-0.3-0.1-0.3c1.2,0.1,0,0.5,0.9,1c-1-0.2-0.9,0.7-1.7,1c0.8,0.6,1.3-0.6,1.7-0.7
					c0.1,1.1-0.4,1.6-0.1,2.5c0.5-0.2-0.1-0.8,0.4-1.1c0,0.3,0.2,0.5,0.4,0.5v-0.7c0,1.1,0.4,1.8,1.2,2.1l0.1-0.2l0.3,0.3
					c0,0-0.2,0.1-0.4,0.3c-0.2,0.1-0.4,0.3-0.4,0.3c0.4,0,0,0.9,0.7,0.4v-0.1h0.5c0,0-0.2,0.1-0.4,0.3C16.2,49,16,49.2,16,49.2
					c0.1,0.3,0.6,0.2,1,0c0.5-0.2,1-0.5,1.2-0.2c-0.4,1.2-1.2-0.2-2.2,1c0,0.4,0.3,0.9,0.7,0.6c0.2-0.4,0-0.5-0.1-0.6
					c0.6-0.2,0.8,0.1,1.2,0.4c0.3,0.3,0.8,0.4,1.3-0.2l-0.3-0.7c0.7,0.1,0.4,1.9,1,1.1c0,0-0.3,0.3-0.5,0.7C19,51.6,18.7,52,18.7,52
					c0.5-0.2,1-0.2,1.5-0.2s0.9,0.1,1.4-0.1c0.2-0.9-1.1-0.3-1-0.5l0.5-0.5c0.5,0.5,0.5,0.6,0.6,0.8s0.2,0.4,0.9,0.8l0.2-0.6
					c0.3,1.1,1.8-0.5,1.1,1.1l-0.3-0.5L23.4,53c0,0,0.4,0,0.8-0.1c0.4,0,0.9-0.1,0.9-0.1c-0.2,0.5,0.6,0.5,0.3,1.2l0.7-0.5
					c0.2,1.1-1.3,1.1-1.5,1.8c0,0.5,0.3,0.5,0.5,0.4c-0.9,0.7-1.1-1.3-1.8-1.4l-0.5,0.6L23,54c-0.3,0.1-0.8,0.6-1,1
					c-0.5-1.5-1.7-0.2-2.8-0.8c1.1-0.2-0.3-1.1-0.1-1.2c-0.3-0.1-0.8,0.1-1.3,0.2c-0.5,0.1-1,0-0.9-0.6c0-0.5,0.8-0.4,0.3-0.9
					c-0.4-0.1-0.9,0.2-0.9,0.7c-1-0.2-1.9-1-2.6-1.8l0.6-0.3c0-0.4-0.3-0.5-0.7-0.6c-0.4,0-0.8,0-1.2,0.1c0.1-0.2,0-0.2,0.3-0.3
					c0.1-0.6-0.3-0.7-0.8-0.7c-0.6,0-1.3-0.2-1.6-0.9c-0.7,0.5-0.4,1.2,0.2,1.4l-0.9,0.4c0.8,1.3,2.1,2.4,3.3,2.7
					c0,0-0.2,0.1-0.4,0.1S12,52.6,12,52.6c-0.1,0.9,0.3,0.8,0.6,0.6c0.3-0.1,0.6-0.3,0.6,0.7c0.8,0.1-0.1-0.7,0.6-0.8
					c0.2,0.5-1.2,1.4-0.4,1.9c-1.6-0.7-3.1-1.9-4.3-3.4S7,48.5,6.2,47C6,47,6,47.2,6,47.4c-0.4-0.1-0.8-0.8-1.2-1.8
					c-0.3-1-0.7-2.3-1-3.6c-0.7-2.6-1-5-2.2-4.9c0.3-0.3,0.8,0.2,0.6-0.5c-0.2,0-0.4-0.2-0.7,0.1c0.4-1.1,0.3-2.2,0.1-3.4
					c-0.1-0.6-0.1-1.2-0.1-1.8c0-0.3,0-0.6,0.1-0.9C1.7,30.3,1.8,30,2,29.8c-0.4,0-0.5-0.5-0.7-0.5c0.5-0.4,0.5-0.9,0.6-1.4
					s0.1-1.1,0.4-1.4l-0.4,0.2c0,0,0.2-0.6,0.3-1.1c0.2-0.6,0.4-1.1,0.4-1.1c-0.1-0.1-0.2,0.2-0.3,0.4c0-0.5,0.4-0.5,0.7-0.5
					c0,0-0.1-0.3-0.2-0.6C2.7,23.3,2.6,23,2.6,23c1.2-1.2,1.7-2.7,2.3-4.3c0.7-1.6,1.5-3.2,2.7-4.4c0-0.6,0.2-1,0.8-1.7L8,12.9
					c0.4-0.8,0.1,0,0.6-0.6c0.3-0.5-0.2-0.4-0.6,0.2c-0.4,0.3-0.3,0-0.1-0.3c1.1-1,2.3-1.9,3.5-2.4C12.8,9.3,14.2,9.1,15.2,9.4z"/>
				<path fill="#D47575" d="M56,43c-0.1,0.3,0.2-1.2-0.1-0.5c-0.3,1.1-0.9,2.6-1.6,4c-0.7,1.5-1.6,2.9-2.8,3.8
					c-0.7,0.4-0.9,0.5-1.5,0.8c0,0.1,0.1,0.1,0.2,0.2c-0.5,0.4-1.2,1.3-1.9,1.7c-0.1,0.2,0.1,0.6,0.3,0.3c-0.5,1.1-1.8,0.8-2.1,1.4
					c0.6-0.2-0.1,0.7,0.5,0.4c-0.8,0.9-1.7-0.4-2.5,0c0,0.1,0.1,0.3,0.2,0.2c-0.6,0.1-1.2,0.6-1.7,1c-0.6,0.4-1.1,0.7-1.4,0.2
					l-0.1,0.7c-0.6-0.2-0.6-0.5-1.4-0.3c-0.4,0.3,0.2,0.4,0.1,0.7c-0.4-0.4-1.6,0.2-2.3-0.4c-0.3-0.8,1.3,0.8,1.6-0.1
					c0-0.2-0.1-0.2-0.3-0.2c2.9-0.6,6-0.8,7.5-2.9c0.7,0,0.7-0.7,0.6-1.1c-0.4,0.2-1.7,0.7-1.1,1.4c0,0-0.2,0-0.5,0
					c-0.2,0-0.5,0-0.5,0c-0.2,0.2-0.8-0.6-1-0.6c0.5-0.2,0.4-1.3-0.4-1.2c1.1-0.9,0.9,1.9,1.7,0.9l-0.3-0.6c0,0.4,1.1,0,1.2-0.5
					h-0.2c0.7-0.5,1.4-1,2.1-1.6c0.7-0.6,1.5-1.2,2.2-2c1.4-1.5,2.6-3.2,3.5-4.8c0.5-0.2,0.7-0.9,1-1.5c0.2-0.7,0.5-1.2,0.7-1.6
					c0.1-0.4-0.2,0.5,0-0.2c0.1-0.4,0.1-0.4,0.1-0.4c0-0.1,0.1-0.2,0.1-0.3s0-0.1,0,0.4c0,0.3,0,0.7,0,1C56.1,41.8,56.1,42.3,56,43z
					"/>
			</g>
		</g>
	</g>
	<g opacity="0.84">
		<g>
			<g>
				<g>
					<path fill="#FFFFFF" d="M7,18.2C6.7,18,6.7,17.7,7.2,18c-0.5-0.2-0.5-0.2-0.8-0.6c0.4,0.2,0.3,0,0.3-0.1
						c-0.3-0.1-0.4,0-0.5,0.2c0.7,0.5-0.6,0.3,0.1,0.8C6.5,18.3,7.1,18.4,7,18.2z"/>
					<path fill="#FFFFFF" d="M9.6,18.5l-0.2-0.1l0.2,0.4C9.5,18.7,9.3,18.4,9.6,18.5z"/>
					<path fill="#D47575" d="M9.5,17.3c0.4,0.2,0.7,0.2,1,0.3c-0.8-0.3-0.1-0.3-0.1-0.5l-0.6-0.3c-0.5-0.1-0.4,0.3-0.6,0.5H9.5z"/>
					<path fill="#FFFFFF" d="M10,17.3L9.7,17C9.7,17.2,9.7,17.3,10,17.3z"/>
					<path fill="#FFFFFF" d="M7.8,16.5c-0.1,0.2,0.3,0,0.3,0.3C8.1,16.7,8.1,16.6,7.8,16.5z"/>
					<polygon fill="#D47575" points="9.4,16.2 9.5,16.8 9.8,16.7 					"/>
					<path fill="#D47575" d="M10.7,16.8c0,0.1-0.3,0-0.5-0.1c0.5,0.1-0.1-0.3,0.4-0.3l0.1,0.2c0.5,0.2-0.4-0.5,0.5-0.1
						c-0.5-0.5-0.8-0.2-1.1-0.7c0,0.3-0.2,0.4-0.5,0.5c0.2,0,0.2,0,0.4,0c0,0.1,0.1,0.4,0.1,0.6C10.8,17.1,10.3,16.8,10.7,16.8z"/>
					<path fill="#D47575" d="M11.1,16.2c0.1-0.1,0.2-0.3-0.4-0.7c-0.5-0.1,0,0.2,0.2,0.4c-0.1,0-0.2,0.1-0.6-0.1
						C10.6,15.8,10.9,16.1,11.1,16.2z"/>
					<path fill="#D47575" d="M11.5,15.7L11,15.3l0.1,0.1l-0.4-0.2c0.1,0.1,0.8,0.5,0.7,0.6C11.7,15.9,11.3,15.7,11.5,15.7z"/>
					<path fill="#D47575" d="M8.7,14.2c0.3,0,0.2-0.1,0.1-0.3c0,0.2-0.2,0.4,0,0.6l-0.1-0.1c0,0,0.2,0.3,0.6,0.6
						C9,14.6,9.7,14.7,8.7,14.2z"/>
					<path fill="#D47575" d="M8.5,14.4l-0.3-0.3L8.5,14.4z"/>
					<polygon fill="#D47575" points="11.6,15.2 11.3,15.3 11.5,15.3 					"/>
					<path fill="#D47575" d="M9.7,14.5c0.2-0.1-0.5-0.1-0.4-0.3c0-0.1-0.1,0.3,0.1,0.4C9.6,14.7,9.2,14.3,9.7,14.5z"/>
					<path fill="#D47575" d="M11.7,15.1l-0.3-0.4L11.7,15.1z"/>
					<path fill="#D47575" d="M12.2,14.8l-0.3-0.2c0.3,0,0.1-0.5,0.8-0.2c-0.4-0.2-0.7-0.5-0.9-0.4c0.2,0.1,0.1,0.2,0.4,0.3
						c-0.1,0-0.4-0.2-0.5-0.2c0.3,0.3-0.1,0.3,0.2,0.6c0-0.1,0-0.1,0.1-0.1c0.4,0.5-0.9-0.2,0,0.4C11.7,14.7,12.3,14.9,12.2,14.8z"
						/>
					<path fill="#D47575" d="M10.2,13.6L10,13.7c-0.4-0.3,0.1-0.2-0.3-0.4c-0.2-0.1-0.4,0-0.6-0.2c0.9,0.5-0.1,0.3,1,0.8
						c0,0.3-0.6-0.3-0.7,0l0.5,0.3C9.8,13.8,10.3,14,10.2,13.6z"/>
					<path fill="#D47575" d="M10.7,13.1l0.3,0.1L10.6,13c0.2-0.4,2,0.5,1.9,0.2c-0.4-0.6,0.6-0.3,0.7-0.5c-0.3-0.4-0.3,0-0.5-0.2
						c-0.7-0.5,0.4,0.2-0.1-0.3c-0.5-0.4-0.7-0.1-1.1-0.3c0,0.1,0.2,0.3,0.4,0.5c-0.3-0.2-0.5-0.1-0.8-0.3c0.3,0.5-0.6,0.1-0.3,0.6
						c-0.4-0.2,0-0.2-0.1-0.2l-0.1,0.1h0.1C11,13,10.5,13,10.1,13c0.2,0,0.6,0.2,0.6,0.3l-0.5-0.2l0.6,0.6
						C10.5,13.3,11.5,13.7,10.7,13.1z"/>
					<path fill="#D47575" d="M9.7,12.8c-0.4,0.1,0.7,0.4,0.3,0.5l0.1-0.3L9.7,12.8z"/>
					<path fill="#FFFFFF" d="M11.5,12.4l0.4,0.1C11.2,12.2,12,12.9,11.5,12.4z"/>
					<polygon fill="#FFFFFF" points="11.8,12 12.3,12.5 12.1,12.2 					"/>
					<path fill="#D47575" d="M12.8,12.2c-0.2-0.3-0.5-0.4-0.5-0.2C12.3,11.9,12.6,12,12.8,12.2z"/>
					<path fill="#FFFFFF" d="M14.2,12.5c-0.1,0.2,0.2,0,0.6,0.5C14.7,12.8,14.4,12.4,14.2,12.5z"/>
					<path fill="#D47575" d="M15.9,13.2c0.1,0.1-0.1,0.1-0.2,0C15.7,13.1,15.8,13.1,15.9,13.2z"/>
					<path fill="#D47575" d="M12.7,13.7L12.7,13.7L12.7,13.7z"/>
					<path fill="#D47575" d="M12.8,13.7L12.8,13.7C12.7,13.7,12.8,13.7,12.8,13.7z"/>
					<path fill="#D47575" d="M14.8,13.4L14.8,13.4L14.8,13.4L14.8,13.4z"/>
					<path fill="#D47575" d="M10.1,18.1c0,0.1,0,0.1,0,0.1C10.1,18.1,10.1,18.1,10.1,18.1L10.1,18.1z"/>
					<path fill="#D47575" d="M9.2,17.8c-0.3-0.3,1,0.3,0.9-0.1c0,0.1,0.1,0.3,0.1,0.4C9.4,17.9,9.9,17.8,9.2,17.8z"/>
					<path fill="#D47575" d="M9.5,15.2L9.5,15.2C9.4,15.2,9.5,15.2,9.5,15.2z"/>
					<polygon fill="#FFFFFF" points="6.4,25 6.6,25 6.3,25.1 					"/>
					<path fill="#FFFFFF" d="M6.7,25.1L7.2,25c0,0,0,0.1-0.1,0.2c0,0.1-0.1,0.3-0.1,0.5c0,0.3-0.1,0.6,0,0.6l-0.3-0.1
						c-0.2,0-0.1-0.3,0-0.5C6.8,25.4,6.9,25.1,6.7,25.1z"/>
					<path fill="#FFFFFF" d="M6.5,24.9c-0.7-0.4,0.4-0.1-0.1-0.5c0.3,0.3,0.7,0.5,0.4,0.5H6.5z"/>
					<path fill="none" d="M5.2,23.8c0.2,0-0.1-0.3,0.1-0.3C5.8,23.8,5.3,23.8,5.2,23.8z"/>
					<path fill="#D47575" d="M3.2,22.7C3.2,22.6,3.2,22.6,3.2,22.7L3.2,22.7L3.2,22.7z"/>
					<path fill="#D47575" d="M3.3,22.7l0.3,0.1C3.4,22.8,3.3,22.8,3.3,22.7z"/>
					<path fill="#D47575" d="M3.2,22.6c-0.1-0.1-0.1-0.2-0.2-0.2H2.9c0-0.1-0.2-0.3,0-0.3c-0.1,0.1,0.1,0.2,0.4,0.3l0.1-0.2
						C4.2,22.8,3.3,22.5,3.2,22.6z"/>
					<path fill="none" d="M3.3,21.9l0.4,0.4C3.2,22.2,3.2,22,3.3,21.9z"/>
					<path fill="#D47575" d="M3.9,21.9c0.1,0.1,0,0.3,0.3,0.3c0.1,0.1,0,0.1,0,0.1C4.1,22.2,3.5,22,3.9,21.9z"/>
					<path fill="#D47575" d="M4.2,22.3C4.2,22.4,4.2,22.4,4.2,22.3C4.2,22.4,4.2,22.3,4.2,22.3z"/>
					<path fill="none" d="M5.6,25c0.1,0,0.1,0,0.2,0H5.6z"/>
					<path fill="#D47575" d="M4.6,21.9L4.6,21.9C4.6,21.8,4.6,21.8,4.6,21.9L4.6,21.9z"/>
					<path fill="#D47575" d="M8.3,27.1c0.1-0.2,0.2-0.2-0.2-0.3c-0.6,0.1-0.2,0-0.9,0.1c0.1,0.1-0.1-0.1-0.3-0.3
						c-0.2-0.2-0.3-0.5-0.5-0.4l0.3,0.1L6,26.2c0.2-0.1,0.8-0.2,0.4-0.4c0.1,0,0.1,0.3,0.1,0.5c0,0.3,0.1,0.5,0.1,0.5
						c-0.4,0.1-0.7-0.3-0.7-0.7c-0.1-0.5,0-1-0.2-1l0.4,0.1c-0.4-0.3-0.9-0.7-1.1-1l0.5,0.1c-0.2,0.1,0.1,0.3,0.2,0.5
						c0-0.3,0.3-0.2,0.3-0.4c-0.6-0.2-0.4,0.1-0.6-0.3c0.3,0,0.9,0.5,0.8,0.2c0.3-0.2-0.6-0.5-0.6-0.8l-0.3,0.1c0-0.1,0-0.3,0.3-0.2
						c-0.1,0.1,0.1,0.5,0.7,0.7c-0.1-0.2,0.2-0.2,0.2-0.3L6.9,24c0.4,0.1-0.1-0.2,0.3-0.2c-0.2-0.2-0.6-0.2-0.8-0.4
						c0.2,0,0.5,0,0.2-0.2c-0.9-0.4,0.1,0.4-0.8,0.1L6.4,23c-0.8-0.6-0.1,0.3-0.8-0.1c-0.8-0.6,1,0.1,0-0.6c-0.3,0-0.4,0.3-0.7,0.1
						c0.4,0.1-0.2-0.3-0.2-0.5h0.5c-0.2-0.2-0.3-0.2-0.5-0.2C5.3,21.7,5,21,5.8,21c0-0.3-0.4-0.2-0.6-0.5c0.6,0.2,0.3-0.2,0.3-0.3
						c0.1,0-0.4-0.4-0.6-0.5L5,20.1c-0.3-0.2-0.7-0.4-0.7-0.3c1,0.5-0.8,0.1,0.3,0.7L4,20.3l0.1,0.6h0.1C4,20.8,4.4,21.4,4,21.5
						c-0.1-0.2,0.3-0.4-0.4-0.5C3.4,20.7,4,20.6,4,20.2l-0.4-0.1c-0.3-0.6,0.6-0.6,0.6-1l0.4,0.4c0.2,0,0.7,0.1,0.4-0.2
						c-0.1,0.1-0.3-0.1-0.5-0.2c-0.1-0.3,0.3-0.4,0.2-0.7c0,0,0.1,0.1,0.2,0.1l-0.2-0.3c0.1,0,0.4,0.1,0.8,0.2
						c-0.1-0.1,0-0.1-0.3-0.2c0,0-0.1,0,0,0c-0.5-0.3,0.2,0-0.1-0.2c0.4,0.3,0.6,0.3,1.1,0.5c-0.1-0.3-0.8-0.4-1-0.5
						c0.4-0.1,0.8,0,1-0.1c-0.3-0.1-0.3,0.1-0.6-0.1c0.1,0,0.1-0.1,0-0.2H5.3c0.4-0.1,0.6-0.3,0.5-0.6H5.6l0.1-0.2L6.2,17
						c-0.1-0.1,0.4,0,0-0.3H6.1L6,16.5l0.5,0.4c0.3,0-0.7-0.7-0.5-0.9c0.7,0.3,0.1,0.5,1,1c0.2,0,0.4-0.1,0.2-0.2
						c-0.3-0.1-0.3,0-0.3,0c-0.4-0.4,0.5-0.4-0.2-0.9H6.3c0-0.2,1,0.1,0.5-0.2l0.8,0.6c-0.4-0.4-0.2-0.6-0.4-0.9
						C6.7,15,7.1,15.6,7,15.5l-0.3-0.3c0.4-0.1,0.4,0.1,0.8-0.1l-0.3-0.2c0.6,0.1-0.3-0.7,0.6-0.1H7.5L7.9,15l-0.1-0.5
						c0.3,0.2,0.3,0,0.7,0.2l-0.3-0.3c0.6,0.2,0.6,0.6,1,0.8c0.3,0.1,0.3,0,0.3,0c0.4,0.4-0.7,0-0.8,0.1L9,15.6l-0.5-0.3
						c0.1,0.1,0.4,0.3,0.6,0.5c-0.8-0.2,0,0.4-0.3,0.6c-0.2-0.3-0.6-0.1-0.7-0.2c-0.1,0.1,0.7,0.8,0,0.6c-0.3,0-0.3-0.3-0.5-0.2
						c0,0.1,0.3,0.3,0.5,0.4c0.1,0.3-0.2,0.5-0.3,0.8l-0.3-0.2c-0.4,0,0.1,0.4,0.4,0.6c-0.2,0-0.1,0-0.3-0.1C7,18,8.3,18.7,8,18.9
						c0.5,0.2,0.6,0.1,0.4-0.1L9,19.1c0.1-0.3,0.2-0.6-0.1-1l0.4,0.3c0.8,0.1-0.7-0.5,0.3-0.3c-0.1-0.2-0.3,0-0.5-0.2
						c0.2,0,1,0.5,1.1,0.3c0,0.7-0.3,1.4-0.6,2.1c0.1,0.1,0.2,0,0.2,0c0.6,0.7-2.3,1.3-1,2.1c-0.2-0.1-0.4-0.3-0.4-0.2
						c0.1,0.1,0.2,0.2,0.4,0.3c-0.9-0.1-0.4,0.8-1.1,0.9c0.2,0.1,0.3,0.3,0.5,0.4c-0.6-0.2-0.1,0.4-0.5,0.3L8,24.2
						c0,0,0,0.1-0.1,0.2c0,0.1-0.1,0.2-0.1,0.2c0.1,0.1,0.1,0,0.2,0c0.1,0.1-0.2,0-0.5-0.1L8,24.9c-0.6,0-0.6,0.4-0.5,0.7
						c0.1,0.3,0.3,0.6,0,0.7c0.5,0.1,0.8,0.1,0.8,0.2h0.2c0.4,0-0.3,0-0.1,0c0.3,0,0.8,0,0.5,0c0.2,0,0.4,0,0.5,0
						C9.5,26.5,9.1,26.6,8.3,27.1z"/>
					<path fill="#D47575" d="M17.8,13.1c-0.2-0.2,0-0.3-0.4-0.6c-0.9-0.6-0.9,0.4-1.7,0.2c-0.4-0.2-0.4-0.2-0.6-0.2
						c0.1,0.1,0.1,0.1,0.2,0.2c-0.1,0.1-0.1,0.3-0.4,0.2c0.1,0.1,0.4,0.4,0.3,0.3c0.2,0.4-0.8-0.2-0.6,0.1c0.3,0.1,0.3,0.3,0.5,0.4
						C15,13.9,13.9,13,13.6,13c0.1,0.1,0.2,0.2,0.2,0.2c-0.6-0.2,0,0.7-0.9,0.1l0.3,0.3c-0.3-0.1-0.5-0.3-0.7-0.2
						c0.1,0.2,0.3,0.2,0.4,0.3c-0.4-0.2-0.3,0.1-0.9-0.1c-0.6-0.3,0.9,0.3,0.4-0.1c-0.1-0.1-0.1-0.1-0.2-0.1
						c0.5-0.5,2.2,0.3,2.1-0.3c0.4,0.2,0.1-0.1-0.2-0.4c-0.2-0.1-0.7-0.1,0,0.4l-0.6-0.3c0,0.1-0.7-0.5-0.9-0.6
						c0.1,0-0.5-0.7-0.8-0.8c0.1-0.3,1.5,1.3,1.5,0.9l-0.5-0.4c0.2,0.3,0.6,0.3,0.5,0.1l-0.1-0.1c0.7-0.3,1.1-1.2,1.5-1.8
						c1.2,1.1,0.1-0.8,1,0.1c-0.1-0.2-0.5-0.4-0.5-0.6c0-0.1,0.3,0.2,0.3,0.3V9.7C16.7,10.8,17.4,12.1,17.8,13.1z"/>
				</g>
			</g>
		</g>
	</g>
	<g opacity="0.84">
		<g>
			<g>
				<g>
					<path fill="#FFFFFF" d="M30.9,57.7c0.1-0.2,0.3-0.3,0.3,0.1c0-0.3,0-0.3,0.1-0.6c0,0.2,0.1,0.2,0.2,0.1
						c-0.1-0.2-0.2-0.2-0.3-0.2c-0.2,0.5-0.5-0.3-0.6,0.3C30.6,57.5,30.7,57.8,30.9,57.7z"/>
					<path fill="#FFFFFF" d="M31.6,59.2L31.6,59.2l-0.3,0.1C31.4,59.2,31.6,59.1,31.6,59.2z"/>
					<path fill="#D47575" d="M32.6,58.8c0,0.3,0.2,0.4,0.2,0.6c0-0.5,0.2-0.1,0.4-0.2v-0.4c-0.2-0.3-0.5-0.1-0.7-0.1L32.6,58.8z"/>
					<path fill="#FFFFFF" d="M32.9,59.1l0.1-0.3C32.9,58.9,32.7,59,32.9,59.1z"/>
					<path fill="#FFFFFF" d="M32.6,57.7c-0.2,0,0.1,0.2-0.1,0.3C32.6,57.9,32.7,57.9,32.6,57.7z"/>
					<path fill="#D47575" d="M33.5,58.4c0,0-0.4,0.3-0.4,0.2l0.2,0.2L33.5,58.4z"/>
					<path fill="#D47575" d="M33.7,59.2c-0.1,0-0.2-0.1-0.1-0.3c0.2,0.3,0.2-0.2,0.4,0.1l-0.1,0.2c0.1,0.3,0.3-0.4,0.3,0.2
						c0.1-0.4-0.2-0.5,0-0.8c-0.2,0.1-0.4,0-0.6,0c0.1,0.1,0.1,0.1,0.2,0.2c-0.1,0-0.3,0.2-0.5,0.3C33.4,59.4,33.5,59.1,33.7,59.2z"
						/>
					<path fill="#D47575" d="M34.4,59.2c0.2,0,0.4,0,0.4-0.5c-0.2-0.3-0.2,0.1-0.2,0.3c-0.1-0.1-0.2-0.1-0.2-0.3
						C34.4,58.8,34.3,59.1,34.4,59.2z"/>
					<path fill="#D47575" d="M35.1,59.1v-0.4L35,58.8v-0.2c0,0.1,0.1,0.6-0.1,0.6C35,59.3,35,59.1,35.1,59.1z"/>
					<path fill="#D47575" d="M34.7,57.3c0.1,0.2,0.2,0,0.2-0.1c-0.1,0.1-0.4,0.1-0.4,0.3v-0.1c0,0-0.1,0.2-0.1,0.5
						C34.5,57.6,34.9,57.9,34.7,57.3z"/>
					<path fill="#D47575" d="M34.5,57.3l0.1-0.2L34.5,57.3z"/>
					<polygon fill="#D47575" points="35.5,58.9 35.3,58.9 35.3,59 					"/>
					<path fill="#D47575" d="M35,57.9c0.2,0-0.2-0.3,0-0.3c0-0.1-0.2,0.1-0.2,0.3C34.8,57.9,34.9,57.6,35,57.9z"/>
					<path fill="#D47575" d="M35.7,58.9l0.1-0.3L35.7,58.9z"/>
					<path fill="#D47575" d="M36.2,59v-0.2c0.2,0.1,0.4-0.3,0.7,0.1c-0.1-0.2-0.1-0.5-0.3-0.5c0,0.1,0,0.2,0,0.3
						c-0.1,0-0.1-0.2-0.2-0.3c0,0.3-0.3,0.2-0.3,0.4c0-0.1,0.1,0,0.1,0c-0.1,0.4-0.4-0.4-0.3,0.2C35.9,58.7,36.2,59.1,36.2,59z"/>
					<path fill="#D47575" d="M35.8,57.6h-0.2c0-0.3,0.2-0.1,0.1-0.3c-0.1-0.2-0.2-0.2-0.2-0.3c0.2,0.6-0.2,0.1,0.1,0.8
						c-0.2,0.1-0.2-0.4-0.4-0.3v0.3C35.5,57.6,35.6,57.9,35.8,57.6z"/>
					<path fill="#D47575" d="M36.4,57.5l0.1,0.2L36.4,57.5c0.3-0.2,1,0.8,1.1,0.5c0.1-0.5,0.6-0.1,0.8-0.2c0-0.3-0.2-0.1-0.3-0.2
						c-0.2-0.5,0.3,0.2,0.1-0.2c-0.2-0.3-0.4-0.2-0.7-0.4c-0.1,0.1,0,0.2,0,0.4c-0.1-0.2-0.2-0.2-0.3-0.4c-0.1,0.4-0.4-0.1-0.5,0.3
						c-0.2-0.2,0.1-0.1,0-0.1l-0.1,0.1l0,0c0,0.3-0.4,0.2-0.6,0c0.1,0.1,0.2,0.3,0.2,0.4l-0.2-0.3v0.5
						C36.2,57.5,36.6,58.1,36.4,57.5z"/>
					<path fill="#D47575" d="M36,57c-0.3-0.1,0.2,0.5-0.1,0.4l0.2-0.1L36,57z"/>
					<path fill="#FFFFFF" d="M37.4,57.4l0.2,0.2C37.3,57.1,37.4,57.8,37.4,57.4z"/>
					<polygon fill="#FFFFFF" points="37.8,57.2 37.9,57.6 37.9,57.3 					"/>
					<path fill="#D47575" d="M38.4,57.4c0-0.2-0.2-0.3-0.3-0.2C38.2,57.2,38.3,57.3,38.4,57.4z"/>
					<path fill="#FFFFFF" d="M39.4,57.8c-0.2,0.1,0.2,0,0.3,0.4C39.6,58,39.6,57.7,39.4,57.8z"/>
					<path fill="#D47575" d="M40.6,58.2c0,0.1-0.1,0.1-0.2,0C40.5,58.2,40.5,58.2,40.6,58.2z"/>
					<path fill="#D47575" d="M37.4,58.4C37.4,58.5,37.4,58.5,37.4,58.4L37.4,58.4z"/>
					<path fill="#D47575" d="M37.5,58.4L37.5,58.4C37.4,58.4,37.5,58.4,37.5,58.4z"/>
					<path fill="#D47575" d="M39.4,58.5L39.4,58.5L39.4,58.5L39.4,58.5z"/>
					<path fill="#D47575" d="M32.3,59.4C32.2,59.4,32.2,59.4,32.3,59.4L32.3,59.4L32.3,59.4z"/>
					<path fill="#D47575" d="M32.1,58.8c0.2-0.3,0.2,0.6,0.5,0.4c-0.1,0.1-0.2,0.1-0.4,0.2C32.1,59,32.4,59.2,32.1,58.8z"/>
					<path fill="#D47575" d="M34.3,58.1L34.3,58.1C34.4,58,34.3,58.1,34.3,58.1z"/>
					<polygon fill="#FFFFFF" points="24.5,58 24.5,58.1 24.4,58 					"/>
					<path fill="#FFFFFF" d="M24.5,58.2l0.2,0.3c0,0-0.4-0.1-0.8-0.2c-0.4-0.1-0.8-0.3-0.8-0.3l0.1-0.1
						C23.3,57.7,24.4,58.5,24.5,58.2z"/>
					<path fill="#FFFFFF" d="M24.6,58.1c0.3-0.4,0.2,0.2,0.5,0c-0.2,0.2-0.4,0.4-0.4,0.2L24.6,58.1z"/>
					<path fill="none" d="M25.4,57.4c0,0.1,0.2,0,0.2,0C25.5,57.8,25.4,57.5,25.4,57.4z"/>
					<path fill="#D47575" d="M26,56.1L26,56.1C26,56.1,26,56.2,26,56.1L26,56.1z"/>
					<path fill="#D47575" d="M26,56.2l-0.1,0.2C25.9,56.3,26,56.2,26,56.2z"/>
					<path fill="#D47575" d="M26.1,56.1l0.1-0.1l0,0c0.1,0,0.2-0.1,0.2,0C26.3,55.9,26.2,56,26.1,56.1l0.2,0.1
						C26.1,56.8,26.2,56.2,26.1,56.1z"/>
					<path fill="none" d="M26.5,56.1l-0.2,0.3C26.3,56.1,26.5,56.1,26.5,56.1z"/>
					<path fill="#D47575" d="M26.6,56.5c-0.1,0.1-0.2,0-0.1,0.2c0,0.1-0.1,0-0.1,0C26.5,56.7,26.5,56.3,26.6,56.5z"/>
					<path fill="#D47575" d="M26.4,56.7L26.4,56.7L26.4,56.7z"/>
					<path fill="none" d="M24.4,57.5L24.4,57.5L24.4,57.5z"/>
					<path fill="#D47575" d="M26.8,56.9L26.8,56.9C26.9,56.9,26.9,57,26.8,56.9L26.8,56.9z"/>
					<path fill="#D47575" d="M21.1,57.9c0.2,0.2,0.3,0.4,0.7,0.3c0.2-0.4,0.2,0,0.4-0.4c-0.3-0.1,1.2,0.3,1.1,0l-0.1,0.1l0.2-0.4
						c0.1,0.2,0.2,0.5,0.4,0.4c0,0.1-1.2-0.5-1.2-0.4c0.1-0.5,1.8,0.3,2,0.1l-0.1,0.2c0.3-0.2,0.6-0.5,0.8-0.6l-0.1,0.3
						c-0.1-0.1-0.2,0-0.4,0.1c0.3,0,0.2,0.2,0.4,0.2c0.1-0.4-0.1-0.2,0.2-0.4c0,0.2-0.3,0.5,0,0.5c0.2,0.2,0.3-0.4,0.6-0.4l-0.1-0.2
						c0.1,0,0.3,0,0.3,0.2c-0.1-0.1-0.4,0.1-0.5,0.5c0.1-0.1,0.3,0.1,0.4,0.1L26,58.4c0,0.3,0.2-0.1,0.2,0.2c0.2-0.1,0-0.4,0.1-0.5
						c0,0.1,0.2,0.3,0.3,0.1c0.1-0.6-0.3,0.1-0.3-0.5l0.2,0.2c0.3-0.5-0.3-0.1-0.1-0.5c0.3-0.5,0.2,0.6,0.5-0.1
						c-0.1-0.2-0.3-0.3-0.2-0.4c0,0.2,0.2-0.1,0.4-0.2l0.1,0.3c0.1-0.2,0.1-0.2,0-0.3c0.2,0.4,0.7,0.1,0.9,0.6
						c0.2,0,0.1-0.2,0.2-0.4c0,0.4,0.3,0.1,0.4,0.1c0,0,0.1-0.3,0.1-0.4L28.3,57c0-0.2,0.1-0.5,0-0.5c-0.1,0.7-0.3-0.5-0.5,0.3
						l0.1-0.3l-0.4,0.2l0,0c0-0.1-0.4,0.2-0.5,0c0.1-0.1,0.4,0.1,0.3-0.3c0.2-0.2,0.4,0.2,0.7,0.1v-0.2c0.3-0.3,0.6,0.2,0.9,0.2
						l-0.1,0.3c0.1,0.1,0.2,0.4,0.3,0.2c-0.1,0,0-0.2,0-0.3c0.2-0.1,0.4,0.1,0.7,0v0.1l0.3-0.2c0.1,0.1,0.1,0.3,0.2,0.5
						c0,0,0.2,0,0.1-0.2c0,0,0,0-0.1,0c0.2-0.3,0.1,0.1,0.3-0.1c-0.1,0.3,0,0.4,0,0.7c0.2-0.1,0-0.5,0.1-0.7
						c0.2,0.2,0.2,0.5,0.5,0.5c0-0.2-0.2-0.1-0.2-0.3c0.1,0.1,0.1,0,0.2,0l-0.1-0.1c0.2,0.2,0.4,0.3,0.7,0.1v-0.1H32L31.6,57
						c0.1-0.1,0.2,0.2,0.2-0.1l0,0l0.1-0.1l-0.1,0.3c0.1,0.2,0.3-0.6,0.5-0.5c0.1,0.5-0.4,0.2-0.4,0.8c0.1,0.1,0.2,0.2,0.3,0
						c0-0.2-0.1-0.2-0.1-0.2c0.2-0.3,0.5,0.1,0.6-0.4l-0.2-0.2c0.2-0.1,0.3,0.5,0.4,0.2l-0.1,0.6c0.2-0.3,0.4-0.3,0.5-0.5
						c0-0.3-0.2,0-0.2,0v-0.3c0.3,0.2,0.1,0.2,0.4,0.4v-0.2c0.2,0.3,0.3-0.4,0.3,0.2h-0.1l0.1,0.3l0.3-0.2c0,0.2,0.2,0.1,0.2,0.4
						l0.1-0.3c0.1,0.4-0.1,0.5-0.1,0.8c0,0.2,0.1,0.1,0.1,0.1c-0.1,0.3-0.3-0.4-0.5-0.3v0.3l-0.1-0.3c-0.1,0.1-0.1,0.3-0.1,0.5
						c-0.2-0.4-0.3,0.2-0.6,0.1c0.2-0.2-0.2-0.3-0.1-0.4c-0.1,0-0.3,0.6-0.5,0.2c-0.1-0.2,0.1-0.3,0-0.3s-0.2,0.2-0.1,0.4
						c-0.2,0.1-0.5,0.1-0.8,0.1l0.1-0.2c-0.2-0.2-0.3,0.1-0.4,0.4c0-0.1,0,0,0-0.2c-0.2-0.4-0.3,0.5-0.6,0.4c0,0.3,0.2,0.4,0.3,0.2
						v0.4c0.3,0,0.6-0.1,0.9-0.3L31.6,59c0.2,0.5,0.1-0.5,0.4,0.1c0.1-0.1-0.1-0.2,0-0.3c0.1,0.1,0,0.6,0.2,0.7
						c-0.7,0.2-1.4,0.2-2.2,0.2c0,0.1,0,0.1,0.1,0.1c-0.3,0.5-2.1-1.1-2.3-0.2c0-0.1,0.1-0.3,0-0.3c0,0.1-0.1,0.1-0.1,0.3
						c-0.3-0.6-0.9-0.1-1.3-0.6c0,0.2-0.2,0.2-0.2,0.3c-0.1-0.4-0.4-0.1-0.5-0.3v0.2L25.3,59c0,0.1,0,0.1,0.1,0.1
						c-0.1,0.1-0.1-0.2,0-0.3l-0.3,0.3c-0.4-0.8-1.4-0.1-1.9-0.8c-0.2,0.3-0.4,0.3-0.5,0.3v0.1c-0.3,0.2,0.1-0.2-0.1-0.1
						c-0.2,0.1-0.2,0.4,0,0.3c0,0.1-0.1,0.2-0.1,0.3C21.7,59,21.3,58.6,21.1,57.9z"/>
					<path fill="#D47575" d="M42.8,57.5c-0.2-0.1,0.1-0.3-0.2-0.4c-0.4-0.1-0.7,0.1-0.9,0.4c-0.3,0.2-0.6,0.4-1,0.4
						c-0.3-0.1-0.3-0.1-0.5-0.1l0.1,0.1c-0.1,0.1-0.3,0.3-0.5,0.2c0,0.1,0.1,0.3,0.1,0.2c-0.1,0.3-0.6-0.2-0.6,0.1
						c0.2,0.1,0,0.3,0.2,0.3c-0.2,0.2-0.6-0.6-0.8-0.6c0,0.1,0,0.1,0.1,0.1c-0.4-0.2-0.5,0.5-0.8-0.1v0.3c-0.2-0.1-0.2-0.3-0.4-0.3
						c0,0.1,0.1,0.2,0.1,0.3c-0.1-0.2-0.3,0-0.6-0.3c-0.2-0.4,0.4,0.4,0.4,0c0-0.1-0.1-0.1-0.1-0.1c0.6-0.2,1.5,0.6,1.9,0.1
						c0.2,0.2,0.2-0.1,0.1-0.4c-0.1-0.1-0.5-0.2-0.2,0.3l-0.3-0.2c0,0.1-0.3-0.4-0.4-0.5c0.1,0,0-0.5-0.3-0.6
						c0.2-0.2,0.5,1.1,0.6,0.8l-0.2-0.4c0.1,0.2,0.4,0.3,0.4,0.1l-0.1-0.1c0.4-0.1,0.7-0.3,1-0.6s0.6-0.6,0.8-0.9
						c0.8,0.6,0.2-0.6,0.9-0.2c0-0.2-0.3-0.2-0.3-0.4c0-0.1,0.2,0.1,0.3,0.1V55C42.3,55.9,42.8,56.6,42.8,57.5z"/>
				</g>
			</g>
		</g>
	</g>
</g>
</svg>
