<?xml version="1.0" encoding="utf-8"?>
<!-- Generator: Adobe Illustrator 19.2.1, SVG Export Plug-In . SVG Version: 6.00 Build 0)  -->
<svg version="1.1" id="Слой_1" xmlns="http://www.w3.org/2000/svg" xmlns:xlink="http://www.w3.org/1999/xlink" x="0px" y="0px"
	 viewBox="0 0 66 66" style="enable-background:new 0 0 66 66;" xml:space="preserve">
<path d="M18.5,55.9c0,4.6-3.7,8.3-8.3,8.3s-8.3-3.7-8.3-8.3s3.7-8.3,8.3-8.3S18.5,51.3,18.5,55.9z M1.9,23v12c7.8,0,15.1,3,20.6,8.6
	C28,49,31,56.4,31,64.2h12C43,41.5,24.5,23,1.9,23z M1.9,1.8v12c27.7,0,50.2,22.7,50.2,50.5h12C64.1,29.8,36.2,1.8,1.9,1.8z"/>
</svg>
