<?xml version="1.0" encoding="utf-8"?>
<!-- Generator: Adobe Illustrator 19.2.1, SVG Export Plug-In . SVG Version: 6.00 Build 0)  -->
<svg version="1.1" id="Слой_1" xmlns="http://www.w3.org/2000/svg" xmlns:xlink="http://www.w3.org/1999/xlink" x="0px" y="0px"
	 viewBox="0 0 66 66" style="enable-background:new 0 0 66 66;" xml:space="preserve">
<path d="M34.5,1.8C17.4,1.8,8.8,14,8.8,24.2c0,6.2,2.3,11.7,7.3,13.7c0.8,0.3,1.6,0,1.8-0.9c0.2-0.6,0.6-2.2,0.7-2.9
	c0.2-0.9,0.1-1.2-0.5-2c-1.4-1.7-2.4-3.9-2.4-7c0-9.1,6.8-17.2,17.7-17.2c9.6,0,14.9,5.9,14.9,13.8c0,10.4-4.6,19.1-11.4,19.1
	c-3.8,0-6.6-3.1-5.7-6.9c1.1-4.5,3.2-9.5,3.2-12.7c0-2.9-1.6-5.4-4.8-5.4c-3.8,0-6.9,4-6.9,9.3c0,3.4,1.1,5.7,1.1,5.7
	S20,47.3,19.3,50.2c-1.4,5.8-0.2,12.9-0.1,13.6c0.1,0.4,0.6,0.5,0.9,0.2c0.4-0.5,4.9-6.1,6.5-11.7c0.4-1.6,2.5-9.9,2.5-9.9
	c1.2,2.4,4.9,4.5,8.8,4.5c11.5,0,19.4-10.5,19.4-24.6C57.2,11.7,48.2,1.8,34.5,1.8z"/>
</svg>
