<?xml version="1.0" encoding="utf-8"?>
<!-- Generator: Adobe Illustrator 19.2.1, SVG Export Plug-In . SVG Version: 6.00 Build 0)  -->
<svg version="1.1" id="Слой_1" xmlns="http://www.w3.org/2000/svg" xmlns:xlink="http://www.w3.org/1999/xlink" x="0px" y="0px"
	 viewBox="0 0 66 66" style="enable-background:new 0 0 66 66;" xml:space="preserve">
<path d="M62.5,8.5c-2.5,1.5-5.2,2.5-8.1,3.1c-2.3-2.5-5.7-4-9.4-4c-7.1,0-12.8,5.7-12.8,12.8c0,1,0.1,2,0.3,2.9
	C21.9,22.8,12.4,17.7,6.1,9.9C5,11.8,4.4,14,4.4,16.4c0,4.4,2.3,8.4,5.7,10.7C8,27,6,26.4,4.3,25.5c0,0.1,0,0.1,0,0.2
	c0,6.2,4.4,11.4,10.3,12.6c-1.1,0.3-2.2,0.4-3.4,0.4c-0.8,0-1.6-0.1-2.4-0.2c1.6,5.1,6.4,8.8,12,8.9c-4.4,3.4-9.9,5.5-15.9,5.5
	c-1,0-2.1-0.1-3.1-0.2c5.7,3.6,12.4,5.8,19.7,5.8c23.6,0,36.5-19.5,36.5-36.5c0-0.6,0-1.1,0-1.7c2.5-1.8,4.7-4.1,6.4-6.6
	c-2.3,1-4.8,1.7-7.4,2C59.5,14,61.6,11.5,62.5,8.5z"/>
</svg>
