<?xml version="1.0" encoding="utf-8"?>
<!-- Generator: Adobe Illustrator 19.2.1, SVG Export Plug-In . SVG Version: 6.00 Build 0)  -->
<svg version="1.1" id="Слой_1" xmlns="http://www.w3.org/2000/svg" xmlns:xlink="http://www.w3.org/1999/xlink" x="0px" y="0px"
	 viewBox="0 0 66 66" style="enable-background:new 0 0 66 66;" xml:space="preserve">
<path d="M52.2,1.8H13.8C7.2,1.8,1.8,7.2,1.8,13.8v12.8v25.6c0,6.7,5.4,12.1,12.1,12.1h38.3c6.7,0,12.1-5.4,12.1-12.1V26.6V13.8
	C64.3,7.2,58.8,1.8,52.2,1.8z M55.6,9l1.4,0v1.4v9.2l-10.6,0l0-10.6L55.6,9z M24.1,26.6c2-2.8,5.2-4.6,8.9-4.6s6.9,1.8,8.9,4.6
	c1.3,1.8,2.1,4,2.1,6.4c0,6.1-4.9,11-11,11c-6.1,0-11-4.9-11-11C22,30.6,22.8,28.4,24.1,26.6z M58.2,52.2c0,3.3-2.7,6-6,6H13.8
	c-3.3,0-6-2.7-6-6V26.6h9.3c-0.8,2-1.3,4.2-1.3,6.4c0,9.4,7.7,17.1,17.1,17.1S50.1,42.4,50.1,33c0-2.3-0.5-4.4-1.3-6.4h9.3V52.2z"/>
</svg>
