<?xml version="1.0" encoding="utf-8"?>
<!-- Generator: Adobe Illustrator 19.2.1, SVG Export Plug-In . SVG Version: 6.00 Build 0)  -->
<svg version="1.1" id="Слой_1" xmlns="http://www.w3.org/2000/svg" xmlns:xlink="http://www.w3.org/1999/xlink" x="0px" y="0px"
	 viewBox="0 0 66 66" style="enable-background:new 0 0 66 66;" xml:space="preserve">
<path d="M18.5,55.9c0,4.6-3.7,8.3-8.3,8.3s-8.3-3.7-8.3-8.3s3.7-8.3,8.3-8.3S18.5,51.3,18.5,55.9z M1.9,23v12c7.8,0,15.1,3,20.6,8.6
	C28,49,31,56.4,31,64.2h12C43,41.5,24.5,23,1.9,23z M1.9,1.8v12c27.7,0,50.2,22.7,50.2,50.5h12C64.1,29.8,36.2,1.8,1.9,1.8z"/>
<path d="M-57.5,8.5c-2.5,1.5-5.2,2.5-8.1,3.1c-2.3-2.5-5.7-4-9.4-4c-7.1,0-12.8,5.7-12.8,12.8c0,1,0.1,2,0.3,2.9
	c-10.7-0.5-20.1-5.6-26.4-13.4c-1.1,1.9-1.7,4.1-1.7,6.4c0,4.4,2.3,8.4,5.7,10.7c-2.1-0.1-4.1-0.6-5.8-1.6c0,0.1,0,0.1,0,0.2
	c0,6.2,4.4,11.4,10.3,12.6c-1.1,0.3-2.2,0.4-3.4,0.4c-0.8,0-1.6-0.1-2.4-0.2c1.6,5.1,6.4,8.8,12,8.9c-4.4,3.4-9.9,5.5-15.9,5.5
	c-1,0-2.1-0.1-3.1-0.2c5.7,3.6,12.4,5.8,19.7,5.8c23.6,0,36.5-19.5,36.5-36.5c0-0.6,0-1.1,0-1.7c2.5-1.8,4.7-4.1,6.4-6.6
	c-2.3,1-4.8,1.7-7.4,2C-60.5,14-58.4,11.5-57.5,8.5z"/>
<path d="M-187.8,1.8h-38.3c-6.7,0-12.1,5.4-12.1,12.1v12.8v25.6c0,6.7,5.4,12.1,12.1,12.1h38.3c6.7,0,12.1-5.4,12.1-12.1V26.6V13.8
	C-175.7,7.2-181.2,1.8-187.8,1.8z M-184.4,9l1.4,0v1.4v9.2l-10.6,0l0-10.6L-184.4,9z M-215.9,26.6c2-2.8,5.2-4.6,8.9-4.6
	s6.9,1.8,8.9,4.6c1.3,1.8,2.1,4,2.1,6.4c0,6.1-4.9,11-11,11c-6.1,0-11-4.9-11-11C-218,30.6-217.2,28.4-215.9,26.6z M-181.8,52.2
	c0,3.3-2.7,6-6,6h-38.3c-3.3,0-6-2.7-6-6V26.6h9.3c-0.8,2-1.3,4.2-1.3,6.4c0,9.4,7.7,17.1,17.1,17.1s17.1-7.7,17.1-17.1
	c0-2.3-0.5-4.4-1.3-6.4h9.3V52.2z"/>
<path d="M-325.5,1.8c-17.1,0-25.7,12.2-25.7,22.4c0,6.2,2.3,11.7,7.3,13.7c0.8,0.3,1.6,0,1.8-0.9c0.2-0.6,0.6-2.2,0.7-2.9
	c0.2-0.9,0.1-1.2-0.5-2c-1.4-1.7-2.4-3.9-2.4-7c0-9.1,6.8-17.2,17.7-17.2c9.6,0,14.9,5.9,14.9,13.8c0,10.4-4.6,19.1-11.4,19.1
	c-3.8,0-6.6-3.1-5.7-6.9c1.1-4.5,3.2-9.5,3.2-12.7c0-2.9-1.6-5.4-4.8-5.4c-3.8,0-6.9,4-6.9,9.3c0,3.4,1.1,5.7,1.1,5.7
	s-3.9,16.6-4.6,19.6c-1.4,5.8-0.2,12.9-0.1,13.6c0.1,0.4,0.6,0.5,0.9,0.2c0.4-0.5,4.9-6.1,6.5-11.7c0.4-1.6,2.5-9.9,2.5-9.9
	c1.2,2.4,4.9,4.5,8.8,4.5c11.5,0,19.4-10.5,19.4-24.6C-302.8,11.7-311.8,1.8-325.5,1.8z"/>
<path d="M-442.4,15.5c0-2.4,1.6-3,2.8-3c1.1,0,7,0,7,0V1.8l-9.6,0c-10.7,0-13.1,8-13.1,13.1V22h-6.2v11h6.2c0,14.2,0,31.2,0,31.2h13
	c0,0,0-17.2,0-31.2h8.8l1.1-11h-9.9V15.5z"/>
</svg>
