<svg width="160" height="40" viewBox="0 0 160 40" fill="none" xmlns="http://www.w3.org/2000/svg">
<path fill-rule="evenodd" clip-rule="evenodd" d="M53.0883 27.1673C53.0883 26.3079 52.9319 25.6515 52.6191 25.1979C52.3304 24.7205 51.7891 24.4818 50.9951 24.4818C50.2492 24.4818 49.6477 24.7086 49.1906 25.1621C48.7575 25.5918 48.5409 26.2602 48.5409 27.1673V37.1931H42.2612V9.26404H48.5409V22.8347C48.9981 21.9992 49.6357 21.3308 50.4537 20.8295C51.2958 20.3044 52.3545 20.0418 53.6297 20.0418C55.7951 20.0418 57.2868 20.5789 58.1048 21.6531C58.9229 22.7273 59.3319 24.255 59.3319 26.2363V37.1931H53.0883V27.1673ZM7.56101 31.1418C6.52642 30.3779 5.62417 29.3395 4.85424 28.0266L0.090332 31.464C0.643716 32.7053 1.46176 33.8273 2.54447 34.8298C3.62717 35.8324 4.90236 36.6321 6.37003 37.2289C7.86176 37.8257 9.47379 38.124 11.2061 38.124C12.4573 38.124 13.6603 37.945 14.8152 37.5869C15.9941 37.2527 17.0408 36.7515 17.955 36.0831C18.8934 35.3908 19.6393 34.5315 20.1926 33.505C20.746 32.4786 21.0227 31.2969 21.0227 29.9602C21.0227 27.955 20.4212 26.3318 19.2182 25.0905C18.0152 23.8253 16.4633 22.8705 14.5626 22.226C12.9505 21.6531 11.6272 21.1398 10.5926 20.6863C9.58206 20.2089 9.0768 19.5644 9.0768 18.7527C9.0768 17.7263 9.83469 17.2131 11.3505 17.2131C13.0829 17.2131 14.5265 18.1082 15.6814 19.8986L20.9505 16.9982C20.4934 16.1389 19.8438 15.2915 19.0017 14.456C18.1596 13.5966 17.0889 12.8924 15.7896 12.3434C14.5144 11.7705 12.9746 11.484 11.17 11.484C9.48582 11.484 7.93394 11.7705 6.51439 12.3434C5.1189 12.9163 4.00011 13.7518 3.158 14.8498C2.31589 15.9479 1.89484 17.2847 1.89484 18.8602C1.89484 20.1015 2.12341 21.1757 2.58056 22.0827C3.06176 22.966 3.65123 23.7179 4.34898 24.3386C5.07078 24.9592 5.81665 25.4724 6.58657 25.8782C7.38056 26.2602 8.0783 26.5705 8.6798 26.8092C9.97905 27.2866 10.9775 27.6924 11.6753 28.0266C12.3971 28.3608 12.8904 28.695 13.155 29.0292C13.4438 29.3634 13.5881 29.7692 13.5881 30.2466C13.5881 30.915 13.3355 31.4163 12.8302 31.7505C12.325 32.0847 11.6873 32.2518 10.9174 32.2518C9.71439 32.2518 8.59559 31.8818 7.56101 31.1418ZM31.0354 31.7863C30.2415 31.1179 29.8445 30.175 29.8445 28.9576C29.8445 27.8834 30.2415 26.9882 31.0354 26.2721C31.8535 25.5321 32.8159 25.1621 33.9227 25.1621C34.6926 25.1621 35.5106 25.3411 36.3768 25.6992C37.267 26.0573 37.9768 26.6302 38.5061 27.4179V21.5815C37.9287 21.2473 37.2309 20.9608 36.4129 20.7221C35.6189 20.4834 34.5843 20.364 33.3091 20.364C31.3843 20.364 29.6761 20.7221 28.1843 21.4382C26.6926 22.1305 25.5257 23.1211 24.6836 24.4102C23.8415 25.6753 23.4204 27.1911 23.4204 28.9576C23.4204 30.7002 23.8415 32.216 24.6836 33.505C25.5257 34.794 26.6926 35.7966 28.1843 36.5127C29.6761 37.205 31.3843 37.5511 33.3091 37.5511C34.5843 37.5511 35.6189 37.4318 36.4129 37.1931C37.2309 36.9544 37.9287 36.644 38.5061 36.2621V30.4615C37.9768 31.2492 37.3031 31.834 36.4851 32.216C35.6911 32.574 34.837 32.7531 33.9227 32.7531C32.8159 32.7531 31.8535 32.4308 31.0354 31.7863ZM63.8452 12.415C63.1475 12.9879 62.7986 13.7637 62.7986 14.7424C62.7986 15.6973 63.1475 16.4731 63.8452 17.0698C64.5429 17.6427 65.373 17.9292 66.3354 17.9292C67.3219 17.9292 68.152 17.6427 68.8256 17.0698C69.5234 16.4731 69.8723 15.6973 69.8723 14.7424C69.8723 13.7637 69.5234 12.9879 68.8256 12.415C68.152 11.8182 67.3219 11.5198 66.3354 11.5198C65.373 11.5198 64.5429 11.8182 63.8452 12.415ZM69.367 20.7221H63.3038V37.1931H69.367V20.7221ZM73.3818 9.26404H79.6615V37.1931H73.3818V9.26404ZM83.8563 24.2311C83.1105 25.4963 82.7375 27.0718 82.7375 28.9576C82.7375 30.8195 83.1105 32.395 83.8563 33.684C84.6263 34.9492 85.6007 35.916 86.7797 36.5844C87.9586 37.2289 89.1977 37.5511 90.4969 37.5511C92.927 37.5511 94.8278 36.5724 96.1992 34.615V37.1931H102.443V9.26404H96.1992V23.3002C94.8278 21.3427 92.927 20.364 90.4969 20.364C89.1977 20.364 87.9586 20.6982 86.7797 21.3666C85.6007 22.0111 84.6263 22.966 83.8563 24.2311ZM90.3526 31.6431C89.6789 30.9508 89.3421 30.0557 89.3421 28.9576C89.3421 27.8357 89.6789 26.9405 90.3526 26.2721C91.0503 25.5798 91.8684 25.2337 92.8067 25.2337C93.6488 25.2337 94.4187 25.556 95.1165 26.2005C95.8383 26.845 96.1992 27.764 96.1992 28.9576C96.1992 30.1273 95.8383 31.0463 95.1165 31.7147C94.4187 32.3592 93.6488 32.6815 92.8067 32.6815C91.8684 32.6815 91.0503 32.3353 90.3526 31.6431ZM115.395 37.5511C112.291 37.5511 109.861 36.7873 108.105 35.2595C106.348 33.7079 105.47 31.6073 105.47 28.9576C105.47 26.2602 106.324 24.1595 108.033 22.6556C109.765 21.1279 112.147 20.364 115.178 20.364C118.186 20.364 120.484 21.0802 122.072 22.5124C123.66 23.9447 124.454 25.9976 124.454 28.6711V29.5305C124.478 29.7931 124.466 30.0318 124.418 30.2466H111.858C112.171 32.2518 113.278 33.2544 115.178 33.2544C116.959 33.2544 118.21 32.6337 118.932 31.3924L124.634 32.4666C122.83 35.8563 119.75 37.5511 115.395 37.5511ZM115.034 24.3027C113.326 24.3027 112.291 25.2218 111.93 27.0598H117.777C117.705 26.2005 117.428 25.5321 116.947 25.0547C116.466 24.5534 115.828 24.3027 115.034 24.3027ZM137.621 26.3795C137.957 26.5705 138.246 26.8092 138.487 27.0957L141.121 21.7247C140.881 21.3189 140.472 20.9847 139.894 20.7221C139.341 20.4357 138.763 20.2924 138.162 20.2924C137.32 20.2924 136.502 20.5192 135.708 20.9727C134.938 21.4263 134.288 22.0469 133.759 22.8347V20.7221H127.624V37.1931H133.759V29.6379C133.759 28.4444 134.012 27.5611 134.517 26.9882C135.046 26.3915 135.672 26.0931 136.393 26.0931C136.875 26.0931 137.284 26.1886 137.621 26.3795Z" fill="white"/>
<path fill-rule="evenodd" clip-rule="evenodd" d="M139.627 8.92985V14.8737H146.557V21.8918H153.017V14.8737H159.91V8.92985H153.017V1.87598H146.557V8.92985H139.627Z" fill="#F4522B"/>
</svg>
