<svg width="24" height="24" viewBox="0 0 24 24" fill="none" xmlns="http://www.w3.org/2000/svg">
<path d="M6.99988 4V20H16.9999V4H6.99988ZM5.99988 2H17.9999C18.2651 2 18.5194 2.10536 18.707 2.29289C18.8945 2.48043 18.9999 2.73478 18.9999 3V21C18.9999 21.2652 18.8945 21.5196 18.707 21.7071C18.5194 21.8946 18.2651 22 17.9999 22H5.99988C5.73466 22 5.48031 21.8946 5.29277 21.7071C5.10523 21.5196 4.99988 21.2652 4.99988 21V3C4.99988 2.73478 5.10523 2.48043 5.29277 2.29289C5.48031 2.10536 5.73466 2 5.99988 2ZM11.9999 17C12.2651 17 12.5194 17.1054 12.707 17.2929C12.8945 17.4804 12.9999 17.7348 12.9999 18C12.9999 18.2652 12.8945 18.5196 12.707 18.7071C12.5194 18.8946 12.2651 19 11.9999 19C11.7347 19 11.4803 18.8946 11.2928 18.7071C11.1052 18.5196 10.9999 18.2652 10.9999 18C10.9999 17.7348 11.1052 17.4804 11.2928 17.2929C11.4803 17.1054 11.7347 17 11.9999 17V17Z" fill="#F4522B"/>
</svg>
