<svg width="24" height="24" viewBox="0 0 24 24" fill="none" xmlns="http://www.w3.org/2000/svg">
<path d="M6.85739 19.0355L7.64172 19.4937C8.96441 20.2652 10.4688 20.6701 12 20.667C13.7141 20.667 15.3897 20.1587 16.8149 19.2064C18.2401 18.2541 19.351 16.9005 20.0069 15.3169C20.6629 13.7333 20.8345 11.9907 20.5001 10.3095C20.1657 8.62837 19.3403 7.08412 18.1282 5.87207C16.9162 4.66001 15.3719 3.83459 13.6908 3.50019C12.0096 3.16578 10.267 3.33741 8.68338 3.99337C7.09976 4.64933 5.74621 5.76016 4.7939 7.18538C3.8416 8.61061 3.33331 10.2862 3.33331 12.0003C3.33331 13.556 3.74172 15.0477 4.50764 16.3597L4.96481 17.144L4.25739 19.7451L6.85739 19.0355ZM1.17097 22.8337L2.63564 17.4517C1.67054 15.7973 1.16349 13.9156 1.16664 12.0003C1.16664 6.01708 6.01672 1.16699 12 1.16699C17.9832 1.16699 22.8333 6.01708 22.8333 12.0003C22.8333 17.9836 17.9832 22.8337 12 22.8337C10.0855 22.8367 8.20469 22.3301 6.55081 21.3657L1.17097 22.8337ZM8.09022 6.91733C8.23539 6.90649 8.38164 6.90649 8.52681 6.91299C8.58531 6.91732 8.64381 6.92383 8.70231 6.93033C8.87456 6.94983 9.06414 7.05491 9.12806 7.20007C9.45089 7.93241 9.76506 8.67016 10.0684 9.41008C10.1356 9.57474 10.0955 9.78599 9.96764 9.99182C9.87972 10.131 9.78462 10.2655 9.68272 10.3948C9.56031 10.5519 9.29706 10.8401 9.29706 10.8401C9.29706 10.8401 9.18981 10.9679 9.23097 11.1272C9.24614 11.1878 9.29597 11.2756 9.34147 11.3492L9.40539 11.4522C9.68272 11.9147 10.0554 12.3838 10.5104 12.8258C10.6404 12.9515 10.7671 13.0804 10.9036 13.2007C11.4106 13.6481 11.9848 14.0132 12.6045 14.284L12.6099 14.2862C12.702 14.3262 12.7486 14.3479 12.8829 14.4053C12.9501 14.4335 13.0194 14.4584 13.0898 14.4768C13.1626 14.4954 13.2392 14.4919 13.31 14.4668C13.3808 14.4417 13.4425 14.3962 13.4874 14.336C14.2717 13.3859 14.3432 13.3242 14.3497 13.3242V13.3263C14.4042 13.2755 14.4689 13.2369 14.5396 13.2132C14.6102 13.1895 14.6851 13.1811 14.7592 13.1887C14.8242 13.1931 14.8903 13.205 14.951 13.2321C15.5262 13.4953 16.4676 13.9059 16.4676 13.9059L17.0981 14.1887C17.2043 14.2396 17.3007 14.3598 17.304 14.4757C17.3083 14.5483 17.3148 14.6653 17.2899 14.8798C17.2552 15.1604 17.1707 15.4973 17.0862 15.6739C17.0284 15.7944 16.9515 15.9049 16.8587 16.0011C16.7494 16.1159 16.6297 16.2203 16.5012 16.3131C16.4568 16.3465 16.4116 16.379 16.3658 16.4106C16.2311 16.4961 16.0926 16.5756 15.9509 16.6489C15.672 16.7971 15.3639 16.8821 15.0485 16.8981C14.8481 16.9089 14.6476 16.9241 14.4461 16.9132C14.4375 16.9132 13.8308 16.819 13.8308 16.819C12.2906 16.4139 10.8661 15.6549 9.67081 14.6025C9.42597 14.3869 9.19956 14.1551 8.96772 13.9243C8.00356 12.9656 7.27556 11.931 6.83356 10.9538C6.60732 10.4742 6.48512 9.95218 6.47497 9.42199C6.47051 8.76425 6.68552 8.1238 7.08597 7.60199C7.16506 7.50016 7.23981 7.39399 7.36872 7.27158C7.50631 7.14158 7.59297 7.07224 7.68722 7.02458C7.81254 6.96178 7.94924 6.92493 8.08914 6.91624L8.09022 6.91733Z" fill="white"/>
</svg>
