<svg width="24" height="24" viewBox="0 0 24 24" fill="none" xmlns="http://www.w3.org/2000/svg">
<path d="M20.9999 2.992V21.008C20.9978 21.2706 20.8925 21.5219 20.7067 21.7075C20.5209 21.8931 20.2695 21.9982 20.0069 22H3.99288C3.72969 22 3.47727 21.8955 3.29107 21.7095C3.10488 21.5235 3.00014 21.2712 2.99988 21.008V2.992C3.00197 2.72938 3.1073 2.47813 3.2931 2.29251C3.4789 2.1069 3.73026 2.00183 3.99288 2H20.0069C20.5549 2 20.9999 2.444 20.9999 2.992ZM18.9999 4H4.99988V20H18.9999V4ZM11.2929 13.121L15.5359 8.879L16.9499 10.293L11.2929 15.95L7.40288 12.06L8.81788 10.646L11.2929 13.121Z" fill="white"/>
</svg>
