<svg width="24" height="24" viewBox="0 0 24 24" fill="none" xmlns="http://www.w3.org/2000/svg">
<path d="M9.15469 18.0464C9.04324 18.8285 8.65333 19.5442 8.05657 20.062C7.45982 20.5797 6.6963 20.8648 5.90625 20.8648C5.1162 20.8648 4.35268 20.5797 3.75593 20.062C3.15917 19.5442 2.76926 18.8285 2.65781 18.0464H1.6875V6.79639C1.6875 6.54775 1.78627 6.30929 1.96209 6.13347C2.1379 5.95766 2.37636 5.85889 2.625 5.85889H15.75C15.9986 5.85889 16.2371 5.95766 16.4129 6.13347C16.5887 6.30929 16.6875 6.54775 16.6875 6.79639V8.67139H19.5L22.3125 12.4739V18.0464H20.4047C20.2932 18.8285 19.9033 19.5442 19.3066 20.062C18.7098 20.5797 17.9463 20.8648 17.1562 20.8648C16.3662 20.8648 15.6027 20.5797 15.0059 20.062C14.4092 19.5442 14.0193 18.8285 13.9078 18.0464H9.15469ZM14.8125 7.73389H3.5625V15.2808C3.9324 14.9031 4.38806 14.6205 4.89071 14.4568C5.39335 14.2932 5.92809 14.2534 6.44942 14.3408C6.97074 14.4283 7.46323 14.6404 7.88495 14.9591C8.30667 15.2778 8.64514 15.6937 8.87156 16.1714H14.1909C14.3484 15.8404 14.5594 15.5395 14.8125 15.2808V7.73389ZM16.6875 13.3589H20.4375V13.0917L18.555 10.5464H16.6875V13.3589ZM17.1562 18.9839C17.5293 18.9839 17.8871 18.8357 18.151 18.5719C18.4148 18.3081 18.563 17.9503 18.563 17.5772C18.563 17.2041 18.4148 16.8463 18.151 16.5825C17.8871 16.3187 17.5293 16.1704 17.1562 16.1704C16.7832 16.1704 16.4254 16.3187 16.1615 16.5825C15.8977 16.8463 15.7495 17.2041 15.7495 17.5772C15.7495 17.9503 15.8977 18.3081 16.1615 18.5719C16.4254 18.8357 16.7832 18.9839 17.1562 18.9839ZM7.3125 17.5776C7.3125 17.393 7.27613 17.2101 7.20546 17.0395C7.13479 16.8689 7.0312 16.7139 6.90062 16.5833C6.77004 16.4527 6.61501 16.3491 6.4444 16.2784C6.27378 16.2078 6.09092 16.1714 5.90625 16.1714C5.72158 16.1714 5.53872 16.2078 5.3681 16.2784C5.19749 16.3491 5.04246 16.4527 4.91188 16.5833C4.7813 16.7139 4.67771 16.8689 4.60704 17.0395C4.53637 17.2101 4.5 17.393 4.5 17.5776C4.5 17.9506 4.64816 18.3083 4.91188 18.572C5.1756 18.8357 5.53329 18.9839 5.90625 18.9839C6.27921 18.9839 6.6369 18.8357 6.90062 18.572C7.16434 18.3083 7.3125 17.9506 7.3125 17.5776Z" fill="white"/>
</svg>
