<svg width="24" height="24" viewBox="0 0 24 24" fill="none" xmlns="http://www.w3.org/2000/svg">
<path d="M6.375 19.3354H17.625V10.1076L12 4.99444L6.375 10.1076V19.3354ZM18.5625 21.2104H5.4375C5.18886 21.2104 4.9504 21.1116 4.77459 20.9358C4.59877 20.76 4.5 20.5215 4.5 20.2729V11.8354H1.6875L11.3691 3.03412C11.5417 2.87707 11.7666 2.79004 12 2.79004C12.2334 2.79004 12.4583 2.87707 12.6309 3.03412L22.3125 11.8354H19.5V20.2729C19.5 20.5215 19.4012 20.76 19.2254 20.9358C19.0496 21.1116 18.8111 21.2104 18.5625 21.2104ZM7.78125 13.7104H9.65625C9.65625 14.332 9.90318 14.9281 10.3427 15.3677C10.7823 15.8072 11.3784 16.0541 12 16.0541C12.6216 16.0541 13.2177 15.8072 13.6573 15.3677C14.0968 14.9281 14.3438 14.332 14.3438 13.7104H16.2188C16.2188 14.8293 15.7743 15.9023 14.9831 16.6935C14.1919 17.4847 13.1189 17.9291 12 17.9291C10.8811 17.9291 9.80806 17.4847 9.01689 16.6935C8.22572 15.9023 7.78125 14.8293 7.78125 13.7104Z" fill="white"/>
</svg>
