<svg width="24" height="24" viewBox="0 0 24 24" fill="none" xmlns="http://www.w3.org/2000/svg">
<path d="M20.0413 2C20.5933 2 21.0413 2.448 21.0413 3V6.757L19.0413 8.757V4H5.04126V20H19.0413V17.242L21.0413 15.242V21C21.0413 21.552 20.5933 22 20.0413 22H4.04126C3.48926 22 3.04126 21.552 3.04126 21V3C3.04126 2.448 3.48926 2 4.04126 2H20.0413ZM21.8193 8.808L23.2333 10.222L15.4553 18L14.0393 17.998L14.0413 16.586L21.8193 8.808ZM13.0413 12V14H8.04126V12H13.0413ZM16.0413 8V10H8.04126V8H16.0413Z" fill="white"/>
</svg>
