<svg width="20" height="20" viewBox="0 0 20 20" fill="none" xmlns="http://www.w3.org/2000/svg">
<path d="M5 1C4.17157 1 3.5 1.67157 3.5 2.5V17.5C3.5 18.3284 4.17157 19 5 19H15C15.8284 19 16.5 18.3284 16.5 17.5V5.47021H12.0298V1H5Z" fill="#00AE45"/>
<path d="M12.0298 1L16.5 5.47021H12.0298V1Z" fill="#008429"/>
<path fill-rule="evenodd" clip-rule="evenodd" d="M5.85791 8.44824V14.6035H14.0649V8.44824H5.85791ZM9.46143 9.44824V11.0259H6.85791V9.44824H9.46143ZM6.85791 12.0259H9.46143V13.6035H6.85791V12.0259ZM10.4614 12.0259V13.6035H13.0649V12.0259H10.4614ZM10.4614 11.0259H13.0649V9.44824H10.4614V11.0259Z" fill="white"/>
</svg>
