<svg id="eqzymjz2bzz91" xmlns="http://www.w3.org/2000/svg" xmlns:xlink="http://www.w3.org/1999/xlink" viewBox="0 0 1380 400" shape-rendering="geometricPrecision" text-rendering="geometricPrecision"><rect id="eqzymjz2bzz92" width="1416.792384" height="430.696321" rx="0" ry="0" transform="matrix(1 0 0 1 -13.89489935156197 -11.41213746875025)" fill="rgb(0,66,117)" stroke="none" stroke-width="1"/><g id="eqzymjz2bzz93"><g id="eqzymjz2bzz94" transform="matrix(1 0 0 1 495.09901714500000 35)"><rect id="eqzymjz2bzz95" display="none" width="300.670013" height="295.329987" rx="0" ry="0" transform="matrix(1 0 0 1 19.30102646875048 26.12387067578106)" fill="rgb(0,66,117)" stroke="none" stroke-width="1"/><rect id="eqzymjz2bzz96" display="none" width="303.899994" height="300.179993" rx="0" ry="0" transform="matrix(1 0 0 1 10.17102158593798 15.88388044140606)" fill="rgb(255,255,255)" stroke="none" stroke-width="1"/><rect id="eqzymjz2bzz97" width="294.679993" height="289.440002" rx="200" ry="0" transform="matrix(0 0 0 0 161.80105698500006 165.93389875000003)" fill="rgb(255,255,255)" stroke="none" stroke-width="1"/><g id="eqzymjz2bzz98" opacity="0"><ellipse id="eqzymjz2bzz99" rx="81.190002" ry="179.139999" transform="matrix(-0.30901699437495 -0.95105651629515 0.95105651629515 -0.30901699437495 205.49108994222817 190.06387312057146)" fill="none" stroke="rgb(0,66,117)" stroke-width="4" stroke-miterlimit="10"/><ellipse id="eqzymjz2bzz910" rx="81.190002" ry="179.139999" transform="matrix(-0.30901699437495 -0.95105651629515 0.95105651629515 -0.30901699437495 205.49108994222817 190.06387312057146)" fill="none" stroke="rgb(0,66,117)" stroke-width="4" stroke-miterlimit="10"/><ellipse id="eqzymjz2bzz911" rx="81.190002" ry="179.139999" transform="matrix(-0.30901699437495 -0.95105651629515 0.95105651629515 -0.30901699437495 205.49108994222817 190.06387312057146)" fill="none" stroke="rgb(0,66,117)" stroke-width="4" stroke-miterlimit="10"/><ellipse id="eqzymjz2bzz912" rx="81.190002" ry="179.139999" transform="matrix(-0.30901699437495 -0.95105651629515 0.95105651629515 -0.30901699437495 205.49108994222817 190.06387312057146)" fill="none" stroke="rgb(0,66,117)" stroke-width="4" stroke-miterlimit="10"/><ellipse id="eqzymjz2bzz913" rx="81.190002" ry="179.139999" transform="matrix(-0.30901699437495 -0.95105651629515 0.95105651629515 -0.30901699437495 205.49108994222817 190.06387312057146)" fill="none" stroke="rgb(0,66,117)" stroke-width="4" stroke-miterlimit="10"/><ellipse id="eqzymjz2bzz914" rx="81.190002" ry="179.139999" transform="matrix(-0.30901699437495 -0.95105651629515 0.95105651629515 -0.30901699437495 205.49108994222817 190.06387312057146)" fill="none" stroke="rgb(0,66,117)" stroke-width="4" stroke-miterlimit="10"/><ellipse id="eqzymjz2bzz915" rx="81.190002" ry="179.139999" transform="matrix(-0.30901699437495 -0.95105651629515 0.95105651629515 -0.30901699437495 205.49108994222817 190.06387312057146)" fill="none" stroke="rgb(0,66,117)" stroke-width="4" stroke-miterlimit="10"/><ellipse id="eqzymjz2bzz916" rx="81.190002" ry="179.139999" transform="matrix(-0.30901699437495 -0.95105651629515 0.95105651629515 -0.30901699437495 205.49108994222817 190.06387312057146)" fill="none" stroke="rgb(0,66,117)" stroke-width="4" stroke-miterlimit="10"/><ellipse id="eqzymjz2bzz917" rx="81.190002" ry="179.139999" transform="matrix(-0.30901699437495 -0.95105651629515 0.95105651629515 -0.30901699437495 205.49108994222817 190.06387312057146)" fill="none" stroke="rgb(0,66,117)" stroke-width="4" stroke-miterlimit="10"/><ellipse id="eqzymjz2bzz918" rx="81.190002" ry="179.139999" transform="matrix(-0.30901699437495 -0.95105651629515 0.95105651629515 -0.30901699437495 205.49108994222817 190.06387312057146)" fill="none" stroke="rgb(0,66,117)" stroke-width="4" stroke-miterlimit="10"/><ellipse id="eqzymjz2bzz919" rx="81.190002" ry="179.139999" transform="matrix(-0.30901699437495 -0.95105651629515 0.95105651629515 -0.30901699437495 205.49108994222817 190.06387312057146)" fill="none" stroke="rgb(0,66,117)" stroke-width="4" stroke-miterlimit="10"/><ellipse id="eqzymjz2bzz920" rx="81.190002" ry="179.139999" transform="matrix(-0.30901699437495 -0.95105651629515 0.95105651629515 -0.30901699437495 205.49108994222817 190.06387312057146)" fill="none" stroke="rgb(0,66,117)" stroke-width="4" stroke-miterlimit="10"/><ellipse id="eqzymjz2bzz921" rx="81.190002" ry="179.139999" transform="matrix(-0.30901699437495 -0.95105651629515 0.95105651629515 -0.30901699437495 205.49108994222817 190.06387312057146)" fill="none" stroke="rgb(0,66,117)" stroke-width="4" stroke-miterlimit="10"/></g><g id="eqzymjz2bzz922" display="none" opacity="0.12"><path id="eqzymjz2bzz923" d="M1460.680000,1002.680000L1460.140000,1002.270000L1464.550000,1002.270000C1480.070000,1014.870000,1493.370000,1037.270000,1502.820000,1066.120000C1512.420000,1095.380000,1518.080000,1131.230000,1518.080000,1169.960000C1518.136359,1192.826176,1516.064086,1215.647958,1511.890000,1238.130000C1508.556783,1256.507399,1503.259750,1274.473730,1496.090000,1291.720000L1493.160000,1291.720000C1499.930000,1276.130000,1505.420000,1257.820000,1509.240000,1237.630000C1513.381319,1215.312775,1515.433528,1192.658128,1515.370000,1169.960000C1515.370000,1131.510000,1509.770000,1095.960000,1500.260000,1066.960000C1490.520000,1037.280000,1476.720000,1014.530000,1460.680000,1002.680000Z" transform="matrix(1 0 0 1 -1229.92895399999952 -981.05612200000019)" fill="rgb(255,255,255)" fill-rule="evenodd" stroke="none" stroke-width="1"/><path id="eqzymjz2bzz924" d="M1377.690000,1291.710000L1374.770000,1291.710000C1367.890000,1275.620000,1362.360000,1256.710000,1358.570000,1235.970000C1354.668246,1214.187672,1352.730464,1192.098964,1352.780000,1169.970000C1352.780000,1130.770000,1358.580000,1094.510000,1368.400000,1065.040000C1377.830000,1036.770000,1390.980000,1014.720000,1406.310000,1002.280000L1410.740000,1002.280000C1394.650000,1013.880000,1380.740000,1036.410000,1370.950000,1065.880000C1361.230000,1095.070000,1355.480000,1131.040000,1355.480000,1169.970000C1355.426343,1191.947370,1357.344026,1213.885262,1361.210000,1235.520000C1365.050000,1256.540000,1370.690000,1275.570000,1377.690000,1291.710000Z" transform="matrix(1 0 0 1 -1229.92895399999952 -981.05612200000019)" fill="rgb(255,255,255)" fill-rule="evenodd" stroke="rgb(255,255,255)" stroke-width="1"/><path id="eqzymjz2bzz925" d="M1438.490000,1002.270000C1455,1012.960000,1470.960000,1032.480000,1484.490000,1058.110000C1498.650000,1084.970000,1510.150000,1118.600000,1516.830000,1155.840000C1521.310136,1180.258130,1523.277070,1205.070981,1522.700000,1229.890000C1522.050000,1253.060000,1518.870000,1274.100000,1513.470000,1291.720000L1510.660000,1291.720000C1516.130000,1274.170000,1519.360000,1253.090000,1520.010000,1229.810000C1520.579727,1205.179000,1518.629586,1180.554290,1514.190000,1156.320000C1507.560000,1119.320000,1496.190000,1086,1482.110000,1059.320000C1467.780000,1032.120000,1450.740000,1011.980000,1433.320000,1002.220000Z" transform="matrix(1 0 0 1 -1229.92895399999952 -981.05612200000019)" fill="rgb(255,255,255)" fill-rule="evenodd" stroke="none" stroke-width="1"/><path id="eqzymjz2bzz926" d="M1394.160000,1290.200000L1394.840000,1291.360000L1394.240000,1291.720000L1391.930000,1291.720000L1391.840000,1291.560000C1382.707429,1275.771014,1375.112554,1259.141318,1369.160000,1241.900000C1362.590016,1223.053470,1357.537254,1203.711856,1354.050000,1184.060000C1346.170000,1140.160000,1346.330000,1098.730000,1352.990000,1065.800000C1358.890000,1036.650000,1369.900000,1014.100000,1384.990000,1002.270000L1389.570000,1002.270000C1373.570000,1012.900000,1361.820000,1035.900000,1355.660000,1066.330000C1349.060000,1098.950000,1348.900000,1140.030000,1356.730000,1183.580000C1360.186779,1203.096795,1365.202851,1222.305008,1371.730000,1241.020000C1377.611736,1258.094898,1385.123025,1274.564143,1394.160000,1290.200000Z" transform="matrix(1 0 0 1 -1229.92895399999952 -981.05612200000019)" fill="rgb(255,255,255)" fill-rule="evenodd" stroke="rgb(255,255,255)" stroke-width="1"/><path id="eqzymjz2bzz927" d="M1412.100000,1290.660000L1412.950000,1291.660000L1412.950000,1291.660000L1409.520000,1291.660000C1398.864372,1278.270652,1389.382616,1263.987794,1381.180000,1248.970000C1372.120004,1232.476100,1364.304921,1215.328377,1357.800000,1197.670000C1357.260000,1196.220000,1356.800000,1194.810000,1356.250000,1193.430000C1340.040000,1148.090000,1333.630000,1104.220000,1336.450000,1069.770000C1339.250000,1035.530000,1351.180000,1010.470000,1371.670000,1002.210000L1383,1002.210000C1379.929028,1002.503135,1376.906090,1003.174899,1374,1004.210000L1374,1004.210000L1373.610000,1004.350000L1373.610000,1004.350000C1353.610000,1011.780000,1341.880000,1036.250000,1339.120000,1069.990000C1336.330000,1104.090000,1342.690000,1147.550000,1358.780000,1192.540000C1359.290000,1193.980000,1359.780000,1195.380000,1360.310000,1196.750000C1366.770434,1214.279795,1374.528595,1231.303628,1383.520000,1247.680000C1391.775130,1262.796904,1401.338333,1277.161785,1412.100000,1290.610000ZM1403.440000,1002.270000L1390.680000,1002.270000C1407.590000,1003.790000,1426.410000,1015.010000,1444.750000,1033.530000C1469.640000,1058.660000,1493.550000,1097.180000,1510.560000,1143.100000C1520.990000,1171.260000,1527.620000,1198.920000,1530.560000,1224.170000C1533.560000,1249.880000,1532.790000,1273.070000,1528.370000,1291.720000L1531.140000,1291.720000C1535.500000,1272.860000,1536.250000,1249.590000,1533.240000,1223.870000C1530.240000,1198.410000,1523.570000,1170.530000,1513.060000,1142.170000C1495.920000,1095.890000,1471.780000,1057.030000,1446.630000,1031.630000C1432.250000,1017.080000,1417.480000,1006.930000,1403.440000,1002.270000Z" transform="matrix(1 0 0 1 -1229.92895399999952 -981.05612200000019)" fill="rgb(255,255,255)" fill-rule="evenodd" stroke="rgb(255,255,255)" stroke-width="1"/><path id="eqzymjz2bzz928" d="M1431.860000,1291.100000L1432.560000,1291.720000L1428.560000,1291.720000C1416.479306,1280.712642,1405.297085,1268.757964,1395.120000,1255.970000C1383.639913,1241.602285,1373.209594,1226.426354,1363.910000,1210.560000Q1362.280000,1207.770000,1360.810000,1205.180000C1337.210000,1163.580000,1323.420000,1121.860000,1320.230000,1087.750000C1317.020000,1053.310000,1324.620000,1026.520000,1343.860000,1015.210000L1343.860000,1015.210000L1344.360000,1014.920000L1344.360000,1014.920000C1364.290000,1003.610000,1392.530000,1010.920000,1422.060000,1031.820000C1451.320000,1052.550000,1481.950000,1086.700000,1507.060000,1129.350000C1514.250945,1141.658262,1520.776974,1154.343125,1526.610000,1167.350000C1531.450000,1178.110000,1535.690000,1188.770000,1539.140000,1198.780000L1539.140000,1207.390000L1538.980000,1206.860000C1534.772111,1193.787980,1529.820707,1180.967083,1524.150000,1168.460000C1518.360451,1155.554493,1511.881096,1142.969657,1504.740000,1130.760000C1479.870000,1088.440000,1449.520000,1054.580000,1420.560000,1034.070000C1391.890000,1013.760000,1364.680000,1006.560000,1345.740000,1017.310000L1345.240000,1017.600000L1345.240000,1017.600000C1327,1028.330000,1319.820000,1054.180000,1322.940000,1087.600000C1326.100000,1121.340000,1339.780000,1162.680000,1363.180000,1203.940000C1364.180000,1205.780000,1365.250000,1207.570000,1366.260000,1209.290000C1375.501417,1225.039033,1385.861370,1240.104410,1397.260000,1254.370000C1407.744123,1267.560905,1419.318178,1279.847467,1431.860000,1291.100000Z" transform="matrix(1 0 0 1 -1229.92895399999952 -981.05612200000019)" fill="rgb(255,255,255)" fill-rule="evenodd" stroke="rgb(255,255,255)" stroke-width="1"/><path id="eqzymjz2bzz929" d="M1455.230000,1291L1456.380000,1291.690000L1451.210000,1291.690000C1437.315729,1282.968224,1424.140481,1273.150323,1411.810000,1262.330000C1397.623910,1249.911875,1384.365199,1236.472682,1372.140000,1222.120000C1370.560000,1220.260000,1368.990000,1218.400000,1367.460000,1216.540000C1337.140000,1179.720000,1316.390000,1141.190000,1307.330000,1108.340000C1298.180000,1075.140000,1300.950000,1047.610000,1317.800000,1033.230000L1317.800000,1033.230000L1318.310000,1032.800000L1318.310000,1032.800000C1335.940000,1018.260000,1365.030000,1020.620000,1397.820000,1036.190000C1430.280000,1051.600000,1466.480000,1080.010000,1498.700000,1117.740000C1507.060000,1127.510000,1515.040000,1137.890000,1522.310000,1148.280000C1528.470000,1157.080000,1534.120000,1165.900000,1539.050000,1174.370000L1539.050000,1179.780000C1533.640000,1170.150000,1527.210000,1159.980000,1520.110000,1149.780000C1513.010000,1139.580000,1504.960000,1129.160000,1496.660000,1119.450000C1464.660000,1082.010000,1428.810000,1053.850000,1396.660000,1038.580000C1364.830000,1023.470000,1336.760000,1021.030000,1320.010000,1034.840000L1320.010000,1034.840000L1319.520000,1035.250000L1319.520000,1035.250000C1303.520000,1048.900000,1301.030000,1075.430000,1309.900000,1107.600000C1318.900000,1140.110000,1339.430000,1178.290000,1369.510000,1214.810000Q1371.810000,1217.590000,1374.160000,1220.350000C1386.294989,1234.606349,1399.463977,1247.949141,1413.560000,1260.270000C1426.539376,1271.693913,1440.481185,1281.975453,1455.230000,1291Z" transform="matrix(1 0 0 1 -1229.92895399999952 -981.05612200000019)" fill="rgb(255,255,255)" fill-rule="evenodd" stroke="rgb(255,255,255)" stroke-width="1"/><path id="eqzymjz2bzz930" d="M1487.690000,1291.720000L1488.230000,1290.040000L1489.510000,1290.460000L1491.870000,1291.200000L1491.870000,1291.200000L1493.610000,1291.720000Z" transform="matrix(1 0 0 1 -1229.92895399999952 -981.05612200000019)" fill="rgb(255,255,255)" fill-rule="evenodd" stroke="none" stroke-width="1"/><path id="eqzymjz2bzz931" d="M1489.500000,1290.460000L1490.780000,1290.860000L1490.510000,1291.720000L1484.750000,1291.720000C1467.649942,1285.754800,1451.155733,1278.177376,1435.490000,1269.090000C1416.763492,1258.296072,1398.980495,1245.942308,1382.330000,1232.160000C1380.460000,1230.620000,1378.600000,1229.060000,1376.770000,1227.490000C1340.400000,1196.410000,1313.140000,1161.990000,1298.400000,1131.170000C1283.510000,1100.030000,1281.400000,1072.440000,1295.400000,1055.400000L1295.400000,1055.400000L1295.810000,1054.900000L1295.810000,1054.900000C1310.610000,1037.570000,1339.670000,1034.900000,1374.700000,1044.660000C1409.400000,1054.300000,1450.070000,1076.100000,1488.490000,1107.750000C1496.660000,1114.490000,1504.890000,1122.100000,1512.670000,1129.860000C1521.740000,1138.860000,1530.220000,1148.140000,1537.370000,1156.470000L1538.250000,1157.470000L1536.250000,1159.220000L1535.380000,1158.220000C1528.280000,1149.950000,1519.840000,1140.750000,1510.820000,1131.770000C1503.090000,1124.060000,1494.930000,1116.510000,1486.820000,1109.830000C1448.700000,1078.420000,1408.380000,1056.830000,1374.020000,1047.260000C1340.020000,1037.810000,1311.960000,1040.190000,1297.900000,1056.640000L1297.480000,1057.140000C1284.170000,1073.310000,1286.390000,1099.860000,1300.810000,1130.040000C1315.400000,1160.540000,1342.420000,1194.630000,1378.510000,1225.480000C1380.320000,1227.030000,1382.170000,1228.570000,1384.030000,1230.110000C1400.561858,1243.796169,1418.221440,1256.059860,1436.820000,1266.770000C1453.508108,1276.477698,1471.163728,1284.417364,1489.500000,1290.460000Z" transform="matrix(1 0 0 1 -1229.92895399999952 -981.05612200000019)" fill="rgb(255,255,255)" fill-rule="evenodd" stroke="rgb(255,255,255)" stroke-width="1"/><path id="eqzymjz2bzz932" d="M1539.070000,1283.780000C1519.240000,1284.470000,1495.680000,1280.920000,1470.390000,1273.330000C1443.821168,1265.171836,1418.243526,1254.080142,1394.130000,1240.260000Q1391.490000,1238.780000,1388.720000,1237.140000C1347.110000,1212.690000,1313.920000,1183.330000,1293.800000,1155.360000C1273.470000,1127.100000,1266.420000,1100.170000,1277.340000,1080.920000L1277.340000,1080.920000L1277.610000,1080.440000L1277.610000,1080.440000C1289.120000,1060.850000,1317.290000,1053.280000,1353.520000,1056.900000C1389.400000,1060.470000,1433.310000,1075,1476.730000,1099.620000C1488.423823,1106.283191,1499.771767,1113.535863,1510.730000,1121.350000C1520.940000,1128.620000,1530.480000,1136.140000,1539,1143.530000L1539,1147.120000C1529.468561,1138.755641,1519.511999,1130.888521,1509.170000,1123.550000C1498.269968,1115.784642,1486.982055,1108.578668,1475.350000,1101.960000C1432.260000,1077.530000,1388.740000,1063.120000,1353.210000,1059.580000C1318.030000,1056.070000,1290.810000,1063.200000,1279.880000,1081.790000L1279.880000,1081.790000L1279.610000,1082.260000C1269.260000,1100.510000,1276.210000,1126.410000,1295.910000,1153.800000C1315.830000,1181.480000,1348.730000,1210.570000,1390.010000,1234.800000Q1392.590000,1236.320000,1395.390000,1237.900000C1419.327850,1251.616606,1444.717326,1262.627656,1471.090000,1270.730000C1496.150000,1278.250000,1519.450000,1281.730000,1539,1281.070000Z" transform="matrix(1 0 0 1 -1229.92895399999952 -981.05612200000019)" fill="rgb(255,255,255)" fill-rule="evenodd" stroke="rgb(255,255,255)" stroke-width="1"/><path id="eqzymjz2bzz933" d="M1538.080000,1264.440000L1539.080000,1264.360000L1539.080000,1267.070000L1538.310000,1267.130000C1519.820000,1268.690000,1498.600000,1267.700000,1475.870000,1264.080000C1452.478964,1260.252389,1429.489023,1254.283975,1407.190000,1246.250000C1405.730000,1245.730000,1404.190000,1245.180000,1402.730000,1244.620000C1356.990000,1227.670000,1318.730000,1204.300000,1293.730000,1180.050000C1268.450000,1155.540000,1256.630000,1130.050000,1264.110000,1109.110000L1264.110000,1109.110000L1264.250000,1108.720000L1264.250000,1108.720000C1272.130000,1087.460000,1298.530000,1075.200000,1334.850000,1072.580000C1370.850000,1069.980000,1416.620000,1076.800000,1463.720000,1093.640000C1477.526077,1098.564782,1491.052887,1104.239900,1504.240000,1110.640000C1516.233427,1116.458584,1527.876604,1122.973020,1539.110000,1130.150000L1539.110000,1133.350000C1527.534073,1125.863379,1515.511690,1119.090770,1503.110000,1113.070000C1490.015660,1106.708294,1476.582137,1101.069820,1462.870000,1096.180000C1416.110000,1079.470000,1370.700000,1072.700000,1335.090000,1075.270000C1299.850000,1077.810000,1274.310000,1089.470000,1266.830000,1109.650000L1266.830000,1109.650000L1266.690000,1110.020000L1266.690000,1110.020000C1259.590000,1129.860000,1271.130000,1154.370000,1295.690000,1178.130000C1320.450000,1202.130000,1358.400000,1225.280000,1403.780000,1242.130000Q1405.920000,1242.920000,1408.210000,1243.740000C1430.351935,1251.725253,1453.181440,1257.656907,1476.410000,1261.460000C1498.780000,1265,1519.780000,1266,1538.080000,1264.440000Z" transform="matrix(1 0 0 1 -1229.92895399999952 -981.05612200000019)" fill="rgb(255,255,255)" fill-rule="evenodd" stroke="rgb(255,255,255)" stroke-width="1"/><path id="eqzymjz2bzz934" d="M1538.940000,1248.670000L1539.070000,1248.670000L1539.070000,1251.410000C1520.586458,1254.657499,1501.833565,1256.120895,1483.070000,1255.780000C1462.280853,1255.478099,1441.548717,1253.521922,1421.070000,1249.930000L1421.070000,1249.930000L1418.580000,1249.490000L1418.580000,1249.490000C1369.910000,1240.740000,1327.480000,1224.210000,1298.130000,1204.490000C1268.490000,1184.490000,1252.130000,1161.190000,1255.940000,1139.120000L1255.940000,1139.120000L1255.940000,1138.910000L1255.940000,1138.910000C1259.940000,1116.620000,1283.780000,1100.040000,1319.080000,1091.260000C1354.080000,1082.570000,1400.350000,1081.470000,1449.720000,1090.020000C1465.658433,1092.801170,1481.406182,1096.581965,1496.870000,1101.340000C1511.235321,1105.715879,1525.312815,1110.986172,1539.020000,1117.120000L1539.020000,1120.120000C1525.047395,1113.818358,1510.684502,1108.420582,1496.020000,1103.960000C1480.670127,1099.239337,1465.039491,1095.485312,1449.220000,1092.720000C1400.220000,1084.240000,1354.290000,1085.320000,1319.680000,1093.920000C1285.420000,1102.440000,1262.330000,1118.290000,1258.540000,1139.430000L1258.540000,1139.430000L1258.540000,1139.650000L1258.540000,1139.650000C1254.920000,1160.580000,1270.840000,1182.960000,1299.540000,1202.310000C1328.600000,1221.870000,1370.670000,1238.250000,1418.950000,1246.930000L1418.950000,1246.930000L1421.440000,1247.370000L1421.440000,1247.370000C1441.783185,1250.940154,1462.378149,1252.886293,1483.030000,1253.190000C1501.769104,1253.498646,1520.493835,1251.984860,1538.940000,1248.670000Z" transform="matrix(1 0 0 1 -1229.92895399999952 -981.05612200000019)" fill="rgb(255,255,255)" fill-rule="evenodd" stroke="rgb(255,255,255)" stroke-width="1"/><path id="eqzymjz2bzz935" d="M1538.530000,1234.150000L1539.070000,1233.990000L1539.070000,1236.800000C1522.979866,1241.659473,1506.527668,1245.227460,1489.870000,1247.470000C1471.825627,1249.940446,1453.632682,1251.166674,1435.420000,1251.140000L1435.420000,1251.140000C1385.290000,1251.140000,1339.870000,1242.140000,1306.990000,1227.620000C1273.770000,1212.950000,1253.210000,1192.560000,1253.210000,1169.930000L1253.210000,1169.930000C1253.210000,1147.310000,1273.750000,1126.930000,1306.960000,1112.260000C1339.810000,1097.740000,1385.200000,1088.760000,1435.290000,1088.740000L1435.420000,1088.740000C1453.789526,1088.760695,1472.134830,1090.073938,1490.320000,1092.670000C1506.805605,1094.973906,1523.099522,1098.486707,1539.070000,1103.180000L1539.070000,1106C1522.981471,1101.231197,1506.559081,1097.671286,1489.940000,1095.350000C1471.881248,1092.767131,1453.662520,1091.463884,1435.420000,1091.450000L1435.290000,1091.450000C1385.590000,1091.450000,1340.590000,1100.370000,1308.040000,1114.750000C1275.840000,1128.970000,1255.910000,1148.500000,1255.910000,1169.950000L1255.910000,1169.950000C1255.910000,1191.410000,1275.850000,1210.950000,1308.080000,1225.180000C1340.650000,1239.560000,1385.680000,1248.460000,1435.420000,1248.470000L1435.420000,1248.470000C1453.508851,1248.499535,1471.578264,1247.283324,1489.500000,1244.830000C1506.102650,1242.586943,1522.498582,1239.015486,1538.530000,1234.150000Z" transform="matrix(1 0 0 1 -1229.92895399999952 -981.05612200000019)" fill="rgb(255,255,255)" fill-rule="evenodd" stroke="rgb(255,255,255)" stroke-width="1"/><path id="eqzymjz2bzz936" d="M1537.720000,1220.690000L1538.950000,1220.130000L1539.070000,1220.410000L1539.070000,1223L1538.840000,1223.110000C1525.105888,1229.325259,1510.966921,1234.603984,1496.520000,1238.910000C1481.171054,1243.509721,1465.559588,1247.183007,1449.770000,1249.910000C1400.400000,1258.460000,1354.090000,1257.350000,1319.140000,1248.660000C1283.830000,1239.880000,1259.990000,1223.310000,1255.980000,1201.020000L1255.980000,1201.020000L1255.980000,1200.810000C1252.150000,1178.740000,1268.540000,1155.400000,1298.200000,1135.440000C1327.550000,1115.690000,1370,1099.150000,1418.670000,1090.440000L1418.670000,1090.440000L1421.120000,1090.010000L1421.120000,1090.010000C1441.579898,1086.429567,1462.291447,1084.476783,1483.060000,1084.170000C1501.823387,1083.820973,1520.576741,1085.281056,1539.060000,1088.530000L1539.060000,1091.260000L1538.770000,1091.260000C1520.380201,1088.017344,1501.720352,1086.557241,1483.050000,1086.900000C1462.425741,1087.215351,1441.858542,1089.158050,1421.540000,1092.710000L1421.540000,1092.710000L1419.090000,1093.150000L1419.090000,1093.150000C1370.790000,1101.820000,1328.710000,1118.210000,1299.650000,1137.770000C1270.890000,1157.120000,1254.960000,1179.510000,1258.590000,1200.450000L1258.590000,1200.660000L1258.590000,1200.660000C1262.400000,1221.790000,1285.490000,1237.660000,1319.740000,1246.150000C1354.360000,1254.750000,1400.270000,1255.830000,1449.280000,1247.360000C1464.960639,1244.658051,1480.465135,1241.018184,1495.710000,1236.460000C1510.056639,1232.167690,1524.092755,1226.898717,1537.720000,1220.690000Z" transform="matrix(1 0 0 1 -1229.92895399999952 -981.05612200000019)" fill="rgb(255,255,255)" fill-rule="evenodd" stroke="rgb(255,255,255)" stroke-width="1"/><path id="eqzymjz2bzz937" d="M1539.070000,1209.560000C1527.676986,1216.751495,1515.903100,1223.321103,1503.800000,1229.240000C1490.758217,1235.659292,1477.363449,1241.335041,1463.680000,1246.240000C1416.570000,1263.080000,1370.770000,1269.890000,1334.810000,1267.300000C1298.490000,1264.680000,1272.080000,1252.420000,1264.200000,1231.160000L1264.200000,1231.160000L1264.060000,1230.770000L1264.060000,1230.770000C1256.570000,1209.840000,1268.390000,1184.330000,1293.670000,1159.830000C1318.670000,1135.570000,1356.960000,1112.200000,1402.670000,1095.250000L1402.670000,1095.250000L1407.150000,1093.620000C1429.627145,1085.523787,1452.806267,1079.528148,1476.390000,1075.710000C1499.230000,1072.110000,1520.530000,1071.180000,1539.060000,1072.810000L1539.060000,1075.520000L1538.950000,1075.520000C1520.600000,1073.890000,1499.470000,1074.820000,1476.800000,1078.390000C1453.381314,1082.180346,1430.365645,1088.139312,1408.050000,1096.190000Q1405.940000,1096.940000,1403.610000,1097.800000L1403.610000,1097.800000C1358.240000,1114.620000,1320.300000,1137.800000,1295.540000,1161.800000C1271.030000,1185.560000,1259.540000,1210.060000,1266.540000,1229.910000L1266.540000,1229.910000L1266.670000,1230.280000L1266.670000,1230.280000C1274.140000,1250.460000,1299.670000,1262.120000,1334.930000,1264.660000C1370.540000,1267.230000,1415.930000,1260.460000,1462.710000,1243.750000C1476.294049,1238.873614,1489.594809,1233.241490,1502.550000,1226.880000C1515.076822,1220.750493,1527.246321,1213.916209,1539,1206.410000Z" transform="matrix(1 0 0 1 -1229.92895399999952 -981.05612200000019)" fill="rgb(255,255,255)" fill-rule="evenodd" stroke="rgb(255,255,255)" stroke-width="1"/></g><path id="eqzymjz2bzz938" display="none" d="M1539.070000,1175.740000L1499.790000,1197.230000L1494.170000,1196.860000L1472.920000,1206.310000C1467.920000,1213.470000,1453.170000,1214.880000,1438.010000,1209.080000C1421.580000,1202.790000,1411.100000,1190.560000,1414.600000,1181.710000C1418.100000,1172.860000,1434.250000,1170.820000,1450.680000,1177.090000C1463.310000,1181.920000,1472.330000,1190.250000,1474.290000,1197.870000L1489.660000,1188.400000L1491.980000,1183.140000L1539.070000,1155.390000Z" transform="matrix(1 0 0 1 -1229.92895399999952 -981.05612200000019)" fill="rgb(255,255,255)" fill-rule="evenodd" stroke="none" stroke-width="1"/><g id="eqzymjz2bzz939" opacity="0"><rect id="eqzymjz2bzz940" width="129" height="70" rx="0" ry="0" transform="matrix(-0.94551857559932 0.32556815445716 -0.32556815445716 -0.94551857559932 161.10799646289558 157.21363938678564)" fill="rgb(255,255,255)" stroke="none" stroke-width="1"/><rect id="eqzymjz2bzz941" width="200" height="70" rx="0" ry="0" transform="matrix(-1 0 -0 -1 309.41201200000000 126.85276299999994)" fill="rgb(255,255,255)" stroke="none" stroke-width="1"/><rect id="eqzymjz2bzz942" width="104.433407" height="70" rx="0" ry="0" transform="matrix(0.01745240643728 0.99984769515639 -0.99984769515639 0.01745240643728 89.79706201183971 193.15330944052704)" fill="rgb(255,255,255)" stroke="none" stroke-width="1"/><rect id="eqzymjz2bzz943" width="225.708416" height="70" rx="0" ry="0" transform="matrix(1 0 0 1 86.84574099999986 224.76033099000006)" fill="rgb(255,255,255)" stroke="none" stroke-width="1"/></g><path id="eqzymjz2bzz944" d="M981.080000,1090L889.370000,1140.180000L883.750000,1139.810000L862.500000,1149.260000C857.500000,1156.420000,842.750000,1157.830000,827.590000,1152.030000C811.160000,1145.750000,800.680000,1133.510000,804.180000,1124.660000C807.680000,1115.810000,823.830000,1113.770000,840.260000,1120.040000C852.890000,1124.870000,861.910000,1133.200000,863.870000,1140.820000L879.240000,1131.350000L881.560000,1126.090000L976.260000,1070.260000Z" transform="matrix(2 0 0 2 -1412.62471336499857 -2036.80911531500033)" opacity="0" fill="rgb(0,66,117)" fill-rule="evenodd" stroke="none" stroke-width="1"/></g><g id="eqzymjz2bzz945" transform="matrix(1 0 0 1 43.37224700000002 -935.45403000000010)"><g id="eqzymjz2bzz946" opacity="0"><rect id="eqzymjz2bzz947" width="154.750000" height="334.387682" rx="0" ry="0" transform="matrix(1 0 0 1 761.29127282812374 975.03247600000009)" fill="rgb(0,66,117)" stroke="none" stroke-width="1"/><rect id="eqzymjz2bzz948" width="308.909216" height="41.587765" rx="0" ry="0" transform="matrix(1 0 0 1 457.42967782812229 950.10536800000000)" fill="rgb(0,66,117)" stroke="none" stroke-width="1"/><rect id="eqzymjz2bzz949" width="334.260020" height="73.593699" rx="0" ry="0" transform="matrix(1 0 0 1 438.26015082812228 1281.09733799999958)" fill="rgb(0,66,117)" stroke="none" stroke-width="1"/></g></g><polygon id="eqzymjz2bzz950" display="none" points="938.070000,1297.120000 938.070000,1592.450000 636.840000,1592.450000 636.840000,1586.550000 932.170000,1586.550000 932.170000,1297.120000 938.070000,1297.120000" transform="matrix(1 0 0 1 -122.19505200000037 -1235.42708599999969)" fill="rgb(0,66,117)" fill-rule="evenodd" stroke="none" stroke-width="1"/><rect id="eqzymjz2bzz951" width="0" height="5.862118" rx="0" ry="0" transform="matrix(-1 0 -0 -1 810.06413399999553 356.93064876999983)" fill="rgb(255,255,255)" stroke="none" stroke-width="1"/><rect id="eqzymjz2bzz952" width="5.922629" height="0" rx="0" ry="0" transform="matrix(1 0 0 1 809.94552950000013 61.67816000000001)" fill="rgb(255,255,255)" stroke="none" stroke-width="1"/></g><g id="eqzymjz2bzz953" transform="matrix(1 0 0 1 1.45898436999994 30.07609800000000)"><g id="eqzymjz2bzz954" transform="matrix(1 0 0 1 -380.02001953000001 0)" opacity="0"><path id="eqzymjz2bzz955" d="M1923.540000,1252.480000L1925.340000,1297.210000L1914.230000,1297.210000L1912.630000,1257.080000L1911,1257.080000L1901.510000,1287.510000C1900.810000,1290.010000,1899.410000,1291.310000,1896.900000,1291.310000L1889,1291.310000C1886.400000,1291.310000,1885,1290.010000,1884.310000,1287.510000L1874.800000,1257.080000L1873.300000,1257.080000L1871.800000,1297.210000L1860.800000,1297.210000L1862.510000,1252.480000C1862.510000,1249.670000,1864.010000,1248.170000,1866.910000,1248.170000L1878.540000,1248.170000C1880.940000,1248.170000,1882.440000,1249.470000,1883.040000,1251.980000L1890.630000,1276.400000C1891.349307,1278.761378,1891.917128,1281.166269,1892.330000,1283.600000L1893.630000,1283.600000C1894.130000,1281.100000,1894.630000,1278.700000,1895.230000,1276.400000L1902.840000,1251.980000C1903.540000,1249.470000,1904.940000,1248.170000,1907.540000,1248.170000L1919.240000,1248.170000C1922,1248.170000,1923.540000,1249.670000,1923.540000,1252.480000Z" transform="matrix(1 0 0 1 -1229.92895399999952 -981.05612200000019)" fill="rgb(255,255,255)" fill-rule="evenodd" stroke="none" stroke-width="1"/><path id="eqzymjz2bzz956" d="M2495,1230.360000L2495,1235.860000C2495,1238.160000,2493.800000,1239.370000,2491.500000,1239.370000L2485.900000,1239.370000C2483.490000,1239.370000,2482.390000,1238.160000,2482.390000,1235.860000L2482.390000,1230.360000C2482.390000,1228.160000,2483.490000,1226.850000,2485.900000,1226.850000L2491.500000,1226.850000C2492.458799,1226.743351,2493.413986,1227.079114,2494.095167,1227.762241C2494.776348,1228.445368,2495.109384,1229.401509,2495,1230.360000Z" transform="matrix(1 0 0 1 -1229.92895399999952 -981.05612200000019)" fill="rgb(255,255,255)" fill-rule="evenodd" stroke="none" stroke-width="1"/><rect id="eqzymjz2bzz957" width="12.110000" height="49.040001" rx="0" ry="0" transform="matrix(1 0 0 1 1252.68115342187548 267.11392194531231)" fill="rgb(255,255,255)" stroke="none" stroke-width="1"/><rect id="eqzymjz2bzz958" width="12.110000" height="49.040001" rx="0" ry="0" transform="matrix(1 0 0 1 1310.43115342187548 267.11392194531231)" fill="rgb(255,255,255)" stroke="none" stroke-width="1"/><path id="eqzymjz2bzz959" d="M2560.380000,1230.360000L2560.380000,1235.860000C2560.380000,1237.960000,2559.280000,1238.860000,2557.380000,1238.860000L2553.380000,1238.860000C2551.380000,1238.860000,2550.380000,1237.960000,2550.380000,1235.860000L2550.380000,1230.360000C2550.273387,1229.526683,2550.550721,1228.690010,2551.133979,1228.085366C2551.717237,1227.480722,2552.543385,1227.173451,2553.380000,1227.250000L2557.380000,1227.250000C2558.211735,1227.192152,2559.026435,1227.505317,2559.605273,1228.105379C2560.184112,1228.705442,2560.467749,1229.530887,2560.380000,1230.360000Z" transform="matrix(1 0 0 1 -1229.92895399999952 -981.05612200000019)" fill="rgb(255,255,255)" fill-rule="evenodd" stroke="none" stroke-width="1"/><path id="eqzymjz2bzz960" d="M2539.460000,1238.860000L2535.460000,1238.860000C2533.460000,1238.860000,2532.560000,1237.960000,2532.560000,1235.860000L2532.560000,1230.360000C2532.560000,1228.460000,2533.460000,1227.250000,2535.460000,1227.250000L2539.460000,1227.250000C2540.296615,1227.173451,2541.122763,1227.480722,2541.706021,1228.085366C2542.289279,1228.690010,2542.566613,1229.526683,2542.460000,1230.360000L2542.460000,1235.860000C2542.460000,1238,2541.460000,1238.860000,2539.460000,1238.860000Z" transform="matrix(1 0 0 1 -1229.92895399999952 -981.05612200000019)" fill="rgb(255,255,255)" fill-rule="evenodd" stroke="none" stroke-width="1"/><path id="eqzymjz2bzz961" d="M2159.540000,1246.770000C2141.930000,1246.770000,2135.320000,1253.880000,2135.320000,1272.690000C2135.320000,1291.500000,2141.930000,1298.520000,2159.540000,1298.520000C2177.150000,1298.520000,2183.760000,1291.520000,2183.760000,1272.690000C2183.760000,1253.860000,2177.260000,1246.770000,2159.540000,1246.770000ZM2159.540000,1288.770000C2150.630000,1288.770000,2148.030000,1285.260000,2148.030000,1272.650000C2148.030000,1260.040000,2150.630000,1256.440000,2159.540000,1256.440000C2168.450000,1256.440000,2171.150000,1259.940000,2171.150000,1272.650000C2171.150000,1285.360000,2168.450000,1288.810000,2159.540000,1288.810000Z" transform="matrix(1 0 0 1 -1229.92895399999952 -981.05612200000019)" fill="rgb(255,255,255)" fill-rule="evenodd" stroke="none" stroke-width="1"/><path id="eqzymjz2bzz962" d="M2246.810000,1248.170000L2270.230000,1248.170000L2270.230000,1297.170000L2258,1297.170000L2258,1257.170000L2249.900000,1257.170000C2246.190000,1257.170000,2244.900000,1258.370000,2244.390000,1262.670000C2243.290000,1270.880000,2242.090000,1279.990000,2240.290000,1286.090000C2237.890000,1295,2231.580000,1298.410000,2222.170000,1297.700000L2220.970000,1288.600000C2226.380000,1287.600000,2228.080000,1286.390000,2229.480000,1282.690000C2231.180000,1277.590000,2232.380000,1268.080000,2233.080000,1260.470000C2233.900000,1252.280000,2238,1248.170000,2246.810000,1248.170000Z" transform="matrix(1 0 0 1 -1229.92895399999952 -981.05612200000019)" fill="rgb(255,255,255)" fill-rule="evenodd" stroke="none" stroke-width="1"/><path id="eqzymjz2bzz963" d="M2415.560000,1247.670000C2424.560000,1247.670000,2434.560000,1247.670000,2442.680000,1248.770000L2442.180000,1257.280000L2420.760000,1257.280000C2417.260000,1257.280000,2415.760000,1258.780000,2415.760000,1262.380000L2415.760000,1297.210000L2403.650000,1297.210000L2403.650000,1259.080000C2403.650000,1251.480000,2407.550000,1247.670000,2415.560000,1247.670000Z" transform="matrix(1 0 0 1 -1229.92895399999952 -981.05612200000019)" fill="rgb(255,255,255)" fill-rule="evenodd" stroke="none" stroke-width="1"/><polygon id="eqzymjz2bzz964" points="1686.940000,1248.170000 1732.680000,1248.170000 1732.680000,1257.780000 1715.860000,1257.780000 1715.860000,1297.210000 1703.850000,1297.210000 1703.850000,1257.780000 1686.940000,1257.780000 1686.940000,1248.170000" transform="matrix(1 0 0 1 -1229.92895399999952 -981.05612200000019)" fill="rgb(255,255,255)" fill-rule="evenodd" stroke="none" stroke-width="1"/><polygon id="eqzymjz2bzz965" points="2051.650000,1248.170000 2097.390000,1248.170000 2097.390000,1257.780000 2080.570000,1257.780000 2080.570000,1297.210000 2068.560000,1297.210000 2068.560000,1257.780000 2051.650000,1257.780000 2051.650000,1248.170000" transform="matrix(1 0 0 1 -1229.92895399999952 -981.05612200000019)" fill="rgb(255,255,255)" fill-rule="evenodd" stroke="none" stroke-width="1"/><path id="eqzymjz2bzz966" d="M1794.830000,1246.770000C1777.220000,1246.770000,1770.610000,1253.880000,1770.610000,1272.690000C1770.610000,1291.500000,1777.220000,1298.520000,1794.830000,1298.520000C1812.440000,1298.520000,1819.050000,1291.520000,1819.050000,1272.690000C1819.050000,1253.860000,1812.550000,1246.770000,1794.830000,1246.770000ZM1794.830000,1288.770000C1785.920000,1288.770000,1783.320000,1285.260000,1783.320000,1272.650000C1783.320000,1260.040000,1785.920000,1256.440000,1794.830000,1256.440000C1803.740000,1256.440000,1806.440000,1259.940000,1806.440000,1272.650000C1806.440000,1285.360000,1803.740000,1288.810000,1794.830000,1288.810000Z" transform="matrix(1 0 0 1 -1229.92895399999952 -981.05612200000019)" fill="rgb(255,255,255)" fill-rule="evenodd" stroke="none" stroke-width="1"/><path id="eqzymjz2bzz967" d="M2337.090000,1246.770000C2319.480000,1246.770000,2312.870000,1253.880000,2312.870000,1272.690000C2312.870000,1291.500000,2319.480000,1298.520000,2337.090000,1298.520000C2354.700000,1298.520000,2361.310000,1291.520000,2361.310000,1272.690000C2361.310000,1253.860000,2354.810000,1246.770000,2337.090000,1246.770000ZM2337.090000,1288.770000C2328.180000,1288.770000,2325.580000,1285.260000,2325.580000,1272.650000C2325.580000,1260.040000,2328.180000,1256.440000,2337.090000,1256.440000C2346,1256.440000,2348.700000,1259.940000,2348.700000,1272.650000C2348.700000,1285.360000,2346,1288.810000,2337.090000,1288.810000Z" transform="matrix(1 0 0 1 -1229.92895399999952 -981.05612200000019)" fill="rgb(255,255,255)" fill-rule="evenodd" stroke="none" stroke-width="1"/><path id="eqzymjz2bzz968" d="M1993.400000,1246.770000C1985.211181,1246.953976,1977.047957,1247.756258,1968.980000,1249.170000L1970.080000,1257.780000C1977.890000,1257.180000,1986.190000,1256.780000,1990.700000,1256.780000C1997.700000,1256.780000,1999.610000,1258.180000,1999.700000,1263.780000L1999.700000,1266.780000L1981.280000,1266.780000C1972.070000,1266.780000,1966.770000,1271.280000,1966.770000,1279.090000L1966.770000,1284.090000C1966.770000,1293.300000,1973.270000,1298.310000,1982.280000,1298.310000C1989.457294,1298.218577,1996.259674,1295.089918,2001,1289.700000L2002.300000,1297.200000L2011.910000,1297.200000L2011.910000,1263.880000C2011.920000,1250.770000,2005.610000,1246.770000,1993.400000,1246.770000ZM1999.710000,1282.700000C1994.710000,1286.810000,1989.100000,1288.510000,1985.290000,1288.510000C1980.790000,1288.510000,1978.890000,1286.710000,1978.890000,1282.510000L1978.890000,1280.610000C1978.890000,1277.310000,1979.990000,1275.310000,1984.090000,1275.110000L1999.710000,1275.110000Z" transform="matrix(1 0 0 1 -1229.92895399999952 -981.05612200000019)" fill="rgb(255,255,255)" fill-rule="evenodd" stroke="none" stroke-width="1"/><path id="eqzymjz2bzz969" d="M1649.210000,1287.410000L1650.410000,1295.410000C1645.200000,1297.510000,1638.600000,1298.410000,1632.410000,1298.410000C1614.900000,1298.410000,1608.490000,1291.600000,1608.490000,1272.580000C1608.490000,1253.560000,1615,1246.760000,1632.490000,1246.760000C1637.300000,1246.760000,1644.400000,1247.460000,1649.610000,1249.560000L1648.210000,1257.170000C1643.210000,1256.970000,1638.100000,1256.970000,1634.500000,1256.970000C1624.590000,1256.970000,1621.180000,1260.370000,1621.180000,1272.580000C1621.180000,1284.790000,1624.590000,1288.400000,1634.500000,1288.400000C1639.419912,1288.398051,1644.334195,1288.067314,1649.210000,1287.410000Z" transform="matrix(1 0 0 1 -1229.92895399999952 -981.05612200000019)" fill="rgb(255,255,255)" fill-rule="evenodd" stroke="none" stroke-width="1"/></g><g id="eqzymjz2bzz970" transform="matrix(1 0 0 1 -380 0)" opacity="0"><path id="eqzymjz2bzz971" d="M2381.630000,1128.070000L2381.630000,1177.070000L2393.740000,1177.070000L2393.740000,1128.070000Z" transform="matrix(1 0 0 1 -1229.92895399999952 -981.05612200000019)" fill="rgb(255,255,255)" fill-rule="evenodd" stroke="none" stroke-width="1"/><path id="eqzymjz2bzz972" d="M2383.730000,1110.260000L2383.730000,1115.760000C2383.730000,1117.860000,2382.730000,1118.760000,2380.730000,1118.760000L2376.730000,1118.760000C2374.730000,1118.760000,2373.830000,1117.860000,2373.830000,1115.760000L2373.830000,1110.260000C2373.830000,1108.350000,2374.730000,1107.150000,2376.730000,1107.150000L2380.730000,1107.150000C2381.566615,1107.073451,2382.392763,1107.380722,2382.976021,1107.985366C2383.559279,1108.590010,2383.836613,1109.426683,2383.730000,1110.260000Z" transform="matrix(1 0 0 1 -1229.92895399999952 -981.05612200000019)" fill="rgb(255,255,255)" fill-rule="evenodd" stroke="none" stroke-width="1"/><path id="eqzymjz2bzz973" d="M2401.650000,1110.260000L2401.650000,1115.760000C2401.650000,1117.860000,2400.540000,1118.760000,2398.650000,1118.760000L2394.650000,1118.760000C2392.650000,1118.760000,2391.650000,1117.860000,2391.650000,1115.760000L2391.650000,1110.260000C2391.543387,1109.426683,2391.820721,1108.590010,2392.403979,1107.985366C2392.987237,1107.380722,2393.813385,1107.073451,2394.650000,1107.150000L2398.650000,1107.150000C2399.481735,1107.092152,2400.296435,1107.405317,2400.875273,1108.005379C2401.454112,1108.605442,2401.737749,1109.430887,2401.650000,1110.260000Z" transform="matrix(1 0 0 1 -1229.92895399999952 -981.05612200000019)" fill="rgb(255,255,255)" fill-rule="evenodd" stroke="none" stroke-width="1"/><path id="eqzymjz2bzz974" d="M1654.410000,1143.680000C1654.410000,1132.570000,1648.110000,1126.680000,1632.190000,1126.680000C1615.480000,1126.680000,1608.470000,1133.090000,1608.470000,1152.500000C1608.470000,1171.120000,1615.180000,1178.320000,1632.990000,1178.320000C1639.200000,1178.320000,1647.910000,1177.520000,1653.210000,1175.020000L1652.110000,1167.210000C1646.265221,1167.921241,1640.387131,1168.325130,1634.500000,1168.420000C1626.090000,1168.420000,1622.290000,1166.610000,1621.380000,1157.710000L1641.380000,1157.710000C1650.410000,1157.700000,1654.510000,1152.490000,1654.410000,1143.680000ZM1638,1149.190000L1621.080000,1149.190000C1621.480000,1138.880000,1624.190000,1136.280000,1632.690000,1136.280000C1640.100000,1136.280000,1642.400000,1138.280000,1642.400000,1143.480000C1642.400000,1146.090000,1641.900000,1149.190000,1638,1149.190000Z" transform="matrix(1 0 0 1 -1229.92895399999952 -981.05612200000019)" fill="rgb(255,255,255)" fill-rule="evenodd" stroke="none" stroke-width="1"/><path id="eqzymjz2bzz975" d="M1735.180000,1167.300000L1736.380000,1175.300000C1731.180000,1177.400000,1724.570000,1178.300000,1718.380000,1178.300000C1700.860000,1178.300000,1694.460000,1171.500000,1694.460000,1152.480000C1694.460000,1133.460000,1700.960000,1126.660000,1718.460000,1126.660000C1723.260000,1126.660000,1730.370000,1127.360000,1735.570000,1129.460000L1734.170000,1137.070000C1729.170000,1136.870000,1724.060000,1136.870000,1720.460000,1136.870000C1710.550000,1136.870000,1707.150000,1140.270000,1707.150000,1152.480000C1707.150000,1164.690000,1710.550000,1168.290000,1720.460000,1168.290000C1725.383260,1168.288825,1730.300920,1167.958086,1735.180000,1167.300000Z" transform="matrix(1 0 0 1 -1229.92895399999952 -981.05612200000019)" fill="rgb(255,255,255)" fill-rule="evenodd" stroke="none" stroke-width="1"/><polygon id="eqzymjz2bzz976" points="1772.910000,1128.070000 1818.650000,1128.070000 1818.650000,1137.680000 1801.840000,1137.680000 1801.840000,1177.110000 1789.830000,1177.110000 1789.830000,1137.680000 1772.910000,1137.680000 1772.910000,1128.070000" transform="matrix(1 0 0 1 -1229.92895399999952 -981.05612200000019)" fill="rgb(255,255,255)" fill-rule="evenodd" stroke="none" stroke-width="1"/><path id="eqzymjz2bzz977" d="M1902.520000,1143.680000C1902.520000,1132.570000,1896.220000,1126.680000,1880.300000,1126.680000C1863.590000,1126.680000,1856.580000,1133.090000,1856.580000,1152.500000C1856.580000,1171.120000,1863.290000,1178.320000,1881.100000,1178.320000C1887.310000,1178.320000,1896.020000,1177.520000,1901.320000,1175.020000L1900.220000,1167.210000C1894.375221,1167.921241,1888.497131,1168.325130,1882.610000,1168.420000C1874.200000,1168.420000,1870.400000,1166.610000,1869.490000,1157.710000L1889.490000,1157.710000C1898.520000,1157.700000,1902.620000,1152.490000,1902.520000,1143.680000ZM1886.110000,1149.190000L1869.190000,1149.190000C1869.600000,1138.880000,1872.300000,1136.280000,1880.800000,1136.280000C1888.210000,1136.280000,1890.510000,1138.280000,1890.510000,1143.480000C1890.510000,1146.090000,1890,1149.190000,1886.110000,1149.190000Z" transform="matrix(1 0 0 1 -1229.92895399999952 -981.05612200000019)" fill="rgb(255,255,255)" fill-rule="evenodd" stroke="none" stroke-width="1"/><polygon id="eqzymjz2bzz978" points="1940.050000,1128.070000 1985.790000,1128.070000 1985.790000,1137.680000 1968.980000,1137.680000 1968.980000,1177.110000 1956.970000,1177.110000 1956.970000,1137.680000 1940.050000,1137.680000 1940.050000,1128.070000" transform="matrix(1 0 0 1 -1229.92895399999952 -981.05612200000019)" fill="rgb(255,255,255)" fill-rule="evenodd" stroke="none" stroke-width="1"/><path id="eqzymjz2bzz979" d="M2061.360000,1128.070000L2071.360000,1128.070000L2071.360000,1177.070000L2060.450000,1177.070000L2060.450000,1148.750000C2060.450000,1146.350000,2060.750000,1144.240000,2060.950000,1141.440000L2060.650000,1141.440000C2059.688417,1143.767003,2058.478050,1145.983216,2057.040000,1148.050000L2035.930000,1177.050000L2025.930000,1177.050000L2025.930000,1128.050000L2036.740000,1128.050000L2036.740000,1156.680000C2036.750590,1158.986088,2036.616996,1161.290583,2036.340000,1163.580000L2036.640000,1163.580000C2037.615652,1161.390961,2038.822509,1159.312487,2040.240000,1157.380000Z" transform="matrix(1 0 0 1 -1229.92895399999952 -981.05612200000019)" fill="rgb(255,255,255)" fill-rule="evenodd" stroke="none" stroke-width="1"/><path id="eqzymjz2bzz980" d="M2145.230000,1128.070000L2157.140000,1128.070000L2157.140000,1177.070000L2145.230000,1177.070000L2145.230000,1158C2139.561129,1159.822972,2133.662432,1160.833022,2127.710000,1161C2118.610000,1161,2114.100000,1157.500000,2114.100000,1150L2114.100000,1128.080000L2126.100000,1128.080000L2126.100000,1146C2126.100000,1150.100000,2127.600000,1151.500000,2131.810000,1151.500000C2136.406769,1151.515993,2140.962286,1150.632746,2145.220000,1148.900000Z" transform="matrix(1 0 0 1 -1229.92895399999952 -981.05612200000019)" fill="rgb(255,255,255)" fill-rule="evenodd" stroke="none" stroke-width="1"/><polygon id="eqzymjz2bzz981" points="2235.600000,1128.070000 2247.520000,1128.070000 2247.520000,1177.110000 2235.600000,1177.110000 2235.600000,1155.590000 2214.190000,1155.590000 2214.190000,1177.110000 2202.180000,1177.110000 2202.180000,1128.070000 2214.190000,1128.070000 2214.190000,1146.690000 2235.600000,1146.690000 2235.600000,1128.070000" transform="matrix(1 0 0 1 -1229.92895399999952 -981.05612200000019)" fill="rgb(255,255,255)" fill-rule="evenodd" stroke="none" stroke-width="1"/><path id="eqzymjz2bzz982" d="M2314.370000,1126.670000C2296.760000,1126.670000,2290.150000,1133.780000,2290.150000,1152.590000C2290.150000,1171.400000,2296.760000,1178.410000,2314.370000,1178.410000C2331.980000,1178.410000,2338.590000,1171.410000,2338.590000,1152.590000C2338.590000,1133.770000,2332.090000,1126.670000,2314.370000,1126.670000ZM2314.370000,1168.670000C2305.460000,1168.670000,2302.860000,1165.160000,2302.860000,1152.550000C2302.860000,1139.940000,2305.460000,1136.340000,2314.370000,1136.340000C2323.280000,1136.340000,2325.980000,1139.840000,2325.980000,1152.550000C2325.980000,1165.260000,2323.280000,1168.710000,2314.370000,1168.710000Z" transform="matrix(1 0 0 1 -1229.92895399999952 -981.05612200000019)" fill="rgb(255,255,255)" fill-rule="evenodd" stroke="none" stroke-width="1"/></g><g id="eqzymjz2bzz983" transform="matrix(1 0 0 1 -382.21008299999994 0)" opacity="0"><path id="eqzymjz2bzz984" d="M1798.130000,990.150000L1798.130000,995.660000C1798.130000,997.960000,1796.930000,999.160000,1794.630000,999.160000L1789,999.160000C1786.590000,999.160000,1785.490000,997.960000,1785.490000,995.660000L1785.490000,990.150000C1785.490000,987.950000,1786.590000,986.650000,1789,986.650000L1794.600000,986.650000C1795.562642,986.529945,1796.527085,986.858705,1797.215970,987.541736C1797.904855,988.224766,1798.241835,989.186368,1798.130000,990.150000Z" transform="matrix(1 0 0 1 -1229.92895399999952 -981.05612200000019)" fill="rgb(255,255,255)" fill-rule="evenodd" stroke="none" stroke-width="1"/><rect id="eqzymjz2bzz985" width="12.110000" height="49.040001" rx="0" ry="0" transform="matrix(1 0 0 1 555.79101670312548 26.91384870312481)" fill="rgb(255,255,255)" stroke="none" stroke-width="1"/><path id="eqzymjz2bzz986" d="M2036.440000,1057L2023.730000,1057C2017.920000,1040.190000,2016.420000,1036.080000,2008.110000,1036L2002.610000,1036C2002.913060,1037.417545,2003.080482,1038.860722,2003.110000,1040.310000L2003.110000,1057L1991,1057L1991,1008L2003.110000,1008L2003.110000,1021.410000C2003.102716,1023.328678,2002.901696,1025.241716,2002.510000,1027.120000L2007.510000,1027.120000C2016.020000,1027.120000,2018.020000,1021.910000,2022.510000,1008L2034.830000,1008C2029.020000,1024.910000,2027.620000,1029.920000,2017.010000,1031.320000L2017.010000,1031.620000C2028.130000,1032.890000,2029.930000,1037.690000,2036.440000,1057Z" transform="matrix(1 0 0 1 -1229.92895399999952 -981.05612200000019)" fill="rgb(255,255,255)" fill-rule="evenodd" stroke="none" stroke-width="1"/><path id="eqzymjz2bzz987" d="M1946.060000,990.150000L1946.060000,995.660000C1946.060000,997.960000,1944.860000,999.160000,1942.560000,999.160000L1937,999.160000C1934.600000,999.160000,1933.500000,997.960000,1933.500000,995.660000L1933.500000,990.150000C1933.500000,987.950000,1934.600000,986.650000,1937,986.650000L1942.610000,986.650000C1943.559600,986.556382,1944.500654,986.896869,1945.170506,987.576430C1945.840359,988.255990,1946.167271,989.201845,1946.060000,990.150000Z" transform="matrix(1 0 0 1 -1229.92895399999952 -981.05612200000019)" fill="rgb(255,255,255)" fill-rule="evenodd" stroke="none" stroke-width="1"/><rect id="eqzymjz2bzz988" width="12.110000" height="49.040001" rx="0" ry="0" transform="matrix(1 0 0 1 703.72107041406298 26.91384870312481)" fill="rgb(255,255,255)" stroke="none" stroke-width="1"/><path id="eqzymjz2bzz989" d="M2101.090000,1006.570000C2092.901211,1006.754470,2084.738024,1007.556749,2076.670000,1008.970000L2077.770000,1017.580000C2085.580000,1016.980000,2093.880000,1016.580000,2098.390000,1016.580000C2105.390000,1016.580000,2107.300000,1017.980000,2107.390000,1023.580000L2107.390000,1026.580000L2089,1026.580000C2079.790000,1026.580000,2074.490000,1031.090000,2074.490000,1038.900000L2074.490000,1043.900000C2074.490000,1053.110000,2080.990000,1058.110000,2090,1058.110000C2097.178427,1058.023606,2103.982755,1054.894052,2108.720000,1049.500000L2110.020000,1057.010000L2119.630000,1057.010000L2119.630000,1023.680000C2119.610000,1010.570000,2113.300000,1006.570000,2101.090000,1006.570000ZM2107.400000,1042.500000C2102.400000,1046.600000,2096.790000,1048.300000,2092.980000,1048.300000C2088.480000,1048.300000,2086.580000,1046.500000,2086.580000,1042.300000L2086.580000,1040.400000C2086.580000,1037.090000,2087.680000,1035.090000,2091.780000,1034.890000L2107.400000,1034.890000Z" transform="matrix(1 0 0 1 -1229.92895399999952 -981.05612200000019)" fill="rgb(255,255,255)" fill-rule="evenodd" stroke="none" stroke-width="1"/><polygon id="eqzymjz2bzz990" points="1876.500000,1007.970000 1888.410000,1007.970000 1888.410000,1057.010000 1876.500000,1057.010000 1876.500000,1035.490000 1855.080000,1035.490000 1855.080000,1057.010000 1843.070000,1057.010000 1843.070000,1007.970000 1855.080000,1007.970000 1855.080000,1026.580000 1876.500000,1026.580000 1876.500000,1007.970000" transform="matrix(1 0 0 1 -1229.92895399999952 -981.05612200000019)" fill="rgb(255,255,255)" fill-rule="evenodd" stroke="none" stroke-width="1"/><path id="eqzymjz2bzz991" d="M1656.110000,1057L1643.400000,1057C1637.600000,1040.190000,1636.100000,1036.080000,1627.790000,1036L1622.290000,1036C1622.593060,1037.417545,1622.760482,1038.860722,1622.790000,1040.310000L1622.790000,1057L1610.680000,1057L1610.680000,1008L1622.790000,1008L1622.790000,1021.410000C1622.782716,1023.328678,1622.581696,1025.241716,1622.190000,1027.120000L1627.190000,1027.120000C1635.700000,1027.120000,1637.700000,1021.910000,1642.190000,1008L1654.500000,1008C1648.700000,1024.910000,1647.300000,1029.920000,1636.690000,1031.320000L1636.690000,1031.620000C1647.810000,1032.890000,1649.610000,1037.690000,1656.110000,1057Z" transform="matrix(1 0 0 1 -1229.92895399999952 -981.05612200000019)" fill="rgb(255,255,255)" fill-rule="evenodd" stroke="none" stroke-width="1"/><path id="eqzymjz2bzz992" d="M1717.070000,1008L1740.490000,1008L1740.490000,1057L1728.280000,1057L1728.280000,1017L1720.170000,1017C1716.470000,1017,1715.170000,1018.200000,1714.660000,1022.500000C1713.560000,1030.710000,1712.360000,1039.820000,1710.560000,1045.920000C1708.160000,1054.830000,1701.850000,1058.230000,1692.440000,1057.530000L1691.240000,1048.420000C1696.650000,1047.420000,1698.350000,1046.220000,1699.750000,1042.520000C1701.450000,1037.410000,1702.650000,1027.910000,1703.350000,1020.300000C1704.150000,1012.070000,1708.260000,1008,1717.070000,1008Z" transform="matrix(1 0 0 1 -1229.92895399999952 -981.05612200000019)" fill="rgb(255,255,255)" fill-rule="evenodd" stroke="none" stroke-width="1"/></g></g><script><![CDATA[!function(t,n){"object"==typeof exports&&"undefined"!=typeof module?module.exports=n():"function"==typeof define&&define.amd?define(n):(t=t||self).__SVGATOR_PLAYER__=n()}(this,(function(){"use strict";function t(n){return(t="function"==typeof Symbol&&"symbol"==typeof Symbol.iterator?function(t){return typeof t}:function(t){return t&&"function"==typeof Symbol&&t.constructor===Symbol&&t!==Symbol.prototype?"symbol":typeof t})(n)}function n(t,n){if(!(t instanceof n))throw new TypeError("Cannot call a class as a function")}function r(t,n){for(var r=0;r<n.length;r++){var e=n[r];e.enumerable=e.enumerable||!1,e.configurable=!0,"value"in e&&(e.writable=!0),Object.defineProperty(t,e.key,e)}}function e(t,n,e){return n&&r(t.prototype,n),e&&r(t,e),t}var i=Math.abs;function u(t){return t}function o(t,n,r){var e=1-r;return 3*r*e*(t*e+n*r)+r*r*r}function a(){var t=arguments.length>0&&void 0!==arguments[0]?arguments[0]:0,n=arguments.length>1&&void 0!==arguments[1]?arguments[1]:0,r=arguments.length>2&&void 0!==arguments[2]?arguments[2]:1,e=arguments.length>3&&void 0!==arguments[3]?arguments[3]:1;return t<0||t>1||r<0||r>1?null:i(t-n)<=1e-5&&i(r-e)<=1e-5?u:function(u){if(u<=0)return t>0?u*n/t:0===n&&r>0?u*e/r:0;if(u>=1)return r<1?1+(u-1)*(e-1)/(r-1):1===r&&t<1?1+(u-1)*(n-1)/(t-1):1;for(var a,l=0,f=1;l<f;){var s=o(t,r,a=(l+f)/2);if(i(u-s)<1e-5)break;s<u?l=a:f=a}return o(n,e,a)}}function l(){return 1}function f(t){return 1===t?1:0}function s(){var t=arguments.length>0&&void 0!==arguments[0]?arguments[0]:1,n=arguments.length>1&&void 0!==arguments[1]?arguments[1]:0;if(1===t){if(0===n)return f;if(1===n)return l}var r=1/t;return function(t){return t>=1?1:(t+=n*r)-t%r}}function c(t){var n=arguments.length>1&&void 0!==arguments[1]?arguments[1]:2;if(Number.isInteger(t))return t;var r=Math.pow(10,n);return Math.round(t*r)/r}var v=Math.PI/180;function h(t,n,r){return t>=.5?r:n}function y(t,n,r){return 0===t||n===r?n:t*(r-n)+n}function d(t,n,r){var e=y(t,n,r);return e<=0?0:e}function g(t,n,r){return 0===t?n:1===t?r:{x:y(t,n.x,r.x),y:y(t,n.y,r.y)}}function m(t,n,r){return 0===t?n:1===t?r:{x:d(t,n.x,r.x),y:d(t,n.y,r.y)}}function p(t,n,r){var e=function(t,n,r){return Math.round(y(t,n,r))}(t,n,r);return e<=0?0:e>=255?255:e}function b(t,n,r){return 0===t?n:1===t?r:{r:p(t,n.r,r.r),g:p(t,n.g,r.g),b:p(t,n.b,r.b),a:y(t,null==n.a?1:n.a,null==r.a?1:r.a)}}function w(t,n,r){if(0===t)return n;if(1===t)return r;var e=n.length;if(e!==r.length)return h(t,n,r);for(var i=[],u=0;u<e;u++)i.push(b(t,n[u],r[u]));return i}function A(t,n,r){var e=n.length;if(e!==r.length)return h(t,n,r);for(var i=new Array(e),u=0;u<e;u++)i[u]=y(t,n[u],r[u]);return i}function x(t,n){for(var r=[],e=0;e<t;e++)r.push(n);return r}function k(t,n){if(--n<=0)return t;var r=(t=Object.assign([],t)).length;do{for(var e=0;e<r;e++)t.push(t[e])}while(--n>0);return t}var S=/\.0+$/g;function _(t){return Number.isInteger(t)?t+"":t.toFixed(6).replace(S,"")}function M(t){var n=arguments.length>1&&void 0!==arguments[1]?arguments[1]:" ";return t&&t.length?t.map(_).join(n):""}function I(t){return _(t.x)+","+_(t.y)}function E(t){return t?null==t.a||t.a>=1?"rgb("+t.r+","+t.g+","+t.b+")":"rgba("+t.r+","+t.g+","+t.b+","+t.a+")":"transparent"}var F={f:null,i:m,u:function(t,n){return function(r){var e=n(r);t.setAttribute("rx",_(e.x)),t.setAttribute("ry",_(e.y))}}},B={f:null,i:function(t,n,r){return 0===t?n:1===t?r:{width:d(t,n.width,r.width),height:d(t,n.height,r.height)}},u:function(t,n){return function(r){var e=n(r);t.setAttribute("width",_(e.width)),t.setAttribute("height",_(e.height))}}},j=Math.sin,q=Math.cos,P=Math.acos,O=Math.asin,z=Math.tan,L=Math.atan2,C=Math.PI/180,R=180/Math.PI,T=Math.sqrt,V=function(){function t(){var r=arguments.length>0&&void 0!==arguments[0]?arguments[0]:1,e=arguments.length>1&&void 0!==arguments[1]?arguments[1]:0,i=arguments.length>2&&void 0!==arguments[2]?arguments[2]:0,u=arguments.length>3&&void 0!==arguments[3]?arguments[3]:1,o=arguments.length>4&&void 0!==arguments[4]?arguments[4]:0,a=arguments.length>5&&void 0!==arguments[5]?arguments[5]:0;n(this,t),this.m=[r,e,i,u,o,a],this.i=null,this.w=null,this.s=null}return e(t,[{key:"point",value:function(t,n){var r=this.m;return{x:r[0]*t+r[2]*n+r[4],y:r[1]*t+r[3]*n+r[5]}}},{key:"translateSelf",value:function(){var t=arguments.length>0&&void 0!==arguments[0]?arguments[0]:0,n=arguments.length>1&&void 0!==arguments[1]?arguments[1]:0;if(!t&&!n)return this;var r=this.m;return r[4]+=r[0]*t+r[2]*n,r[5]+=r[1]*t+r[3]*n,this.w=this.s=this.i=null,this}},{key:"rotateSelf",value:function(){var t=arguments.length>0&&void 0!==arguments[0]?arguments[0]:0;if(t%=360){var n=j(t*=C),r=q(t),e=this.m,i=e[0],u=e[1];e[0]=i*r+e[2]*n,e[1]=u*r+e[3]*n,e[2]=e[2]*r-i*n,e[3]=e[3]*r-u*n,this.w=this.s=this.i=null}return this}},{key:"scaleSelf",value:function(){var t=arguments.length>0&&void 0!==arguments[0]?arguments[0]:1,n=arguments.length>1&&void 0!==arguments[1]?arguments[1]:1;if(1!==t||1!==n){var r=this.m;r[0]*=t,r[1]*=t,r[2]*=n,r[3]*=n,this.w=this.s=this.i=null}return this}},{key:"skewSelf",value:function(t,n){if(n%=360,(t%=360)||n){var r=this.m,e=r[0],i=r[1],u=r[2],o=r[3];t&&(t=z(t*C),r[2]+=e*t,r[3]+=i*t),n&&(n=z(n*C),r[0]+=u*n,r[1]+=o*n),this.w=this.s=this.i=null}return this}},{key:"resetSelf",value:function(){var t=arguments.length>0&&void 0!==arguments[0]?arguments[0]:1,n=arguments.length>1&&void 0!==arguments[1]?arguments[1]:0,r=arguments.length>2&&void 0!==arguments[2]?arguments[2]:0,e=arguments.length>3&&void 0!==arguments[3]?arguments[3]:1,i=arguments.length>4&&void 0!==arguments[4]?arguments[4]:0,u=arguments.length>5&&void 0!==arguments[5]?arguments[5]:0,o=this.m;return o[0]=t,o[1]=n,o[2]=r,o[3]=e,o[4]=i,o[5]=u,this.w=this.s=this.i=null,this}},{key:"recomposeSelf",value:function(){var t=arguments.length>0&&void 0!==arguments[0]?arguments[0]:null,n=arguments.length>1&&void 0!==arguments[1]?arguments[1]:null,r=arguments.length>2&&void 0!==arguments[2]?arguments[2]:null,e=arguments.length>3&&void 0!==arguments[3]?arguments[3]:null,i=arguments.length>4&&void 0!==arguments[4]?arguments[4]:null;return this.isIdentity||this.resetSelf(),t&&(t.x||t.y)&&this.translateSelf(t.x,t.y),n&&this.rotateSelf(n),r&&(r.x&&this.skewSelf(r.x,0),r.y&&this.skewSelf(0,r.y)),!e||1===e.x&&1===e.y||this.scaleSelf(e.x,e.y),i&&(i.x||i.y)&&this.translateSelf(i.x,i.y),this}},{key:"decompose",value:function(){var t=arguments.length>0&&void 0!==arguments[0]?arguments[0]:0,n=arguments.length>1&&void 0!==arguments[1]?arguments[1]:0,r=this.m,e=r[0]*r[0]+r[1]*r[1],i=[[r[0],r[1]],[r[2],r[3]]],u=T(e);if(0===u)return{origin:{x:r[4],y:r[5]},translate:{x:t,y:n},scale:{x:0,y:0},skew:{x:0,y:0},rotate:0};i[0][0]/=u,i[0][1]/=u;var o=r[0]*r[3]-r[1]*r[2]<0;o&&(u=-u);var a=i[0][0]*i[1][0]+i[0][1]*i[1][1];i[1][0]-=i[0][0]*a,i[1][1]-=i[0][1]*a;var l=T(i[1][0]*i[1][0]+i[1][1]*i[1][1]);if(0===l)return{origin:{x:r[4],y:r[5]},translate:{x:t,y:n},scale:{x:u,y:0},skew:{x:0,y:0},rotate:0};i[1][0]/=l,i[1][1]/=l,a/=l;var f=0;return i[1][1]<0?(f=P(i[1][1])*R,i[0][1]<0&&(f=360-f)):f=O(i[0][1])*R,o&&(f=-f),a=L(a,T(i[0][0]*i[0][0]+i[0][1]*i[0][1]))*R,{origin:{x:r[4],y:r[5]},translate:{x:t,y:n},scale:{x:u,y:l},skew:{x:a,y:0},rotate:f}}},{key:"toString",value:function(){return null===this.s&&(this.s="matrix("+this.m.map(N).join(" ")+")"),this.s}},{key:"determinant",get:function(){var t=this.m;return t[0]*t[3]-t[1]*t[2]}},{key:"isIdentity",get:function(){if(null===this.i){var t=this.m;this.i=1===t[0]&&0===t[1]&&0===t[2]&&1===t[3]&&0===t[4]&&0===t[5]}return this.i}}]),t}(),D=/\.0+$/;function N(t){return Number.isInteger(t)?t:t.toFixed(14).replace(D,"")}Object.freeze({M:2,L:2,Z:0,H:1,V:1,C:6,Q:4,T:2,S:4,A:7});function G(t,n,r){return t+(n-t)*r}function $(t,n,r){var e=arguments.length>3&&void 0!==arguments[3]&&arguments[3],i={x:G(t.x,n.x,r),y:G(t.y,n.y,r)};return e&&(i.a=H(t,n)),i}function H(t,n){return Math.atan2(n.y-t.y,n.x-t.x)}function Q(t,n,r,e){var i=1-e;return i*i*t+2*i*e*n+e*e*r}function U(t,n,r,e){return 2*(1-e)*(n-t)+2*e*(r-n)}function Y(t,n,r,e){var i=arguments.length>4&&void 0!==arguments[4]&&arguments[4],u={x:Q(t.x,n.x,r.x,e),y:Q(t.y,n.y,r.y,e)};return i&&(u.a=Z(t,n,r,e)),u}function Z(t,n,r,e){return Math.atan2(U(t.y,n.y,r.y,e),U(t.x,n.x,r.x,e))}function J(t,n,r,e,i){var u=i*i;return i*u*(e-t+3*(n-r))+3*u*(t+r-2*n)+3*i*(n-t)+t}function K(t,n,r,e,i){var u=1-i;return 3*(u*u*(n-t)+2*u*i*(r-n)+i*i*(e-r))}function W(t,n,r,e,i){var u=arguments.length>5&&void 0!==arguments[5]&&arguments[5],o={x:J(t.x,n.x,r.x,e.x,i),y:J(t.y,n.y,r.y,e.y,i)};return u&&(o.a=X(t,n,r,e,i)),o}function X(t,n,r,e,i){return Math.atan2(K(t.y,n.y,r.y,e.y,i),K(t.x,n.x,r.x,e.x,i))}function tt(t,n,r){var e=arguments.length>3&&void 0!==arguments[3]&&arguments[3];if(rt(n)){if(et(r))return Y(n,r.start,r,t,e)}else if(rt(r)){if(n.end)return Y(n,n.end,r,t,e)}else{if(n.end)return r.start?W(n,n.end,r.start,r,t,e):Y(n,n.end,r,t,e);if(r.start)return Y(n,r.start,r,t,e)}return $(n,r,t,e)}function nt(t,n,r){var e=tt(t,n,r,!0);return e.a=function(t){var n=arguments.length>1&&void 0!==arguments[1]&&arguments[1];return n?t+Math.PI:t}(e.a)/v,e}function rt(t){return!t.type||"corner"===t.type}function et(t){return null!=t.start&&!rt(t)}var it=new V;var ut={f:function(t){return t?t.join(" "):""},i:function(n,r,e){if(0===n)return r;if(1===n)return e;var i=r.length;if(i!==e.length)return h(n,r,e);for(var u,o=new Array(i),a=0;a<i;a++){if((u=t(r[a]))!==t(e[a]))return h(n,r,e);if("number"===u)o[a]=y(n,r[a],e[a]);else{if(r[a]!==e[a])return h(n,r,e);o[a]=r[a]}}return o}},ot={f:null,i:A,u:function(t,n){return function(r){var e=n(r);t.setAttribute("x1",_(e[0])),t.setAttribute("y1",_(e[1])),t.setAttribute("x2",_(e[2])),t.setAttribute("y2",_(e[3]))}}},at={f:_,i:y},lt={f:_,i:function(t,n,r){var e=y(t,n,r);return e<=0?0:e>=1?1:e}},ft={f:M,i:function(t,n,r){var e,i,u,o=n.length,a=r.length;if(o!==a)if(0===o)n=x(o=a,0);else if(0===a)a=o,r=x(o,0);else{var l=(u=(e=o)*(i=a)/function(t,n){for(var r;n;)r=n,n=t%n,t=r;return t||1}(e,i))<0?-u:u;n=k(n,Math.floor(l/o)),r=k(r,Math.floor(l/a)),o=a=l}for(var f=[],s=0;s<o;s++)f.push(c(d(t,n[s],r[s]),6));return f}};function st(t,n,r,e,i,u,o,a){return n=function(t,n,r){for(var e,i,u,o=t.length-1,a={},l=0;l<=o;l++)(e=t[l]).e&&(e.e=n(e.e)),e.v&&"g"===(i=e.v).t&&i.r&&(u=r.getElementById(i.r))&&(a[i.r]=u.querySelectorAll("stop"));return a}(t,e,a),function(e){var i,u=r(e,t,ct);return u?"c"===u.t?E(u.v):"g"===u.t?(n[u.r]&&function(t,n){for(var r=0,e=t.length;r<e;r++)t[r].setAttribute("stop-color",E(n[r]))}(n[u.r],u.v),(i=u.r)?"url(#"+i+")":"none"):"none":"none"}}function ct(t,n,r){if(0===t)return n;if(1===t)return r;if(n&&r){var e=n.t;if(e===r.t)switch(n.t){case"c":return{t:e,v:b(t,n.v,r.v)};case"g":if(n.r===r.r)return{t:e,v:w(t,n.v,r.v),r:n.r}}}return h(t,n,r)}var vt={blur:m,brightness:d,contrast:d,"drop-shadow":function(t,n,r){return 0===t?n:1===t?r:{blur:m(t,n.blur,r.blur),offset:g(t,n.offset,r.offset),color:b(t,n.color,r.color)}},grayscale:d,"hue-rotate":y,invert:d,opacity:d,saturate:d,sepia:d};function ht(t,n,r){if(0===t)return n;if(1===t)return r;var e=n.length;if(e!==r.length)return h(t,n,r);for(var i,u=[],o=0;o<e;o++){if(n[o].type!==r[o].type)return n;if(!(i=vt[n[o].type]))return h(t,n,r);u.push({type:n.type,value:i(t,n[o].value,r[o].value)})}return u}var yt={blur:function(t){return t?function(n){t.setAttribute("stdDeviation",I(n))}:null},brightness:function(t,n,r){return(t=gt(r,n))?function(n){n=_(n),t.map((function(t){return t.setAttribute("slope",n)}))}:null},contrast:function(t,n,r){return(t=gt(r,n))?function(n){var r=_((1-n)/2);n=_(n),t.map((function(t){t.setAttribute("slope",n),t.setAttribute("intercept",r)}))}:null},"drop-shadow":function(t,n,r){var e=r.getElementById(n+"-blur");if(!e)return null;var i=r.getElementById(n+"-offset");if(!i)return null;var u=r.getElementById(n+"-flood");return u?function(t){e.setAttribute("stdDeviation",I(t.blur)),i.setAttribute("dx",_(t.offset.x)),i.setAttribute("dy",_(t.offset.y)),u.setAttribute("flood-color",E(t.color))}:null},grayscale:function(t){return t?function(n){t.setAttribute("values",M(function(t){return[.2126+.7874*(t=1-t),.7152-.7152*t,.0722-.0722*t,0,0,.2126-.2126*t,.7152+.2848*t,.0722-.0722*t,0,0,.2126-.2126*t,.7152-.7152*t,.0722+.9278*t,0,0,0,0,0,1,0]}(n)))}:null},"hue-rotate":function(t){return t?function(n){return t.setAttribute("values",_(n))}:null},invert:function(t,n,r){return(t=gt(r,n))?function(n){n=_(n)+" "+_(1-n),t.map((function(t){return t.setAttribute("tableValues",n)}))}:null},opacity:function(t,n,r){return(t=r.getElementById(n+"-A"))?function(n){return t.setAttribute("tableValues","0 "+_(n))}:null},saturate:function(t){return t?function(n){return t.setAttribute("values",_(n))}:null},sepia:function(t){return t?function(n){return t.setAttribute("values",M(function(t){return[.393+.607*(t=1-t),.769-.769*t,.189-.189*t,0,0,.349-.349*t,.686+.314*t,.168-.168*t,0,0,.272-.272*t,.534-.534*t,.131+.869*t,0,0,0,0,0,1,0]}(n)))}:null}};var dt=["R","G","B"];function gt(t,n){var r=dt.map((function(r){return t.getElementById(n+"-"+r)||null}));return-1!==r.indexOf(null)?null:r}var mt={fill:st,"fill-opacity":lt,stroke:st,"stroke-opacity":lt,"stroke-width":at,"stroke-dashoffset":{f:_,i:y},"stroke-dasharray":ft,opacity:lt,transform:function(n,r,e,i){if(!(n=function(n,r){if(!n||"object"!==t(n))return null;var e=!1;for(var i in n)n.hasOwnProperty(i)&&(n[i]&&n[i].length?(n[i].forEach((function(t){t.e&&(t.e=r(t.e))})),e=!0):delete n[i]);return e?n:null}(n,i)))return null;var u=function(t,i,u){var o=arguments.length>3&&void 0!==arguments[3]?arguments[3]:null;return n[t]?e(i,n[t],u):r&&r[t]?r[t]:o};return r&&r.a&&n.o?function(t){var r=e(t,n.o,nt);return it.recomposeSelf(r,u("r",t,y,0)+r.a,u("k",t,g),u("s",t,g),u("t",t,g)).toString()}:function(t){return it.recomposeSelf(u("o",t,tt,null),u("r",t,y,0),u("k",t,g),u("s",t,g),u("t",t,g)).toString()}},"#filter":function(t,n,r,e,i,u,o,a){if(!n.items||!t||!t.length)return null;var l=function(t,n){var r=(t=t.map((function(t){return t&&yt[t[0]]?(n.getElementById(t[1]),yt[t[0]](n.getElementById(t[1]),t[1],n)):null}))).length;return function(n){for(var e=0;e<r;e++)t[e]&&t[e](n[e].value)}}(n.items,a);return l?(t=function(t,n){return t.map((function(t){return t.e=n(t.e),t}))}(t,e),function(n){l(r(n,t,ht))}):null},"#line":ot,points:{f:M,i:A},d:ut,r:at,"#size":B,"#radius":F,_:function(t,n){if(Array.isArray(t))for(var r=0;r<t.length;r++)this[t[r]]=n;else this[t]=n}},pt=function(){function t(r){n(this,t),this.list=r,this.length=r.length}return e(t,[{key:"setAttribute",value:function(t,n){for(var r=this.list,e=0;e<this.length;e++)r[e].setAttribute(t,n)}},{key:"removeAttribute",value:function(t){for(var n=this.list,r=0;r<this.length;r++)n[r].removeAttribute(t)}},{key:"style",value:function(t,n){for(var r=this.list,e=0;e<this.length;e++)r[e].style[t]=n}}]),t}(),bt=/-./g,wt=function(t,n){return n.toUpperCase()};function At(t){return"function"==typeof t?t:h}function xt(t){return t?"function"==typeof t?t:Array.isArray(t)?function(t){var n=arguments.length>1&&void 0!==arguments[1]?arguments[1]:u;if(!Array.isArray(t))return n;switch(t.length){case 1:return s(t[0])||n;case 2:return s(t[0],t[1])||n;case 4:return a(t[0],t[1],t[2],t[3])||n}return n}(t,null):function(t,n){var r=arguments.length>2&&void 0!==arguments[2]?arguments[2]:u;switch(t){case"linear":return u;case"steps":return s(n.steps||1,n.jump||0)||r;case"bezier":case"cubic-bezier":return a(n.x1||0,n.y1||0,n.x2||0,n.y2||0)||r}return r}(t.type,t.value,null):null}function kt(t,n,r){var e=arguments.length>3&&void 0!==arguments[3]&&arguments[3],i=n.length-1;if(t<=n[0].t)return e?[0,0,n[0].v]:n[0].v;if(t>=n[i].t)return e?[i,1,n[i].v]:n[i].v;var u,o=n[0],a=null;for(u=1;u<=i;u++){if(!(t>n[u].t)){a=n[u];break}o=n[u]}return null==a?e?[i,1,n[i].v]:n[i].v:o.t===a.t?e?[u,1,a.v]:a.v:(t=(t-o.t)/(a.t-o.t),o.e&&(t=o.e(t)),e?[u,t,r(t,o.v,a.v)]:r(t,o.v,a.v))}function St(t,n){var r=arguments.length>2&&void 0!==arguments[2]?arguments[2]:null;return t&&t.length?"function"!=typeof n?null:("function"!=typeof r&&(r=null),function(e){var i=kt(e,t,n);return null!=i&&r&&(i=r(i)),i}):null}function _t(t,n){return t.t-n.t}function Mt(n,r,e,i,u){var o,a="@"===e[0],l="#"===e[0],f=mt[e],s=h;switch(a?(o=e.substr(1),e=o.replace(bt,wt)):l&&(e=e.substr(1)),t(f)){case"function":if(s=f(i,u,kt,xt,e,a,r,n),l)return s;break;case"string":s=St(i,At(f));break;case"object":if((s=St(i,At(f.i),f.f))&&"function"==typeof f.u)return f.u(r,s,e,a,n)}return s?function(t,n,r){var e=arguments.length>3&&void 0!==arguments[3]&&arguments[3];if(e)return t instanceof pt?function(e){return t.style(n,r(e))}:function(e){return t.style[n]=r(e)};if(Array.isArray(n)){var i=n.length;return function(e){var u=r(e);if(null==u)for(var o=0;o<i;o++)t[o].removeAttribute(n);else for(var a=0;a<i;a++)t[a].setAttribute(n,u)}}return function(e){var i=r(e);null==i?t.removeAttribute(n):t.setAttribute(n,i)}}(r,e,s,a):null}function It(n,r,e,i){if(!i||"object"!==t(i))return null;var u=null,o=null;return Array.isArray(i)?o=function(t){if(!t||!t.length)return null;for(var n=0;n<t.length;n++)t[n].e&&(t[n].e=xt(t[n].e));return t.sort(_t)}(i):(o=i.keys,u=i.data||null),o?Mt(n,r,e,o,u):null}function Et(t,n,r){if(!r)return null;var e=[];for(var i in r)if(r.hasOwnProperty(i)){var u=It(t,n,i,r[i]);u&&e.push(u)}return e.length?e:null}function Ft(t,n){if(!n.duration||n.duration<0)return null;var r=function(t,n){if(!n)return null;var r=[];if(Array.isArray(n))for(var e=n.length,i=0;i<e;i++){var u=n[i];if(2===u.length){var o=null;if("string"==typeof u[0])o=t.getElementById(u[0]);else if(Array.isArray(u[0])){o=[];for(var a=0;a<u[0].length;a++)if("string"==typeof u[0][a]){var l=t.getElementById(u[0][a]);l&&o.push(l)}o=o.length?1===o.length?o[0]:new pt(o):null}if(o){var f=Et(t,o,u[1]);f&&(r=r.concat(f))}}}else for(var s in n)if(n.hasOwnProperty(s)){var c=t.getElementById(s);if(c){var v=Et(t,c,n[s]);v&&(r=r.concat(v))}}return r.length?r:null}(t,n.elements);return r?function(t,n){var r=arguments.length>2&&void 0!==arguments[2]?arguments[2]:1/0,e=arguments.length>3&&void 0!==arguments[3]?arguments[3]:1,i=arguments.length>4&&void 0!==arguments[4]&&arguments[4],u=arguments.length>5&&void 0!==arguments[5]?arguments[5]:1,o=t.length,a=e>0?n:0;i&&r%2==0&&(a=n-a);var l=null;return function(f,s){var c=f%n,v=1+(f-c)/n;s*=e,i&&v%2==0&&(s=-s);var h=!1;if(v>r)c=a,h=!0,-1===u&&(c=e>0?0:n);else if(s<0&&(c=n-c),c===l)return!1;l=c;for(var y=0;y<o;y++)t[y](c);return h}}(r,n.duration,n.iterations||1/0,n.direction||1,!!n.alternate,n.fill||1):null}var Bt=function(){function t(r){var e=arguments.length>1&&void 0!==arguments[1]?arguments[1]:{};n(this,t),this._id=0,this._running=!1,this._animations=r,this.direction=e.direction||1,this.speed=e.speed||1,this.fps=e.fps||100,this.offset=e.offset||0}return e(t,[{key:"_start",value:function(){var t=this,n=arguments.length>0&&void 0!==arguments[0]?arguments[0]:0,r=-1/0,e=null,i={},u=function u(o){t._running=!0,null==e&&(e=o);var a=Math.round((o-e+n)*t.speed),l=t.fps?1e3/t.fps:0;if(a>r+l){t.offset=a,r=a;for(var f=t._animations,s=f.length,c=0,v=0;v<s;v++)i[v]?c++:(i[v]=f[v](a,t.direction),i[v]&&c++);if(c===s)return void t._stop()}t._id=window.requestAnimationFrame(u)};this._id=window.requestAnimationFrame(u)}},{key:"_stop",value:function(){this._id&&window.cancelAnimationFrame(this._id),this._running=!1}},{key:"play",value:function(){this._running||this._start(this.offset)}},{key:"stop",value:function(){this._stop(),this.offset=0;var t=this.direction,n=this._animations;requestAnimationFrame((function(){for(var r=0;r<n.length;r++)n[r](0,t)}))}},{key:"restart",value:function(){this._stop(),this.offset=0,this._start()}},{key:"pause",value:function(){this._stop()}},{key:"reverse",value:function(){this.direction=-this.direction}}],[{key:"build",value:function(n){if(!(n=function(t){if(!t||!t.root||!Array.isArray(t.animations))return null;var n=window.document.getElementById(t.root);if(!n)return null;var r=t.animations.map((function(t){return Ft(n,t)})).filter((function(t){return!!t}));return r.length?{element:n,animations:r,options:t.options||void 0}:null}(n)))return null;var r=n.element,e=n.options||{},i=new t(n.animations,n.options);return function(t,n,r){var e=arguments.length>3&&void 0!==arguments[3]?arguments[3]:null;if("click"===r){var i=function r(){n.removeEventListener("click",r),t.play()};return void n.addEventListener("click",i)}if("hover"===r)return n.addEventListener("mouseenter",(function(){return t.play()})),void n.addEventListener("mouseleave","freeze"===e?function(){return t.pause()}:function(){return t.stop()});t.play()}(i,r,e.start,e.hover),i}}]),t}();return function(){for(var t=0,n=["ms","moz","webkit","o"],r=0;r<n.length&&!window.requestAnimationFrame;++r)window.requestAnimationFrame=window[n[r]+"RequestAnimationFrame"],window.cancelAnimationFrame=window[n[r]+"CancelAnimationFrame"]||window[n[r]+"CancelRequestAnimationFrame"];window.requestAnimationFrame||(window.requestAnimationFrame=function(n){var r=Date.now(),e=Math.max(0,16-(r-t)),i=window.setTimeout((function(){n(r+e)}),e);return t=r+e,i},window.cancelAnimationFrame=window.clearTimeout)}(),Bt}));
__SVGATOR_PLAYER__.build({"root":"eqzymjz2bzz91","animations":[{"duration":5000,"direction":1,"iterations":1,"fill":1,"alternate":false,"elements":{"eqzymjz2bzz93":{"transform":{"keys":{"o":[{"t":3300,"v":{"x":0,"y":0,"type":"corner"},"e":[1,-0.06,1,1]},{"t":3600,"v":{"x":-481.63241577,"y":0,"type":"corner"},"e":[1,-0.06,1,1]}]}}},"eqzymjz2bzz97":{"#radius":[{"t":800,"v":{"x":200,"y":0}},{"t":1300,"v":{"x":0,"y":0}}],"transform":{"data":{"o":{"x":161.80105698500006,"y":165.93389875000003,"type":"corner"},"t":{"x":-147.33999633656208,"y":-144.7200012187502}},"keys":{"r":[{"t":900,"v":-3600},{"t":1400,"v":0,"e":[0.33,1.24,1,1]}],"s":[{"t":400,"v":{"x":0,"y":0},"e":[1,0,1,1]},{"t":700,"v":{"x":1.3,"y":1.3},"e":[1,0,1,1]},{"t":800,"v":{"x":1,"y":1},"e":[0.985,0.01,1,1]},{"t":900,"v":{"x":0.5,"y":0.5}},{"t":1200,"v":{"x":1,"y":1}}]}}},"eqzymjz2bzz98":{"opacity":[{"t":2500,"v":0},{"t":2600,"v":1}]},"eqzymjz2bzz99":{"transform":{"data":{"o":{"x":205.49108994499994,"y":190.06387312,"type":"corner"},"t":{"x":3.1303670766646974e-10,"y":-2.8126976303610718e-9}},"keys":{"r":[{"t":2800,"v":-108,"e":[0.42,0,0.58,1]},{"t":3200,"v":0,"e":[0.42,0,0.58,1]}]}}},"eqzymjz2bzz910":{"transform":{"data":{"o":{"x":205.49108994499994,"y":190.06387312,"type":"corner"},"t":{"x":3.1303670766646974e-10,"y":-2.8126976303610718e-9}},"keys":{"r":[{"t":2800,"v":-108,"e":[0.42,0,0.58,1]},{"t":3200,"v":-10.799999999999997,"e":[0.42,0,0.58,1]}]}}},"eqzymjz2bzz911":{"transform":{"data":{"o":{"x":205.49108994499994,"y":190.06387312,"type":"corner"},"t":{"x":3.1303670766646974e-10,"y":-2.8126976303610718e-9}},"keys":{"r":[{"t":2800,"v":-108,"e":[0.42,0,0.58,1]},{"t":3200,"v":-20.519999999999996,"e":[0.42,0,0.58,1]}]}}},"eqzymjz2bzz912":{"transform":{"data":{"o":{"x":205.49108994499994,"y":190.06387312,"type":"corner"},"t":{"x":3.1303670766646974e-10,"y":-2.8126976303610718e-9}},"keys":{"r":[{"t":2800,"v":-108,"e":[0.42,0,0.58,1]},{"t":3200,"v":-30,"e":[0.42,0,0.58,1]}]}}},"eqzymjz2bzz913":{"transform":{"data":{"o":{"x":205.49108994499994,"y":190.06387312,"type":"corner"},"t":{"x":3.1303670766646974e-10,"y":-2.8126976303610718e-9}},"keys":{"r":[{"t":2800,"v":-108,"e":[0.42,0,0.58,1]},{"t":3200,"v":-40,"e":[0.42,0,0.58,1]}]}}},"eqzymjz2bzz914":{"transform":{"data":{"o":{"x":205.49108994499994,"y":190.06387312,"type":"corner"},"t":{"x":3.1303670766646974e-10,"y":-2.8126976303610718e-9}},"keys":{"r":[{"t":2800,"v":-108,"e":[0.42,0,0.58,1]},{"t":3200,"v":-51,"e":[0.42,0,0.58,1]}]}}},"eqzymjz2bzz915":{"transform":{"data":{"o":{"x":205.49108994499994,"y":190.06387312,"type":"corner"},"t":{"x":3.1303670766646974e-10,"y":-2.8126976303610718e-9}},"keys":{"r":[{"t":2800,"v":-108,"e":[0.42,0,0.58,1]},{"t":3200,"v":-61,"e":[0.42,0,0.58,1]}]}}},"eqzymjz2bzz916":{"transform":{"data":{"o":{"x":205.49108994499994,"y":190.06387312,"type":"corner"},"t":{"x":3.1303670766646974e-10,"y":-2.8126976303610718e-9}},"keys":{"r":[{"t":2800,"v":-108,"e":[0.42,0,0.58,1]},{"t":3200,"v":-61,"e":[0.42,0,0.58,1]}]}}},"eqzymjz2bzz917":{"transform":{"data":{"o":{"x":205.49108994499994,"y":190.06387312,"type":"corner"},"t":{"x":3.1303670766646974e-10,"y":-2.8126976303610718e-9}},"keys":{"r":[{"t":2800,"v":-108,"e":[0.42,0,0.58,1]},{"t":3200,"v":-71,"e":[0.42,0,0.58,1]}]}}},"eqzymjz2bzz918":{"transform":{"data":{"o":{"x":205.49108994499994,"y":190.06387312,"type":"corner"},"t":{"x":3.1303670766646974e-10,"y":-2.8126976303610718e-9}},"keys":{"r":[{"t":2800,"v":-108,"e":[0.42,0,0.58,1]},{"t":3200,"v":-80,"e":[0.42,0,0.58,1]}]}}},"eqzymjz2bzz919":{"transform":{"data":{"o":{"x":205.49108994499994,"y":190.06387312,"type":"corner"},"t":{"x":3.1303670766646974e-10,"y":-2.8126976303610718e-9}},"keys":{"r":[{"t":2800,"v":-108,"e":[0.42,0,0.58,1]},{"t":3200,"v":-91,"e":[0.42,0,0.58,1]}]}}},"eqzymjz2bzz920":{"transform":{"data":{"o":{"x":205.49108994499994,"y":190.06387312,"type":"corner"},"t":{"x":3.1303670766646974e-10,"y":-2.8126976303610718e-9}},"keys":{"r":[{"t":2800,"v":-108,"e":[0.42,0,0.58,1]},{"t":3200,"v":-101,"e":[0.42,0,0.58,1]}]}}},"eqzymjz2bzz921":{"transform":{"data":{"o":{"x":205.49108994499994,"y":190.06387312,"type":"corner"},"t":{"x":3.1303670766646974e-10,"y":-2.8126976303610718e-9}},"keys":{"r":[{"t":2800,"v":-108,"e":[0.42,0,0.58,1]},{"t":3200,"v":-108}]}}},"eqzymjz2bzz939":{"opacity":[{"t":2400,"v":0},{"t":2500,"v":1},{"t":3000,"v":1},{"t":3100,"v":0}]},"eqzymjz2bzz940":{"#size":[{"t":2800,"v":{"width":129.0000000021175,"height":70.00000000408888}},{"t":2900,"v":{"width":0,"height":70}}]},"eqzymjz2bzz941":{"#size":[{"t":2900,"v":{"width":200.000000003283,"height":70.00000000408888}},{"t":3000,"v":{"width":0,"height":70}}]},"eqzymjz2bzz942":{"#size":[{"t":2700,"v":{"width":104.43340690536114,"height":70.00000000408888}},{"t":2800,"v":{"width":0,"height":70}}]},"eqzymjz2bzz943":{"#size":[{"t":2600,"v":{"width":225.70841614807796,"height":70.00000000408888}},{"t":2700,"v":{"width":0,"height":70}}]},"eqzymjz2bzz944":{"transform":{"data":{"t":{"x":-892.2930720249992,"y":-1112.9453183150001}},"keys":{"o":[{"t":1500,"v":{"x":371.96143068499987,"y":189.08152131500003,"type":"corner"}},{"t":2000,"v":{"x":370.9583116849999,"y":189.08152131500003,"type":"corner"}},{"t":2300,"v":{"x":193.6879108349999,"y":189.08152131500003,"type":"corner"}},{"t":2700,"v":{"x":273.76978982499986,"y":189.08152131500003,"type":"corner"}}],"s":[{"t":2000,"v":{"x":2,"y":2},"e":[0,1.02,1,1]},{"t":2400,"v":{"x":1.4000000000000001,"y":1.4000000000000001}},{"t":2600,"v":{"x":1,"y":1},"e":[0,1.02,1,1]}]}},"opacity":[{"t":2000,"v":0,"e":[0,1.02,1,1]},{"t":2300,"v":1,"e":[0,1.02,1,1]}]},"eqzymjz2bzz946":{"opacity":[{"t":1800,"v":0},{"t":1900,"v":1}]},"eqzymjz2bzz947":{"#size":[{"t":3200,"v":{"width":154.75,"height":334.38768199500066}},{"t":3300,"v":{"width":58.08055517468462,"height":334.38768199500066}}]},"eqzymjz2bzz951":{"#size":[{"t":2100,"v":{"width":0,"height":5.862117539902124}},{"t":2400,"v":{"width":295.0724330049698,"height":5.862117539902124}}]},"eqzymjz2bzz952":{"#size":[{"t":1800,"v":{"width":5.922629000101238,"height":0}},{"t":2100,"v":{"width":5.922629000101238,"height":295.2965479950758}}]},"eqzymjz2bzz954":{"transform":{"keys":{"o":[{"t":3200,"v":{"x":-380.02001953,"y":0,"type":"corner"},"e":[0.61,1.29,1,1]},{"t":3500,"v":{"x":32.979980470909084,"y":0,"type":"corner"},"e":[0.61,1.29,1,1]},{"t":4200,"v":{"x":0,"y":0,"type":"corner"},"e":[0.61,1.29,1,1]}]}},"opacity":[{"t":3400,"v":0,"e":[0.61,1.51,1,1]},{"t":4200,"v":1,"e":[0.61,1.51,1,1]}]},"eqzymjz2bzz970":{"transform":{"keys":{"o":[{"t":3200,"v":{"x":-380,"y":0,"type":"corner"},"e":[0.61,1.51,1,1]},{"t":3500,"v":{"x":190.0000000018182,"y":0,"type":"corner"},"e":[0.61,1.51,1,1]},{"t":4200,"v":{"x":0,"y":0,"type":"corner"},"e":[0.61,1.51,1,1]}]}},"opacity":[{"t":3400,"v":0,"e":[0.61,1.51,1,1]},{"t":4000,"v":1,"e":[0.61,1.51,1,1]}]},"eqzymjz2bzz982":{"transform":{"keys":{"o":[{"t":3400,"v":{"x":-1229.9289539999995,"y":-981.0561220000002,"type":"corner"}},{"t":4200,"v":{"x":-1229.9289539999995,"y":-981.0561220000002,"type":"corner"}}]}}},"eqzymjz2bzz983":{"transform":{"keys":{"o":[{"t":3200,"v":{"x":-382.21008299999994,"y":0,"type":"corner"},"e":[0.61,1.51,1,1]},{"t":3500,"v":{"x":467.78991700000006,"y":0,"type":"corner"},"e":[0.61,1.51,1,1]},{"t":4200,"v":{"x":0,"y":0,"type":"corner"},"e":[0.61,1.51,1,1]}]}},"opacity":[{"t":3400,"v":0,"e":[0.61,1.51,1,1]},{"t":4000,"v":1,"e":[0.61,1.51,1,1]}]}}}],"options":{"start":"load","hover":"freeze"}})]]></script></svg>