<?xml version="1.0" encoding="utf-8"?>
<!-- Generator: Adobe Illustrator 19.2.1, SVG Export Plug-In . SVG Version: 6.00 Build 0)  -->
<svg version="1.1" id="Слой_1" xmlns="http://www.w3.org/2000/svg" xmlns:xlink="http://www.w3.org/1999/xlink" x="0px" y="0px"
	 viewBox="0 0 17 17" style="enable-background:new 0 0 17 17;" xml:space="preserve">
<style type="text/css">
	.st0{fill:#757F3C;}
</style>
<path class="st0" d="M16.5,14.1l-4.2-4.4c0.5-0.9,0.8-2,0.8-3.1c0-3.6-2.9-6.5-6.5-6.5S0,3,0,6.6s2.9,6.5,6.5,6.5
	c1.3,0,2.6-0.4,3.6-1.1l4.1,4.3L16.5,14.1z M6.5,10.7c-2.3,0-4.1-1.8-4.1-4.1c0-2.3,1.8-4.1,4.1-4.1c2.3,0,4.1,1.8,4.1,4.1
	C10.6,8.9,8.8,10.7,6.5,10.7z"/>
</svg>
