<?xml version="1.0" encoding="utf-8"?>
<!-- Generator: Adobe Illustrator 19.2.1, SVG Export Plug-In . SVG Version: 6.00 Build 0)  -->
<svg version="1.1" id="Слой_1" xmlns="http://www.w3.org/2000/svg" xmlns:xlink="http://www.w3.org/1999/xlink" x="0px" y="0px"
	 viewBox="0 0 19 11" style="enable-background:new 0 0 19 11;" xml:space="preserve">
<style type="text/css">
	.st0{fill:#C5B17A;}
</style>
<g>
	<g>
		<rect x="2.5" y="1.5" class="st0" width="5.3" height="0.7"/>
		<rect x="0.2" y="4.1" class="st0" width="5.3" height="0.7"/>
		<rect x="2.3" y="6.6" class="st0" width="3.2" height="0.7"/>
		<circle class="st0" cx="15.3" cy="9.2" r="1.9"/>
		<path class="st0" d="M16.9,5.1c-0.9-0.6-1.5-1.9-1.6-2c0,0,0,0,0,0l-1.7-2.7c-0.1-0.1-0.2-0.2-0.3-0.2h-3.1
			c-0.2,0-0.3,0.1-0.4,0.2L6.6,8.6C6.5,8.9,6.6,9.2,6.9,9.2h5.4c0.2,0,0.3-0.1,0.4-0.3c0.2-0.7,0.8-2.3,2.7-2.3
			c2.4,0,2.8,2.6,2.8,2.6C19.3,9.1,19,7.8,19,7.8c0-1.2-0.6-1.7-0.8-1.9c0,0,0,0-0.1,0L16.9,5.1z M9.6,3.7l0.9-2
			c0.1-0.1,0.2-0.2,0.4-0.2h2.1c0.1,0,0.3,0.1,0.3,0.2l1.1,2c0.1,0.3,0,0.6-0.3,0.6H9.9C9.6,4.3,9.4,4,9.6,3.7z"/>
	</g>
</g>
</svg>
