<svg width="24" height="24" viewBox="0 0 24 24" fill="none" xmlns="http://www.w3.org/2000/svg">
<path d="M14.6 9.18106H21C21.5304 9.18106 22.0391 9.39177 22.4142 9.76684C22.7893 10.1419 23 10.6506 23 11.1811V13.2851C23.0003 13.5464 22.9493 13.8053 22.85 14.0471L19.755 21.5621C19.6795 21.7453 19.5513 21.9019 19.3866 22.0121C19.2219 22.1223 19.0282 22.1811 18.83 22.1811H2C1.73478 22.1811 1.48043 22.0757 1.29289 21.8882C1.10536 21.7006 1 21.4463 1 21.1811V11.1811C1 10.9158 1.10536 10.6615 1.29289 10.4739C1.48043 10.2864 1.73478 10.1811 2 10.1811H5.482C5.6421 10.1811 5.79986 10.1427 5.94203 10.0691C6.08421 9.99548 6.20662 9.88881 6.299 9.75806L11.752 2.03106C11.8209 1.93337 11.9226 1.86362 12.0385 1.83445C12.1545 1.80528 12.277 1.81862 12.384 1.87206L14.198 2.77906C14.7085 3.03422 15.1163 3.45637 15.3537 3.97537C15.5911 4.49437 15.6438 5.07898 15.503 5.63206L14.6 9.18106ZM7 11.7691V20.1811H18.16L21 13.2851V11.1811H14.6C14.2954 11.181 13.9948 11.1114 13.7212 10.9775C13.4476 10.8436 13.2082 10.649 13.0213 10.4085C12.8343 10.1681 12.7048 9.88805 12.6425 9.58988C12.5803 9.29171 12.5869 8.98326 12.662 8.68806L13.565 5.14006C13.5933 5.02938 13.5828 4.91237 13.5353 4.80848C13.4878 4.7046 13.4062 4.6201 13.304 4.56906L12.643 4.23906L7.933 10.9111C7.683 11.2651 7.363 11.5551 7 11.7691V11.7691ZM5 12.1811H3V20.1811H5V12.1811Z" fill="#F4522B"/>
</svg>
