<svg width="24" height="24" viewBox="0 0 24 24" fill="none" xmlns="http://www.w3.org/2000/svg">
<path d="M4.96875 4.96875V7.78125H18.0938V4.96875H4.96875ZM4.03125 3.09375H19.0312C19.2799 3.09375 19.5183 3.19252 19.6942 3.36834C19.87 3.54415 19.9688 3.78261 19.9688 4.03125V8.71875C19.9688 8.96739 19.87 9.20585 19.6942 9.38166C19.5183 9.55748 19.2799 9.65625 19.0312 9.65625H4.03125C3.78261 9.65625 3.54415 9.55748 3.36834 9.38166C3.19252 9.20585 3.09375 8.96739 3.09375 8.71875V4.03125C3.09375 3.78261 3.19252 3.54415 3.36834 3.36834C3.54415 3.19252 3.78261 3.09375 4.03125 3.09375V3.09375ZM5.90625 11.5312H11.5312C11.7799 11.5312 12.0183 11.63 12.1942 11.8058C12.37 11.9817 12.4688 12.2201 12.4688 12.4688V15.2812H13.4062V20.9062H9.65625V15.2812H10.5938V13.4062H4.96875C4.72011 13.4062 4.48165 13.3075 4.30584 13.1317C4.13002 12.9558 4.03125 12.7174 4.03125 12.4688V10.5938H5.90625V11.5312ZM16.905 13.155L18.5625 11.4975L20.22 13.155C20.5477 13.4828 20.7709 13.9004 20.8613 14.355C20.9516 14.8097 20.9052 15.2809 20.7278 15.7091C20.5504 16.1373 20.25 16.5034 19.8646 16.7609C19.4791 17.0184 19.026 17.1558 18.5625 17.1558C18.099 17.1558 17.6459 17.0184 17.2604 16.7609C16.875 16.5034 16.5746 16.1373 16.3972 15.7091C16.2198 15.2809 16.1734 14.8097 16.2637 14.355C16.3541 13.9004 16.5773 13.4828 16.905 13.155V13.155Z" fill="#F4522B"/>
</svg>
