<svg width="24" height="24" viewBox="0 0 24 24" fill="none" xmlns="http://www.w3.org/2000/svg">
<path d="M18.5625 10.125H19.5C19.7486 10.125 19.9871 10.2238 20.1629 10.3996C20.3387 10.5754 20.4375 10.8139 20.4375 11.0625V20.4375C20.4375 20.6861 20.3387 20.9246 20.1629 21.1004C19.9871 21.2762 19.7486 21.375 19.5 21.375H4.5C4.25136 21.375 4.0129 21.2762 3.83709 21.1004C3.66127 20.9246 3.5625 20.6861 3.5625 20.4375V11.0625C3.5625 10.8139 3.66127 10.5754 3.83709 10.3996C4.0129 10.2238 4.25136 10.125 4.5 10.125H5.4375V9.1875C5.4375 8.3257 5.60724 7.47234 5.93704 6.67614C6.26684 5.87994 6.75023 5.1565 7.35961 4.54711C7.969 3.93773 8.69244 3.45434 9.48864 3.12454C10.2848 2.79474 11.1382 2.625 12 2.625C12.8618 2.625 13.7152 2.79474 14.5114 3.12454C15.3076 3.45434 16.031 3.93773 16.6404 4.54711C17.2498 5.1565 17.7332 5.87994 18.063 6.67614C18.3928 7.47234 18.5625 8.3257 18.5625 9.1875V10.125ZM5.4375 12V19.5H18.5625V12H5.4375ZM11.0625 13.875H12.9375V17.625H11.0625V13.875ZM16.6875 10.125V9.1875C16.6875 7.9443 16.1936 6.75201 15.3146 5.87294C14.4355 4.99386 13.2432 4.5 12 4.5C10.7568 4.5 9.56451 4.99386 8.68544 5.87294C7.80636 6.75201 7.3125 7.9443 7.3125 9.1875V10.125H16.6875Z" fill="#F4522B"/>
</svg>
