<svg width="24" height="24" viewBox="0 0 24 24" fill="none" xmlns="http://www.w3.org/2000/svg">
<path d="M18.3027 18.2738L19.9602 16.6163L21.6168 18.2738C21.9447 18.6016 22.1679 19.0192 22.2584 19.4739C22.3489 19.9285 22.3026 20.3998 22.1252 20.8281C21.9478 21.2564 21.6474 21.6225 21.262 21.8801C20.8765 22.1377 20.4234 22.2751 19.9598 22.2751C19.4962 22.2751 19.043 22.1377 18.6576 21.8801C18.2721 21.6225 17.9717 21.2564 17.7944 20.8281C17.617 20.3998 17.5706 19.9285 17.6611 19.4739C17.7516 19.0192 17.9749 18.6016 18.3027 18.2738ZM8.59962 1.7251L19.2065 12.331C19.2937 12.4181 19.3628 12.5215 19.41 12.6353C19.4572 12.7491 19.4814 12.8711 19.4814 12.9943C19.4814 13.1175 19.4572 13.2395 19.41 13.3533C19.3628 13.4671 19.2937 13.5705 19.2065 13.6576L11.2518 21.6123C11.076 21.788 10.8376 21.8868 10.589 21.8868C10.3404 21.8868 10.102 21.788 9.92618 21.6123L1.97149 13.6576C1.88432 13.5705 1.81517 13.4671 1.768 13.3533C1.72082 13.2395 1.69653 13.1175 1.69653 12.9943C1.69653 12.8711 1.72082 12.7491 1.768 12.6353C1.81517 12.5215 1.88432 12.4181 1.97149 12.331L9.26337 5.03916L7.27399 3.05072L8.60149 1.7251H8.59962ZM10.589 6.36572L3.95993 12.9938L10.589 19.6248L17.2181 12.9957L10.589 6.36479V6.36572Z" fill="#F4522B"/>
</svg>
