<svg width="24" height="24" viewBox="0 0 24 24" fill="none" xmlns="http://www.w3.org/2000/svg">
<path d="M9.1875 4.5V10.3809H7.3125V4.5H5.4375V12.9375H18.5625V4.5H9.1875ZM19.5 14.8125H4.5V16.6875H19.5V14.8125ZM3.5625 12.9375V3.5625C3.5625 3.31386 3.66127 3.0754 3.83709 2.89959C4.0129 2.72377 4.25136 2.625 4.5 2.625H19.5C19.7486 2.625 19.9871 2.72377 20.1629 2.89959C20.3387 3.0754 20.4375 3.31386 20.4375 3.5625V12.9375H21.375V17.625C21.375 17.8736 21.2762 18.1121 21.1004 18.2879C20.9246 18.4637 20.6861 18.5625 20.4375 18.5625H12.9375V21.375H11.0625V18.5625H3.5625C3.31386 18.5625 3.0754 18.4637 2.89959 18.2879C2.72377 18.1121 2.625 17.8736 2.625 17.625V12.9375H3.5625Z" fill="#F4522B"/>
</svg>
