<svg width="24" height="24" viewBox="0 0 24 24" fill="none" xmlns="http://www.w3.org/2000/svg">
<path d="M4.5 22.2954C4.5 20.3063 5.29018 18.3986 6.6967 16.9921C8.10322 15.5856 10.0109 14.7954 12 14.7954C13.9891 14.7954 15.8968 15.5856 17.3033 16.9921C18.7098 18.3986 19.5 20.3063 19.5 22.2954H4.5ZM12.9375 16.7482V20.4204H17.3053C16.9702 19.4749 16.3886 18.6359 15.6208 17.9904C14.8529 17.3448 13.9266 16.916 12.9375 16.7482V16.7482ZM11.0625 20.4204V16.7482C10.0734 16.916 9.1471 17.3448 8.37924 17.9904C7.61137 18.6359 7.02982 19.4749 6.69469 20.4204H11.0625ZM12 13.8579C8.89219 13.8579 6.375 11.3407 6.375 8.23291C6.375 5.1251 8.89219 2.60791 12 2.60791C15.1078 2.60791 17.625 5.1251 17.625 8.23291C17.625 11.3407 15.1078 13.8579 12 13.8579ZM12 11.9829C14.0719 11.9829 15.75 10.3048 15.75 8.23291C15.75 6.16104 14.0719 4.48291 12 4.48291C9.92812 4.48291 8.25 6.16104 8.25 8.23291C8.25 10.3048 9.92812 11.9829 12 11.9829Z" fill="#F4522B"/>
</svg>
