<svg width="24" height="24" viewBox="0 0 24 24" fill="none" xmlns="http://www.w3.org/2000/svg">
<path d="M5.19562 9.65625C5.44426 9.65625 5.68271 9.75502 5.85853 9.93084C6.03435 10.1067 6.13312 10.3451 6.13312 10.5938C7.60606 10.5916 9.03654 11.0871 10.1925 12H12.2269C13.4766 12 14.5987 12.5437 15.3712 13.4062H18.3206C19.2068 13.406 20.0749 13.657 20.8242 14.13C21.5736 14.6031 22.1735 15.2789 22.5544 16.0791C20.3372 19.005 16.7475 20.9062 12.6956 20.9062C10.08 20.9062 7.86749 20.3409 6.07687 19.3519C6.01128 19.5329 5.89147 19.6892 5.73376 19.7996C5.57605 19.91 5.38813 19.9691 5.19562 19.9688H2.38312C2.13448 19.9688 1.89602 19.87 1.72021 19.6942C1.54439 19.5183 1.44562 19.2799 1.44562 19.0312V10.5938C1.44562 10.3451 1.54439 10.1067 1.72021 9.93084C1.89602 9.75502 2.13448 9.65625 2.38312 9.65625H5.19562ZM6.13405 12.4688L6.13312 17.1769L6.1753 17.2069C7.85812 18.3881 10.05 19.0312 12.6956 19.0312C15.5119 19.0312 18.1322 17.9475 20.0409 16.0969L20.1656 15.9722L20.0531 15.8784C19.6104 15.5317 19.0738 15.326 18.5128 15.2878L18.3206 15.2812H16.3416C16.4091 15.5831 16.4456 15.8962 16.4456 16.2188V17.1562H8.00812V15.2812L14.3737 15.2803L14.3419 15.2072C14.1622 14.8318 13.8858 14.5109 13.5412 14.2776C13.1965 14.0443 12.7959 13.907 12.3806 13.8797L12.2269 13.875H9.47999C9.04435 13.4294 8.524 13.0755 7.94954 12.834C7.37509 12.5925 6.75814 12.4683 6.13499 12.4688H6.13405ZM4.25812 11.5312H3.32062V18.0938H4.25812V11.5312ZM17.3831 5.90625C18.129 5.90625 18.8444 6.20257 19.3719 6.73001C19.8993 7.25746 20.1956 7.97283 20.1956 8.71875C20.1956 9.46467 19.8993 10.18 19.3719 10.7075C18.8444 11.2349 18.129 11.5312 17.3831 11.5312C16.6372 11.5312 15.9218 11.2349 15.3944 10.7075C14.8669 10.18 14.5706 9.46467 14.5706 8.71875C14.5706 7.97283 14.8669 7.25746 15.3944 6.73001C15.9218 6.20257 16.6372 5.90625 17.3831 5.90625ZM17.3831 7.78125C17.1345 7.78125 16.896 7.88002 16.7202 8.05584C16.5444 8.23165 16.4456 8.47011 16.4456 8.71875C16.4456 8.96739 16.5444 9.20585 16.7202 9.38166C16.896 9.55748 17.1345 9.65625 17.3831 9.65625C17.6318 9.65625 17.8702 9.55748 18.046 9.38166C18.2218 9.20585 18.3206 8.96739 18.3206 8.71875C18.3206 8.47011 18.2218 8.23165 18.046 8.05584C17.8702 7.88002 17.6318 7.78125 17.3831 7.78125ZM10.8206 3.09375C11.5665 3.09375 12.2819 3.39007 12.8094 3.91751C13.3368 4.44496 13.6331 5.16033 13.6331 5.90625C13.6331 6.65217 13.3368 7.36754 12.8094 7.89499C12.2819 8.42243 11.5665 8.71875 10.8206 8.71875C10.0747 8.71875 9.35933 8.42243 8.83188 7.89499C8.30443 7.36754 8.00812 6.65217 8.00812 5.90625C8.00812 5.16033 8.30443 4.44496 8.83188 3.91751C9.35933 3.39007 10.0747 3.09375 10.8206 3.09375V3.09375ZM10.8206 4.96875C10.572 4.96875 10.3335 5.06752 10.1577 5.24334C9.98189 5.41915 9.88312 5.65761 9.88312 5.90625C9.88312 6.15489 9.98189 6.39335 10.1577 6.56916C10.3335 6.74498 10.572 6.84375 10.8206 6.84375C11.0693 6.84375 11.3077 6.74498 11.4835 6.56916C11.6593 6.39335 11.7581 6.15489 11.7581 5.90625C11.7581 5.65761 11.6593 5.41915 11.4835 5.24334C11.3077 5.06752 11.0693 4.96875 10.8206 4.96875V4.96875Z" fill="#F4522B"/>
</svg>
