<svg width="24" height="24" viewBox="0 0 24 24" fill="none" xmlns="http://www.w3.org/2000/svg">
<path d="M17.6719 10.5938L21.7969 20.9062H19.7766L18.6506 18.0938H14.8163L13.6922 20.9062H11.6728L15.7969 10.5938H17.6719ZM9.70312 3.09375V4.96875H15.3281V6.84375H13.4831C12.76 9.0207 11.6058 11.0297 10.0894 12.7509C10.7656 13.3543 11.4991 13.8903 12.2794 14.3513L11.5753 16.1119C10.568 15.5406 9.62587 14.8612 8.76562 14.0859C7.09086 15.6016 5.10754 16.7364 2.95219 17.4122L2.44969 15.6037C4.29641 15.0149 5.99814 14.0431 7.44375 12.7519C6.37377 11.5406 5.48256 10.1824 4.79719 8.71875H6.89719C7.4197 9.6833 8.04625 10.5878 8.76562 11.4159C9.9376 10.0651 10.8612 8.51747 11.4937 6.84469L2.20312 6.84375V4.96875H7.82812V3.09375H9.70312ZM16.7344 13.2984L15.5653 16.2188H17.9016L16.7344 13.2984Z" fill="#F4522B"/>
</svg>
