<svg width="24" height="24" viewBox="0 0 24 24" fill="none" xmlns="http://www.w3.org/2000/svg">
<path d="M12 21.375C6.82219 21.375 2.625 17.1778 2.625 12C2.625 6.82219 6.82219 2.625 12 2.625C17.1778 2.625 21.375 6.82219 21.375 12C21.375 17.1778 17.1778 21.375 12 21.375ZM12 19.5C13.9891 19.5 15.8968 18.7098 17.3033 17.3033C18.7098 15.8968 19.5 13.9891 19.5 12C19.5 10.0109 18.7098 8.10322 17.3033 6.6967C15.8968 5.29018 13.9891 4.5 12 4.5C10.0109 4.5 8.10322 5.29018 6.6967 6.6967C5.29018 8.10322 4.5 10.0109 4.5 12C4.5 13.9891 5.29018 15.8968 6.6967 17.3033C8.10322 18.7098 10.0109 19.5 12 19.5V19.5ZM12.9375 12H16.6875V13.875H11.0625V7.3125H12.9375V12Z" fill="#F4522B"/>
</svg>
