<svg width="220" height="156" viewBox="0 0 220 156" fill="none" xmlns="http://www.w3.org/2000/svg">
<rect x="2.42004" y="11.1876" width="215.992" height="142.852" rx="22.5" fill="#CFCFCF"/>
<rect x="2.42004" y="11.1876" width="215.992" height="142.852" rx="22.5" fill="url(#paint0_linear_103_226)" fill-opacity="0.85"/>
<rect x="2.42004" y="11.1876" width="215.992" height="142.852" rx="22.5" fill="url(#paint1_linear_103_226)" fill-opacity="0.85"/>
<rect x="2.42004" y="11.1876" width="215.992" height="142.852" rx="22.5" stroke="#6A6A6A" stroke-width="3"/>
<g filter="url(#filter0_di_103_226)">
<rect x="4" y="0.336182" width="213" height="140" rx="24" fill="#F6F6F6"/>
<path d="M172.507 35.5344H168.918C165.061 35.5344 161.936 32.5071 161.936 28.6252C161.936 24.7434 165.061 21.6184 168.918 21.6184C172.775 21.6184 175.9 24.7434 175.9 28.6252V32.1897H184.152V28.6252C184.152 24.7434 187.277 21.6184 191.135 21.6184C194.992 21.6184 198.117 24.7434 198.117 28.6252C198.117 32.5071 194.992 35.5344 191.135 35.5344H187.57V43.9084H191.135C194.992 43.9084 198.117 46.9358 198.117 50.8176C198.117 54.6995 194.992 57.8245 191.135 57.8245C187.277 57.8245 184.152 54.6995 184.152 50.8176V47.2532H175.9V50.8176C175.9 54.6995 172.775 57.8245 168.918 57.8245C165.061 57.8245 161.936 54.6995 161.936 50.8176C161.936 46.9358 165.061 43.9084 168.918 43.9084H172.507V35.5344ZM168.918 32.2385H172.507V28.6252C172.507 26.6477 170.871 25.0364 168.918 25.0364C166.965 25.0364 165.329 26.6477 165.329 28.6252C165.329 30.6028 166.965 32.2385 168.918 32.2385ZM191.135 32.2385C193.088 32.2385 194.724 30.6028 194.724 28.6252C194.724 26.6477 193.088 25.0364 191.135 25.0364C189.182 25.0364 187.57 26.6477 187.57 28.6252V32.2385H191.135ZM175.9 43.9573H184.152V35.4856H175.9V43.9573ZM168.918 47.1799C166.965 47.1799 165.329 48.8157 165.329 50.7932C165.329 52.7708 166.965 54.3821 168.918 54.3821C170.871 54.3821 172.507 52.7708 172.507 50.7932V47.1799H168.918ZM191.135 47.1799H187.57V50.7932C187.57 52.7708 189.182 54.3821 191.135 54.3821C193.088 54.3821 194.724 52.7708 194.724 50.7932C194.724 48.8157 193.088 47.1799 191.135 47.1799Z" fill="#5E5E5E"/>
<path d="M72.0563 122.677C70.5222 122.677 69.2012 122.315 68.0932 121.59C66.9853 120.866 66.133 119.868 65.5364 118.597C64.9398 117.326 64.6415 115.873 64.6415 114.24C64.6415 112.578 64.9469 111.111 65.5577 109.84C66.1756 108.561 67.035 107.563 68.1358 106.846C69.2438 106.122 70.5364 105.759 72.0137 105.759C73.1642 105.759 74.2012 105.973 75.1245 106.399C76.0478 106.825 76.8042 107.421 77.3936 108.188C77.9831 108.955 78.3489 109.85 78.4909 110.873H75.9767C75.785 110.127 75.3588 109.467 74.6983 108.892C74.0449 108.309 73.1642 108.018 72.0563 108.018C71.0762 108.018 70.2168 108.274 69.4782 108.785C68.7466 109.289 68.1749 110.003 67.763 110.926C67.3581 111.843 67.1557 112.919 67.1557 114.154C67.1557 115.419 67.3546 116.519 67.7523 117.457C68.1571 118.394 68.7253 119.122 69.4569 119.641C70.1955 120.159 71.062 120.419 72.0563 120.419C72.7097 120.419 73.3027 120.305 73.8354 120.078C74.3681 119.85 74.8191 119.524 75.1884 119.098C75.5577 118.671 75.8205 118.16 75.9767 117.563H78.4909C78.3489 118.529 77.9973 119.399 77.4363 120.174C76.8823 120.941 76.1472 121.551 75.231 122.006C74.3219 122.453 73.2637 122.677 72.0563 122.677ZM88.8141 122.677C87.3368 122.677 86.0407 122.326 84.9256 121.622C83.8176 120.919 82.9512 119.936 82.3262 118.671C81.7083 117.407 81.3993 115.93 81.3993 114.24C81.3993 112.535 81.7083 111.047 82.3262 109.776C82.9512 108.505 83.8176 107.517 84.9256 106.814C86.0407 106.111 87.3368 105.759 88.8141 105.759C90.2914 105.759 91.584 106.111 92.6919 106.814C93.807 107.517 94.6735 108.505 95.2914 109.776C95.9164 111.047 96.2289 112.535 96.2289 114.24C96.2289 115.93 95.9164 117.407 95.2914 118.671C94.6735 119.936 93.807 120.919 92.6919 121.622C91.584 122.326 90.2914 122.677 88.8141 122.677ZM88.8141 120.419C89.9363 120.419 90.8596 120.131 91.584 119.556C92.3084 118.98 92.8446 118.224 93.1926 117.286C93.5407 116.349 93.7147 115.333 93.7147 114.24C93.7147 113.146 93.5407 112.127 93.1926 111.182C92.8446 110.237 92.3084 109.474 91.584 108.892C90.8596 108.309 89.9363 108.018 88.8141 108.018C87.6919 108.018 86.7686 108.309 86.0442 108.892C85.3198 109.474 84.7836 110.237 84.4355 111.182C84.0875 112.127 83.9135 113.146 83.9135 114.24C83.9135 115.333 84.0875 116.349 84.4355 117.286C84.7836 118.224 85.3198 118.98 86.0442 119.556C86.7686 120.131 87.6919 120.419 88.8141 120.419ZM100.067 122.336V105.973H102.496V108.529H102.709C103.05 107.656 103.6 106.978 104.36 106.495C105.12 106.005 106.033 105.759 107.098 105.759C108.178 105.759 109.076 106.005 109.793 106.495C110.518 106.978 111.082 107.656 111.487 108.529H111.658C112.077 107.684 112.705 107.013 113.543 106.516C114.381 106.012 115.386 105.759 116.558 105.759C118.021 105.759 119.218 106.218 120.148 107.134C121.079 108.043 121.544 109.46 121.544 111.384V122.336H119.03V111.384C119.03 110.177 118.7 109.314 118.039 108.796C117.379 108.277 116.601 108.018 115.706 108.018C114.555 108.018 113.664 108.366 113.032 109.062C112.4 109.751 112.084 110.625 112.084 111.683V122.336H109.527V111.129C109.527 110.198 109.225 109.449 108.621 108.881C108.018 108.306 107.24 108.018 106.288 108.018C105.635 108.018 105.024 108.192 104.456 108.54C103.895 108.888 103.44 109.371 103.092 109.989C102.751 110.6 102.581 111.306 102.581 112.109V122.336H100.067ZM126.141 122.336V105.973H128.57V108.529H128.783C129.124 107.656 129.674 106.978 130.434 106.495C131.194 106.005 132.107 105.759 133.172 105.759C134.252 105.759 135.15 106.005 135.868 106.495C136.592 106.978 137.157 107.656 137.561 108.529H137.732C138.151 107.684 138.779 107.013 139.618 106.516C140.456 106.012 141.461 105.759 142.632 105.759C144.096 105.759 145.292 106.218 146.223 107.134C147.153 108.043 147.618 109.46 147.618 111.384V122.336H145.104V111.384C145.104 110.177 144.774 109.314 144.113 108.796C143.453 108.277 142.675 108.018 141.78 108.018C140.63 108.018 139.738 108.366 139.106 109.062C138.474 109.751 138.158 110.625 138.158 111.683V122.336H135.601V111.129C135.601 110.198 135.299 109.449 134.696 108.881C134.092 108.306 133.314 108.018 132.363 108.018C131.709 108.018 131.098 108.192 130.53 108.54C129.969 108.888 129.515 109.371 129.167 109.989C128.826 110.6 128.655 111.306 128.655 112.109V122.336H126.141ZM157.031 122.72C155.994 122.72 155.053 122.524 154.207 122.134C153.362 121.736 152.691 121.164 152.194 120.419C151.697 119.666 151.448 118.757 151.448 117.691C151.448 116.754 151.633 115.994 152.002 115.411C152.371 114.822 152.865 114.36 153.483 114.027C154.101 113.693 154.783 113.444 155.528 113.281C156.281 113.11 157.038 112.975 157.798 112.876C158.792 112.748 159.598 112.652 160.216 112.588C160.841 112.517 161.295 112.4 161.58 112.237C161.871 112.073 162.016 111.789 162.016 111.384V111.299C162.016 110.248 161.729 109.431 161.153 108.849C160.585 108.267 159.722 107.975 158.565 107.975C157.364 107.975 156.423 108.238 155.741 108.764C155.06 109.289 154.58 109.85 154.303 110.447L151.917 109.595C152.343 108.6 152.911 107.826 153.621 107.272C154.339 106.711 155.12 106.321 155.965 106.1C156.817 105.873 157.656 105.759 158.479 105.759C159.005 105.759 159.609 105.823 160.29 105.951C160.979 106.072 161.643 106.324 162.283 106.708C162.929 107.091 163.465 107.67 163.891 108.444C164.317 109.218 164.531 110.255 164.531 111.555V122.336H162.016V120.12H161.888C161.718 120.475 161.434 120.855 161.036 121.26C160.638 121.665 160.109 122.009 159.449 122.294C158.788 122.578 157.982 122.72 157.031 122.72ZM157.414 120.461C158.408 120.461 159.246 120.266 159.928 119.875C160.617 119.485 161.136 118.98 161.484 118.362C161.839 117.745 162.016 117.095 162.016 116.413V114.112C161.91 114.24 161.675 114.357 161.313 114.463C160.958 114.563 160.546 114.652 160.077 114.73C159.616 114.801 159.165 114.865 158.724 114.921C158.291 114.971 157.94 115.014 157.67 115.049C157.016 115.134 156.406 115.273 155.837 115.465C155.276 115.649 154.822 115.93 154.474 116.306C154.133 116.676 153.962 117.18 153.962 117.819C153.962 118.693 154.286 119.353 154.932 119.801C155.585 120.241 156.413 120.461 157.414 120.461ZM171.634 112.492V122.336H169.119V105.973H171.548V108.529H171.762C172.145 107.698 172.727 107.031 173.509 106.527C174.29 106.015 175.298 105.759 176.534 105.759C177.642 105.759 178.612 105.987 179.443 106.441C180.274 106.889 180.92 107.571 181.382 108.487C181.843 109.396 182.074 110.546 182.074 111.938V122.336H179.56V112.109C179.56 110.823 179.226 109.822 178.558 109.105C177.891 108.38 176.975 108.018 175.81 108.018C175.007 108.018 174.29 108.192 173.658 108.54C173.033 108.888 172.539 109.396 172.177 110.063C171.815 110.731 171.634 111.541 171.634 112.492ZM192.847 122.677C191.484 122.677 190.28 122.333 189.236 121.644C188.192 120.948 187.375 119.968 186.786 118.703C186.196 117.432 185.901 115.93 185.901 114.197C185.901 112.478 186.196 110.987 186.786 109.723C187.375 108.458 188.195 107.482 189.246 106.793C190.298 106.104 191.512 105.759 192.89 105.759C193.955 105.759 194.797 105.937 195.415 106.292C196.04 106.64 196.516 107.038 196.842 107.485C197.176 107.926 197.435 108.288 197.62 108.572H197.833V100.518H200.347V122.336H197.918V119.822H197.62C197.435 120.12 197.173 120.497 196.832 120.951C196.491 121.399 196.004 121.8 195.372 122.155C194.74 122.503 193.898 122.677 192.847 122.677ZM193.188 120.419C194.197 120.419 195.049 120.156 195.745 119.63C196.441 119.098 196.97 118.362 197.332 117.425C197.695 116.48 197.876 115.39 197.876 114.154C197.876 112.933 197.698 111.864 197.343 110.948C196.988 110.024 196.462 109.307 195.766 108.796C195.07 108.277 194.211 108.018 193.188 108.018C192.123 108.018 191.235 108.291 190.525 108.838C189.822 109.378 189.293 110.113 188.938 111.044C188.589 111.967 188.415 113.004 188.415 114.154C188.415 115.319 188.593 116.377 188.948 117.329C189.31 118.274 189.843 119.027 190.546 119.588C191.256 120.142 192.137 120.419 193.188 120.419Z" fill="#5E5E5E"/>
</g>
<defs>
<filter id="filter0_di_103_226" x="4" y="0.336182" width="213" height="142" filterUnits="userSpaceOnUse" color-interpolation-filters="sRGB">
<feFlood flood-opacity="0" result="BackgroundImageFix"/>
<feColorMatrix in="SourceAlpha" type="matrix" values="0 0 0 0 0 0 0 0 0 0 0 0 0 0 0 0 0 0 127 0" result="hardAlpha"/>
<feOffset dy="2"/>
<feComposite in2="hardAlpha" operator="out"/>
<feColorMatrix type="matrix" values="0 0 0 0 0.725 0 0 0 0 0.725 0 0 0 0 0.725 0 0 0 1 0"/>
<feBlend mode="normal" in2="BackgroundImageFix" result="effect1_dropShadow_103_226"/>
<feBlend mode="normal" in="SourceGraphic" in2="effect1_dropShadow_103_226" result="shape"/>
<feColorMatrix in="SourceAlpha" type="matrix" values="0 0 0 0 0 0 0 0 0 0 0 0 0 0 0 0 0 0 127 0" result="hardAlpha"/>
<feOffset dy="3"/>
<feComposite in2="hardAlpha" operator="arithmetic" k2="-1" k3="1"/>
<feColorMatrix type="matrix" values="0 0 0 0 1 0 0 0 0 1 0 0 0 0 1 0 0 0 1 0"/>
<feBlend mode="normal" in2="shape" result="effect2_innerShadow_103_226"/>
</filter>
<linearGradient id="paint0_linear_103_226" x1="0.920044" y1="155.539" x2="40.2883" y2="155.539" gradientUnits="userSpaceOnUse">
<stop stop-color="#6A6A6A"/>
<stop offset="1" stop-color="#6A6A6A" stop-opacity="0"/>
</linearGradient>
<linearGradient id="paint1_linear_103_226" x1="218.465" y1="155.539" x2="183.172" y2="155.539" gradientUnits="userSpaceOnUse">
<stop stop-color="#6A6A6A"/>
<stop offset="1" stop-color="#6A6A6A" stop-opacity="0"/>
</linearGradient>
</defs>
</svg>
