<svg width="240" height="156" viewBox="0 0 240 156" fill="none" xmlns="http://www.w3.org/2000/svg">
<rect x="2.42004" y="11.1876" width="235.992" height="142.852" rx="22.5" fill="#CFCFCF"/>
<rect x="2.42004" y="11.1876" width="235.992" height="142.852" rx="22.5" fill="url(#paint0_linear_103_224)" fill-opacity="0.85"/>
<rect x="2.42004" y="11.1876" width="235.992" height="142.852" rx="22.5" fill="url(#paint1_linear_103_224)" fill-opacity="0.85"/>
<rect x="2.42004" y="11.1876" width="235.992" height="142.852" rx="22.5" stroke="#6A6A6A" stroke-width="3"/>
<g filter="url(#filter0_di_103_224)">
<rect x="4" width="233" height="140" rx="24" fill="#F6F6F6"/>
<path d="M184.621 37.0049L199.636 21.917C200.026 21.5264 200.515 21.3066 201.076 21.3066C201.613 21.3066 202.15 21.5264 202.517 21.917L217.507 37.0049C217.873 37.3955 218.093 37.8838 218.093 38.4453C218.093 39.5928 217.238 40.4473 216.091 40.4473C215.554 40.4473 215.017 40.2275 214.65 39.8613L201.076 26.2383L187.478 39.8613C187.111 40.2275 186.623 40.4473 186.062 40.4473C184.914 40.4473 184.035 39.5928 184.035 38.4453C184.035 37.8838 184.255 37.3955 184.621 37.0049Z" fill="#5E5E5E"/>
<path d="M133.16 122.341C131.626 122.341 130.305 121.979 129.197 121.254C128.089 120.53 127.237 119.532 126.64 118.261C126.043 116.989 125.745 115.537 125.745 113.903C125.745 112.241 126.05 110.775 126.661 109.504C127.279 108.225 128.138 107.227 129.239 106.51C130.347 105.786 131.64 105.423 133.117 105.423C134.268 105.423 135.305 105.636 136.228 106.062C137.151 106.489 137.908 107.085 138.497 107.852C139.087 108.619 139.452 109.514 139.594 110.537H137.08C136.888 109.791 136.462 109.131 135.802 108.555C135.148 107.973 134.268 107.682 133.16 107.682C132.18 107.682 131.32 107.937 130.582 108.449C129.85 108.953 129.278 109.667 128.866 110.59C128.462 111.506 128.259 112.582 128.259 113.818C128.259 115.082 128.458 116.183 128.856 117.121C129.261 118.058 129.829 118.786 130.56 119.305C131.299 119.823 132.165 120.082 133.16 120.082C133.813 120.082 134.406 119.969 134.939 119.741C135.472 119.514 135.923 119.188 136.292 118.761C136.661 118.335 136.924 117.824 137.08 117.227H139.594C139.452 118.193 139.101 119.063 138.54 119.837C137.986 120.604 137.251 121.215 136.335 121.67C135.425 122.117 134.367 122.341 133.16 122.341ZM149.918 122.341C148.44 122.341 147.144 121.989 146.029 121.286C144.921 120.583 144.055 119.599 143.43 118.335C142.812 117.071 142.503 115.594 142.503 113.903C142.503 112.199 142.812 110.711 143.43 109.44C144.055 108.168 144.921 107.181 146.029 106.478C147.144 105.775 148.44 105.423 149.918 105.423C151.395 105.423 152.688 105.775 153.795 106.478C154.911 107.181 155.777 108.168 156.395 109.44C157.02 110.711 157.332 112.199 157.332 113.903C157.332 115.594 157.02 117.071 156.395 118.335C155.777 119.599 154.911 120.583 153.795 121.286C152.688 121.989 151.395 122.341 149.918 122.341ZM149.918 120.082C151.04 120.082 151.963 119.795 152.688 119.219C153.412 118.644 153.948 117.888 154.296 116.95C154.644 116.013 154.818 114.997 154.818 113.903C154.818 112.81 154.644 111.79 154.296 110.846C153.948 109.901 153.412 109.138 152.688 108.555C151.963 107.973 151.04 107.682 149.918 107.682C148.795 107.682 147.872 107.973 147.148 108.555C146.423 109.138 145.887 109.901 145.539 110.846C145.191 111.79 145.017 112.81 145.017 113.903C145.017 114.997 145.191 116.013 145.539 116.95C145.887 117.888 146.423 118.644 147.148 119.219C147.872 119.795 148.795 120.082 149.918 120.082ZM163.684 112.156V122H161.17V105.636H163.599V108.193H163.812C164.196 107.362 164.778 106.695 165.559 106.19C166.341 105.679 167.349 105.423 168.585 105.423C169.693 105.423 170.662 105.651 171.493 106.105C172.324 106.553 172.971 107.234 173.432 108.151C173.894 109.06 174.125 110.21 174.125 111.602V122H171.611V111.773C171.611 110.487 171.277 109.486 170.609 108.768C169.942 108.044 169.025 107.682 167.861 107.682C167.058 107.682 166.341 107.856 165.709 108.204C165.084 108.552 164.59 109.06 164.228 109.727C163.866 110.395 163.684 111.205 163.684 112.156ZM185.836 105.636V107.767H177.355V105.636H185.836ZM179.827 101.716H182.341V117.312C182.341 118.023 182.444 118.555 182.65 118.911C182.863 119.259 183.133 119.493 183.46 119.614C183.794 119.727 184.145 119.784 184.515 119.784C184.792 119.784 185.019 119.77 185.196 119.741C185.374 119.706 185.516 119.678 185.623 119.656L186.134 121.915C185.963 121.979 185.725 122.043 185.42 122.107C185.115 122.178 184.728 122.213 184.259 122.213C183.549 122.213 182.853 122.06 182.171 121.755C181.496 121.45 180.935 120.984 180.488 120.359C180.047 119.734 179.827 118.946 179.827 117.994V101.716ZM189.618 122V105.636H192.047V108.108H192.217C192.515 107.298 193.055 106.641 193.836 106.137C194.618 105.633 195.498 105.381 196.478 105.381C196.663 105.381 196.894 105.384 197.171 105.391C197.448 105.398 197.657 105.409 197.799 105.423V107.98C197.714 107.959 197.519 107.927 197.213 107.884C196.915 107.835 196.599 107.81 196.265 107.81C195.47 107.81 194.76 107.977 194.135 108.31C193.517 108.637 193.027 109.092 192.664 109.674C192.309 110.249 192.132 110.906 192.132 111.645V122H189.618ZM206.929 122.341C205.452 122.341 204.156 121.989 203.041 121.286C201.933 120.583 201.066 119.599 200.441 118.335C199.824 117.071 199.515 115.594 199.515 113.903C199.515 112.199 199.824 110.711 200.441 109.44C201.066 108.168 201.933 107.181 203.041 106.478C204.156 105.775 205.452 105.423 206.929 105.423C208.407 105.423 209.699 105.775 210.807 106.478C211.922 107.181 212.789 108.168 213.407 109.44C214.032 110.711 214.344 112.199 214.344 113.903C214.344 115.594 214.032 117.071 213.407 118.335C212.789 119.599 211.922 120.583 210.807 121.286C209.699 121.989 208.407 122.341 206.929 122.341ZM206.929 120.082C208.051 120.082 208.975 119.795 209.699 119.219C210.424 118.644 210.96 117.888 211.308 116.95C211.656 116.013 211.83 114.997 211.83 113.903C211.83 112.81 211.656 111.79 211.308 110.846C210.96 109.901 210.424 109.138 209.699 108.555C208.975 107.973 208.051 107.682 206.929 107.682C205.807 107.682 204.884 107.973 204.159 108.555C203.435 109.138 202.899 109.901 202.551 110.846C202.203 111.79 202.029 112.81 202.029 113.903C202.029 114.997 202.203 116.013 202.551 116.95C202.899 117.888 203.435 118.644 204.159 119.219C204.884 119.795 205.807 120.082 206.929 120.082ZM220.696 100.182V122H218.182V100.182H220.696Z" fill="#5E5E5E"/>
</g>
<defs>
<filter id="filter0_di_103_224" x="4" y="0" width="233" height="142" filterUnits="userSpaceOnUse" color-interpolation-filters="sRGB">
<feFlood flood-opacity="0" result="BackgroundImageFix"/>
<feColorMatrix in="SourceAlpha" type="matrix" values="0 0 0 0 0 0 0 0 0 0 0 0 0 0 0 0 0 0 127 0" result="hardAlpha"/>
<feOffset dy="2"/>
<feComposite in2="hardAlpha" operator="out"/>
<feColorMatrix type="matrix" values="0 0 0 0 0.725 0 0 0 0 0.725 0 0 0 0 0.725 0 0 0 1 0"/>
<feBlend mode="normal" in2="BackgroundImageFix" result="effect1_dropShadow_103_224"/>
<feBlend mode="normal" in="SourceGraphic" in2="effect1_dropShadow_103_224" result="shape"/>
<feColorMatrix in="SourceAlpha" type="matrix" values="0 0 0 0 0 0 0 0 0 0 0 0 0 0 0 0 0 0 127 0" result="hardAlpha"/>
<feOffset dy="3"/>
<feComposite in2="hardAlpha" operator="arithmetic" k2="-1" k3="1"/>
<feColorMatrix type="matrix" values="0 0 0 0 1 0 0 0 0 1 0 0 0 0 1 0 0 0 1 0"/>
<feBlend mode="normal" in2="shape" result="effect2_innerShadow_103_224"/>
</filter>
<linearGradient id="paint0_linear_103_224" x1="0.920044" y1="155.539" x2="43.8837" y2="155.539" gradientUnits="userSpaceOnUse">
<stop stop-color="#6A6A6A"/>
<stop offset="1" stop-color="#6A6A6A" stop-opacity="0"/>
</linearGradient>
<linearGradient id="paint1_linear_103_224" x1="238.333" y1="155.539" x2="199.816" y2="155.539" gradientUnits="userSpaceOnUse">
<stop stop-color="#6A6A6A"/>
<stop offset="1" stop-color="#6A6A6A" stop-opacity="0"/>
</linearGradient>
</defs>
</svg>
