<svg width="150" height="156" viewBox="0 0 150 156" fill="none" xmlns="http://www.w3.org/2000/svg">
<rect x="2.42004" y="11.1876" width="145.992" height="142.852" rx="22.5" fill="#CFCFCF"/>
<rect x="2.42004" y="11.1876" width="145.992" height="142.852" rx="22.5" fill="url(#paint0_linear_103_222)" fill-opacity="0.85"/>
<rect x="2.42004" y="11.1876" width="145.992" height="142.852" rx="22.5" fill="url(#paint1_linear_103_222)" fill-opacity="0.85"/>
<rect x="2.42004" y="11.1876" width="145.992" height="142.852" rx="22.5" stroke="#6A6A6A" stroke-width="3"/>
<g filter="url(#filter0_di_103_222)">
<rect x="4.17908" y="0.336182" width="142.474" height="140" rx="24" fill="#F6F6F6"/>
<path d="M59.7655 88.3362V66.4612H56.2255V62.9456H59.7655V59.8206C59.7655 54.9377 62.036 52.6184 66.7235 52.6184C67.6757 52.6184 68.6766 52.6917 69.3114 52.7893V56.2317C68.7987 56.1584 68.1395 56.134 67.4803 56.134C65.1366 56.134 63.9647 57.3303 63.9647 59.845V62.9456H69.1893V66.4612H64.0135V88.3362H59.7655ZM73.5839 88.3362V62.9456H77.8319V66.5588H77.9296C79.2968 64.1907 81.8846 62.4573 85.7421 62.4573C91.3085 62.4573 94.5311 66.0706 94.5311 71.8567V88.3362H90.2831V72.6135C90.2831 68.4875 88.3544 66.217 84.4481 66.217C80.4442 66.217 77.8319 69.0735 77.8319 73.3948V88.3362H73.5839Z" fill="#5E5E5E"/>
</g>
<defs>
<filter id="filter0_di_103_222" x="4.17908" y="0.336182" width="142.474" height="143" filterUnits="userSpaceOnUse" color-interpolation-filters="sRGB">
<feFlood flood-opacity="0" result="BackgroundImageFix"/>
<feColorMatrix in="SourceAlpha" type="matrix" values="0 0 0 0 0 0 0 0 0 0 0 0 0 0 0 0 0 0 127 0" result="hardAlpha"/>
<feOffset dy="3"/>
<feComposite in2="hardAlpha" operator="out"/>
<feColorMatrix type="matrix" values="0 0 0 0 0.725 0 0 0 0 0.725 0 0 0 0 0.725 0 0 0 1 0"/>
<feBlend mode="normal" in2="BackgroundImageFix" result="effect1_dropShadow_103_222"/>
<feBlend mode="normal" in="SourceGraphic" in2="effect1_dropShadow_103_222" result="shape"/>
<feColorMatrix in="SourceAlpha" type="matrix" values="0 0 0 0 0 0 0 0 0 0 0 0 0 0 0 0 0 0 127 0" result="hardAlpha"/>
<feOffset dy="3"/>
<feComposite in2="hardAlpha" operator="arithmetic" k2="-1" k3="1"/>
<feColorMatrix type="matrix" values="0 0 0 0 1 0 0 0 0 1 0 0 0 0 1 0 0 0 1 0"/>
<feBlend mode="normal" in2="shape" result="effect2_innerShadow_103_222"/>
</filter>
<linearGradient id="paint0_linear_103_222" x1="0.920044" y1="155.539" x2="27.7044" y2="155.539" gradientUnits="userSpaceOnUse">
<stop stop-color="#6A6A6A"/>
<stop offset="1" stop-color="#6A6A6A" stop-opacity="0"/>
</linearGradient>
<linearGradient id="paint1_linear_103_222" x1="148.928" y1="155.539" x2="124.915" y2="155.539" gradientUnits="userSpaceOnUse">
<stop stop-color="#6A6A6A"/>
<stop offset="1" stop-color="#6A6A6A" stop-opacity="0"/>
</linearGradient>
</defs>
</svg>
