<svg width="200" height="156" viewBox="0 0 200 156" fill="none" xmlns="http://www.w3.org/2000/svg">
<rect x="2.42004" y="11.1876" width="195.992" height="142.852" rx="22.5" fill="#CFCFCF"/>
<rect x="2.42004" y="11.1876" width="195.992" height="142.852" rx="22.5" fill="url(#paint0_linear_103_225)" fill-opacity="0.85"/>
<rect x="2.42004" y="11.1876" width="195.992" height="142.852" rx="22.5" fill="url(#paint1_linear_103_225)" fill-opacity="0.85"/>
<rect x="2.42004" y="11.1876" width="195.992" height="142.852" rx="22.5" stroke="#6A6A6A" stroke-width="3"/>
<g filter="url(#filter0_di_103_225)">
<rect x="3.5" y="0.336182" width="193" height="140" rx="24" fill="#F6F6F6"/>
<path d="M149.81 22.2043C151.543 22.2043 152.983 23.1321 153.667 24.719L165.874 52.3557C166.167 52.9905 166.631 53.259 167.388 53.259H175.518C176.665 53.259 177.593 54.1624 177.593 55.261C177.593 56.3596 176.665 57.2385 175.518 57.2385H166.338C164.482 57.2385 163.262 56.4817 162.505 54.7239L150.249 27.0872C149.956 26.4524 149.492 26.1838 148.833 26.1838H140.679C139.507 26.1838 138.604 25.3049 138.604 24.1819C138.604 23.0588 139.507 22.2043 140.679 22.2043H149.81ZM175.518 22.2043C176.689 22.2043 177.568 23.0344 177.568 24.1575C177.568 25.2805 176.689 26.135 175.518 26.135H163.677C162.505 26.135 161.626 25.2805 161.626 24.1575C161.626 23.0344 162.505 22.2043 163.677 22.2043H175.518Z" fill="#5E5E5E"/>
<path d="M101.8 122.677C100.323 122.677 99.027 122.326 97.9119 121.622C96.804 120.919 95.9375 119.936 95.3125 118.671C94.6946 117.407 94.3857 115.93 94.3857 114.24C94.3857 112.535 94.6946 111.047 95.3125 109.776C95.9375 108.505 96.804 107.517 97.9119 106.814C99.027 106.111 100.323 105.759 101.8 105.759C103.278 105.759 104.57 106.111 105.678 106.814C106.793 107.517 107.66 108.505 108.278 109.776C108.903 111.047 109.215 112.535 109.215 114.24C109.215 115.93 108.903 117.407 108.278 118.671C107.66 119.936 106.793 120.919 105.678 121.622C104.57 122.326 103.278 122.677 101.8 122.677ZM101.8 120.419C102.923 120.419 103.846 120.131 104.57 119.556C105.295 118.98 105.831 118.224 106.179 117.286C106.527 116.349 106.701 115.333 106.701 114.24C106.701 113.146 106.527 112.127 106.179 111.182C105.831 110.237 105.295 109.474 104.57 108.892C103.846 108.309 102.923 108.018 101.8 108.018C100.678 108.018 99.755 108.309 99.0305 108.892C98.3061 109.474 97.7699 110.237 97.4219 111.182C97.0739 112.127 96.8999 113.146 96.8999 114.24C96.8999 115.333 97.0739 116.349 97.4219 117.286C97.7699 118.224 98.3061 118.98 99.0305 119.556C99.755 120.131 100.678 120.419 101.8 120.419ZM113.053 128.473V105.973H115.482V108.572H115.78C115.965 108.288 116.221 107.926 116.547 107.485C116.881 107.038 117.357 106.64 117.975 106.292C118.6 105.937 119.445 105.759 120.51 105.759C121.888 105.759 123.103 106.104 124.154 106.793C125.205 107.482 126.025 108.458 126.615 109.723C127.204 110.987 127.499 112.478 127.499 114.197C127.499 115.93 127.204 117.432 126.615 118.703C126.025 119.968 125.209 120.948 124.165 121.644C123.121 122.333 121.917 122.677 120.553 122.677C119.502 122.677 118.66 122.503 118.028 122.155C117.396 121.8 116.91 121.399 116.569 120.951C116.228 120.497 115.965 120.12 115.78 119.822H115.567V128.473H113.053ZM115.525 114.154C115.525 115.39 115.706 116.48 116.068 117.425C116.43 118.362 116.959 119.098 117.655 119.63C118.351 120.156 119.204 120.419 120.212 120.419C121.263 120.419 122.14 120.142 122.844 119.588C123.554 119.027 124.086 118.274 124.442 117.329C124.804 116.377 124.985 115.319 124.985 114.154C124.985 113.004 124.807 111.967 124.452 111.044C124.104 110.113 123.575 109.378 122.865 108.838C122.162 108.291 121.278 108.018 120.212 108.018C119.189 108.018 118.33 108.277 117.634 108.796C116.938 109.307 116.412 110.024 116.057 110.948C115.702 111.864 115.525 112.933 115.525 114.154ZM138.451 105.973V108.103H129.971V105.973H138.451ZM132.442 102.052H134.956V117.649C134.956 118.359 135.059 118.892 135.265 119.247C135.479 119.595 135.748 119.829 136.075 119.95C136.409 120.063 136.76 120.12 137.13 120.12C137.407 120.12 137.634 120.106 137.812 120.078C137.989 120.042 138.131 120.014 138.238 119.992L138.749 122.251C138.579 122.315 138.341 122.379 138.035 122.443C137.73 122.514 137.343 122.549 136.874 122.549C136.164 122.549 135.468 122.397 134.786 122.091C134.111 121.786 133.55 121.321 133.103 120.696C132.662 120.071 132.442 119.282 132.442 118.33V102.052ZM142.233 122.336V105.973H144.747V122.336H142.233ZM143.511 103.245C143.021 103.245 142.599 103.078 142.243 102.745C141.895 102.411 141.721 102.009 141.721 101.541C141.721 101.072 141.895 100.671 142.243 100.337C142.599 100.003 143.021 99.8362 143.511 99.8362C144.001 99.8362 144.42 100.003 144.768 100.337C145.123 100.671 145.301 101.072 145.301 101.541C145.301 102.009 145.123 102.411 144.768 102.745C144.42 103.078 144.001 103.245 143.511 103.245ZM156 122.677C154.522 122.677 153.226 122.326 152.111 121.622C151.003 120.919 150.137 119.936 149.512 118.671C148.894 117.407 148.585 115.93 148.585 114.24C148.585 112.535 148.894 111.047 149.512 109.776C150.137 108.505 151.003 107.517 152.111 106.814C153.226 106.111 154.522 105.759 156 105.759C157.477 105.759 158.77 106.111 159.877 106.814C160.993 107.517 161.859 108.505 162.477 109.776C163.102 111.047 163.414 112.535 163.414 114.24C163.414 115.93 163.102 117.407 162.477 118.671C161.859 119.936 160.993 120.919 159.877 121.622C158.77 122.326 157.477 122.677 156 122.677ZM156 120.419C157.122 120.419 158.045 120.131 158.77 119.556C159.494 118.98 160.03 118.224 160.378 117.286C160.726 116.349 160.9 115.333 160.9 114.24C160.9 113.146 160.726 112.127 160.378 111.182C160.03 110.237 159.494 109.474 158.77 108.892C158.045 108.309 157.122 108.018 156 108.018C154.877 108.018 153.954 108.309 153.23 108.892C152.505 109.474 151.969 110.237 151.621 111.182C151.273 112.127 151.099 113.146 151.099 114.24C151.099 115.333 151.273 116.349 151.621 117.286C151.969 118.224 152.505 118.98 153.23 119.556C153.954 120.131 154.877 120.419 156 120.419ZM169.767 112.492V122.336H167.252V105.973H169.681V108.529H169.894C170.278 107.698 170.86 107.031 171.642 106.527C172.423 106.015 173.431 105.759 174.667 105.759C175.775 105.759 176.744 105.987 177.575 106.441C178.406 106.889 179.053 107.571 179.514 108.487C179.976 109.396 180.207 110.546 180.207 111.938V122.336H177.693V112.109C177.693 110.823 177.359 109.822 176.691 109.105C176.024 108.38 175.107 108.018 173.943 108.018C173.14 108.018 172.423 108.192 171.791 108.54C171.166 108.888 170.672 109.396 170.31 110.063C169.948 110.731 169.767 111.541 169.767 112.492Z" fill="#5E5E5E"/>
</g>
<defs>
<filter id="filter0_di_103_225" x="3.5" y="0.336182" width="193" height="142" filterUnits="userSpaceOnUse" color-interpolation-filters="sRGB">
<feFlood flood-opacity="0" result="BackgroundImageFix"/>
<feColorMatrix in="SourceAlpha" type="matrix" values="0 0 0 0 0 0 0 0 0 0 0 0 0 0 0 0 0 0 127 0" result="hardAlpha"/>
<feOffset dy="2"/>
<feComposite in2="hardAlpha" operator="out"/>
<feColorMatrix type="matrix" values="0 0 0 0 0.725 0 0 0 0 0.725 0 0 0 0 0.725 0 0 0 1 0"/>
<feBlend mode="normal" in2="BackgroundImageFix" result="effect1_dropShadow_103_225"/>
<feBlend mode="normal" in="SourceGraphic" in2="effect1_dropShadow_103_225" result="shape"/>
<feColorMatrix in="SourceAlpha" type="matrix" values="0 0 0 0 0 0 0 0 0 0 0 0 0 0 0 0 0 0 127 0" result="hardAlpha"/>
<feOffset dy="3"/>
<feComposite in2="hardAlpha" operator="arithmetic" k2="-1" k3="1"/>
<feColorMatrix type="matrix" values="0 0 0 0 1 0 0 0 0 1 0 0 0 0 1 0 0 0 1 0"/>
<feBlend mode="normal" in2="shape" result="effect2_innerShadow_103_225"/>
</filter>
<linearGradient id="paint0_linear_103_225" x1="0.920044" y1="155.539" x2="36.6929" y2="155.539" gradientUnits="userSpaceOnUse">
<stop stop-color="#6A6A6A"/>
<stop offset="1" stop-color="#6A6A6A" stop-opacity="0"/>
</linearGradient>
<linearGradient id="paint1_linear_103_225" x1="198.598" y1="155.539" x2="166.527" y2="155.539" gradientUnits="userSpaceOnUse">
<stop stop-color="#6A6A6A"/>
<stop offset="1" stop-color="#6A6A6A" stop-opacity="0"/>
</linearGradient>
</defs>
</svg>
