<svg width="300" height="156" viewBox="0 0 300 156" fill="none" xmlns="http://www.w3.org/2000/svg">
<rect x="2.42004" y="11.1876" width="295.992" height="142.852" rx="22.5" fill="#CFCFCF"/>
<rect x="2.42004" y="11.1876" width="295.992" height="142.852" rx="22.5" fill="url(#paint0_linear_103_223)" fill-opacity="0.85"/>
<rect x="2.42004" y="11.1876" width="295.992" height="142.852" rx="22.5" fill="url(#paint1_linear_103_223)" fill-opacity="0.85"/>
<rect x="2.42004" y="11.1876" width="295.992" height="142.852" rx="22.5" stroke="#6A6A6A" stroke-width="3"/>
<g filter="url(#filter0_di_103_223)">
<rect x="4" y="0.336182" width="293" height="140" rx="24" fill="#F6F6F6"/>
<path d="M252.775 57.5315C249.87 57.5315 248.381 55.8469 248.381 53.137V44.885H240.91C239.201 44.885 237.834 43.8352 237.834 42.2239C237.834 41.2229 238.273 40.5637 239.104 39.7336L255.998 22.8879C256.706 22.2043 257.536 21.7405 258.464 21.7405C259.392 21.7405 260.222 22.2043 260.93 22.8879L277.849 39.7336C278.605 40.5149 279.094 41.2229 279.094 42.2239C279.094 43.8352 277.727 44.885 276.018 44.885H268.547V53.137C268.547 55.8469 267.058 57.5315 264.152 57.5315H252.775ZM253.142 54.1379H263.786C264.421 54.1379 264.885 53.6741 264.885 53.0393V42.2483C264.885 41.7844 265.08 41.5891 265.568 41.5891H274.26C274.333 41.5891 274.406 41.5403 274.406 41.467C274.406 41.4182 274.357 41.3694 274.309 41.2961L258.708 25.842C258.635 25.7688 258.562 25.7444 258.464 25.7444C258.391 25.7444 258.293 25.7688 258.22 25.842L242.619 41.2961C242.57 41.3694 242.546 41.4182 242.546 41.467C242.546 41.5403 242.595 41.5891 242.692 41.5891H251.359C251.848 41.5891 252.043 41.7844 252.043 42.2483V53.0393C252.043 53.6985 252.507 54.1379 253.142 54.1379Z" fill="#5E5E5E"/>
<path d="M234.665 109.637L232.407 110.277C232.265 109.9 232.055 109.534 231.778 109.179C231.509 108.817 231.139 108.519 230.67 108.284C230.202 108.05 229.602 107.933 228.87 107.933C227.869 107.933 227.034 108.164 226.366 108.625C225.706 109.08 225.376 109.659 225.376 110.362C225.376 110.987 225.603 111.48 226.058 111.843C226.512 112.205 227.222 112.507 228.188 112.748L230.617 113.345C232.08 113.7 233.17 114.243 233.888 114.975C234.605 115.699 234.964 116.633 234.964 117.777C234.964 118.714 234.694 119.552 234.154 120.291C233.621 121.029 232.876 121.612 231.917 122.038C230.958 122.464 229.843 122.677 228.572 122.677C226.903 122.677 225.521 122.315 224.428 121.59C223.334 120.866 222.641 119.808 222.35 118.416L224.737 117.819C224.964 118.7 225.393 119.36 226.026 119.801C226.665 120.241 227.499 120.461 228.529 120.461C229.701 120.461 230.631 120.213 231.32 119.715C232.016 119.211 232.364 118.607 232.364 117.904C232.364 117.336 232.165 116.86 231.768 116.477C231.37 116.086 230.759 115.795 229.935 115.603L227.208 114.964C225.71 114.609 224.609 114.058 223.906 113.313C223.21 112.56 222.862 111.619 222.862 110.49C222.862 109.566 223.121 108.75 223.639 108.039C224.165 107.329 224.879 106.772 225.781 106.367C226.69 105.962 227.719 105.759 228.87 105.759C230.489 105.759 231.761 106.115 232.684 106.825C233.614 107.535 234.275 108.473 234.665 109.637ZM241.263 112.492V122.336H238.748V100.518H241.263V108.529H241.476C241.859 107.684 242.434 107.013 243.202 106.516C243.976 106.012 245.006 105.759 246.291 105.759C247.406 105.759 248.383 105.983 249.221 106.431C250.059 106.871 250.709 107.549 251.17 108.465C251.639 109.375 251.873 110.532 251.873 111.938V122.336H249.359V112.109C249.359 110.809 249.022 109.804 248.347 109.094C247.68 108.377 246.753 108.018 245.567 108.018C244.743 108.018 244.004 108.192 243.351 108.54C242.704 108.888 242.193 109.396 241.817 110.063C241.447 110.731 241.263 111.541 241.263 112.492ZM256.473 122.336V105.973H258.987V122.336H256.473ZM257.751 103.245C257.261 103.245 256.839 103.078 256.484 102.745C256.136 102.411 255.962 102.009 255.962 101.541C255.962 101.072 256.136 100.671 256.484 100.337C256.839 100.003 257.261 99.8362 257.751 99.8362C258.241 99.8362 258.661 100.003 259.009 100.337C259.364 100.671 259.541 101.072 259.541 101.541C259.541 102.009 259.364 102.411 259.009 102.745C258.661 103.078 258.241 103.245 257.751 103.245ZM270.879 105.973V108.103H262.058V105.973H270.879ZM264.7 122.336V103.714C264.7 102.777 264.92 101.995 265.361 101.37C265.801 100.745 266.373 100.277 267.076 99.964C267.779 99.6515 268.521 99.4953 269.302 99.4953C269.92 99.4953 270.425 99.545 270.815 99.6444C271.206 99.7439 271.497 99.8362 271.689 99.9214L270.964 102.095C270.836 102.052 270.659 101.999 270.432 101.935C270.211 101.871 269.92 101.839 269.558 101.839C268.727 101.839 268.127 102.049 267.758 102.468C267.395 102.887 267.214 103.501 267.214 104.311V122.336H264.7ZM281.519 105.973V108.103H273.039V105.973H281.519ZM275.511 102.052H278.025V117.649C278.025 118.359 278.128 118.892 278.334 119.247C278.547 119.595 278.817 119.829 279.143 119.95C279.477 120.063 279.829 120.12 280.198 120.12C280.475 120.12 280.702 120.106 280.88 120.078C281.058 120.042 281.2 120.014 281.306 119.992L281.817 122.251C281.647 122.315 281.409 122.379 281.104 122.443C280.798 122.514 280.411 122.549 279.942 122.549C279.232 122.549 278.536 122.397 277.854 122.091C277.18 121.786 276.619 121.321 276.171 120.696C275.731 120.071 275.511 119.282 275.511 118.33V102.052Z" fill="#5E5E5E"/>
</g>
<defs>
<filter id="filter0_di_103_223" x="4" y="0.336182" width="293" height="142" filterUnits="userSpaceOnUse" color-interpolation-filters="sRGB">
<feFlood flood-opacity="0" result="BackgroundImageFix"/>
<feColorMatrix in="SourceAlpha" type="matrix" values="0 0 0 0 0 0 0 0 0 0 0 0 0 0 0 0 0 0 127 0" result="hardAlpha"/>
<feOffset dy="2"/>
<feComposite in2="hardAlpha" operator="out"/>
<feColorMatrix type="matrix" values="0 0 0 0 0.725 0 0 0 0 0.725 0 0 0 0 0.725 0 0 0 1 0"/>
<feBlend mode="normal" in2="BackgroundImageFix" result="effect1_dropShadow_103_223"/>
<feBlend mode="normal" in="SourceGraphic" in2="effect1_dropShadow_103_223" result="shape"/>
<feColorMatrix in="SourceAlpha" type="matrix" values="0 0 0 0 0 0 0 0 0 0 0 0 0 0 0 0 0 0 127 0" result="hardAlpha"/>
<feOffset dy="3"/>
<feComposite in2="hardAlpha" operator="arithmetic" k2="-1" k3="1"/>
<feColorMatrix type="matrix" values="0 0 0 0 1 0 0 0 0 1 0 0 0 0 1 0 0 0 1 0"/>
<feBlend mode="normal" in2="shape" result="effect2_innerShadow_103_223"/>
</filter>
<linearGradient id="paint0_linear_103_223" x1="0.920044" y1="155.539" x2="54.67" y2="155.539" gradientUnits="userSpaceOnUse">
<stop stop-color="#6A6A6A"/>
<stop offset="1" stop-color="#6A6A6A" stop-opacity="0"/>
</linearGradient>
<linearGradient id="paint1_linear_103_223" x1="297.937" y1="155.539" x2="249.75" y2="155.539" gradientUnits="userSpaceOnUse">
<stop stop-color="#6A6A6A"/>
<stop offset="1" stop-color="#6A6A6A" stop-opacity="0"/>
</linearGradient>
</defs>
</svg>
