<?xml version="1.0" encoding="utf-8"?>
<!-- Generator: Adobe Illustrator 17.1.0, SVG Export Plug-In . SVG Version: 6.00 Build 0)  -->
<!DOCTYPE svg PUBLIC "-//W3C//DTD SVG 1.1//EN" "http://www.w3.org/Graphics/SVG/1.1/DTD/svg11.dtd">
<svg version="1.1" id="Слой_1" xmlns="http://www.w3.org/2000/svg" xmlns:xlink="http://www.w3.org/1999/xlink" x="0px" y="0px"
	 viewBox="0 0 64 64" enable-background="new 0 0 64 64" xml:space="preserve">
<g>
	<g>
		<g>
			<path fill="#BAE4ED" d="M25.7,23.4l-1.2-3c-0.2-0.5-0.6-0.8-1.1-0.8L18,19.5c-0.7,0-1.3,0.5-1.3,1.2c0,0.7,0.5,1.3,1.2,1.3
				l4.6,0.1l0.4,1.3L25.7,23.4z"/>
		</g>
	</g>
	<polygon fill="#BAE4ED" points="20.7,23.4 40.8,23.4 25.6,39.2 	"/>
	<path fill="#9FCED4" d="M41.4,39.2h0.1l3.5-15.8h-4.3L25.6,39.2h0.1c-0.7,0.6-1.1,1.4-1.1,2.3c0,1.7,1.3,3,3,3s3-1.3,3-3
		c0-0.9-0.4-1.8-1.1-2.3h8.3c-0.7,0.6-1.1,1.4-1.1,2.3c0,1.7,1.3,3,3,3s3-1.3,3-3C42.6,40.6,42.1,39.7,41.4,39.2z M27.6,42.5
		c-0.6,0-1-0.4-1-1s0.4-1,1-1s1,0.4,1,1S28.1,42.5,27.6,42.5z M39.6,42.5c-0.6,0-1-0.4-1-1s0.4-1,1-1s1,0.4,1,1S40.1,42.5,39.6,42.5
		z"/>
</g>
</svg>
