<?xml version="1.0" encoding="utf-8"?>
<!-- Generator: Adobe Illustrator 17.1.0, SVG Export Plug-In . SVG Version: 6.00 Build 0)  -->
<!DOCTYPE svg PUBLIC "-//W3C//DTD SVG 1.1//EN" "http://www.w3.org/Graphics/SVG/1.1/DTD/svg11.dtd">
<svg version="1.1" id="Слой_1" xmlns="http://www.w3.org/2000/svg" xmlns:xlink="http://www.w3.org/1999/xlink" x="0px" y="0px"
	 viewBox="0 0 64 64" enable-background="new 0 0 64 64" xml:space="preserve">
<g>
	<polygon fill="#88C871" points="21,40 21,43 22.4,43 25.3,40 	"/>
	<polygon fill="#6EAC5D" points="43,40 25.3,40 22.4,43 43,43 	"/>
	<path fill="#88C871" d="M33.9,22.9c0-1.1-0.9-2-1.9-2v0c0,0,0,0,0,0c0,0,0,0,0,0v0c-1.1,0-1.9,0.9-1.9,2v8.6l-3.7-3.5
		c-0.8-0.8-2.1-0.7-2.8,0.1c-0.8,0.8-0.7,2.6,0.1,3.3l5.5,5.3l4.8-5.5V22.9z"/>
	<path fill="#6EAC5D" d="M40.5,28c-0.8-0.8-2-0.8-2.8-0.1l-3.7,3.5v-0.3l-4.8,5.5l1.5,1.5c0.4,0.3,0.8,0.5,1.3,0.5v0c0,0,0,0,0,0
		c0,0,0,0,0,0v0c0.5,0,0.9-0.2,1.3-0.5l7.1-6.8C41.2,30.6,41.2,28.8,40.5,28z"/>
</g>
</svg>
