<?xml version="1.0" encoding="utf-8"?>
<!-- Generator: Adobe Illustrator 17.1.0, SVG Export Plug-In . SVG Version: 6.00 Build 0)  -->
<!DOCTYPE svg PUBLIC "-//W3C//DTD SVG 1.1//EN" "http://www.w3.org/Graphics/SVG/1.1/DTD/svg11.dtd">
<svg version="1.1" id="Слой_1" xmlns="http://www.w3.org/2000/svg" xmlns:xlink="http://www.w3.org/1999/xlink" x="0px" y="0px"
	 viewBox="0 0 100 100" enable-background="new 0 0 100 100" xml:space="preserve">
<path fill="#B5ECF3" d="M76.7,53.6c0-3.5,0-7,0-10.5c0.1-3.3,1.5-5.4,5-5.6c3.4-0.2,5.5,1.8,5.6,5c0.2,7.5,0.2,15,0,22.4
	c-0.1,3.3-2.3,5.3-5.6,5.2c-3.3-0.1-5.1-2.2-5.1-5.6C76.6,60.9,76.7,57.3,76.7,53.6z"/>
<path fill="#B5ECF3" d="M14.7,53.6c0-3.5,0-7,0-10.5c0.1-3.3,1.5-5.4,5-5.6c3.4-0.2,5.5,1.8,5.6,5c0.2,7.5,0.2,15,0,22.4
	c-0.1,3.3-2.3,5.3-5.6,5.2c-3.3-0.1-5.1-2.2-5.1-5.6C14.6,60.9,14.7,57.3,14.7,53.6z"/>
<path fill="#B5ECF3" d="M29.7,38.5c-3.2,0-2.8,1.9-2.8,3.9c0,10.8,0,21.5-0.1,32.3l0,0v0c1.1,1.7,2.4,3.9,4.4,3.7
	c5.9-0.6,5.4,3.1,5.2,6.8c-0.1,1.5-0.1,3,0,4.5c0.2,3.5,1.8,5.9,5.4,5.8c3.6-0.1,5.3-2.3,5.2-5.9c0-2.7,0.2-5.3,0-8
	c-0.2-3.2,1.8-2.9,3.8-2.9c2.1-0.1,3.5,0.2,3.4,2.9c-0.2,3-0.2,6,0.1,9c0.3,3.2,2.4,5.2,5.7,5c3-0.2,4.8-2.1,5-5.2
	c0.1-3,0.1-6,0.1-9c-0.1-1.9,0.6-2.5,2.6-2.7c6.1-0.7,7.2-2.1,7.2-8.3c0-10.5,0-20.9,0.1-31.4l0,0C59.9,38.7,44.8,38.7,29.7,38.5z"
	/>
<path fill="#B5ECF3" d="M62.4,17.1l4.7-8.5c0.3-0.5,0.1-1.1-0.4-1.4c-0.5-0.3-1.1-0.1-1.4,0.4l-4.9,8.7c-6.5-2.5-13.6-3.2-20.2,0.1
	l-4.9-8.8C35.1,7.2,34.5,7,34,7.3c-0.5,0.3-0.7,0.9-0.4,1.4l4.9,8.8c-0.7,0.5-1.5,0.9-2.2,1.5c-5.7,4.5-9.9,9.8-9.3,17.6
	c1.2,1.1,2.7,1.1,4.2,1.1c13.2,0,26.4,0,39.6,0c1.5,0,3,0.1,4.1-1.3C74.7,27.3,69.8,20.5,62.4,17.1z M40.3,27.8
	c-1.4,0-2.2-0.6-2.3-1.7c-0.1-1.2,0.7-1.9,1.7-2c1.1-0.1,1.9,0.6,2,1.7C41.9,27,40.9,27.4,40.3,27.8z M62,27.8
	c-1.5-0.2-2.1-0.8-2.1-2c0.1-1.1,0.8-1.8,1.9-1.8c1.1,0.1,1.8,0.8,1.8,2C63.6,27.2,62.7,27.6,62,27.8z"/>
</svg>
