<?xml version="1.0" encoding="utf-8"?>
<!-- Generator: Adobe Illustrator 17.1.0, SVG Export Plug-In . SVG Version: 6.00 Build 0)  -->
<!DOCTYPE svg PUBLIC "-//W3C//DTD SVG 1.1//EN" "http://www.w3.org/Graphics/SVG/1.1/DTD/svg11.dtd">
<svg version="1.1" id="Слой_1" xmlns="http://www.w3.org/2000/svg" xmlns:xlink="http://www.w3.org/1999/xlink" x="0px" y="0px"
	 viewBox="15.7 15 14 14" enable-background="new 15.7 15 14 14" xml:space="preserve">
<g>
	<path fill="#B5ECF3" d="M7.7,25.1c0-5.8,1.3-8.9,4.6-11.1c2.3-1.5,4.8-1.8,7.4-0.8c2.4,1,4.8,1,7.2,0c3.4-1.4,6.5-0.4,9.1,2
		c0.6,0.6,0.8,1,0,1.5c-4.5,3-4,10.1,0.9,12.7c0.7,0.4,1.1,0.7,0.6,1.5c-1.3,2.4-2.6,4.8-4.6,6.6c-1.7,1.7-3.6,2.2-5.9,1.1
		c-2.3-1.2-4.6-1.1-7-0.1c-2.8,1.2-4.5,0.9-6.5-1.4C9.8,33.3,7.8,28.6,7.7,25.1z"/>
	<path fill="#B5ECF3" d="M29.5,5.7c0,3.3-3,6.8-6.1,7.3c-0.9,0.1-1.2-0.2-1.2-1.1c-0.1-3,3.5-6.9,6.4-7.2
		C29.6,4.6,29.5,5.2,29.5,5.7z"/>
</g>
</svg>
