<?xml version="1.0" encoding="utf-8"?>
<!-- Generator: Adobe Illustrator 17.1.0, SVG Export Plug-In . SVG Version: 6.00 Build 0)  -->
<!DOCTYPE svg PUBLIC "-//W3C//DTD SVG 1.1//EN" "http://www.w3.org/Graphics/SVG/1.1/DTD/svg11.dtd">
<svg version="1.1" id="Слой_1" xmlns="http://www.w3.org/2000/svg" xmlns:xlink="http://www.w3.org/1999/xlink" x="0px" y="0px"
	 viewBox="0 0 100 100" enable-background="new 0 0 100 100" xml:space="preserve">
<g>
	<path fill="#B5ECF3" d="M13.6,56.6c-0.1-14.2,3.2-22,11.4-27.3c5.7-3.7,11.8-4.4,18.1-1.9c6,2.5,11.7,2.5,17.8,0
		c8.4-3.4,16-1.1,22.5,5c1.5,1.4,2,2.4-0.1,3.7c-11,7.3-9.9,24.8,2.1,31.3c1.7,0.9,2.6,1.6,1.5,3.7c-3.1,5.9-6.5,11.7-11.3,16.3
		c-4.2,4.1-8.9,5.5-14.5,2.6c-5.7-3-11.4-2.7-17.3-0.2c-6.8,3-11,2.2-16.1-3.4C18.8,76.8,13.8,65.2,13.6,56.6z"/>
	<path fill="#B5ECF3" d="M67.2,8.7c0.1,8.1-7.4,16.8-15,17.9c-2.3,0.3-2.9-0.4-3-2.6C49,16.7,57.8,7,65,6.3
		C67.5,6,67.1,7.6,67.2,8.7z"/>
</g>
</svg>
