<?xml version="1.0" encoding="utf-8"?>
<!-- Generator: Adobe Illustrator 17.1.0, SVG Export Plug-In . SVG Version: 6.00 Build 0)  -->
<!DOCTYPE svg PUBLIC "-//W3C//DTD SVG 1.1//EN" "http://www.w3.org/Graphics/SVG/1.1/DTD/svg11.dtd">
<svg version="1.1" id="Слой_1" xmlns="http://www.w3.org/2000/svg" xmlns:xlink="http://www.w3.org/1999/xlink" x="0px" y="0px"
	 viewBox="0 0 45 45" enable-background="new 0 0 45 45" xml:space="preserve">
<g>
	<path fill="#F8E09E" d="M30.9,23.6H28c0-2.1-0.8-4-2.3-5.5c-1.5-1.5-3.4-2.3-5.5-2.3v-2.9C26.1,13,30.9,17.7,30.9,23.6L30.9,23.6z"
		/>
	<path fill="#F8E09E" d="M36.5,23.6h-2.9c0-7.4-6-13.4-13.3-13.4V7.3C29.3,7.4,36.5,14.6,36.5,23.6L36.5,23.6z"/>
	<g id="Telephone">
		<path fill="#F8E09E" d="M10.7,10.1c0,0,1.8-2.2,4.2,1s3.1,3.9,2.2,6s-2.8,3.6-1.2,5.8s2.9,4.1,5.8,6c2.9,1.8,4.5,2.5,5.5,2.2
			c1-0.3,3.2-4.4,5.7-2.9c2.5,1.5,4.7,3.2,4.5,4.7c-0.2,1.5-3.8,4.4-5.1,4.5c-4.4,0.6-7,0.3-9.9-1.5s-7.8-5.4-10.9-8.8
			s-4.4-8.4-4.1-11.1C7.8,13.5,10.7,10.1,10.7,10.1z"/>
	</g>
</g>
<g id="RSS">
</g>
</svg>
