<?xml version="1.0" encoding="utf-8"?>
<!-- Generator: Adobe Illustrator 17.1.0, SVG Export Plug-In . SVG Version: 6.00 Build 0)  -->
<!DOCTYPE svg PUBLIC "-//W3C//DTD SVG 1.1//EN" "http://www.w3.org/Graphics/SVG/1.1/DTD/svg11.dtd">
<svg version="1.1" id="Слой_1" xmlns="http://www.w3.org/2000/svg" xmlns:xlink="http://www.w3.org/1999/xlink" x="0px" y="0px"
	 viewBox="0 0 108 108" enable-background="new 0 0 108 108" xml:space="preserve">
<g>
	<path fill="#DADADA" d="M122.3,58.3c0,8.3,0,16.5,0,24.8c-2.4,3.1-5.8,5.2-8.4,8c-0.4,0.6-0.9,1.2-1.5,1.6
		c-1.1,1.1-2.3,2.1-3.9,2.2c-7.3,0.5-12.5,4.9-17.7,9.5c-0.7,0.3-1.2,0.8-1.9,1.2c-1.6,0.4-3,0.9-4.1,2.2c-10.3,0-20.5,0-30.8,0
		c-0.7-0.5-1.7-0.8-1.9-1.8c-1.3-3.3-3-6.3-4.6-9.4c-2.1-3.1-3-7-6.1-9.5c-0.7-0.2-1.3-0.6-1.7-1.2c-0.9-1.6-1.5-3.5-3.1-4.7
		c-0.6-1.2,0.1-2.6-0.7-3.8c-0.5-0.6-1-1.1-1.5-1.7c-1.8-1.7-2-3.2,0.3-4.7c2-0.5,4.7,0.3,5.5-2.7c2.6-0.3,4.4-1.9,6.1-3.6
		c0.9-0.3,2,0.1,2.9-0.4c3-1.4,6-2.9,9.4-3.3c1.7-1.1,2.1-3.7,4.6-4.1c1.3-0.3,1.4-1.4,1.6-2.4c0.2-0.7,0.5-1.4,1.1-1.8
		c0.3-0.1,0.7-0.2,1-0.2c0.7,0.2,1.3,0.7,2,0.8c0.2,0,0.5-0.1,0.7-0.1c0.2-0.1,0.4-0.3,0.6-0.4c0.4-0.4,0.6-0.9,0.9-1.4
		c0.3-0.9,1-1.3,1.8-1.7c0.7-0.2,1.2-0.7,1.9-0.8c2-0.3,4,1.2,6.1,0.1c1.2-0.6,2.3-1,2.9-2.2c0.3-0.4,0.7-0.7,1.2-0.9
		c1.4-0.1,2.7-0.5,4-1c3.5-1.3,6.7-3.4,10.3-4.7c0.5-0.3,1-0.5,1.5-0.8c3-1.4,5.9-3.3,9.6-2.6c1.8,0.4,3,1,3.7,2.7
		C117.1,45.7,121.3,51.3,122.3,58.3z"/>
	<path fill="#DADADA" d="M47.3,107.8c-10.3,0-20.5,0-30.8,0c-2-1.1-4.2-1.9-5.7-3.9c-1.9-2.5-4.6-2.6-7-0.7
		c-2.8,2.1-5.9,3.4-9.1,4.6c-3.6,0-7.2-0.1-10.8,0.1c-2.1,0.1-2.8-0.3-2.7-2.6c0.2-11.5,0.1-22.9,0.1-34.4c0-19.9,0-39.9,0-59.8
		c2.1-1.4,3.2,0.3,4.2,1.5c1.7,2,3.2,4.3,5.1,6.3c2.1,2.1,3.7,4.6,5.5,6.9c1.6,2.4,4.3,4.2,4.3,7.5c-0.1,1.1-0.3,2.3,1.5,2.2
		c1.5-0.1,2.2,0.9,2.9,2c3.3,5.5,7.6,10.3,11.2,15.6c0.8,1.3,2.2,0.9,3.2,1.6c0.6,0.4,0.8,1,1.1,1.6c0.1,0.3,0.3,0.6,0.5,0.8
		c0.2,0.3,0.3,0.5,0.5,0.8c0.2,0.2,0.4,0.5,0.5,0.7c0.1,0.6,0.3,1.1,0.5,1.7c0.1,0.4,0.3,0.7,0.5,1.1c0.2,0.2,0.4,0.4,0.6,0.6
		c0.3,0.3,0.7,0.6,1.1,0.8c0.8,2.9,4.1,2.7,5.6,4.7c0.4,0.6,0.8,1.1,1.1,1.8c0.3,0.6,0.7,1.2,1.1,1.9c0.8,2.9-0.7,6.1,1.7,8.7
		c0.5,0.5,1.1,0.9,1.6,1.5c0.2,0.5,0.4,1,0.6,1.5c0.3,0.9,1,1.5,1.2,2.5c-0.9,2.4-0.7,4.3,2.2,5.1c0.6,0.2,0.9,0.8,1.2,1.4
		c2.3,3.9,5.2,7.5,6.9,11.9C48.2,105,49,106.4,47.3,107.8z"/>
	<path fill="#DADADA" d="M91.5-6.2c0.5,0,1,0,1.5,0c3.6,1.9,4.7,5.5,5.5,9.1C98.7,3.7,99,4.4,99.4,5c3,5.1,4.1,11,7.3,15.9
		c1.5,2.4,2.7,5.1,3.1,8c-2.1,3.6-5.5,5.7-8.9,7.9c-4,2.5-8.6,3.7-12.5,6.5c-1.2,0.7-1,2.7-2.8,3c-1.8,1-3.8-1.3-5.6,0.4
		c-1.4,1.3-3.1,2-4.9,2.3c-1.5,0.1-2.7,1.6-4.3,1.2c-2.6-1.4-3.3-3.9-3.6-6.5c0.1-7.3-7.1-11.4-13-8.5c-3.3,1.7-4.8,4.5-5,8.1
		c-1.9,4.9-0.1,8.9,2.9,12.6c1.5,2-0.1,2.9-1.5,3.7c-3.6,2.3-7.6,3.6-11.3,5.7c-2.6,0.8-4.8,2.7-7.7,2.4c-2.6-1.3-5.5-2-7.5-4.3
		c-0.3-0.2-0.6-0.5-0.8-0.7c-0.2-0.3-0.2-0.7-0.2-1c0.1-0.5,0.3-1,0.4-1.5c-0.2-2.6-1.3-4.3-4.2-4.5c-0.2-0.3-0.5-0.5-0.7-0.7
		c-0.1-0.1-0.3-0.2-0.4-0.3c-0.2-0.3-0.4-0.6-0.4-1c0.3-3.5-2.3-5.6-3.8-8.2c-0.8-1.5-2.4-2.6-1.7-4.6c1-1.1,2-2,3.5-2.4
		c4.9-1.6,5.4-3.5,2.3-7.7c-0.4-0.5-0.5-1.1-0.5-1.7c3.2-4.5,7.6-7.6,12.3-10.3c1-0.5,2-1,2.8-1.8c2.8-0.4,5.2-1.8,7.9-2.7
		c3.9-1.7,7.2-4.4,10.6-6.9C61.9,3.9,72-0.8,82.4-4.6C85.3-5.6,88.6-5,91.5-6.2z"/>
	<path fill="#DADADA" d="M-18.7-1c0-1.8,0-3.5,0-5.3c29.8,0,59.5,0,89.3,0c0.7,2.8-1.3,3.7-3.3,4.6c-6.1,2.6-12.3,4.8-18.3,7.6
		C42.9,8.6,38,13,32.8,17c-2.8,2.7-6.9,3.6-9.7,6.4c-2,2-4.3,3.5-5.9,5.8c-2.1,1.4-3.4,3.6-5.5,5c-1.4,0.2-2.5,1-3.8,1.5
		c-1.8-0.1-3-1-4-2.4c-0.3-1.2-0.5-2.3-1.4-3.4C-3.7,22.3-9.1,14.3-15.3,6.8C-17.2,4.5-17.7,1.6-18.7-1z"/>
	<path fill="#DADADA" d="M96.8-6.2c7.8,0,15.5,0.1,23.3-0.1c1.9,0,2.3,0.4,2.3,2.3c-0.1,13.5,0,27,0,40.5c-3.5,1.4-6,0.6-8.3-2.2
		c-3.3-4.1-5.4-8.8-7.5-13.6c-4-7.8-7.1-15.9-10.1-24.1C95.8-4.7,96-5.4,96.8-6.2z"/>
	<path fill="#FEFEFE" d="M85.6,45.6c-0.8-1.5-1.2-2.9,0.7-3.8c5.5-3.5,11.6-5.9,17.3-8.9c1.9-0.9,3.9-1.5,5.4-3.1
		c0.6-0.5,1.1-1,1.9-0.9c2.3,0.2,3.9,1.4,4.7,3.6c0.9,2.9,3.3,4.5,5.2,6.6c1,1.2,0.6,2.8,1.4,4c0,5,0,10,0,15
		c-3.2-5.7-6.5-11.5-9.7-17.2c-2.2-3.6-2.2-3.7-6.1-1.7c-1.8,0.9-3.5,1.8-5.4,2.4c-0.2,0.2-0.4,0.4-0.5,0.7c-4,0.9-7.2,3.8-11.2,4.6
		c-1.3,0.6-2.5,0.4-3.7-0.3C85,46.4,85,46,85.6,45.6z"/>
	<path fill="#FEFEFE" d="M51.5,9.5c-3.2,2.2-6.3,4.5-9.5,6.7c-1.8,0.8-3.6,2.1-5.8,1.2c-0.7-0.3-1.5-0.5-1.8-1.5
		c-0.3-2.7,1-4.3,3.3-5.6c3.3-1.8,6.6-3.8,9.4-6.3c8.5-3.6,17-6.9,25.6-10.3c5.3,0,10.5,0,15.8,0c0.3,1.5-1.1,1.5-1.8,1.8
		C74.9,0.1,63.3,5,51.5,9.5z"/>
	<path fill="#FEFEFE" d="M-18.7-1c7.2,9.6,14.4,19.2,21.7,28.8c1,1.3,1.9,2.6,2.2,4.2c-0.8,1.7-2,2.7-4,2.6
		c-0.9,0.1-1.4-0.5-1.8-1.2c-1.2-2.4-2.9-4.5-5.3-5.9c-1.2-3-3.8-5-5.3-7.8c-2.7-2.8-4.2-6.5-7.5-8.8C-18.7,7-18.7,3-18.7-1z"/>
	<path fill="#DADADA" d="M122.3,91.3c0,4.9-0.1,9.8,0,14.6c0,1.6-0.3,2-1.9,1.9c-4.9-0.1-9.7,0-14.6,0c-1.3-1.1-2.7-2.1-3.8-3.4
		c-0.8-1-1.3-2-0.4-3.2c0.7-0.9,1.6-1.6,2.6-2.1c1.2-1.1,2.6-1.8,4.1-2.3c2-0.7,3.4-2.4,5.1-3.5c1.7-1,3.6-1.4,5.4-2.3
		C120.1,90.3,121.2,90.4,122.3,91.3z"/>
	<path fill="#919191" d="M47.3,107.8c-1.9-5.5-5-10.3-8.3-15c-1.7-2.3-2.9-4.8-3.6-7.5c-0.3-0.7-0.5-1.5-0.8-2.2
		c0.9-1,0.8-3.2,3.1-2.3c2.2,0.3,2.5,2.5,3.6,3.8c2,2.5,2.9,5.6,4.7,8.3c0.3,1,0.8,2,1.5,2.8c1.7,4.1,5,7.5,5.1,12.2
		C50.8,107.8,49,107.8,47.3,107.8z"/>
	<path fill="#B5B5B5" d="M-5.2,107.8c2.6-2.7,5.7-4.7,8.8-6.8c3-2,5.8-1.8,8.3,1.1c1.6,1.9,3.1,3.8,4.7,5.8
		C9.3,107.8,2,107.8-5.2,107.8z"/>
	<path fill="#CECECE" d="M111,29.8c-0.5,0.2-1,0.4-1.5,0.7c-0.8-0.2-1.1-0.6-0.7-1.5C103.5,17.3,98.3,5.5,93-6.2c1.3,0,2.5,0,3.8,0
		c2.3,8.1,6.1,15.7,9.2,23.5c0.5,1.1,0.9,2.3,1.4,3.4C108,23.9,110.8,26.4,111,29.8z"/>
	<path fill="#FDFDFD" d="M122.3,91.3c-2.7,1.3-5.5,2.5-8.2,3.8c-3,0.3-3-1.8-3.2-3.8c0.3-0.5,0.6-1,0.9-1.6
		c3.2-2.5,6.4-4.9,10.4-5.9C122.3,86.3,122.3,88.8,122.3,91.3z"/>
	<path fill="#E3E3E3" d="M102.8,101.7c0.9,2.1,2.6,3.7,3,6.1c-4,0-8,0-12,0c-1.5-1.2-1.3-2.5-0.4-3.9c0.2-0.3,0.4-0.7,0.7-0.9
		c0.3-0.3,0.6-0.5,0.9-0.6c0.7,0,1.4-0.1,2-0.3c0.3-0.1,0.6-0.3,0.9-0.4c0.5-0.1,0.8-0.5,1.1-0.9c0.4-0.6,0.8-1.2,1.6-1.5
		c0.4-0.1,0.8-0.1,1.2-0.1C103,99.7,103.2,100.6,102.8,101.7z"/>
	<path fill="#C6C6C6" d="M51.5,9.5C57.6,6,64.4,4.1,70.7,1.3C76.6-1.3,82.9-3,88.5-6.2c1,0,2,0,3,0c-6.2,3.5-13,5.7-19.6,8.2
		C65.2,4.6,58.7,8.1,51.5,9.5z"/>
	<path fill="#C1C1C1" d="M111,29.8c-1.2-3.1-3.6-5.6-3.7-9.1c2,5.6,7.3,8.8,10,13.9c1.1,2,3.3,1.3,4.9,1.9c0,0.5,0,1,0,1.5
		c-0.5,0.3-0.4,0.8-0.5,1.2c-0.2,1.1-1.2,0.6-1.8,1c-2.1-2.1-3.5-4.7-4.8-7.3C114.3,31.2,113.1,29.9,111,29.8z"/>
	<path fill="#C3C3C3" d="M72.8-6.2C67.3-3,61.1-1.3,55.3,1.2c-2.6,1.2-5.3,2.2-8,3.3c-0.4-0.3-0.4-0.6,0-0.9C55,0.3,62.8-3,70.5-6.2
		C71.3-6.2,72-6.2,72.8-6.2z"/>
	<path fill="#F2F2F2" d="M94.5,104c-0.2,1.3-0.5,2.5-0.7,3.8c-0.8,0-1.5,0-2.3,0c-0.9-0.7-2.1-1-2.4-2.4c0.1-0.6,0.2-1.2,0.6-1.7
		C92.3,101.2,93.1,101.2,94.5,104z"/>
	<path fill="#EFEFEF" d="M52.5,107.8c-2-4-4.1-8-6.1-12c0.2-2.1,1.1-0.6,1.7-0.3c1.7,3.4,3.3,6.8,5.2,10.2c0.3,0.7,0.5,1.4,0.8,2.1
		C53.5,107.8,53,107.8,52.5,107.8z"/>
	<path fill="#C6C6C6" d="M122.3,83.8c-3.5,2-7,3.9-10.4,5.9c2.5-3.8,6.6-5,10.4-6.7C122.3,83.3,122.3,83.5,122.3,83.8z"/>
	<path fill="#F5F5F5" d="M84.8,107.8c0.2-2.4,1-3.9,3.8-3c0.1,0.1,0.3,0.1,0.4,0.2c0.2,0.2,0.3,0.5,0.4,0.8c0.2,0.4,0.5,0.8,0.5,1.3
		c-0.1,0.3-0.3,0.5-0.5,0.7C87.8,107.8,86.3,107.8,84.8,107.8z"/>
	<path fill="#D7D7D7" d="M120,40.2c0.5-0.5,1-1,1.5-1.4c0.2-0.4,0.5-0.4,0.7,0c0,1.5,0,3,0,4.5C121.5,42.2,120.8,41.2,120,40.2z"/>
	<path fill="#CECECE" d="M90,105.6c0.5,0.7,1,1.5,1.5,2.2c-0.5,0-1,0-1.5,0c-0.2-0.2-0.4-0.4-0.4-0.7c-0.1-0.3-0.2-0.6-0.2-0.9
		C89.5,105.9,89.7,105.7,90,105.6z"/>
	<path fill="#B1B1B1" d="M122.3,38.8c-0.2,0-0.5,0-0.7,0c0.2-0.3,0.5-0.5,0.7-0.8C122.3,38.3,122.3,38.5,122.3,38.8z"/>
	<path fill="#515151" d="M89.8,107.1c0.1,0.2,0.2,0.4,0.2,0.7c-0.3,0-0.5,0-0.8,0c0-0.3,0-0.5,0-0.8
		C89.5,106.8,89.6,106.8,89.8,107.1z"/>
	<path fill="#929292" d="M33,80.8c-1.9-3-3.5-6.1-2.4-9.8c-1-1.8,0.1-2.6,1.6-3.1c4.2-1.2,7.8-3.9,12.1-5.1c1.6,0.4,1.3,2.5,2.7,3
		c0.2,0.3,0.3,0.6,0.3,0.9c-2,1-3.9,2-5.9,3c-1.4,1.8-3.3,2.6-5.4,2.8c-1.9,1.1-0.6,2,0.1,2.9C36.1,77.8,37.2,80.8,33,80.8z"/>
	<path fill="#F9F9F9" d="M94.5,104c-1.5-0.9-3-1.1-4.4,0c-0.3,0.3-0.6,0.3-0.9,0.2c-0.2-0.3-0.1-0.6,0.1-0.9
		c5.8-4,10.7-9.7,18.7-9.5c2.5,1,1.7,2.5,0.8,4.1c-1.2,0.8-2.4,1.6-3.7,2.4c-1.3-0.1-2.1-1.6-3.6-1.1c-0.4,0.2-0.8,0.4-1.2,0.8
		c-0.2,0.2-0.3,0.5-0.5,0.7c-0.6,0.4-1.2,0.8-1.7,1.4c-0.4,0.2-0.7,0.5-1,0.8c-0.2,0.2-0.4,0.4-0.6,0.5c-0.4,0.2-0.8,0.2-1.1,0.6
		C95.1,104,94.8,104,94.5,104z"/>
	<path fill="#F9F9F9" d="M75,47.7c1.2-1.4,2.9-1.7,4.5-2.3c1.5,1.1,4.3-0.5,5,2.3c-3.4,4.9-6,5.6-9.6,2.4C74,49.3,74.4,48.5,75,47.7
		z"/>
	<path fill="#8B8B8B" d="M59.3,62.1c-4,1.5-8,3.1-12,4.6c0,0-0.1-0.2-0.1-0.2c-1.2-1.2-1.1-2.1,0.4-3c1-0.6,1.7-1.4,1.6-2.7
		c0.6-1.5,2.5-1.6,3.3-2.9c0.6-0.8,1.5-1.3,2.4-1.7c0.6-0.1,1.2,0.1,1.6,0.5C58.4,58.1,59,60,59.3,62.1z"/>
	<path fill="#C4C4C4" d="M69.1,42.5c1,2.2,0.1,4.9,2.1,6.7c0.2,1.2-0.4,2.4-0.5,3.6c-0.5,1.3-1.7,1.3-2.8,1.4
		c-0.2,0-0.4-0.1-0.6-0.1c-0.2-0.1-0.3-0.2-0.5-0.3c-0.3,0.4-0.6,0.9-0.9,1.3c-1.4,0.8-1.9-0.3-2.6-1.1c-0.6-0.8-0.6-1.6-0.1-2.4
		c1.5-2.6,2.8-5.3,4-8C67.7,42.9,68.3,42.5,69.1,42.5z"/>
	<path fill="#F0F0F0" d="M108.7,97.9c-0.3-1.4-0.5-2.7-0.8-4.1c1-0.9,2-1.7,2.9-2.6c1,1.3,2.1,2.6,3.2,3.8
		C112.5,96.5,111,98,108.7,97.9z"/>
	<path fill="#4D4D4D" d="M59.3,62.1c-1.6-0.8-3.3-1.7-3.7-3.8c1.3-1.3,3.2-1.6,4.6-2.8c1.6-1.5,2.9-0.1,3.9,1.2
		c0.1,0.6,0.1,1.1-0.4,1.5C61.8,59,61.6,61.7,59.3,62.1z"/>
	<path fill="#F5F5F5" d="M69.9,52.2c-2.8-2.4,0.7-2.1,1.3-3c1.3-0.5,2.5-1,3.8-1.5c0,0.8,0,1.6,0,2.4c-0.7,0.4-1.4,0.8-2.1,1.2
		c-0.4,0.2-0.8,0.4-1.2,0.7c-0.4,0.3-0.6,0.7-1.1,0.7C70.3,52.7,70.1,52.5,69.9,52.2z"/>
	<path fill="#8F8F8F" d="M37.7,80.7c-1,0.8-2,1.5-3.1,2.3c-0.1-0.4-0.1-0.8-0.2-1.3c-0.5-1.2,0.4-2.2,0.3-3.5
		c-0.3-2.9,1.2-2.8,3-1.2C37.7,78.2,37.7,79.4,37.7,80.7z"/>
	<path fill="#CACACA" d="M47.9,95.8c-0.5,0-1,0-1.5,0c-0.5-0.8-0.9-1.6-1.4-2.3c-0.1-2-1.5-3.5-2.1-5.3c-0.4-1-1.3-1.9-0.1-2.9
		c2,3.5,4,7,6,10.5C48.5,96.3,48.2,96.3,47.9,95.8z"/>
	<path fill="#F7F7F7" d="M63.7,58.2c-0.1-0.2-0.3-0.5-0.4-0.7c-1.3-3.1-1.2-3.4,1.6-3.6c0.4,0.4,0.8,0.9,1.2,1.3
		C66.4,58.5,66.2,58.7,63.7,58.2z"/>
	<path fill="#C3C3C3" d="M101.1,41.7c2-1.1,3.9-2.1,5.9-3.3c3.1-1.8,4.9-0.9,5.6,2.6c-1.8-2.3-3.8-2.8-6.3-1.1
		C104.7,41,103,41.7,101.1,41.7z"/>
	<path fill="#F0F0F0" d="M84.6,47.7c-1.6-0.9-3.9-0.4-5-2.3c2.1-1.1,4-0.1,6.1,0.2c0,0.4,0,0.8,0,1.1C85.3,47.1,84.9,47.4,84.6,47.7
		z"/>
	<path fill="#C4C4C4" d="M89.3,47c3.7-1.7,7-4.3,11.2-4.6C96.8,44.1,93.7,47,89.3,47z"/>
	<path fill="#C3C3C3" d="M36,72.5c1.6-1.4,3.5-2.1,5.4-2.8C40.8,72.8,38.7,73.3,36,72.5z"/>
	<path fill="#C4C4C4" d="M47.9,95.8c0.3,0,0.6,0,0.9,0c1.5,3.3,3.6,6.3,4.5,9.9C50.7,102.8,49.4,99.3,47.9,95.8z"/>
	<path fill="#E7E7E7" d="M42.8,85.3c-0.2,3,2.9,5.1,2.3,8.2c-1.3-3-3.6-5.5-3.8-8.9C41.8,84.8,42.3,85,42.8,85.3z"/>
	<path fill="#797979" d="M37.7,77c-3.8-0.4-2,3.3-3.3,4.7c-0.5-0.3-1-0.6-1.4-1c2-1.2,0.1-4.7,3.1-5.3C37,75.6,37.4,76.3,37.7,77z"
		/>
	<path fill="#6E6E6E" d="M70.3,52.3c0.3-0.2,0.6-0.4,0.8-0.6c0.5,0,0.7,0.2,0.6,0.7c0.1,0.8,0.8,1.7-0.6,2.2c-0.1,0-0.3-0.1-0.4-0.1
		C70,53.8,70.2,53,70.3,52.3z"/>
	<path fill="#D6D6D6" d="M70.1,55c-1.2,0.1-2.3,0-3.3-0.7c0.2-0.2,0.4-0.4,0.6-0.6c0.1,0,0.3-0.1,0.4-0.1c0.3-0.1,0.6-0.1,0.9,0
		C69.5,53.8,70.3,53.9,70.1,55z"/>
	<path fill="#C2C2C2" d="M71.8,52.3c-0.2-0.2-0.4-0.4-0.6-0.7c0.6-0.1,1.2-0.2,1.7-0.4C72.5,51.6,72.2,52,71.8,52.3z"/>
	<path fill="#808080" d="M70.1,55c-0.6-0.4-1.1-0.8-1.7-1.2c0.9-0.8,1.7-0.8,2.4,0.2c0.1,0.4,0,0.8-0.2,1.1
		C70.4,55.1,70.3,55.1,70.1,55z"/>
	<path fill="#FEFEFE" d="M89.3,103.3c0,0.2,0,0.5,0,0.7c0.4,0.8,0,1-0.7,0.8c0,0,0,0,0,0C88.8,104.3,89,103.8,89.3,103.3z"/>
	<path fill="#707070" d="M70.5,55.1c0-0.2,0-0.3,0-0.5c0.2-0.5,0.5-0.6,0.8-0.1c0,0-0.1-0.1-0.1-0.1C71.1,54.8,71.3,55.5,70.5,55.1z
		"/>
	<path fill="#343434" d="M67.4,53.8c0,0.5-0.2,0.6-0.6,0.6c0-0.2,0-0.4,0.1-0.6C67.1,53.8,67.3,53.8,67.4,53.8z"/>
	<path fill="#FCFCFC" d="M1.5,33.4c0.6-2.2,2.4-1.1,3.6-1.4c0.8,1.1,1.8,1.8,3,2.3c2.4,0.8,3.9,2.8,5.8,4.3c0.1,0.8-0.2,1.5-0.5,2.3
		c1.4,2.2,2.9,4.3,4.3,6.6c1.2,1.9,2.3,3.9,1,6.3c0,0-0.3,0.1-0.3,0.1c0,0-0.1,0.3-0.1,0.3c0.2,0.1,0.3,0.2,0.4,0.4l-0.1-0.1
		c0.1,0.1,0.2,0.3,0.4,0.4c-0.1,0.1-0.2,0.3-0.4,0.4c-4.4-0.1-6.2-3.8-8.5-6.6c-3.1-3.9-5.8-8.1-8.7-12.2
		C0.2,35.4,0.7,34.4,1.5,33.4z"/>
	<path fill="#F6F6F6" d="M33,68.7c-1,0.5-2.1,0.9-2.4,2.2c-0.4-0.2-0.9-0.4-1.3-0.6c-0.4-0.4-0.2-1.2-0.8-1.5
		c-1.7-1.8-4.8-2.2-5.2-5.3C23.1,63.4,23,63.2,23,63c0-0.2,0.1-0.3,0.1-0.3c0.3-0.2,0.6-0.2,0.9,0.1c2.6,1,5.9,0.6,7.5,3.7
		c0.4,0.6,1.2,0.7,1.7,1.2C33.3,68.1,33.2,68.4,33,68.7z"/>
	<path fill="#ECECEC" d="M19.4,55.2c4-0.7,4.7-0.1,6.1,5.1c-0.1,0.4-0.3,0.7-0.6,0.9c-0.7,0.1-1.4,0.3-2.2,0.4
		c-0.8-0.1-1.2-0.7-1.7-1.2c-0.2-0.4-0.5-0.9-0.7-1.3c-0.3-0.3-0.5-0.6-0.8-0.8c-0.2-0.2-0.4-0.4-0.6-0.6c-0.1-0.8-0.1-1.6-0.2-2.4
		c0,0,0.1,0,0.1,0C19,55,19.2,54.9,19.4,55.2z"/>
	<path fill="#E4E4E4" d="M1.5,33.4c0,1,0,2,0,3.1c-1,1.3-2.2,2.3-3.5,0.8c-1.4-1.7-0.1-2.9,1.4-3.8C0.1,33.4,0.8,33.4,1.5,33.4z"/>
	<path fill="#C5C5C5" d="M35.4,85.2c2.2,2.1,3,4.8,3.6,7.5C36.6,90.8,34.6,88.7,35.4,85.2z"/>
	<path fill="#E5E5E5" d="M-8.3,33.5c1.8,0.8,2.2,2.2,0.7,3.5c-1.1,1-2.8,1.9-3.6-0.6c0.2-0.2,0.4-0.4,0.6-0.6
		c0.1-0.1,0.2-0.2,0.3-0.3c0.1-0.1,0.2-0.2,0.3-0.3c0.1-0.1,0.2-0.2,0.3-0.3C-9.1,34.4-8.7,34-8.3,33.5z"/>
	<path fill="#C6C6C6" d="M-11.2,19.8c2.3,2.3,4.6,4.4,5.3,7.8C-7.9,25.1-10.3,22.9-11.2,19.8z"/>
	<path fill="#EFEFEF" d="M22.7,60.5c0.7,0,1.4,0,2.1,0c0.6,1-0.4,1.1-0.8,1.5L24,62c-0.2,0.2-0.4,0.4-0.7,0.4
		c-0.6,0.3-0.9,1.1-1.7,1.1c-0.2-0.5-0.4-1-0.6-1.6C21.5,61.4,21.8,60.6,22.7,60.5z"/>
	<path fill="#636363" d="M-8.3,33.5c-0.1,1.3,0.4,2.6-0.6,3.7c-0.3-0.2-0.6-0.5-0.9-0.7l0,0c-0.3-0.3-0.5-0.6-0.9-0.9
		c-0.2-0.2-0.4-0.4-0.5-0.6l-0.1,0.1c-0.3-0.5-0.1-0.8,0.4-1.1c0.6-0.2,1.3,0.2,1.7-0.5C-8.9,33.5-8.6,33.5-8.3,33.5z"/>
	<path fill="#737373" d="M21.6,63.5c0.6-0.4,1.1-0.9,1.7-1.3c0.2,0.2,0.3,0.3,0.2,0.5c-0.1,0.2-0.2,0.2-0.2,0.2
		c0.1,0.2,0.1,0.4,0.1,0.6C22.8,63.3,22.1,65.5,21.6,63.5z"/>
	<path fill="#D9D9D9" d="M-10.5,34.1c-0.3,0.3-0.6,0.6-0.8,0.9c-0.5-1-0.4-1.6,0.9-1.4C-10.4,33.7-10.4,33.9-10.5,34.1z"/>
	<path fill="#808080" d="M19.6,57.5c0.4,0,1-0.4,1.2,0.2c0.1,0.3-0.3,0.8-0.5,1.2c-0.3,0-0.5-0.1-0.8-0.1c-0.2-0.2-0.3-0.5-0.3-0.7
		C19.2,57.9,19.4,57.7,19.6,57.5z"/>
	<path fill="#838383" d="M22.7,60.5c-0.5,0.5-1.1,0.9-1.6,1.4c0-0.5,0-1.1,0-1.6C21.5,60.4,22.1,60.4,22.7,60.5z"/>
	<path fill="#888888" d="M28.5,68.8c1.2,0,0.8,0.8,0.8,1.5C29.1,69.8,28.8,69.3,28.5,68.8z"/>
	<path fill="#EBEBEB" d="M-10.5,34.1c0-0.2,0.1-0.3,0.1-0.5c0.4,0,0.8-0.1,1.2-0.1C-9.5,33.9-9.9,34.2-10.5,34.1z"/>
	<path fill="#9E9E9E" d="M-11.2,34.9c0.2,0,0.5,0.1,0.7,0.1c0.4,0.5,0.5,1-0.2,1.3l-0.2,0c0,0-0.2,0-0.2,0
		C-11.1,35.9-11.1,35.4-11.2,34.9z"/>
	<path fill="#424242" d="M19.5,58.2c0,0.2-0.1,0.5-0.1,0.7c-0.2-0.2-0.5-0.5-0.7-0.7C19,57.9,19.2,57.9,19.5,58.2z"/>
	<path fill="#FEFEFE" d="M19.5,58.2c-0.3,0-0.5,0-0.8,0c0.1-0.2,0.1-0.4,0.1-0.6c0.2,0,0.5,0,0.7-0.1C19.5,57.8,19.5,58,19.5,58.2z"
		/>
	<path fill="#4C4C4C" d="M64.8,53.8c-1.2,0.9-1.8,2.1-1.6,3.6c-0.6-0.3-1.4-1-1.9,0c-1.5,3.6-3.5,2.5-5.8,0.8
		c-0.3-0.3-0.6-0.5-0.9-0.8c-2.5,0.1-3-2.2-4-3.6c-2.3-3.4-4.4-6.9-3.7-11.3c1.1-6.8,5-10.5,11-10.5c6,0,9.9,3.6,11,10.5
		C68.9,46.7,66.2,50,64.8,53.8z"/>
	<path fill="#FCFCFC" d="M13.4,40.9c-0.2-0.4-0.4-0.8-0.6-1.2c-1.6-2.1-3.9-4.1-1.4-7.1c1.1-2.3,2.8-3.7,5.2-4.4
		c1-0.5,1.7-0.2,2.2,0.8c2.5,1.4,4.7,3.4,3.8,6.4c-0.8,2.8-3.1,4.7-6.3,4.9C15.3,40.3,14.4,40.7,13.4,40.9z"/>
	<path fill="#C4C4C4" d="M47.1,42.5c0.8,5.9,4.1,10.5,7.6,15c-0.5,0.5-1,1-1.5,1.5c-0.9-0.1-2,0.2-2.4,0.8c-2.8,4.3-7.8,3-11.6,4.8
		c-0.1-0.1-0.2-0.3-0.4-0.4c2.6-2.7,6.3-3.4,9.4-5c2.5-1.3,2.9-2.5,1.3-4.9C47.3,50.8,45.6,47,47.1,42.5z"/>
	<path fill="#CFCFCF" d="M18.8,29c-0.7-0.3-1.5-0.5-2.2-0.8c4.2-5.3,10.3-8.3,15.7-12c1.1,0.1,1.7-1.4,2.9-0.7
		c0.3,0.5,0.7,0.9,1,1.4c-0.6,0.8-1.7,0.5-2.5,0.9C28.5,21.3,23,24.2,18.8,29z"/>
	<path fill="#C5C5C5" d="M108.8,29c0.2,0.5,0.5,1,0.7,1.5c-7.5,4.3-15.4,7.7-23.2,11.4c0.1-1.8,1.7-1.9,2.9-2.4
		C95.8,36,102.8,33.5,108.8,29z"/>
	<path fill="#C5C5C5" d="M33.7,17.8c0.8-0.3,1.6-0.6,2.5-0.9c2,0.4,3.9-0.5,5.8-0.7C39.6,18.7,36.7,18.2,33.7,17.8z"/>
	<path fill="#C4C4C4" d="M33,68c-0.7-0.3-1.3-0.7-1.5-1.5c2.5-0.7,5-1.5,7.5-2.2c0,0,0,0.1,0,0.1C38,67.1,35,66.8,33,68z"/>
	<path fill="#6A6A6A" d="M24,62c0.3-0.5,0.5-1,0.8-1.5c0.2-0.1,0.5-0.2,0.7-0.2C26.5,62.2,25.2,62,24,62z"/>
	<path fill="#323232" d="M19.4,55.2l-0.3,0c0,0-0.3,0-0.3,0c0-0.3-0.1-0.5-0.1-0.8C18.9,54.7,19.2,55,19.4,55.2z"/>
	<path fill="#4F4F4F" d="M18.8,54.6c-0.3-0.3-0.6-0.5-0.9-0.8l-0.1,0.1c0.3,0,0.6-0.1,0.9-0.1C18.8,54,18.8,54.3,18.8,54.6z"/>
	<path fill="#484848" d="M23.3,62.9c0-0.2,0-0.5,0-0.7c0.2-0.1,0.5-0.1,0.7-0.2c0,0.3,0,0.5,0,0.8C23.8,62.8,23.5,62.9,23.3,62.9z"
		/>
	<path fill="#C4C4C4" d="M35.2,15.5c-0.9,0.5-1.8,1-2.9,0.7c3-6.6,9.9-8.6,15-12.7c0,0.3,0,0.6,0,0.9c-2.5,2.6-5.7,4.3-8.8,6.1
		C36.6,11.7,35.1,13.1,35.2,15.5z"/>
	<path fill="#B9B9B9" d="M11.4,32.6c-0.3,2.5,0.8,4.8,1.4,7.1c-2.6-0.9-3.3-3.4-4.7-5.3C9.2,33.7,10.3,33.2,11.4,32.6z"/>
	<path fill="#F7F7F7" d="M100.5,98.8c2.5-2.3,3.6-0.7,4.5,1.5c-0.7,0.5-1.5,0.9-2.2,1.4c-0.4-0.5-0.8-1-1.2-1.4
		c-0.4-0.2-1-0.3-1.3-0.6C100.2,99.3,100.2,99,100.5,98.8z"/>
	<path fill="#E5E5E5" d="M96.7,100.3c0.9,0,1.9-0.1,2.8-0.1c0.3-0.4,0.5-0.3,0.7,0.1c0,0.4,0,0.7-0.2,1.1c-0.6,0.6-1.2,1.3-1.8,1.9
		c-0.1,0.1-0.3,0.2-0.4,0.3c-0.2,0-0.3,0-0.5-0.1c-0.3-0.2-0.4-0.5-0.5-0.8C96.7,101.9,96.1,101.2,96.7,100.3z"/>
	<path fill="#F2F2F2" d="M96,103.4c0.1-0.4,0.1-0.7,0.2-1.1c0.3-0.1,0.5-0.1,0.7,0.1c0.3,0.3,0.4,0.7,0.6,1l-0.1-0.1
		c0.3,0.2,0.5,0.5,0.8,0.7c-0.8,0.4-1.6,0.3-2.4,0C95.7,103.7,95.7,103.5,96,103.4z"/>
	<path fill="#BABABA" d="M100.5,99.3c0.4,0.3,0.8,0.6,1.1,1c-0.3,0-0.7,0-1,0c-0.2,0.7-0.5,0.7-0.8,0.1c-0.1,0-0.3,0-0.4-0.1
		c0.1-0.3,0.2-0.6,0.3-0.9C100,99.2,100.3,99.2,100.5,99.3z"/>
	<path fill="#3A3A3A" d="M99.9,100.3c0.3,0,0.5,0,0.8-0.1c0,0.5-0.2,0.9-0.7,1.1C99.9,101,99.9,100.7,99.9,100.3z"/>
	<path fill="#4A4A4A" d="M96,103.4c0,0.2,0,0.4-0.1,0.6c0,0-0.2,0-0.2,0s-0.2,0-0.2,0C95.3,103.5,95.6,103.3,96,103.4z"/>
	<path fill="#4A4A4A" d="M98.3,104c-0.3-0.2-0.5-0.5-0.8-0.7c0.2,0,0.5,0,0.7,0.1C98.2,103.5,98.3,103.7,98.3,104z"/>
	<path fill="#DBDBDB" d="M88.5,104.7c0.2-0.3,0.5-0.5,0.7-0.8c0.3,0,0.5,0,0.8,0c0,0.5,0,1,0,1.6c-0.1,0.4-0.1,0.7-0.2,1.1
		c-0.8-0.1-1.1-0.8-1.4-1.4C88.5,105.1,88.5,104.9,88.5,104.7z"/>
	<path fill="#7A7A7A" d="M88.5,105.2c0.5,0.5,0.9,0.9,1.4,1.4c0,0.2,0,0.3-0.1,0.5c-0.2,0-0.4,0-0.5-0.1
		C88.5,106.6,88.4,105.9,88.5,105.2z"/>
	<path fill="#EFEFEF" d="M33,68c2-1.2,4-2.4,6-3.6c3.4-1.5,6.7-3,10.1-4.4c1.3-0.6,2.6-1.6,4.1-0.9c-1.1,0.7-2.2,1.4-3.3,2.1
		c-1.4,2-2.9,3.7-5.7,2.6c-3.8,1.7-7.5,3.3-11.3,5C33,68.4,33,68.2,33,68z"/>
	<path fill="#858585" d="M44.3,63.7c1.9-0.9,3.8-1.7,5.7-2.6c1.4,0.9,1,1.7-0.1,2.5c-1.1,0.7-2.2,1.5-2.7,2.8
		C45.5,66.4,42.8,67.2,44.3,63.7z"/>
	<path fill="#6F6F6F" d="M96.9,102.5c-0.2-0.1-0.5-0.2-0.7-0.3c0-0.7-0.2-1.4,0.5-1.9c0.2,0.7,0.5,1.5,0.7,2.2
		C97.2,102.5,97,102.5,96.9,102.5z"/>
	<path fill="#FEFEFE" d="M100.5,99.3l-0.3,0.1c0,0-0.4,0-0.4,0c0.2-0.2,0.5-0.4,0.7-0.6C100.5,99,100.5,99.1,100.5,99.3z"/>
	<path fill="#F2F2F2" d="M71.3,54.5c-0.3,0-0.5,0.1-0.8,0.1c-0.5-0.9-1.3-0.7-2.1-0.8c-0.2-0.1-0.4-0.1-0.6-0.2
		c0.7-0.5,1.4-1,2.1-1.4c0,0,0.4,0,0.4,0C70.6,53,71,53.8,71.3,54.5z"/>
	<path fill="#595959" d="M17.9,53.8c-0.1-0.1-0.2-0.1-0.2-0.2c0,0,0-0.1,0.1-0.2C17.8,53.6,17.8,53.7,17.9,53.8
		C17.8,53.9,17.9,53.8,17.9,53.8z"/>
	<path fill="#D4D4D4" d="M-10.6,36.4c0.1-0.4,0.1-0.9,0.2-1.3c1.2,0,0.8,0.8,0.7,1.4C-10,36.5-10.3,36.4-10.6,36.4z"/>
	<path fill="#DADADA" d="M-9.7,36.5c0.3,0.2,0.6,0.5,0.9,0.7C-9.2,37-9.5,36.8-9.7,36.5z"/>
	<path fill="#F8F8F8" d="M58.5,39.6c1.7,0.2,2.9,1.1,2.9,2.8c0.1,1.9-1.1,3.1-3,3c-1.7-0.1-2.8-1.2-2.8-2.9
		C55.6,40.7,56.8,39.8,58.5,39.6z"/>
	<path fill="#515151" d="M96.9,102.5c0.2,0,0.3,0,0.5,0.1c0.1,0.3,0.1,0.5,0.2,0.8C97.3,103,97.1,102.8,96.9,102.5z"/>
</g>
<circle display="none" fill="#FFFFFF" cx="54" cy="54" r="54"/>
</svg>
