<?xml version="1.0" encoding="utf-8"?>
<!-- Generator: Adobe Illustrator 17.1.0, SVG Export Plug-In . SVG Version: 6.00 Build 0)  -->
<!DOCTYPE svg PUBLIC "-//W3C//DTD SVG 1.1//EN" "http://www.w3.org/Graphics/SVG/1.1/DTD/svg11.dtd">
<svg version="1.1" id="Слой_1" xmlns="http://www.w3.org/2000/svg" xmlns:xlink="http://www.w3.org/1999/xlink" x="0px" y="0px"
	 viewBox="0 0 64 64" enable-background="new 0 0 64 64" xml:space="preserve">
<rect fill="#C1D0D3" width="64" height="64"/>
<g>
	<path fill="#99A7A8" d="M53,44.1H12.5c-1.8,0-3.3,1.5-3.3,3.3v2.5c0,1.8,1.5,3.3,3.3,3.3H53c1.8,0,3.3-1.5,3.3-3.3v-2.5
		C56.3,45.6,54.8,44.1,53,44.1z"/>
	<path fill="#99A7A8" d="M9.8,35.9c0-1.7-1.4-3.1-3.1-3.1H3.9c-1.7,0-3.1,1.4-3.1,3.1v2.8c0,1.7,1.4,3.1,3.1,3.1h2.8
		c1.7,0,3.1-1.4,3.1-3.1V35.9z"/>
	<path fill="#99A7A8" d="M17.6,32.8h-2.8c-1.7,0-3.1,1.4-3.1,3.1v2.8c0,1.7,1.4,3.1,3.1,3.1h2.8c1.7,0,3.1-1.4,3.1-3.1v-2.8
		C20.8,34.1,19.4,32.8,17.6,32.8z"/>
	<path fill="#99A7A8" d="M28.6,32.8h-2.8c-1.7,0-3.1,1.4-3.1,3.1v2.8c0,1.7,1.4,3.1,3.1,3.1h2.8c1.7,0,3.1-1.4,3.1-3.1v-2.8
		C31.8,34.1,30.4,32.8,28.6,32.8z"/>
	<path fill="#99A7A8" d="M39.6,32.8h-2.8c-1.7,0-3.1,1.4-3.1,3.1v2.8c0,1.7,1.4,3.1,3.1,3.1h2.8c1.7,0,3.1-1.4,3.1-3.1v-2.8
		C42.8,34.1,41.4,32.8,39.6,32.8z"/>
	<path fill="#99A7A8" d="M50.6,32.8h-2.8c-1.7,0-3.1,1.4-3.1,3.1v2.8c0,1.7,1.4,3.1,3.1,3.1h2.8c1.7,0,3.1-1.4,3.1-3.1v-2.8
		C53.8,34.1,52.4,32.8,50.6,32.8z"/>
	<path fill="#99A7A8" d="M61.6,32.8h-2.8c-1.7,0-3.1,1.4-3.1,3.1v2.8c0,1.7,1.4,3.1,3.1,3.1h2.8c1.7,0,3.1-1.4,3.1-3.1v-2.8
		C64.8,34.1,63.4,32.8,61.6,32.8z"/>
	<path fill="#99A7A8" d="M3.9,21.3h2.8c1.7,0,3.1-1.4,3.1-3.1v-2.8c0-1.7-1.4-3.1-3.1-3.1H3.9c-1.7,0-3.1,1.4-3.1,3.1v2.8
		C0.8,19.9,2.1,21.3,3.9,21.3z"/>
	<path fill="#99A7A8" d="M14.9,21.3h2.8c1.7,0,3.1-1.4,3.1-3.1v-2.8c0-1.7-1.4-3.1-3.1-3.1h-2.8c-1.7,0-3.1,1.4-3.1,3.1v2.8
		C11.8,19.9,13.1,21.3,14.9,21.3z"/>
	<path fill="#99A7A8" d="M25.9,21.3h2.8c1.7,0,3.1-1.4,3.1-3.1v-2.8c0-1.7-1.4-3.1-3.1-3.1h-2.8c-1.7,0-3.1,1.4-3.1,3.1v2.8
		C22.8,19.9,24.1,21.3,25.9,21.3z"/>
	<path fill="#99A7A8" d="M36.9,21.3h2.8c1.7,0,3.1-1.4,3.1-3.1v-2.8c0-1.7-1.4-3.1-3.1-3.1h-2.8c-1.7,0-3.1,1.4-3.1,3.1v2.8
		C33.8,19.9,35.1,21.3,36.9,21.3z"/>
	<path fill="#99A7A8" d="M47.9,21.3h2.8c1.7,0,3.1-1.4,3.1-3.1v-2.8c0-1.7-1.4-3.1-3.1-3.1h-2.8c-1.7,0-3.1,1.4-3.1,3.1v2.8
		C44.8,19.9,46.1,21.3,47.9,21.3z"/>
	<path fill="#99A7A8" d="M61.6,12.3h-2.8c-1.7,0-3.1,1.4-3.1,3.1v2.8c0,1.7,1.4,3.1,3.1,3.1h2.8c1.7,0,3.1-1.4,3.1-3.1v-2.8
		C64.8,13.6,63.4,12.3,61.6,12.3z"/>
	<path fill="#99A7A8" d="M6.3,28.5v-2.8c0-1.7-1.4-3.1-3.1-3.1H0.4c-1.7,0-3.1,1.4-3.1,3.1v2.8c0,1.7,1.4,3.1,3.1,3.1h2.8
		C4.9,31.6,6.3,30.2,6.3,28.5z"/>
	<path fill="#99A7A8" d="M8.3,25.7v2.8c0,1.7,1.4,3.1,3.1,3.1h2.8c1.7,0,3.1-1.4,3.1-3.1v-2.8c0-1.7-1.4-3.1-3.1-3.1h-2.8
		C9.6,22.6,8.3,24,8.3,25.7z"/>
	<path fill="#99A7A8" d="M19.3,25.7v2.8c0,1.7,1.4,3.1,3.1,3.1h2.8c1.7,0,3.1-1.4,3.1-3.1v-2.8c0-1.7-1.4-3.1-3.1-3.1h-2.8
		C20.6,22.6,19.3,24,19.3,25.7z"/>
	<path fill="#99A7A8" d="M30.3,25.7v2.8c0,1.7,1.4,3.1,3.1,3.1h2.8c1.7,0,3.1-1.4,3.1-3.1v-2.8c0-1.7-1.4-3.1-3.1-3.1h-2.8
		C31.6,22.6,30.3,24,30.3,25.7z"/>
	<path fill="#99A7A8" d="M41.3,25.7v2.8c0,1.7,1.4,3.1,3.1,3.1h2.8c1.7,0,3.1-1.4,3.1-3.1v-2.8c0-1.7-1.4-3.1-3.1-3.1h-2.8
		C42.6,22.6,41.3,24,41.3,25.7z"/>
	<path fill="#99A7A8" d="M58.1,31.6c1.7,0,3.1-1.4,3.1-3.1v-2.8c0-1.7-1.4-3.1-3.1-3.1h-2.8c-1.7,0-3.1,1.4-3.1,3.1v2.8
		c0,1.7,1.4,3.1,3.1,3.1H58.1z"/>
</g>
<g>
	<path fill="#F4F6F3" d="M52.3,43.4H11.8c-1.8,0-3.3,1.5-3.3,3.3v2.5c0,1.8,1.5,3.3,3.3,3.3h40.5c1.8,0,3.3-1.5,3.3-3.3v-2.5
		C55.5,44.8,54,43.4,52.3,43.4z"/>
	<path fill="#F4F6F3" d="M9,35.1C9,33.4,7.6,32,5.9,32H3.1C1.4,32,0,33.4,0,35.1v2.8C0,39.6,1.4,41,3.1,41h2.8C7.6,41,9,39.6,9,37.9
		V35.1z"/>
	<path fill="#F4F6F3" d="M16.9,32h-2.8c-1.7,0-3.1,1.4-3.1,3.1v2.8c0,1.7,1.4,3.1,3.1,3.1h2.8c1.7,0,3.1-1.4,3.1-3.1v-2.8
		C20,33.4,18.6,32,16.9,32z"/>
	<path fill="#F4F6F3" d="M27.9,32h-2.8c-1.7,0-3.1,1.4-3.1,3.1v2.8c0,1.7,1.4,3.1,3.1,3.1h2.8c1.7,0,3.1-1.4,3.1-3.1v-2.8
		C31,33.4,29.6,32,27.9,32z"/>
	<path fill="#F4F6F3" d="M38.9,32h-2.8c-1.7,0-3.1,1.4-3.1,3.1v2.8c0,1.7,1.4,3.1,3.1,3.1h2.8c1.7,0,3.1-1.4,3.1-3.1v-2.8
		C42,33.4,40.6,32,38.9,32z"/>
	<path fill="#F4F6F3" d="M49.9,32h-2.8c-1.7,0-3.1,1.4-3.1,3.1v2.8c0,1.7,1.4,3.1,3.1,3.1h2.8c1.7,0,3.1-1.4,3.1-3.1v-2.8
		C53,33.4,51.6,32,49.9,32z"/>
	<path fill="#F4F6F3" d="M60.9,32h-2.8c-1.7,0-3.1,1.4-3.1,3.1v2.8c0,1.7,1.4,3.1,3.1,3.1h2.8c1.7,0,3.1-1.4,3.1-3.1v-2.8
		C64,33.4,62.6,32,60.9,32z"/>
	<path fill="#F4F6F3" d="M3.1,20.5h2.8c1.7,0,3.1-1.4,3.1-3.1v-2.8c0-1.7-1.4-3.1-3.1-3.1H3.1c-1.7,0-3.1,1.4-3.1,3.1v2.8
		C0,19.1,1.4,20.5,3.1,20.5z"/>
	<path fill="#F4F6F3" d="M14.1,20.5h2.8c1.7,0,3.1-1.4,3.1-3.1v-2.8c0-1.7-1.4-3.1-3.1-3.1h-2.8c-1.7,0-3.1,1.4-3.1,3.1v2.8
		C11,19.1,12.4,20.5,14.1,20.5z"/>
	<path fill="#F4F6F3" d="M25.1,20.5h2.8c1.7,0,3.1-1.4,3.1-3.1v-2.8c0-1.7-1.4-3.1-3.1-3.1h-2.8c-1.7,0-3.1,1.4-3.1,3.1v2.8
		C22,19.1,23.4,20.5,25.1,20.5z"/>
	<path fill="#F4F6F3" d="M36.1,20.5h2.8c1.7,0,3.1-1.4,3.1-3.1v-2.8c0-1.7-1.4-3.1-3.1-3.1h-2.8c-1.7,0-3.1,1.4-3.1,3.1v2.8
		C33,19.1,34.4,20.5,36.1,20.5z"/>
	<path fill="#F4F6F3" d="M47.1,20.5h2.8c1.7,0,3.1-1.4,3.1-3.1v-2.8c0-1.7-1.4-3.1-3.1-3.1h-2.8c-1.7,0-3.1,1.4-3.1,3.1v2.8
		C44,19.1,45.4,20.5,47.1,20.5z"/>
	<path fill="#F4F6F3" d="M60.9,11.5h-2.8c-1.7,0-3.1,1.4-3.1,3.1v2.8c0,1.7,1.4,3.1,3.1,3.1h2.8c1.7,0,3.1-1.4,3.1-3.1v-2.8
		C64,12.9,62.6,11.5,60.9,11.5z"/>
	<path fill="#F4F6F3" d="M5.5,27.7V25c0-1.7-1.4-3.1-3.1-3.1h-2.8c-1.7,0-3.1,1.4-3.1,3.1v2.8c0,1.7,1.4,3.1,3.1,3.1h2.8
		C4.1,30.8,5.5,29.4,5.5,27.7z"/>
	<path fill="#F4F6F3" d="M7.5,25v2.8c0,1.7,1.4,3.1,3.1,3.1h2.8c1.7,0,3.1-1.4,3.1-3.1V25c0-1.7-1.4-3.1-3.1-3.1h-2.8
		C8.9,21.8,7.5,23.2,7.5,25z"/>
	<path fill="#F4F6F3" d="M18.5,25v2.8c0,1.7,1.4,3.1,3.1,3.1h2.8c1.7,0,3.1-1.4,3.1-3.1V25c0-1.7-1.4-3.1-3.1-3.1h-2.8
		C19.9,21.8,18.5,23.2,18.5,25z"/>
	<path fill="#F4F6F3" d="M29.5,25v2.8c0,1.7,1.4,3.1,3.1,3.1h2.8c1.7,0,3.1-1.4,3.1-3.1V25c0-1.7-1.4-3.1-3.1-3.1h-2.8
		C30.9,21.8,29.5,23.2,29.5,25z"/>
	<path fill="#F4F6F3" d="M40.5,25v2.8c0,1.7,1.4,3.1,3.1,3.1h2.8c1.7,0,3.1-1.4,3.1-3.1V25c0-1.7-1.4-3.1-3.1-3.1h-2.8
		C41.9,21.8,40.5,23.2,40.5,25z"/>
	<path fill="#F4F6F3" d="M57.4,30.8c1.7,0,3.1-1.4,3.1-3.1V25c0-1.7-1.4-3.1-3.1-3.1h-2.8c-1.7,0-3.1,1.4-3.1,3.1v2.8
		c0,1.7,1.4,3.1,3.1,3.1H57.4z"/>
</g>
<g>
	<path fill="#4A4B4F" d="M3.7,18.2h0.8v-1.7c0-0.1,0-0.2,0-0.2c0.1-0.3,0.3-0.5,0.6-0.5c0.1,0,0.2,0,0.2,0v-1c-0.1,0-0.1,0-0.2,0
		c-0.3,0-0.6,0.2-0.7,0.7h0l0-0.6H3.6c0,0.3,0,0.6,0,1.1V18.2z"/>
	<path fill="#4A4B4F" d="M14.4,17c0,0.5,0.1,0.8,0.2,1c0.1,0.2,0.4,0.3,0.6,0.3c0.2,0,0.4,0,0.5-0.1l0-0.8c-0.1,0-0.1,0-0.2,0
		c-0.3,0-0.3-0.2-0.3-0.6v-1.2h0.6v-0.8h-0.6v-1L14.4,14v0.7h-0.4v0.8h0.4V17z"/>
	<path fill="#4A4B4F" d="M26.2,16.5c0,0.2-0.1,0.5-0.1,0.6h0c0-0.2-0.1-0.4-0.1-0.6l-0.4-1.7h-0.9l1,3.1c0,0.1,0,0.1,0,0.2
		c0,0,0,0.1,0,0.2c-0.1,0.2-0.2,0.3-0.3,0.4c-0.1,0.1-0.3,0.2-0.4,0.2l0.2,0.9c0.2,0,0.5-0.1,0.8-0.5c0.3-0.3,0.6-0.9,0.9-2.2
		l0.6-2.3h-0.9L26.2,16.5z"/>
	<path fill="#4A4B4F" d="M38.8,14.8H38v2c0,0.1,0,0.2,0,0.2c-0.1,0.2-0.2,0.4-0.4,0.4c-0.3,0-0.4-0.3-0.4-0.8v-1.8h-0.8v2
		c0,1.1,0.4,1.5,0.9,1.5c0.5,0,0.7-0.4,0.8-0.6h0l0,0.5h0.7c0-0.3,0-0.7,0-1.1V14.8z"/>
	<path fill="#4A4B4F" d="M48.5,14.4c0.3,0,0.4-0.2,0.4-0.5c0-0.3-0.2-0.5-0.4-0.5c-0.3,0-0.4,0.2-0.4,0.5
		C48,14.1,48.2,14.4,48.5,14.4z"/>
	<rect x="48" y="14.8" fill="#4A4B4F" width="0.8" height="3.4"/>
	<path fill="#4A4B4F" d="M59.3,18.3c0.7,0,1.4-0.6,1.4-1.8c0-1-0.5-1.8-1.4-1.8c-0.9,0-1.4,0.7-1.4,1.8S58.5,18.3,59.3,18.3z
		 M59.4,15.5c0.4,0,0.5,0.5,0.5,1c0,0.6-0.2,1-0.5,1c-0.4,0-0.5-0.4-0.5-1C58.8,16,59,15.5,59.4,15.5z"/>
	<path fill="#4A4B4F" d="M1.3,26.4C1,26.2,0.9,26.1,0.9,26c0-0.2,0.1-0.3,0.3-0.3c0.2,0,0.5,0.1,0.6,0.2l0.1-0.7
		C1.8,25.1,1.5,25,1.2,25c-0.7,0-1.1,0.5-1.1,1.1c0,0.4,0.2,0.8,0.8,1c0.3,0.1,0.4,0.2,0.4,0.4c0,0.2-0.1,0.3-0.4,0.3
		c-0.2,0-0.6-0.1-0.7-0.3L0,28.3c0.2,0.1,0.5,0.2,0.9,0.2c0.8,0,1.2-0.5,1.2-1.1C2,26.9,1.8,26.6,1.3,26.4z"/>
	<path fill="#4A4B4F" d="M13.4,23.5h-0.8v1.9h0c-0.1-0.2-0.4-0.4-0.7-0.4c-0.6,0-1.2,0.7-1.2,1.8c0,1.1,0.5,1.8,1.1,1.8
		c0.3,0,0.7-0.2,0.8-0.6h0l0,0.5h0.7c0-0.2,0-0.6,0-1V23.5z M12.5,26.9c0,0.1,0,0.2,0,0.2c0,0.3-0.2,0.5-0.5,0.5
		c-0.3,0-0.6-0.4-0.6-0.9c0-0.5,0.2-1,0.6-1c0.3,0,0.4,0.2,0.5,0.5c0,0.1,0,0.1,0,0.2V26.9z"/>
	<path fill="#4A4B4F" d="M22.7,23.8c-0.2,0.3-0.3,0.7-0.3,1.1V25H22v0.8h0.4v2.6h0.8v-2.6h0.5V25h-0.5v-0.2c0-0.3,0.1-0.6,0.4-0.6
		c0.1,0,0.2,0,0.3,0l0-0.8c-0.1,0-0.3-0.1-0.4-0.1C23.2,23.4,22.9,23.5,22.7,23.8z"/>
	<path fill="#4A4B4F" d="M34.2,25.4L34.2,25.4C34,25.2,33.8,25,33.4,25c-0.7,0-1.2,0.7-1.2,1.8c0,1,0.5,1.7,1.1,1.7
		c0.3,0,0.6-0.2,0.7-0.4h0v0.2c0,0.6-0.3,0.9-0.7,0.9c-0.3,0-0.6-0.1-0.8-0.3l-0.2,0.8c0.2,0.2,0.6,0.3,1,0.3c0.4,0,0.8-0.1,1.1-0.4
		c0.3-0.3,0.4-0.9,0.4-1.5v-1.9c0-0.5,0-0.8,0-1h-0.7L34.2,25.4z M34.1,26.9c0,0.1,0,0.2,0,0.3c-0.1,0.3-0.2,0.4-0.4,0.4
		c-0.4,0-0.5-0.4-0.5-0.9c0-0.6,0.2-1,0.5-1c0.2,0,0.4,0.2,0.4,0.5c0,0.1,0,0.1,0,0.2V26.9z"/>
	<path fill="#4A4B4F" d="M45.4,25c-0.2,0-0.3,0-0.4,0.1c-0.1,0.1-0.2,0.2-0.3,0.4h0v-2h-0.8v5h0.8v-2c0-0.1,0-0.2,0-0.2
		c0.1-0.2,0.2-0.4,0.4-0.4c0.3,0,0.4,0.3,0.4,0.8v1.9h0.8v-2C46.3,25.4,45.9,25,45.4,25z"/>
	<path fill="#4A4B4F" d="M55.8,23.5c-0.3,0-0.4,0.2-0.4,0.5c0,0.3,0.2,0.5,0.4,0.5c0.3,0,0.4-0.2,0.4-0.5
		C56.2,23.8,56.1,23.5,55.8,23.5z"/>
	<path fill="#4A4B4F" d="M55.4,27.8c0,0.7,0,1-0.2,1.1c-0.1,0.1-0.3,0.2-0.5,0.2l0.1,0.8c0.4,0,0.8-0.1,1-0.4
		c0.2-0.3,0.4-0.7,0.4-1.5v-3h-0.8V27.8z"/>
	<path fill="#4A4B4F" d="M4.5,37.9c0.2-0.2,0.3-0.4,0.4-0.6l0.8-1.3v-0.6H3.5v0.8h1.2v0c-0.2,0.2-0.3,0.4-0.4,0.6l-0.8,1.4v0.6h2.3
		v-0.8L4.5,37.9L4.5,37.9z"/>
	<path fill="#4A4B4F" d="M16.8,35.3h-0.9l-0.2,0.6c-0.1,0.2-0.1,0.3-0.2,0.5h0c-0.1-0.2-0.1-0.3-0.2-0.5L15,35.3h-0.9l0.9,1.7
		L14,38.7h0.9l0.3-0.6c0.1-0.2,0.1-0.3,0.2-0.5h0c0.1,0.2,0.1,0.4,0.2,0.5l0.3,0.6h0.9l-0.9-1.8L16.8,35.3z"/>
	<path fill="#4A4B4F" d="M26.7,36c0.2,0,0.4,0,0.5,0.1l0.1-0.8c-0.2-0.1-0.4-0.1-0.6-0.1c-1,0-1.5,0.8-1.5,1.8
		c0,1.1,0.6,1.8,1.4,1.8c0.3,0,0.6-0.1,0.7-0.2l-0.1-0.8c-0.1,0.1-0.3,0.1-0.5,0.1c-0.4,0-0.7-0.3-0.7-1C26,36.4,26.3,36,26.7,36z"
		/>
	<path fill="#4A4B4F" d="M37.2,36.9c-0.1,0.3-0.1,0.6-0.1,0.8h0c0-0.3-0.1-0.5-0.2-0.8l-0.4-1.6h-0.9l1,3.4h0.8l1-3.4h-0.9
		L37.2,36.9z"/>
	<path fill="#4A4B4F" d="M48.6,35.2c-0.4,0-0.7,0.2-0.8,0.5h0v-2h-0.8v4c0,0.4,0,0.8,0,1h0.7l0-0.5h0c0.2,0.4,0.5,0.6,0.8,0.6
		c0.6,0,1.2-0.6,1.2-1.8C49.7,35.9,49.2,35.2,48.6,35.2z M48.3,38c-0.2,0-0.4-0.2-0.5-0.5c0-0.1,0-0.1,0-0.2v-0.5c0-0.1,0-0.1,0-0.2
		c0.1-0.3,0.3-0.5,0.5-0.5c0.4,0,0.6,0.4,0.6,1C48.8,37.6,48.6,38,48.3,38z"/>
	<path fill="#4A4B4F" d="M59.9,35.2c-0.4,0-0.7,0.3-0.8,0.5h0l0-0.5h-0.7c0,0.3,0,0.7,0,1.1v2.3h0.8v-2c0-0.1,0-0.2,0-0.3
		c0.1-0.2,0.2-0.4,0.4-0.4c0.3,0,0.4,0.3,0.4,0.7v1.9h0.8v-2C60.9,35.7,60.4,35.2,59.9,35.2z"/>
</g>
</svg>
