<?xml version="1.0" encoding="utf-8"?>
<!-- Generator: Adobe Illustrator 17.1.0, SVG Export Plug-In . SVG Version: 6.00 Build 0)  -->
<!DOCTYPE svg PUBLIC "-//W3C//DTD SVG 1.1//EN" "http://www.w3.org/Graphics/SVG/1.1/DTD/svg11.dtd">
<svg version="1.1" id="Слой_1" xmlns="http://www.w3.org/2000/svg" xmlns:xlink="http://www.w3.org/1999/xlink" x="0px" y="0px"
	 viewBox="0 0 103.1 45.3" enable-background="new 0 0 103.1 45.3" xml:space="preserve">
<g>
	<path fill="#9CD0DD" d="M8.5,45.3c-0.6,0-1.2-0.1-1.8-0.2c-4.6-1-7.5-5.5-6.5-10.1L6.4,6.8C7,3.9,9.1,1.5,11.9,0.6S17.8,0.2,20,2
		l9.9,8.1l9.1-8c2.2-2,5.3-2.6,8.2-1.7c2.8,0.9,5,3.2,5.7,6.1l1.6,6.6c1.1,4.6-1.7,9.2-6.3,10.3c-2.3,0.6-4.7-1.1-6.5-2.2l-5.9,6.5
		c-3.1,2.7-7.8,2.8-11,0.2l-4.3-5.2l-3.7,16C15.9,42.6,12.4,45.3,8.5,45.3z"/>
</g>
<ellipse fill="#9CD0DD" cx="51.1" cy="35.7" rx="8.6" ry="8.3"/>
<path fill="none" stroke="#FFFFFF" stroke-width="2.5" stroke-linecap="round" stroke-linejoin="round" stroke-miterlimit="10" d="
	M74.2,32.7c0,0-1.3-2.8-4.1-2.8S66,31.5,66,33.4s2.8,2.9,4.1,2.9c1.8,0,4.1,1.3,4.1,3c0,3.3-2.4,3.6-3.6,3.6S66,42.4,66,40.4"/>
<path fill="none" stroke="#FFFFFF" stroke-width="2.5" stroke-linecap="round" stroke-linejoin="round" stroke-miterlimit="10" d="
	M79.6,38.7h4.3c0,0,4.3-0.1,4.3-4.4S84.7,30,83.8,30s-4.3,0-4.3,0V38.7z"/>
<line fill="none" stroke="#FFFFFF" stroke-width="2.5" stroke-linecap="round" stroke-linejoin="round" stroke-miterlimit="10" x1="79.6" y1="42.9" x2="79.6" y2="38.7"/>
<path fill="none" stroke="#FFFFFF" stroke-width="2.5794" stroke-linecap="round" stroke-linejoin="round" stroke-miterlimit="10" d="
	M93.6,30v4.4c0,0,0.8,4.4,4.1,4.4"/>
<path fill="none" stroke="#FFFFFF" stroke-width="2.5794" stroke-linecap="round" stroke-linejoin="round" stroke-miterlimit="10" d="
	M101.8,30v4.4c0,0-0.8,4.4-4.1,4.4"/>
<line fill="none" stroke="#FFFFFF" stroke-width="2.5794" stroke-linecap="round" stroke-linejoin="round" stroke-miterlimit="10" x1="97.7" y1="42.9" x2="97.7" y2="38.4"/>
</svg>
