<?xml version="1.0" encoding="utf-8"?>
<!-- Generator: Adobe Illustrator 17.1.0, SVG Export Plug-In . SVG Version: 6.00 Build 0)  -->
<!DOCTYPE svg PUBLIC "-//W3C//DTD SVG 1.1//EN" "http://www.w3.org/Graphics/SVG/1.1/DTD/svg11.dtd">
<svg version="1.1" id="Слой_1" xmlns="http://www.w3.org/2000/svg" xmlns:xlink="http://www.w3.org/1999/xlink" x="0px" y="0px"
	 viewBox="0 0 98.3 42.5" enable-background="new 0 0 98.3 42.5" xml:space="preserve">
<g>
	<g>
		<g>
			<path fill="#F5A91C" d="M16.2,1.9l0.2,0c0,0.7-0.3,1.5-0.8,2.3c-0.5,0.8-1.1,1.5-1.9,2.2C12.9,7,12.1,7.6,11.3,8S9.6,8.6,9,8.6
				c-0.5,0-1-0.1-1.3-0.4C7.4,7.8,7.2,7.4,7.2,6.9c0-0.7,0.3-1.5,0.9-2.2s1.3-1.4,2.3-2s2.1-1.1,3.4-1.5s2.6-0.6,4-0.6
				c0.6,0,1.2,0,1.6,0.1c0.5,0.1,0.9,0.2,1.2,0.3c0.4,0.2,0.8,0.4,1.2,0.7c0.4-0.3,0.9-0.5,1.4-0.7s0.9-0.4,1.3-0.5l0.2,0.2
				c-0.4,0.1-0.8,0.3-1.4,0.5S22.5,1.8,22.1,2c0.3,0.3,0.5,0.6,0.5,0.8c0.1,0.3,0.1,0.6,0.1,1c0,0.5-0.1,1-0.4,1.4S21.8,6,21.3,6.4
				c-0.5,0.4-1.2,0.7-2,1.1c0.2,0.3,0.3,0.6,0.4,0.8c0.1,0.3,0.1,0.6,0.1,0.9c0,0.6-0.2,1.2-0.6,1.9s-0.9,1.2-1.5,1.7
				c-0.6,0.5-1.3,0.9-2.1,1.2s-1.5,0.5-2.3,0.5c-0.8,0-1.2-0.3-1.2-1c0-0.5,0.2-1,0.6-1.5c0.4-0.5,1-1,1.7-1.5
				c0.7-0.4,1.4-0.7,2.2-0.9l0.1,0.2c-1.2,0.4-2.2,0.9-2.9,1.5c-0.5,0.4-0.8,0.8-1.1,1.2c-0.3,0.4-0.4,0.8-0.4,1.1
				c0,0.5,0.4,0.7,1.1,0.7c0.8,0,1.5-0.2,2.2-0.7c0.7-0.4,1.3-1,1.9-1.7s1-1.3,1.3-2s0.5-1.2,0.5-1.6c0-0.3-0.1-0.5-0.2-0.7
				c-0.4,0.2-0.9,0.3-1.3,0.3c-0.4,0-0.6-0.1-0.8-0.2c-0.1-0.1-0.2-0.3-0.2-0.5c0-0.2,0.1-0.3,0.2-0.5s0.4-0.2,0.6-0.2
				c0.5,0,1,0.3,1.5,0.8c0.6-0.3,1.1-0.7,1.6-1.1s0.9-1,1.2-1.5s0.4-1,0.4-1.5c0-0.5-0.1-0.8-0.4-1.1c-0.9,0.5-1.9,1.1-2.9,2
				c-1,0.9-2.1,2.1-3.3,3.6c-0.6,0.8-1.1,1.5-1.5,1.9c-0.4,0.5-1,1-1.6,1.5c-0.7,0.6-1.4,1.1-2.1,1.6s-1.3,0.8-1.9,1
				C8,14,7.4,14.2,6.8,14.3c-0.6,0.1-1.2,0.2-1.9,0.2c-2,0-3-0.5-3-1.4c0-0.2,0.1-0.4,0.2-0.5s0.3-0.2,0.5-0.2c0.1,0,0.2,0,0.3,0.1
				c0.1,0.1,0.1,0.2,0.1,0.3c0,0.1,0,0.2-0.1,0.3s-0.2,0.1-0.3,0.1c-0.2,0-0.3-0.1-0.4-0.2c0,0,0,0-0.1,0S2.1,13,2.1,13.1
				c0,0.3,0.2,0.6,0.7,0.8c0.5,0.2,1.1,0.3,2,0.3c0.9,0,1.7-0.1,2.4-0.3c0.7-0.2,1.4-0.5,2-1c0.6-0.4,1.4-1.1,2.2-1.9
				c0.2-0.2,0.5-0.5,0.9-0.9s0.9-1,1.5-1.6C14.4,8,15,7.4,15.5,6.9c0.5-0.5,0.8-0.8,1-1l0.8-0.7c1.3-1.1,2.1-1.8,2.5-2.1
				s1.1-0.7,1.9-1.2c-0.9-0.8-2.2-1.1-3.8-1.1c-1.5,0-2.8,0.2-4.1,0.6c-1.3,0.4-2.4,0.9-3.3,1.5c-0.9,0.6-1.7,1.3-2.2,2
				c-0.5,0.7-0.8,1.4-0.8,2c0,0.5,0.1,0.8,0.4,1.1C8.1,8.2,8.5,8.4,9,8.4c0.6,0,1.4-0.2,2.2-0.6c0.8-0.4,1.6-0.9,2.4-1.5
				c0.8-0.6,1.4-1.3,1.9-2.1S16.2,2.7,16.2,1.9z M19,7.4c-0.4-0.5-0.8-0.7-1.3-0.7c-0.2,0-0.3,0.1-0.4,0.2S17,7.1,17,7.3
				c0,0.3,0.3,0.5,0.8,0.4c0.2,0,0.4,0,0.6-0.1C18.5,7.6,18.7,7.5,19,7.4z"/>
			<path fill="#F5A91C" d="M25.9,10.9v0.2c-1,0.9-1.9,1.6-2.7,2.1c-0.8,0.5-1.6,0.7-2.5,0.7c-0.7,0-1.1-0.4-1.1-1.2
				c0-0.6,0.3-1.2,0.8-1.7c0.5-0.5,1.2-0.9,1.9-1.1c0.7-0.3,1.3-0.4,1.7-0.4c0.3,0,0.5,0.1,0.6,0.2c0.1,0.1,0.2,0.3,0.2,0.4
				c0,0.3-0.2,0.5-0.5,0.8s-0.8,0.4-1.4,0.6s-1.3,0.2-2,0.3c-0.7,0.7-1,1.2-1,1.6c0,0.1,0.1,0.2,0.2,0.3c0.1,0.1,0.3,0.1,0.5,0.1
				C22.2,13.7,23.9,12.7,25.9,10.9z M21.3,11.4c0.7,0,1.3-0.1,1.8-0.3s0.9-0.4,1.1-0.6c0.3-0.2,0.4-0.4,0.4-0.6
				c0-0.2-0.1-0.4-0.4-0.4c-0.4,0-0.9,0.2-1.4,0.5S21.8,10.9,21.3,11.4z"/>
			<path fill="#F5A91C" d="M25.6,11.2L28.4,9c0.2-0.2,0.4-0.4,0.6-0.6S29.3,8,29.3,8c0.1,0,0.1,0,0.2,0.1c0.1,0,0.1,0.1,0.1,0.2
				c0,0.2-0.2,0.3-0.7,0.6c0.3,0.4,0.5,0.7,0.6,1s0.2,0.7,0.2,1.1c0,0.3-0.1,0.5-0.1,0.7c0.3,0.1,0.6,0.1,0.9,0
				c0.3-0.1,0.6-0.3,1.1-0.8v0.2c-0.4,0.4-0.7,0.7-1,0.8c-0.3,0.1-0.6,0.1-1,0c-0.2,0.4-0.6,0.8-1,1.1c-0.5,0.3-1,0.5-1.5,0.7
				c-0.5,0.1-0.9,0.2-1.3,0.2c-0.3,0-0.6-0.1-0.8-0.2c-0.2-0.1-0.3-0.3-0.3-0.5c0-0.2,0.1-0.4,0.2-0.5c0.1-0.1,0.3-0.2,0.6-0.2
				c0.2,0,0.3,0,0.4,0.1c0.1,0.1,0.2,0.2,0.2,0.3c0,0.1-0.1,0.2-0.2,0.3c-0.1,0.1-0.2,0.1-0.3,0.1c-0.2,0-0.3-0.1-0.4-0.4
				c-0.1,0.1-0.2,0.2-0.2,0.3c0,0.1,0.1,0.2,0.3,0.3c0.2,0.1,0.4,0.2,0.6,0.2c0.5,0,1-0.2,1.5-0.6s1-0.8,1.3-1.4
				c0.3-0.6,0.5-1.1,0.5-1.6c0-0.4-0.1-0.8-0.4-1.1l-3,2.4V11.2z"/>
			<path fill="#F5A91C" d="M35.7,7.8l2.2-2.3h1.1l-2.2,2.3h1.7L38.4,8h-1.7l-3.2,3.3c-0.4,0.4-0.7,0.8-1.2,1.3
				c-0.4,0.5-0.6,0.8-0.6,0.8c0,0.2,0.1,0.3,0.3,0.3c0.7,0,2.3-0.9,4.6-2.8v0.2l-0.7,0.6c-1.8,1.5-3.1,2.2-4,2.2
				c-0.2,0-0.4-0.1-0.5-0.2c-0.1-0.1-0.2-0.2-0.2-0.4c0-0.3,0.2-0.9,0.7-1.6c0.5-0.8,1.5-1.8,2.9-3.1c-0.9,0.5-2.1,1.5-3.7,2.8v-0.2
				c0.5-0.5,1.2-1,2-1.6C34,9,34.8,8.4,35.5,8h-1l0.2-0.2H35.7z"/>
		</g>
	</g>
	<g>
		<path d="M22.1,26.6l2.3,8.5l0.9,3.4c0.2-0.9,0.4-1.7,0.6-2.5c0.2-0.8,0.4-1.6,0.5-2.4l1.7-7.1h2.6l-4,14.9H24l-3.3-12.4l-3.3,12.4
			h-2.6l-4.1-14.9h2.6l1.7,7.1c0.2,0.8,0.4,1.6,0.6,2.4s0.4,1.6,0.6,2.5l3.2-12H22.1z"/>
		<path d="M35.3,41.5h-2.6V26.6h2.6V41.5z"/>
		<path d="M51.1,41.5h-2.6l-7.4-11.2c0,1.1,0,2.2,0,3.3c0,1.1,0,2.2,0,3.3v4.7h-2.4V26.6h2.6l7.4,11.2c0-1.1,0-2.2,0-3.2
			s0-2.1,0-3.2v-4.7h2.4V41.5z"/>
		<path d="M66.7,41.5h-2.6l-7.4-11.2c0,1.1,0,2.2,0,3.3c0,1.1,0,2.2,0,3.3v4.7h-2.4V26.6H57l7.4,11.2c0-1.1,0-2.2,0-3.2s0-2.1,0-3.2
			v-4.7h2.4V41.5z"/>
		<path d="M81.7,41.5H70.1V26.6h11.3v2.1h-8.7v4h8.2v2.2h-8.2v4.4h9.1V41.5z"/>
		<path d="M97.4,41.5h-2.8l-1.4-3.8c-0.3-0.8-0.7-1.3-1.1-1.7c-0.5-0.4-1.1-0.6-1.9-0.6h-3.2v6.1h-2.6V26.6h6.8
			c0.8,0,1.6,0.1,2.3,0.2c0.7,0.1,1.3,0.4,1.8,0.7c0.5,0.3,0.9,0.8,1.2,1.3c0.3,0.5,0.4,1.2,0.4,2c0,1-0.3,1.9-0.9,2.6
			s-1.4,1.1-2.5,1.3c0.6,0.2,1,0.6,1.4,1c0.4,0.5,0.7,1.1,1,1.8L97.4,41.5z M86.9,33.3h4c0.6,0,1.1,0,1.5-0.1c0.4-0.1,0.7-0.2,1-0.4
			c0.3-0.2,0.5-0.4,0.6-0.7c0.1-0.3,0.2-0.7,0.2-1.1c0-0.8-0.2-1.4-0.7-1.7c-0.5-0.4-1.2-0.6-2.2-0.6h-4.3V33.3z"/>
	</g>
	<g>
		<path fill="none" d="M56.2,18.9c-0.1-0.1-0.2-0.2-0.3-0.3c-0.1-0.1-0.3-0.1-0.5-0.1c-0.2,0-0.3,0-0.4,0.1
			c-0.1,0.1-0.3,0.2-0.4,0.3c-0.1,0.1-0.2,0.3-0.2,0.5c-0.1,0.2-0.1,0.4-0.1,0.6h2.1c0-0.2,0-0.4-0.1-0.6
			C56.3,19.2,56.3,19,56.2,18.9z"/>
		<path fill="none" d="M24.9,19.2c-0.1-0.2-0.2-0.4-0.4-0.5c-0.2-0.1-0.4-0.2-0.6-0.2c-0.2,0-0.3,0-0.4,0.1
			c-0.1,0.1-0.2,0.1-0.3,0.2c-0.1,0.1-0.2,0.2-0.2,0.4c-0.1,0.1-0.1,0.3-0.1,0.4s-0.1,0.3-0.1,0.5c0,0.2,0,0.3,0,0.5
			c0,0.2,0,0.3,0,0.5s0,0.4,0.1,0.5s0.1,0.3,0.2,0.5s0.1,0.3,0.2,0.4c0.1,0.1,0.2,0.2,0.3,0.3c0.1,0.1,0.3,0.1,0.4,0.1
			c0.2,0,0.4-0.1,0.6-0.2c0.2-0.1,0.3-0.3,0.4-0.5c0.1-0.2,0.2-0.4,0.2-0.7c0-0.2,0.1-0.5,0.1-0.7c0-0.3,0-0.6-0.1-0.8
			C25.1,19.6,25,19.4,24.9,19.2z"/>
		<path fill="none" d="M38.4,18.9c-0.1-0.1-0.2-0.2-0.3-0.3c-0.1-0.1-0.3-0.1-0.5-0.1c-0.2,0-0.3,0-0.4,0.1
			c-0.1,0.1-0.3,0.2-0.4,0.3c-0.1,0.1-0.2,0.3-0.2,0.5c-0.1,0.2-0.1,0.4-0.1,0.6h2.1c0-0.2,0-0.4-0.1-0.6
			C38.5,19.2,38.5,19,38.4,18.9z"/>
		<path fill="none" d="M78.9,18.9c-0.1-0.1-0.2-0.2-0.3-0.3c-0.1-0.1-0.3-0.1-0.5-0.1c-0.2,0-0.3,0-0.4,0.1
			c-0.1,0.1-0.3,0.2-0.4,0.3c-0.1,0.1-0.2,0.3-0.2,0.5C77,19.5,77,19.7,77,20h2.1c0-0.2,0-0.4-0.1-0.6C79,19.2,79,19,78.9,18.9z"/>
		<path fill="#6C6C6C" d="M6.3,22c-0.1,0.1-0.2,0.2-0.4,0.3c-0.1,0.1-0.3,0.2-0.4,0.2c-0.2,0.1-0.3,0.1-0.5,0.1
			c-0.7,0-1.2-0.3-1.6-0.8c-0.4-0.5-0.5-1.3-0.5-2.3c0-0.5,0-0.9,0.1-1.2c0.1-0.4,0.2-0.6,0.4-0.9s0.4-0.4,0.6-0.5
			c0.2-0.1,0.5-0.2,0.7-0.2c0.1,0,0.2,0,0.3,0c0.1,0,0.2,0,0.3,0.1c0.1,0,0.2,0.1,0.3,0.1c0.1,0,0.2,0.1,0.3,0.1
			c0,0,0.1,0.1,0.1,0.1S6,17.3,6,17.3l0.2,1h0.5v-1.8c-0.1,0-0.3-0.1-0.4-0.1c-0.2,0-0.3-0.1-0.5-0.1c-0.2,0-0.3-0.1-0.5-0.1
			s-0.3,0-0.5,0c-0.4,0-0.8,0.1-1.1,0.3S3,16.9,2.7,17.2s-0.4,0.7-0.6,1.1c-0.1,0.4-0.2,0.9-0.2,1.5c0,0.6,0.1,1.1,0.2,1.5
			s0.3,0.8,0.6,1.1c0.2,0.3,0.5,0.5,0.9,0.7c0.3,0.2,0.7,0.2,1.1,0.2c0.2,0,0.4,0,0.6-0.1c0.2-0.1,0.4-0.1,0.6-0.3
			c0.2-0.1,0.3-0.2,0.5-0.3s0.3-0.2,0.4-0.4v-0.6H6.6C6.5,21.8,6.4,21.9,6.3,22z"/>
		<path fill="#6C6C6C" d="M12,22.4c0,0,0-0.1,0-0.2V18l-1.4,0.3v0.3l0.5,0.2c0.1,0,0.1,0.1,0.1,0.1s0,0.1,0,0.2v3
			c-0.1,0.1-0.1,0.2-0.2,0.2c-0.1,0.1-0.2,0.1-0.3,0.1c-0.1,0-0.2,0.1-0.3,0.1c-0.1,0-0.2,0-0.3,0c-0.2,0-0.4,0-0.5-0.1
			c-0.1-0.1-0.2-0.2-0.3-0.3s-0.1-0.3-0.1-0.4s0-0.4,0-0.6V18l-1.4,0.3v0.3l0.5,0.2c0,0,0.1,0.1,0.1,0.1c0,0,0,0.1,0,0.2v2.5
			c0,0.3,0,0.6,0.1,0.8c0.1,0.2,0.2,0.4,0.3,0.5c0.1,0.1,0.3,0.2,0.4,0.3c0.2,0.1,0.3,0.1,0.5,0.1c0.1,0,0.2,0,0.3,0
			c0.1,0,0.2-0.1,0.3-0.1c0.1-0.1,0.2-0.1,0.4-0.3c0.1-0.1,0.2-0.3,0.4-0.5h0v0.9h0l1.3-0.3v-0.3l-0.5-0.2C12,22.4,12,22.4,12,22.4z
			"/>
		<path fill="#6C6C6C" d="M16.8,20.8c-0.1-0.1-0.2-0.2-0.3-0.3c-0.1-0.1-0.3-0.1-0.4-0.2c-0.1,0-0.1,0-0.2-0.1c-0.1,0-0.1,0-0.2-0.1
			c-0.1,0-0.1,0-0.2-0.1s-0.1,0-0.2-0.1C15.2,20,15,20,15,19.9c-0.1-0.1-0.2-0.1-0.2-0.2s-0.1-0.1-0.1-0.2c0-0.1,0-0.2,0-0.3
			c0-0.1,0-0.2,0.1-0.3c0-0.1,0.1-0.2,0.2-0.2s0.2-0.1,0.3-0.1s0.2,0,0.3,0c0.1,0,0.2,0,0.3,0c0.1,0,0.2,0.1,0.3,0.1
			c0,0,0.1,0.1,0.1,0.1c0,0,0.1,0.1,0.1,0.1l0.1,0.5h0.5l0-1.2c-0.1,0-0.2-0.1-0.3-0.1S16.3,18,16.2,18c-0.1,0-0.2,0-0.3,0
			c-0.1,0-0.2,0-0.3,0c-0.2,0-0.5,0-0.7,0.1c-0.2,0.1-0.4,0.2-0.6,0.3c-0.2,0.1-0.3,0.3-0.4,0.5c-0.1,0.2-0.1,0.4-0.1,0.6
			c0,0.2,0,0.3,0.1,0.5c0,0.1,0.1,0.3,0.2,0.4c0.1,0.1,0.2,0.2,0.3,0.3c0.1,0.1,0.2,0.2,0.4,0.2c0.1,0.1,0.3,0.1,0.4,0.2
			c0.1,0.1,0.3,0.1,0.4,0.2c0.1,0,0.2,0.1,0.3,0.1c0.1,0,0.2,0.1,0.2,0.2c0.1,0.1,0.1,0.1,0.1,0.2c0,0.1,0,0.2,0,0.3
			c0,0.1,0,0.3-0.1,0.4c-0.1,0.1-0.1,0.2-0.2,0.2s-0.2,0.1-0.3,0.1s-0.2,0-0.3,0c-0.1,0-0.1,0-0.2,0c-0.1,0-0.1,0-0.2-0.1
			c-0.1,0-0.1,0-0.2-0.1c-0.1,0-0.1-0.1-0.2-0.1c0,0-0.1-0.1-0.1-0.1c0,0-0.1-0.1-0.1-0.2l-0.1-0.5h-0.5V23c0.1,0,0.2,0.1,0.3,0.1
			c0.1,0,0.2,0.1,0.3,0.1c0.1,0,0.3,0.1,0.4,0.1c0.1,0,0.3,0,0.4,0c0.2,0,0.5,0,0.7-0.1s0.4-0.2,0.6-0.3c0.2-0.1,0.3-0.3,0.4-0.5
			c0.1-0.2,0.2-0.4,0.2-0.7c0-0.2,0-0.3-0.1-0.5S16.9,20.9,16.8,20.8z"/>
		<path fill="#6C6C6C" d="M20.7,22.5c0,0-0.1,0-0.2,0.1c-0.1,0-0.1,0-0.2,0s-0.1,0-0.2,0c-0.1,0-0.1,0-0.2,0c-0.1,0-0.2-0.1-0.3-0.1
			c-0.1,0-0.2-0.1-0.2-0.2c-0.1-0.1-0.1-0.2-0.1-0.3v-3.4h1.5l0-0.5h-1.5v-1.5l-0.7,0.2l0,0.7c0,0.2,0,0.3-0.1,0.4
			c0,0.1-0.1,0.2-0.2,0.2c-0.1,0-0.1,0.1-0.2,0.1c-0.1,0-0.2,0-0.3,0.1v0.4h0.7v3.7c0,0.2,0,0.3,0.1,0.4s0.1,0.2,0.2,0.3
			s0.2,0.2,0.4,0.2c0.1,0,0.3,0.1,0.4,0.1c0.1,0,0.2,0,0.4-0.1s0.2-0.1,0.3-0.1c0.1-0.1,0.2-0.1,0.3-0.2s0.1-0.1,0.2-0.1v-0.4h-0.1
			C20.8,22.4,20.8,22.5,20.7,22.5z"/>
		<path fill="#6C6C6C" d="M25.6,18.7c-0.2-0.2-0.4-0.4-0.6-0.6c-0.3-0.1-0.6-0.2-0.9-0.2c-0.3,0-0.6,0.1-0.9,0.2
			c-0.3,0.1-0.5,0.3-0.7,0.6c-0.2,0.2-0.3,0.5-0.4,0.9s-0.1,0.7-0.1,1.1c0,0.4,0,0.8,0.1,1.1c0.1,0.3,0.2,0.6,0.4,0.8
			c0.2,0.2,0.4,0.4,0.6,0.5c0.3,0.1,0.5,0.2,0.8,0.2c0.3,0,0.6-0.1,0.9-0.2s0.5-0.3,0.7-0.6c0.2-0.2,0.3-0.5,0.4-0.9
			c0.1-0.3,0.1-0.7,0.1-1.1c0-0.4,0-0.7-0.1-1S25.8,19,25.6,18.7z M25.2,21.4c0,0.2-0.1,0.5-0.2,0.7c-0.1,0.2-0.2,0.4-0.4,0.5
			c-0.2,0.1-0.3,0.2-0.6,0.2c-0.2,0-0.3,0-0.4-0.1c-0.1-0.1-0.2-0.2-0.3-0.3c-0.1-0.1-0.2-0.2-0.2-0.4s-0.1-0.3-0.2-0.5
			s-0.1-0.3-0.1-0.5s0-0.4,0-0.5c0-0.2,0-0.3,0-0.5c0-0.2,0-0.3,0.1-0.5s0.1-0.3,0.1-0.4c0.1-0.1,0.1-0.3,0.2-0.4
			c0.1-0.1,0.2-0.2,0.3-0.2c0.1-0.1,0.2-0.1,0.4-0.1c0.2,0,0.4,0.1,0.6,0.2c0.2,0.1,0.3,0.3,0.4,0.5c0.1,0.2,0.2,0.5,0.2,0.7
			c0,0.3,0.1,0.6,0.1,0.8C25.2,21,25.2,21.2,25.2,21.4z"/>
		<path fill="#6C6C6C" d="M34,22.6c0,0,0-0.1,0-0.2v-2.8c0-0.3,0-0.6-0.1-0.8s-0.2-0.4-0.3-0.5c-0.1-0.1-0.3-0.2-0.4-0.3
			c-0.2-0.1-0.3-0.1-0.5-0.1c-0.1,0-0.2,0-0.3,0c-0.1,0-0.2,0.1-0.3,0.1c-0.1,0.1-0.2,0.2-0.4,0.3c-0.1,0.1-0.3,0.3-0.4,0.5
			c-0.1-0.2-0.1-0.3-0.2-0.5c-0.1-0.1-0.2-0.2-0.3-0.3S30.5,18,30.4,18c-0.1,0-0.3-0.1-0.4-0.1c-0.1,0-0.2,0-0.3,0
			c-0.1,0-0.2,0.1-0.3,0.1c-0.1,0.1-0.2,0.1-0.3,0.3c-0.1,0.1-0.2,0.3-0.3,0.4h-0.1V18l-1.4,0.3v0.3l0.5,0.2c0,0,0.1,0.1,0.1,0.1
			c0,0,0,0.1,0,0.2v3.4c0,0.1,0,0.1,0,0.2c0,0-0.1,0.1-0.1,0.1l-0.5,0.2v0.4h2v-0.4l-0.4-0.2c0,0-0.1,0-0.1-0.1c0,0,0-0.1,0-0.2
			v-3.3c0.1-0.1,0.1-0.2,0.2-0.2s0.2-0.1,0.3-0.2c0.1,0,0.2-0.1,0.3-0.1c0.1,0,0.2,0,0.3,0c0.2,0,0.3,0,0.5,0.1s0.2,0.2,0.3,0.3
			s0.1,0.3,0.1,0.4s0,0.4,0,0.6v2.4c0,0.1,0,0.1,0,0.2c0,0-0.1,0.1-0.1,0.1L30,22.9v0.4h1.9v-0.4l-0.4-0.2c0,0-0.1-0.1-0.1-0.1
			s0-0.1,0-0.2v-3.3c0.1-0.1,0.1-0.2,0.2-0.2s0.2-0.1,0.3-0.2s0.2-0.1,0.3-0.1s0.2,0,0.3,0c0.2,0,0.3,0,0.5,0.1
			c0.1,0.1,0.2,0.2,0.3,0.3c0.1,0.1,0.1,0.3,0.1,0.4s0,0.4,0,0.6v2.4c0,0.1,0,0.1,0,0.2c0,0-0.1,0.1-0.1,0.1l-0.4,0.2v0.4h1.9v-0.4
			l-0.4-0.2C34.1,22.7,34.1,22.6,34,22.6z"/>
		<path fill="#6C6C6C" d="M39,18.5c-0.2-0.2-0.3-0.3-0.6-0.4c-0.2-0.1-0.5-0.2-0.8-0.2c-0.3,0-0.6,0.1-0.8,0.2
			c-0.3,0.1-0.5,0.3-0.6,0.6c-0.2,0.2-0.3,0.5-0.4,0.9c-0.1,0.3-0.1,0.7-0.1,1.1c0,0.4,0.1,0.8,0.2,1.1c0.1,0.3,0.2,0.6,0.4,0.8
			c0.2,0.2,0.4,0.4,0.6,0.5c0.2,0.1,0.5,0.2,0.8,0.2c0.2,0,0.4,0,0.5-0.1c0.2,0,0.3-0.1,0.5-0.2c0.2-0.1,0.3-0.2,0.4-0.3
			c0.1-0.1,0.2-0.2,0.3-0.3V22h-0.1c-0.1,0.1-0.2,0.1-0.2,0.2c-0.1,0.1-0.2,0.1-0.3,0.2c-0.1,0.1-0.2,0.1-0.4,0.2
			c-0.1,0-0.3,0.1-0.4,0.1c-0.5,0-0.8-0.2-1.1-0.5c-0.3-0.4-0.4-0.9-0.4-1.6h3c0,0,0-0.1,0-0.1c0,0,0-0.1,0-0.1c0,0,0-0.1,0-0.1
			c0,0,0-0.1,0-0.1c0-0.3,0-0.5-0.1-0.8S39.2,18.7,39,18.5z M36.5,20c0-0.2,0.1-0.5,0.1-0.6c0.1-0.2,0.1-0.4,0.2-0.5
			c0.1-0.1,0.2-0.2,0.4-0.3c0.1-0.1,0.3-0.1,0.4-0.1c0.2,0,0.3,0,0.5,0.1c0.1,0.1,0.2,0.2,0.3,0.3c0.1,0.1,0.1,0.3,0.2,0.5
			c0,0.2,0.1,0.4,0.1,0.6H36.5z"/>
		<path fill="#6C6C6C" d="M43.8,18c-0.1,0-0.1,0-0.2,0c-0.1,0-0.1,0-0.2,0c-0.1,0-0.2,0-0.3,0.1c-0.1,0-0.2,0.1-0.3,0.2
			c-0.1,0.1-0.2,0.2-0.3,0.4s-0.2,0.3-0.3,0.5h0V18l-1.4,0.3v0.3l0.5,0.2c0,0,0.1,0.1,0.1,0.1s0.1,0.1,0.1,0.2v3.3
			c0,0.1,0,0.1,0,0.2c0,0-0.1,0.1-0.1,0.1l-0.5,0.2v0.4h2.2v-0.4l-0.6-0.2c0,0-0.1,0-0.1-0.1c0,0,0-0.1,0-0.2v-2.9
			c0.1-0.1,0.1-0.2,0.2-0.3c0.1-0.1,0.1-0.2,0.2-0.3c0.1-0.1,0.2-0.1,0.3-0.2c0.1,0,0.2-0.1,0.3-0.1c0,0,0.1,0,0.1,0
			c0,0,0.1,0,0.1,0.1s0.1,0.1,0.1,0.1c0,0,0.1,0.1,0.1,0.1l0.1,0.4h0.5v-1.2c-0.1-0.1-0.1-0.1-0.2-0.1C43.9,18,43.8,18,43.8,18z"/>
		<path fill="#6C6C6C" d="M51.9,20.2c-0.1-0.1-0.2-0.3-0.3-0.4c-0.1-0.1-0.3-0.2-0.4-0.2c-0.1-0.1-0.2-0.1-0.3-0.2
			c-0.1,0-0.2-0.1-0.3-0.1c-0.1,0-0.2-0.1-0.3-0.1S50,19,49.9,19c-0.2-0.1-0.3-0.2-0.4-0.2c-0.1-0.1-0.2-0.2-0.3-0.3
			c-0.1-0.1-0.1-0.2-0.1-0.3c0-0.1,0-0.2,0-0.4c0-0.1,0-0.3,0.1-0.4c0.1-0.1,0.1-0.2,0.2-0.3c0.1-0.1,0.2-0.2,0.4-0.2
			c0.1-0.1,0.3-0.1,0.5-0.1c0.1,0,0.2,0,0.3,0c0.1,0,0.2,0,0.2,0.1c0.1,0,0.1,0.1,0.2,0.1c0.1,0,0.1,0.1,0.2,0.1
			c0,0,0.1,0.1,0.1,0.1c0,0,0.1,0.1,0.1,0.1l0.2,0.9h0.5v-1.8c-0.1,0-0.2-0.1-0.4-0.1c-0.1,0-0.3-0.1-0.4-0.1
			c-0.1,0-0.3-0.1-0.4-0.1s-0.3,0-0.5,0c-0.3,0-0.5,0-0.8,0.1c-0.2,0.1-0.4,0.2-0.6,0.4c-0.2,0.2-0.3,0.4-0.4,0.6
			c-0.1,0.2-0.1,0.5-0.1,0.8c0,0.4,0.1,0.8,0.3,1.1c0.2,0.3,0.4,0.5,0.8,0.7c0.1,0.1,0.2,0.1,0.3,0.1c0.1,0,0.2,0.1,0.3,0.1
			s0.2,0.1,0.3,0.1c0.1,0,0.2,0.1,0.3,0.2c0.2,0.1,0.4,0.3,0.6,0.5s0.2,0.4,0.2,0.7c0,0.2,0,0.4-0.1,0.5c-0.1,0.2-0.1,0.3-0.3,0.4
			c-0.1,0.1-0.3,0.2-0.4,0.2c-0.2,0.1-0.3,0.1-0.6,0.1c-0.1,0-0.2,0-0.3,0c-0.1,0-0.2-0.1-0.3-0.1s-0.2-0.1-0.3-0.1
			c-0.1-0.1-0.2-0.1-0.2-0.2c0,0-0.1-0.1-0.1-0.1c0,0-0.1-0.1-0.1-0.1l-0.2-1h-0.5l0,1.8c0.2,0.1,0.3,0.1,0.5,0.2s0.3,0.1,0.5,0.1
			c0.2,0,0.3,0.1,0.5,0.1c0.1,0,0.3,0,0.4,0c0.4,0,0.7-0.1,1-0.2c0.3-0.1,0.5-0.3,0.7-0.5c0.2-0.2,0.3-0.4,0.4-0.7
			c0.1-0.2,0.1-0.5,0.1-0.8c0-0.3,0-0.5-0.1-0.7S52,20.3,51.9,20.2z"/>
		<path fill="#6C6C6C" d="M56.8,18.5c-0.2-0.2-0.3-0.3-0.6-0.4c-0.2-0.1-0.5-0.2-0.8-0.2c-0.3,0-0.6,0.1-0.8,0.2
			c-0.3,0.1-0.5,0.3-0.6,0.6c-0.2,0.2-0.3,0.5-0.4,0.9c-0.1,0.3-0.1,0.7-0.1,1.1c0,0.4,0.1,0.8,0.2,1.1c0.1,0.3,0.2,0.6,0.4,0.8
			c0.2,0.2,0.4,0.4,0.6,0.5c0.2,0.1,0.5,0.2,0.8,0.2c0.2,0,0.4,0,0.5-0.1c0.2,0,0.3-0.1,0.5-0.2c0.2-0.1,0.3-0.2,0.4-0.3
			c0.1-0.1,0.2-0.2,0.3-0.3V22h-0.1c-0.1,0.1-0.2,0.1-0.2,0.2c-0.1,0.1-0.2,0.1-0.3,0.2c-0.1,0.1-0.2,0.1-0.4,0.2
			c-0.1,0-0.3,0.1-0.4,0.1c-0.5,0-0.8-0.2-1.1-0.5c-0.3-0.4-0.4-0.9-0.4-1.6h3c0,0,0-0.1,0-0.1c0,0,0-0.1,0-0.1c0,0,0-0.1,0-0.1
			c0,0,0-0.1,0-0.1c0-0.3,0-0.5-0.1-0.8S57,18.7,56.8,18.5z M54.3,20c0-0.2,0.1-0.5,0.1-0.6c0.1-0.2,0.1-0.4,0.2-0.5
			c0.1-0.1,0.2-0.2,0.4-0.3c0.1-0.1,0.3-0.1,0.4-0.1c0.2,0,0.3,0,0.5,0.1c0.1,0.1,0.2,0.2,0.3,0.3c0.1,0.1,0.1,0.3,0.2,0.5
			c0,0.2,0.1,0.4,0.1,0.6H54.3z"/>
		<path fill="#6C6C6C" d="M61.6,18c-0.1,0-0.1,0-0.2,0c-0.1,0-0.1,0-0.2,0c-0.1,0-0.2,0-0.3,0.1c-0.1,0-0.2,0.1-0.3,0.2
			c-0.1,0.1-0.2,0.2-0.3,0.4s-0.2,0.3-0.3,0.5h0V18l-1.4,0.3v0.3l0.5,0.2c0,0,0.1,0.1,0.1,0.1s0.1,0.1,0.1,0.2v3.3
			c0,0.1,0,0.1,0,0.2c0,0-0.1,0.1-0.1,0.1l-0.5,0.2v0.4h2.2v-0.4l-0.6-0.2c0,0-0.1,0-0.1-0.1c0,0,0-0.1,0-0.2v-2.9
			c0.1-0.1,0.1-0.2,0.2-0.3c0.1-0.1,0.1-0.2,0.2-0.3c0.1-0.1,0.2-0.1,0.3-0.2c0.1,0,0.2-0.1,0.3-0.1c0,0,0.1,0,0.1,0
			c0,0,0.1,0,0.1,0.1s0.1,0.1,0.1,0.1c0,0,0.1,0.1,0.1,0.1l0.1,0.4h0.5v-1.2c-0.1-0.1-0.1-0.1-0.2-0.1C61.7,18,61.6,18,61.6,18z"/>
		<path fill="#6C6C6C" d="M65.7,18.4l0.6,0.4l-1.1,3.3h-0.1l-0.2-0.7l-1-2.7l0.6-0.2v-0.3h-1.9v0.3l0.3,0.2c0,0,0.1,0,0.1,0.1
			c0,0,0.1,0.1,0.1,0.1l1.6,4.5h0.4l0.4-1.1l1.1-3.3c0-0.1,0-0.1,0.1-0.1c0,0,0.1-0.1,0.1-0.1l0.3-0.3v-0.3h-1.6V18.4z"/>
		<path fill="#6C6C6C" d="M68.8,16.9c0.1,0.1,0.1,0.1,0.2,0.1s0.1,0,0.2,0c0.1,0,0.2,0,0.2,0s0.1-0.1,0.2-0.1s0.1-0.1,0.1-0.2
			c0-0.1,0-0.2,0-0.3c0-0.1,0-0.2,0-0.3c0-0.1-0.1-0.1-0.1-0.2c-0.1-0.1-0.1-0.1-0.2-0.1c-0.1,0-0.2,0-0.2,0c-0.1,0-0.1,0-0.2,0
			c-0.1,0-0.1,0.1-0.2,0.1c-0.1,0.1-0.1,0.1-0.1,0.2c0,0.1,0,0.2,0,0.3c0,0.1,0,0.2,0,0.3S68.8,16.8,68.8,16.9z"/>
		<path fill="#6C6C6C" d="M69.7,22.6c0,0,0-0.1,0-0.2V18l-1.5,0.3v0.3l0.6,0.2c0.1,0,0.1,0,0.1,0.1c0,0,0,0.1,0,0.2v3.3
			c0,0.1,0,0.1,0,0.2c0,0-0.1,0.1-0.1,0.1l-0.6,0.2v0.4h2.3v-0.4l-0.6-0.2C69.8,22.7,69.8,22.6,69.7,22.6z"/>
		<path fill="#6C6C6C" d="M74.7,22.1c-0.1,0.1-0.2,0.1-0.3,0.2c-0.1,0.1-0.2,0.1-0.3,0.2c-0.1,0-0.2,0.1-0.4,0.1
			c-0.2,0-0.4,0-0.6-0.1c-0.2-0.1-0.3-0.2-0.4-0.4c-0.1-0.2-0.2-0.4-0.3-0.7c-0.1-0.3-0.1-0.6-0.1-0.9c0-0.2,0-0.5,0-0.6
			c0-0.2,0.1-0.3,0.1-0.5s0.1-0.2,0.1-0.3c0-0.1,0.1-0.2,0.1-0.2c0,0,0.1-0.1,0.1-0.1c0.1,0,0.1-0.1,0.2-0.1s0.1,0,0.2-0.1
			c0.1,0,0.1,0,0.2,0c0.2,0,0.3,0,0.4,0.1c0.1,0,0.2,0.1,0.4,0.2c0.1,0.1,0.2,0.1,0.3,0.2c0.1,0.1,0.2,0.2,0.3,0.2h0.2l0-1
			c-0.1,0-0.1-0.1-0.2-0.1c-0.1,0-0.2-0.1-0.3-0.1S74.3,18,74.2,18s-0.3,0-0.4,0c-0.2,0-0.4,0-0.6,0.1c-0.2,0.1-0.4,0.1-0.5,0.3
			c-0.2,0.1-0.3,0.3-0.5,0.4s-0.3,0.4-0.4,0.6s-0.2,0.4-0.2,0.7c-0.1,0.2-0.1,0.5-0.1,0.8c0,0.4,0,0.7,0.1,1.1
			c0.1,0.3,0.2,0.6,0.4,0.8s0.4,0.4,0.6,0.5s0.5,0.2,0.8,0.2c0.2,0,0.3,0,0.5-0.1c0.2-0.1,0.3-0.1,0.4-0.2s0.3-0.2,0.4-0.3
			c0.1-0.1,0.2-0.2,0.3-0.3v-0.5H75C74.9,22,74.8,22.1,74.7,22.1z"/>
		<path fill="#6C6C6C" d="M79.8,19.2c-0.1-0.2-0.2-0.5-0.4-0.7c-0.2-0.2-0.3-0.3-0.6-0.4c-0.2-0.1-0.5-0.2-0.8-0.2
			c-0.3,0-0.6,0.1-0.8,0.2c-0.3,0.1-0.5,0.3-0.6,0.6c-0.2,0.2-0.3,0.5-0.4,0.9c-0.1,0.3-0.1,0.7-0.1,1.1c0,0.4,0.1,0.8,0.2,1.1
			c0.1,0.3,0.2,0.6,0.4,0.8c0.2,0.2,0.4,0.4,0.6,0.5c0.2,0.1,0.5,0.2,0.8,0.2c0.2,0,0.4,0,0.5-0.1c0.2,0,0.3-0.1,0.5-0.2
			c0.2-0.1,0.3-0.2,0.4-0.3c0.1-0.1,0.2-0.2,0.3-0.3V22h-0.1c-0.1,0.1-0.2,0.1-0.2,0.2c-0.1,0.1-0.2,0.1-0.3,0.2
			c-0.1,0.1-0.2,0.1-0.4,0.2c-0.1,0-0.3,0.1-0.4,0.1c-0.5,0-0.8-0.2-1.1-0.5c-0.3-0.4-0.4-0.9-0.4-1.6h3c0,0,0-0.1,0-0.1
			c0,0,0-0.1,0-0.1c0,0,0-0.1,0-0.1c0,0,0-0.1,0-0.1C79.9,19.7,79.9,19.4,79.8,19.2z M77,20c0-0.2,0.1-0.5,0.1-0.6
			c0.1-0.2,0.1-0.4,0.2-0.5c0.1-0.1,0.2-0.2,0.4-0.3c0.1-0.1,0.3-0.1,0.4-0.1c0.2,0,0.3,0,0.5,0.1c0.1,0.1,0.2,0.2,0.3,0.3
			C79,19,79,19.2,79,19.3c0,0.2,0.1,0.4,0.1,0.6H77z"/>
	</g>
	<g>
		<path fill="none" d="M89.6,8.2V2.3h-1.3c0,0.2-0.1,0.3-0.1,0.5C88,2.9,87.9,3,87.8,3.1c-0.1,0.1-0.3,0.1-0.4,0.1s-0.4,0-0.6,0v1.2
			h1.3v3.7h-1.3v1.2h4V8.2H89.6z"/>
		<path fill="none" d="M83.7,2.3h-1.3c0,0.2-0.1,0.3-0.1,0.5C82.2,2.9,82.1,3,82,3.1c-0.1,0.1-0.3,0.1-0.4,0.1s-0.4,0-0.6,0v1.2h1.3
			v3.7H81v1.2h4V8.2h-1.2V2.3z"/>
		<path fill="none" d="M71.5,7.6c0.2-0.2,0.5-0.5,0.7-0.7c0.4-0.4,0.7-0.8,0.9-1.2c0.2-0.4,0.3-0.8,0.3-1.3c0-0.7-0.2-1.2-0.6-1.6
			s-1-0.6-1.7-0.6c-0.4,0-0.7,0-1.1,0.1c-0.4,0.1-0.6,0.2-0.8,0.3v1.6h0.1C69.5,4,69.8,3.8,70,3.7c0.3-0.1,0.5-0.2,0.8-0.2
			c0.3,0,0.6,0.1,0.8,0.3c0.2,0.2,0.3,0.4,0.3,0.8c0,0.3-0.1,0.5-0.2,0.8c-0.1,0.3-0.4,0.6-0.7,1c-0.2,0.3-0.5,0.5-0.9,0.9
			c-0.4,0.3-0.7,0.7-1.1,1v1.2h4.7V8H71C71.1,8,71.3,7.8,71.5,7.6z"/>
		<path fill="none" d="M78.9,3.1c-0.2-0.3-0.5-0.6-0.8-0.7c-0.3-0.2-0.7-0.2-1.1-0.2c-0.4,0-0.8,0.1-1.1,0.2
			c-0.3,0.2-0.6,0.4-0.8,0.7c-0.2,0.3-0.3,0.7-0.4,1.2s-0.1,1-0.1,1.6c0,0.6,0,1.1,0.1,1.6c0.1,0.5,0.2,0.8,0.4,1.2
			c0.2,0.3,0.5,0.5,0.8,0.7c0.3,0.2,0.7,0.2,1.1,0.2c0.5,0,0.8-0.1,1.1-0.2c0.3-0.2,0.6-0.4,0.8-0.7c0.2-0.3,0.3-0.7,0.4-1.2
			c0.1-0.5,0.1-1,0.1-1.6c0-0.6,0-1.1-0.1-1.6C79.2,3.8,79.1,3.4,78.9,3.1z M77.7,7.7C77.6,8,77.3,8.2,77,8.2S76.4,8,76.3,7.7
			c-0.1-0.4-0.2-1-0.2-1.8c0-0.9,0.1-1.5,0.2-1.8s0.4-0.5,0.7-0.5c0.3,0,0.6,0.2,0.7,0.5s0.2,1,0.2,1.8C77.9,6.7,77.8,7.3,77.7,7.7z
			"/>
		<path fill="#F5A91C" d="M77,3.5c-0.3,0-0.6,0.2-0.7,0.5s-0.2,1-0.2,1.8c0,0.8,0.1,1.4,0.2,1.8C76.4,8,76.7,8.2,77,8.2
			s0.6-0.2,0.7-0.6s0.2-1,0.2-1.8c0-0.9-0.1-1.5-0.2-1.8S77.3,3.5,77,3.5z"/>
		<path fill="#F5A91C" d="M65.2,0l-5,5.9l5,5.6H93V0H65.2z M73.7,9.4H69V8.2c0.4-0.3,0.7-0.6,1.1-1c0.4-0.3,0.6-0.6,0.9-0.9
			c0.3-0.4,0.6-0.7,0.7-1c0.1-0.3,0.2-0.5,0.2-0.8c0-0.3-0.1-0.6-0.3-0.8c-0.2-0.2-0.4-0.3-0.8-0.3c-0.2,0-0.5,0.1-0.8,0.2
			c-0.3,0.1-0.5,0.3-0.8,0.5h-0.1V2.6c0.2-0.1,0.5-0.2,0.8-0.3c0.4-0.1,0.7-0.1,1.1-0.1c0.7,0,1.3,0.2,1.7,0.6s0.6,0.9,0.6,1.6
			c0,0.4-0.1,0.9-0.3,1.3c-0.2,0.4-0.5,0.8-0.9,1.2c-0.2,0.3-0.5,0.5-0.7,0.7S71.1,8,71,8h2.7V9.4z M79.3,7.5
			c-0.1,0.5-0.2,0.9-0.4,1.2c-0.2,0.3-0.5,0.5-0.8,0.7c-0.3,0.2-0.7,0.2-1.1,0.2c-0.4,0-0.8-0.1-1.1-0.2c-0.3-0.2-0.6-0.4-0.8-0.7
			c-0.2-0.3-0.3-0.7-0.4-1.2c-0.1-0.5-0.1-1-0.1-1.6c0-0.6,0-1.2,0.1-1.6s0.2-0.8,0.4-1.2c0.2-0.3,0.5-0.5,0.8-0.7
			c0.3-0.2,0.7-0.2,1.1-0.2c0.5,0,0.8,0.1,1.1,0.2c0.3,0.2,0.6,0.4,0.8,0.7c0.2,0.3,0.3,0.7,0.4,1.2c0.1,0.5,0.1,1,0.1,1.6
			C79.5,6.4,79.4,7,79.3,7.5z M85,9.4h-4V8.2h1.3V4.4H81V3.3c0.2,0,0.4,0,0.6,0s0.3-0.1,0.4-0.1c0.1-0.1,0.2-0.2,0.3-0.3
			c0.1-0.1,0.1-0.3,0.1-0.5h1.3v5.9H85V9.4z M86.8,9.4V8.2h1.3V4.4h-1.3V3.3c0.2,0,0.4,0,0.6,0s0.3-0.1,0.4-0.1
			C87.9,3,88,2.9,88.1,2.8c0.1-0.1,0.1-0.3,0.1-0.5h1.3v5.9h1.2v1.2H86.8z"/>
		<rect x="94.2" opacity="0.5" fill="#F5A91C" width="4.1" height="11.5"/>
	</g>
	<path fill="#F5A91C" d="M95.9,21.3c-1,1.1-2.2,1.5-2.9,1c-0.6-0.5-0.7-2-0.1-3.2l-0.4-0.7l-0.3,0.1c-0.2,1.8-1,3.1-2,3.1
		s-1.8-1.3-2-3.1l-0.3-0.1L87.7,19c0.5,1.3,0.5,2.8-0.1,3.2c-0.7,0.5-1.9,0.1-2.9-1h-1.4l0.4,0.9c1.2,0.1,2.3,1.2,3,2.9h0.1
		c0.9-0.4,2.2-0.7,3.5-0.7s2.5,0.3,3.5,0.7h0.1c0.7-1.7,1.8-2.8,3-2.9l0.4-0.9H95.9z"/>
</g>
</svg>
