<?xml version="1.0" encoding="utf-8"?>
<!-- Generator: Adobe Illustrator 19.2.1, SVG Export Plug-In . SVG Version: 6.00 Build 0)  -->
<svg version="1.1" id="Слой_1" xmlns="http://www.w3.org/2000/svg" xmlns:xlink="http://www.w3.org/1999/xlink" x="0px" y="0px"
	 viewBox="0 0 56.7 37.1" style="enable-background:new 0 0 56.7 37.1;" xml:space="preserve">
<style type="text/css">
	.st0{fill:#5EC2D4;}
</style>
<path class="st0" d="M18.7,3c0,0-4.3,1.5-8,5.8S6.4,17.8,7,20.2s2.8,2,5.7,1.1s7.8,0.5,8.8,4.5s0.8,7.4-4.8,10.4S0.7,35.1,0,23.6
	S8.8,5.1,8.8,5.1s5.4-4.2,9.6-5.1L18.7,3z"/>
<path class="st0" d="M53.4,3c0,0-4.3,1.5-8,5.8s-4.3,9.1-3.6,11.5s2.8,2,5.7,1.1s7.8,0.5,8.8,4.5s0.8,7.4-4.8,10.4
	s-16.1-1.1-16.8-12.6c-0.6-11.5,8.8-18.5,8.8-18.5s5.4-4.2,9.6-5.1L53.4,3z"/>
</svg>
