<?xml version="1.0" encoding="utf-8"?>
<!-- Generator: Adobe Illustrator 17.1.0, SVG Export Plug-In . SVG Version: 6.00 Build 0)  -->
<!DOCTYPE svg PUBLIC "-//W3C//DTD SVG 1.1//EN" "http://www.w3.org/Graphics/SVG/1.1/DTD/svg11.dtd">
<svg version="1.1" id="Слой_1" xmlns="http://www.w3.org/2000/svg" xmlns:xlink="http://www.w3.org/1999/xlink" x="0px" y="0px"
	 viewBox="0 0 45 45" enable-background="new 0 0 45 45" xml:space="preserve">
<linearGradient id="SVGID_1_" gradientUnits="userSpaceOnUse" x1="20.3955" y1="23.8863" x2="23.7222" y2="21.9656" gradientTransform="matrix(1 0 0 -1 0 45)">
	<stop  offset="0.3814" style="stop-color:#262D35"/>
	<stop  offset="0.7165" style="stop-color:#2E3642"/>
</linearGradient>
<rect x="13.9" y="8.3" fill="url(#SVGID_1_)" width="17.3" height="28"/>
<linearGradient id="SVGID_2_" gradientUnits="userSpaceOnUse" x1="21.0362" y1="23.9947" x2="23.4906" y2="22.5777" gradientTransform="matrix(1 0 0 -1 0 45)">
	<stop  offset="0.4588" style="stop-color:#9CD0DD"/>
	<stop  offset="0.5098" style="stop-color:#8EC7D1"/>
	<stop  offset="0.5647" style="stop-color:#85C1C8"/>
	<stop  offset="0.6082" style="stop-color:#81C0C5"/>
</linearGradient>
<path fill="url(#SVGID_2_)" d="M30.1,4.1H14.8c-1.5,0-2.7,1.2-2.7,2.7v30.1c0,1.5,1.2,2.7,2.7,2.7h15.3c1.5,0,2.7-1.2,2.7-2.7V6.7
	C32.9,5.2,31.6,4.1,30.1,4.1z M31.1,32.9c0,0.8-0.7,1.5-1.5,1.5H15.3c-0.9,0-1.5-0.7-1.5-1.5v-22c0-0.8,0.7-1.5,1.5-1.5h14.3
	c0.9,0,1.5,0.7,1.5,1.5L31.1,32.9L31.1,32.9z"/>
<ellipse fill="#4E9EA2" cx="22.5" cy="36.7" rx="1.2" ry="1.1"/>
<path opacity="0.84" fill="#FFFFFF" enable-background="new    " d="M22.5,14.6c-3.5,0-6.3,2.8-6.3,6.3s2.8,6.3,6.3,6.3
	s6.3-2.8,6.3-6.3S25.9,14.6,22.5,14.6z M22.5,25.4c-2.5,0-4.6-2.1-4.6-4.6s2.1-4.6,4.6-4.6s4.6,2.1,4.6,4.6S25,25.4,22.5,25.4z"/>
<polygon opacity="0.84" fill="#FFFFFF" enable-background="new    " points="20.9,18.4 20.9,23.5 25.1,20.9 "/>
</svg>
