<?xml version="1.0" encoding="utf-8"?>
<!-- Generator: Adobe Illustrator 17.1.0, SVG Export Plug-In . SVG Version: 6.00 Build 0)  -->
<!DOCTYPE svg PUBLIC "-//W3C//DTD SVG 1.1//EN" "http://www.w3.org/Graphics/SVG/1.1/DTD/svg11.dtd">
<svg version="1.1" id="Слой_1" xmlns="http://www.w3.org/2000/svg" xmlns:xlink="http://www.w3.org/1999/xlink" x="0px" y="0px"
	 viewBox="0 0 42 42" enable-background="new 0 0 42 42" xml:space="preserve">
<path fill="#BAE4EC" d="M17.8,30.4c-0.6,0.3-1.4,0.3-1.9-0.2c-3.6-2.7-5.1-3.7-6.8-6.7c-0.5-0.9,0.1-2.3,1-2.9
	c1.3-0.9,2.7-0.6,3.5,0.6c2.5,3.5,4.7,1.6,6.8-0.3c2.6-2.4,5-4.9,7.4-7.3c1.2-1.2,2.3-1.8,3.8-0.3c1.4,1.4,1.2,2.8,0.1,3.9
	c-4.3,4.3-8.8,8.5-13.2,12.8C18.4,30.1,18.1,30.2,17.8,30.4z"/>
</svg>
