<?xml version="1.0" encoding="utf-8"?>
<!-- Generator: Adobe Illustrator 17.1.0, SVG Export Plug-In . SVG Version: 6.00 Build 0)  -->
<!DOCTYPE svg PUBLIC "-//W3C//DTD SVG 1.1//EN" "http://www.w3.org/Graphics/SVG/1.1/DTD/svg11.dtd">
<svg version="1.1" id="Слой_1" xmlns="http://www.w3.org/2000/svg" xmlns:xlink="http://www.w3.org/1999/xlink" x="0px" y="0px"
	 viewBox="0 0 45 45" enable-background="new 0 0 45 45" xml:space="preserve">
<linearGradient id="SVGID_1_" gradientUnits="userSpaceOnUse" x1="21.0404" y1="19.4891" x2="24.535" y2="23.7493">
	<stop  offset="0.3814" style="stop-color:#C99BC5"/>
	<stop  offset="0.5928" style="stop-color:#BC88BA"/>
</linearGradient>
<path fill="url(#SVGID_1_)" d="M34.8,13H10.2C5.7,13,2,16.7,2,21.2v0.2c0,4.5,3.7,8.2,8.2,8.2L11,34l5.1-4.5h18.7
	c4.5,0,8.2-3.7,8.2-8.2v-0.2C43,16.7,39.3,13,34.8,13z"/>
<g>
	<path fill="#EAE9E8" d="M13.2,25l-1.9-6.8h1.8l0.6,3c0.2,0.7,0.3,1.6,0.4,2.4h0c0.1-0.8,0.3-1.6,0.4-2.4l0.6-2.9h1.8L15,25H13.2z"
		/>
	<path fill="#EAE9E8" d="M19.1,18.7c0,0.4-0.4,0.7-0.9,0.7c-0.5,0-0.8-0.3-0.8-0.7c0-0.4,0.4-0.7,0.8-0.7
		C18.7,18,19.1,18.2,19.1,18.7z M17.4,25v-5h1.6v5H17.4z"/>
	<path fill="#EAE9E8" d="M20.1,25c0-0.4,0.1-1,0.1-1.5v-5.6h1.6v2.6h0c0.3-0.4,0.7-0.6,1.3-0.6c1.2,0,1.7,1.1,1.7,2.4
		c0,1.7-0.9,2.7-2,2.7c-0.5,0-0.9-0.2-1.2-0.7h0L21.6,25H20.1z M21.8,23.2c0,0.1,0,0.2,0.1,0.3c0.1,0.4,0.4,0.5,0.6,0.5
		c0.6,0,0.8-0.6,0.8-1.5c0-0.9-0.2-1.4-0.8-1.4c-0.3,0-0.5,0.2-0.6,0.5c0,0.1-0.1,0.2-0.1,0.3V23.2z"/>
	<path fill="#EAE9E8" d="M27.2,23c0,0.8,0.6,1.1,1.3,1.1c0.5,0,0.9-0.1,1.2-0.2l0.2,1C29.5,25,28.8,25,28.2,25
		c-1.7,0-2.6-0.9-2.6-2.4c0-1.7,1.1-2.7,2.5-2.7c1.3,0,2.1,0.8,2.1,2.3c0,0.4,0,0.5,0,0.7H27.2z M28.7,22c0-0.6-0.2-1.1-0.7-1.1
		c-0.5,0-0.8,0.6-0.8,1.1H28.7z"/>
	<path fill="#EAE9E8" d="M31.1,21.5c0-0.5,0-1,0-1.5h1.4l0.1,0.7h0c0.3-0.5,0.8-0.8,1.2-0.8c0.2,0,0.3,0,0.4,0v1.3
		c-0.1,0-0.2,0-0.4,0c-0.4,0-0.8,0.2-1,0.7c0,0.1-0.1,0.3-0.1,0.5V25h-1.7V21.5z"/>
</g>
</svg>
