<?xml version="1.0" encoding="utf-8"?>
<!-- Generator: Adobe Illustrator 17.1.0, SVG Export Plug-In . SVG Version: 6.00 Build 0)  -->
<!DOCTYPE svg PUBLIC "-//W3C//DTD SVG 1.1//EN" "http://www.w3.org/Graphics/SVG/1.1/DTD/svg11.dtd">
<svg version="1.1" id="Слой_1" xmlns="http://www.w3.org/2000/svg" xmlns:xlink="http://www.w3.org/1999/xlink" x="0px" y="0px"
	 viewBox="0 0 45 45" enable-background="new 0 0 45 45" xml:space="preserve">
<g>
	<path fill="#B5ECF3" d="M37.4,23.4c1.1,0,1.5,0.2,1.5,1.4c-0.1,4.8,0,9.5,0,14.3c0,1-0.1,1.3-1.3,1.1c-5.2-1.1-10.6-2.1-15.9-3.1
		c-1.4-0.2-2.2-0.7-2.1-2.5c0.2-3.3,0.1-6.6,0-9.9c0-1.1,0.3-1.4,1.4-1.4c2.8,0.1,5.6,0,8.3,0"/>
	<path fill="#B5ECF3" d="M29.2,21.6c-2.8,0-5.6,0-8.3,0c-0.9,0-1.3-0.2-1.3-1.2c0-3.6,0.1-7.3,0-10.9c0-1,0.5-1.3,1.3-1.5
		c4-0.8,8-1.6,12.1-2.4c1.5-0.3,3-0.6,4.5-1c1.1-0.2,1.4,0,1.4,1.2c0,4.8-0.1,9.5,0,14.3c0,1.2-0.5,1.4-1.4,1.3"/>
	<path fill="#B5ECF3" d="M17.9,15.2c0,1.7,0,3.4,0,5.1c0,1-0.2,1.5-1.4,1.4c-3.1,0-6.2,0-9.3,0c-0.9,0-1.2-0.2-1.2-1.2
		c0-2.9,0-5.7,0-8.6c0.1-0.6,0.2-1,1-1.2c3.3-0.6,6.6-1.3,9.9-1.9c0.8-0.2,1.1,0.1,1,0.9C17.9,11.5,17.9,13.4,17.9,15.2z"/>
	<path fill="#B5ECF3" d="M17.9,29.8c0,1.7,0,3.6,0,5.3c0,0.9-0.3,1.2-1.2,1c-3.2-0.7-6.5-1.3-9.8-2C6.2,34,6.2,33.6,6.2,33
		c0-2.9,0-5.8,0-8.7c0-1,0.4-1.1,1.2-1c3.2,0,6.3,0.1,9.4,0.1c1,0,1.3,0.3,1.3,1.3C17.9,26.3,17.9,28,17.9,29.8z"/>
</g>
</svg>
