<?xml version="1.0" encoding="utf-8"?>
<!-- Generator: Adobe Illustrator 17.1.0, SVG Export Plug-In . SVG Version: 6.00 Build 0)  -->
<!DOCTYPE svg PUBLIC "-//W3C//DTD SVG 1.1//EN" "http://www.w3.org/Graphics/SVG/1.1/DTD/svg11.dtd">
<svg version="1.1" id="Слой_1" xmlns="http://www.w3.org/2000/svg" xmlns:xlink="http://www.w3.org/1999/xlink" x="0px" y="0px"
	 viewBox="0 0 45 45" enable-background="new 0 0 45 45" xml:space="preserve">
<linearGradient id="SVGID_1_" gradientUnits="userSpaceOnUse" x1="18.7485" y1="22.8319" x2="21.3334" y2="25.1607">
	<stop  offset="0.4485" style="stop-color:#52A962"/>
	<stop  offset="0.6134" style="stop-color:#50915E"/>
</linearGradient>
<path fill="url(#SVGID_1_)" d="M23.1,9.6c-6.7,0-12.2,5.5-12.2,12.2c0,2.1,0.5,4.1,1.4,5.8l-2.7,8.3l7.8-3.3
	c1.7,0.9,3.6,1.4,5.6,1.4c6.7,0,12.2-5.5,12.2-12.2S29.8,9.6,23.1,9.6z"/>
<path fill="#FFFFFF" d="M23.1,6.8c-8.2,0-14.9,6.7-14.9,14.9c0,2.9,0.9,5.6,2.3,7.8L7.9,37c-0.2,0.4,0.2,0.8,0.6,0.6l6.9-2.9
	c2.2,1.3,4.8,2.1,7.5,2.1c8.2,0,14.9-6.7,14.9-14.9S31.3,6.8,23.1,6.8z M23.1,34c-1.8,0-3.5-0.4-5-1.1c-0.1-0.1-0.2-0.2-0.4-0.2
	c-0.1,0-0.2-0.1-0.2-0.1c0,0-0.1,0-0.1-0.1l0,0c-1-0.3-2.4-0.2-3.3,0.2l-1.6,0.6c-0.7,0.4-0.9,0.2-0.6-0.6l1.1-3.4
	c0.2-0.6-0.3-1.3-0.6-1.8c-0.9-1.7-1.4-3.7-1.4-5.8c0-6.7,5.5-12.2,12.2-12.2S35.2,15,35.2,21.7S29.8,34,23.1,34z"/>
<g id="Telephone">
	<path fill="#FFFFFF" d="M18.1,14.9c0,0,0.9-1,2,0.5c1.2,1.5,1.5,1.9,1,2.9c-0.5,1-1.3,1.7-0.5,2.8c0.8,1.1,1.4,2,2.8,2.9
		c1.4,0.9,2.2,1.2,2.7,1c0.5-0.2,1.6-2.1,2.7-1.4c1.2,0.7,2.3,1.6,2.2,2.3c-0.1,0.7-1.8,2.1-2.4,2.2c-2.1,0.3-3.4,0.2-4.8-0.7
		c-1.4-0.9-3.8-2.6-5.3-4.2c-1.5-1.6-2.1-4.1-2-5.3C16.8,16.6,18.1,14.9,18.1,14.9z"/>
</g>
</svg>
