<?xml version="1.0" encoding="utf-8"?>
<!-- Generator: Adobe Illustrator 17.1.0, SVG Export Plug-In . SVG Version: 6.00 Build 0)  -->
<!DOCTYPE svg PUBLIC "-//W3C//DTD SVG 1.1//EN" "http://www.w3.org/Graphics/SVG/1.1/DTD/svg11.dtd">
<svg version="1.1" id="Слой_1" xmlns="http://www.w3.org/2000/svg" xmlns:xlink="http://www.w3.org/1999/xlink" x="0px" y="0px"
	 viewBox="0 0 513.8 92.3" enable-background="new 0 0 513.8 92.3" xml:space="preserve">
<g>
	<path fill="#ECECEC" d="M3.7,3.6c2.8-0.5,8.6-0.9,14-0.9c6.6,0,10.6,0.6,14.1,2.4c3.3,1.6,5.8,4.5,5.8,8.4c0,3.8-2.5,7.4-7.9,9.2
		v0.1c5.5,1.3,9.5,5,9.5,10.6c0,3.9-2,6.9-5,9.1c-3.5,2.5-9.3,3.9-18.8,3.9c-5.3,0-9.3-0.3-11.7-0.6V3.6z M14.4,20.1H18
		c5.7,0,8.7-2.1,8.7-5.3c0-3.2-2.8-5-7.7-5c-2.3,0-3.7,0.1-4.6,0.3V20.1z M14.4,39.1c1.1,0.1,2.3,0.1,4.2,0.1c4.9,0,9.2-1.7,9.2-6.2
		c0-4.3-4.3-6-9.7-6h-3.7V39.1z"/>
	<path fill="#ECECEC" d="M57.4,35L54,46H42.8L57.4,3.1h14.2L86.5,46H74.8l-3.7-11H57.4z M69.6,27.7l-3-9.1c-0.9-2.5-1.7-5.7-2.4-8.3
		H64c-0.7,2.5-1.4,5.8-2.2,8.3L59,27.7H69.6z"/>
	<path fill="#ECECEC" d="M93.2,36c2.9,1.3,7.4,2.7,12,2.7c5,0,7.6-1.8,7.6-4.6c0-2.7-2.3-4.2-8-6c-8-2.5-13.1-6.4-13.1-12.7
		c0-7.3,6.8-12.9,18.1-12.9c5.4,0,9.4,1,12.2,2.2l-2.4,7.8c-1.9-0.8-5.3-2-10-2s-7,1.9-7,4.1c0,2.7,2.7,3.9,8.9,6
		c8.4,2.8,12.4,6.7,12.4,12.8c0,7.2-6.2,13.3-19.3,13.3c-5.5,0-10.9-1.3-13.6-2.6L93.2,36z"/>
	<path fill="#ECECEC" d="M131.6,36c2.9,1.3,7.4,2.7,12,2.7c5,0,7.6-1.8,7.6-4.6c0-2.7-2.3-4.2-8-6c-8-2.5-13.1-6.4-13.1-12.7
		c0-7.3,6.8-12.9,18.1-12.9c5.4,0,9.4,1,12.2,2.2l-2.4,7.8c-1.9-0.8-5.3-2-10-2s-7,1.9-7,4.1c0,2.7,2.7,3.9,8.9,6
		c8.4,2.8,12.4,6.7,12.4,12.8c0,7.2-6.2,13.3-19.3,13.3c-5.5,0-10.9-1.3-13.6-2.6L131.6,36z"/>
	<path fill="#ECECEC" d="M183.9,3.1h10.7v19h0.2c1.1-1.7,2.2-3.2,3.3-4.7l10.9-14.3h13.3l-15.8,18.3L223.1,46h-12.6l-11.7-18.5
		l-4.1,4.5v14h-10.7V3.1z"/>
	<path fill="#ECECEC" d="M238.3,3.1V46h-10.9V3.1H238.3z"/>
	<path fill="#ECECEC" d="M282.9,44.8c-2,0.9-6.5,1.8-12.3,1.8c-16.5,0-25.1-9.2-25.1-21.4c0-14.6,11.6-22.8,26.1-22.8
		c5.6,0,9.9,1,11.8,1.9l-2.2,7.7c-2.2-0.8-5.3-1.6-9.1-1.6c-8.6,0-15.3,4.6-15.3,14.2c0,8.6,5.7,14,15.3,14c3.3,0,6.9-0.6,9-1.4
		L282.9,44.8z"/>
	<path fill="#ECECEC" d="M290,3.1h10.7v19h0.2c1.1-1.7,2.2-3.2,3.3-4.7L315,3.1h13.3l-15.8,18.3L329.1,46h-12.6l-11.7-18.5l-4.1,4.5
		v14H290V3.1z"/>
	<path fill="#ECECEC" d="M344.4,3.1V46h-10.9V3.1H344.4z"/>
	<path fill="#ECECEC" d="M353.8,46V3.1h12.6l9.9,15.7c2.8,4.5,5.7,9.9,7.8,14.7h0.2c-0.7-5.7-0.9-11.5-0.9-17.9V3.1h9.9V46H382
		l-10.2-16.5c-2.8-4.6-6-10.1-8.3-15.1l-0.2,0.1c0.3,5.7,0.4,11.7,0.4,18.7V46H353.8z"/>
	<path fill="#ECECEC" d="M442.7,44c-3.3,1-9.7,2.4-16,2.4c-8.7,0-15.1-2-19.5-5.8c-4.4-3.7-6.8-9.3-6.7-15.6
		c0.1-14.3,11.6-22.4,27.3-22.4c6.2,0,10.9,1.1,13.3,2.1l-2.3,7.8c-2.6-1-5.9-1.8-11.1-1.8c-9,0-15.8,4.6-15.8,13.9
		c0,8.8,6.2,14.1,15.1,14.1c2.5,0,4.5-0.3,5.3-0.6v-9h-7.4v-7.6h17.8V44z"/>
</g>
<g>
	<path fill="#ECECEC" d="M25.8,84.3c-1.7,0.4-5.4,0.8-8.4,0.8c-4.6,0-8.1-0.7-10.8-2.2c-3.5-1.8-5.3-5.1-5.2-8.9
		c0.2-8,8.6-11.4,17.1-11.4c3.1,0,5.3,0.3,6.6,0.7L23.8,67c-1.1-0.3-2.6-0.5-4.6-0.5c-5.3,0-9.6,2-9.6,7.8c0,5.3,3.8,7.2,7.4,7.2
		c0.7,0,1.3,0,1.6-0.1V76H15v-3.5h10.8V84.3z"/>
	<path fill="#ECECEC" d="M55.5,73.5c0,8.3-5.4,11.7-13,11.7c-9.2,0-12.7-5.3-12.7-11.4c0-6,4.4-11.2,13.3-11.2
		C52.7,62.6,55.5,68.4,55.5,73.5z M37.8,73.9c0,5,1.7,7.6,4.9,7.6c3.3,0,4.5-3.3,4.5-7.8c0-3.9-1.1-7.4-4.6-7.4
		C39.5,66.3,37.8,69.1,37.8,73.9z"/>
	<path fill="#ECECEC" d="M64.3,66.8h-7.1v-4h22.1v4h-7.2v18.1h-7.8V66.8z"/>
	<path fill="#ECECEC" d="M99.2,79.9l-1.8,5h-7.6l8.7-22.1h9.4l7.8,22.1h-7.6l-1.7-5H99.2z M105.8,76.5l-1.3-4.6
		c-0.4-1.3-1-3.5-1.3-5H103c-0.4,1.5-1,3.8-1.4,5l-1.5,4.6H105.8z"/>
	<path fill="#ECECEC" d="M142.6,84.9l-6.9-22.1h8.1l2,8.8c0.5,2.5,0.9,5,1.4,7.7h0.2c0.5-2.7,1.4-5.1,2.3-7.8l2.9-8.8h6.3l2.7,8.7
		c0.7,2.5,1.4,5,1.9,7.8h0.1c0.5-2.9,1-5.2,1.6-7.8l2-8.8h7.7l-7.1,22.1h-8.1l-2.4-7.2c-0.7-2-1.3-4.6-1.8-7.2h-0.1
		c-0.7,2.7-1.4,5.1-2.2,7.3l-2.7,7.2H142.6z"/>
	<path fill="#ECECEC" d="M186.8,62.8v8.9h8.2v-8.9h7.8v22.1H195v-9.2h-8.2v9.2H179V62.8H186.8z"/>
	<path fill="#ECECEC" d="M233.5,73.5c0,8.3-5.4,11.7-13,11.7c-9.2,0-12.7-5.3-12.7-11.4c0-6,4.4-11.2,13.3-11.2
		C230.8,62.6,233.5,68.4,233.5,73.5z M215.9,73.9c0,5,1.7,7.6,4.9,7.6c3.3,0,4.5-3.3,4.5-7.8c0-3.9-1.1-7.4-4.6-7.4
		C217.6,66.3,215.9,69.1,215.9,73.9z"/>
	<path fill="#ECECEC" d="M238.5,62.8h7.8v18.5h10.4v3.6h-18.2V62.8z"/>
	<path fill="#ECECEC" d="M278.2,75.2H269v6h10.4v3.7h-18.2V62.8h17.5v3.7H269v5.1h9.2V75.2z"/>
	<path fill="#ECECEC" d="M294.1,84.9V62.8h7.2l6.2,8.7c1.2,1.7,3.2,4.6,4.3,6.5h0.1c-0.2-2.3-0.8-6.2-0.8-10.2v-4.9h6.9v22.1h-7.2
		l-6.2-8.4c-1.3-1.9-3.2-4.7-4.1-6.7h-0.1c0.2,2.2,0.5,5.6,0.5,10.1v5H294.1z"/>
	<path fill="#ECECEC" d="M341.9,75.2h-9.2v6h10.4v3.7h-18.2V62.8h17.5v3.7h-9.7v5.1h9.2V75.2z"/>
	<path fill="#ECECEC" d="M352.8,84.9l-6.9-22.1h8.1l2,8.8c0.5,2.5,0.9,5,1.4,7.7h0.2c0.5-2.7,1.4-5.1,2.3-7.8l2.9-8.8h6.3l2.7,8.7
		c0.7,2.5,1.4,5,1.9,7.8h0.1c0.5-2.9,1-5.2,1.6-7.8l2-8.8h7.7l-7.1,22.1h-8.1l-2.4-7.2c-0.7-2-1.3-4.6-1.8-7.2h-0.1
		c-0.7,2.7-1.4,5.1-2.2,7.3l-2.7,7.2H352.8z"/>
	<path fill="#ECECEC" d="M394.9,62.8h7.8v18.5h10.4v3.6h-18.2V62.8z"/>
	<path fill="#ECECEC" d="M434.6,75.2h-9.2v6h10.4v3.7h-18.2V62.8h17.5v3.7h-9.7v5.1h9.2V75.2z"/>
	<path fill="#ECECEC" d="M446.9,84.9l-9-22.1h8.7l2.9,9.5c0.7,2.4,1.6,5.1,2.1,7.7h0.1c0.5-2.6,1.2-5.3,1.9-7.8l2.8-9.4h8.6
		l-9.2,22.1H446.9z"/>
	<path fill="#ECECEC" d="M485.3,75.2h-9.2v6h10.4v3.7h-18.2V62.8h17.5v3.7h-9.7v5.1h9.2V75.2z"/>
	<path fill="#ECECEC" d="M491.8,62.8h7.8v18.5h10.4v3.6h-18.2V62.8z"/>
</g>
</svg>
