<?xml version="1.0" encoding="utf-8"?>
<!-- Generator: Adobe Illustrator 17.1.0, SVG Export Plug-In . SVG Version: 6.00 Build 0)  -->
<!DOCTYPE svg PUBLIC "-//W3C//DTD SVG 1.1//EN" "http://www.w3.org/Graphics/SVG/1.1/DTD/svg11.dtd">
<svg version="1.1" id="Слой_1" xmlns="http://www.w3.org/2000/svg" xmlns:xlink="http://www.w3.org/1999/xlink" x="0px" y="0px"
	 viewBox="356.1 0 206.3 252.3" enable-background="new 356.1 0 206.3 252.3" xml:space="preserve">
<g>
	<path fill="#4DAC00" d="M562.4,0c0,0-2,80.5-33.2,111.6c-12.7,12.7-53.5,32.5-78.1,3.8c-24.7-28.7,4.8-72.4,27.1-87.3
		S562.4,0,562.4,0z"/>
	<path fill="#4DAC00" d="M435.2,133.2c-14.5,15.2-40.9,7.4-51-4.8c-18.7-21.6-24.4-69.6-24.4-69.6s58.6,7.3,71.7,26.7
		C444.7,104.9,444.3,122.8,435.2,133.2z"/>
	<path fill="#4DAC00" d="M558.3,151.1c0,55.8-45.3,101.2-101.2,101.2c-55.8,0-101.1-45.3-101.1-101.2c0-11.1,1.8-21.7,5.1-31.8
		c3.6,8.1,7.8,15.6,12.8,21.5c2.8,3.5,6.8,6.5,11.4,9c0,0.4,0,0.8,0,1.2c0,39.7,32.2,71.9,71.8,71.9s71.8-32.2,71.8-71.9
		c0-6.1-0.7-11.9-2.1-17.6c7.9-4,14.4-8.6,18.4-12.7c2.1-2.1,4.1-4.4,6-6.9C555.9,125.5,558.3,138,558.3,151.1z"/>
</g>
</svg>
