<?xml version="1.0" encoding="utf-8"?>
<!-- Generator: Adobe Illustrator 17.1.0, SVG Export Plug-In . SVG Version: 6.00 Build 0)  -->
<!DOCTYPE svg PUBLIC "-//W3C//DTD SVG 1.1//EN" "http://www.w3.org/Graphics/SVG/1.1/DTD/svg11.dtd">
<svg version="1.1" id="Слой_1" xmlns="http://www.w3.org/2000/svg" xmlns:xlink="http://www.w3.org/1999/xlink" x="0px" y="0px"
	 viewBox="0 0 918.4 252.3" enable-background="new 0 0 918.4 252.3" xml:space="preserve">
<g>
	<path fill="#4DAC00" d="M205.3,3.7c0,0-2,79.3-32.7,110c-12.5,12.5-52.7,32-77,3.7c-24.3-28.3,4.7-71.3,26.7-86
		C144.3,16.7,205.3,3.7,205.3,3.7z"/>
	<path fill="#4DAC00" d="M80,135c-14.3,15-40.3,7.3-50.3-4.7c-18.3-21.3-24-68.7-24-68.7S63.3,68.9,76.3,88
		C89.3,107.1,89,124.7,80,135z"/>
	<path fill="#4DAC00" d="M201.3,152.6c0,55-44.6,99.7-99.7,99.7c-55,0-99.7-44.6-99.7-99.7c0-10.9,1.8-21.4,5-31.3
		c3.5,8,7.7,15.4,12.6,21.2c2.8,3.4,6.7,6.4,11.2,8.9c0,0.4,0,0.8,0,1.2c0,39.1,31.7,70.9,70.8,70.9c39.1,0,70.8-31.7,70.8-70.9
		c0-6-0.7-11.7-2.1-17.3c7.8-3.9,14.2-8.5,18.1-12.5c2.1-2.1,4-4.3,5.9-6.8C198.9,127.4,201.3,139.7,201.3,152.6z"/>
</g>
<g>
	<path fill="#646464" d="M270.4,165.7c-11.3,0-20.2-3.4-26.8-10.1c-6.6-6.7-9.9-15.9-9.9-27.7c0-11.7,3.3-21,9.9-27.7
		c6.6-6.7,15.5-10.1,26.8-10.1c11.3,0,20.2,3.4,26.9,10.1c6.6,6.7,9.9,16,9.9,27.7c0,11.7-3.3,21-9.9,27.7
		C290.7,162.4,281.7,165.7,270.4,165.7z M270.3,102.1c-10.2,0-15.3,8.6-15.3,25.8c0,17.2,5.3,25.8,15.8,25.8
		c10.2,0,15.3-8.6,15.3-25.8C286.1,110.7,280.8,102.1,270.3,102.1z"/>
	<path fill="#646464" d="M328.1,202.4V92.1h20.7v5.1h0.5c4.5-4.2,10.4-6.3,17.7-6.3c9.5,0,17.5,3.6,24,10.8
		c6.5,7.2,9.7,16.3,9.7,27.3c0,10.8-3.2,19.7-9.5,26.5s-14.4,10.2-24.2,10.2c-6.7,0-12.6-2.1-17.7-6.3h-0.5v43H328.1z M348.8,109.2
		v38c4.7,4.3,9.5,6.5,14.3,6.5c10.9,0,16.4-8.3,16.4-24.9c0-17.3-6.1-25.9-18.3-25.9c-3.4,0-6.4,0.9-8.8,2.7
		C350,107.4,348.8,108.6,348.8,109.2z"/>
	<path fill="#646464" d="M478.7,146.9v12.5c-7.3,4.2-15.4,6.3-24.1,6.3c-11.9,0-21.1-3.3-27.6-9.8c-6.5-6.5-9.8-15.9-9.8-28.1
		c0-11.9,2.9-21.2,8.6-27.8c5.7-6.6,13.7-9.9,24-9.9c21.3,0,31.8,13.5,31.4,40.6h-43.3c0,15.5,7,23.3,20.9,23.3
		C466.1,154,472.8,151.6,478.7,146.9z M437.5,121.2h22.9c0-13.4-4-20.1-11.9-20.1C441.1,101.2,437.5,107.9,437.5,121.2z"/>
	<path fill="#646464" d="M502.9,163.7V92.1h20.7v7.7h0.5c5.8-6,13-8.9,21.7-8.9c7.7,0,14,1.9,18.7,5.6c4.7,3.7,7,9,7,15.6v51.6
		h-20.7v-51.3c0-6.9-3.7-10.3-11.1-10.3c-4.1,0-7.9,1.3-11.2,3.9c-3.3,2.6-5,4.1-5,4.6v53.1H502.9z"/>
	<path fill="#646464" d="M712.5,163.7h-20.7v-51c0-7.1-3.7-10.7-11.1-10.7c-5.7,0-11.1,2.8-16.4,8.4v53.2h-20.7v-50.8
		c0-7.2-3.8-10.8-11.4-10.8c-5.2,0-10.5,2.8-16.1,8.5v53.1h-20.7V92.1h20.7v7.7h0.5c5.7-6,12.9-8.9,21.7-8.9
		c10.1,0,18.1,3.6,24,10.7c4.1-3.7,7.9-6.4,11.2-8.1c3.3-1.7,7.6-2.6,13-2.6c7.7,0,13.9,1.8,18.7,5.5c4.8,3.7,7.2,8.9,7.2,15.6
		V163.7z"/>
	<path fill="#646464" d="M742.8,80.8c-2.8,0-5.3-1-7.3-3c-2-2-3-4.5-3-7.3c0-2.9,1-5.4,3-7.4c2-2,4.4-3,7.3-3c2.8,0,5.3,1,7.3,3
		c2,2,3,4.5,3,7.4c0,2.9-1,5.3-3,7.3C748,79.7,745.6,80.8,742.8,80.8z M733.8,163.7V92.1h17.9v71.6H733.8z"/>
	<path fill="#646464" d="M775.1,163.7V92.1h20.7v7.7h0.5c5.8-6,13-8.9,21.7-8.9c7.7,0,14,1.9,18.7,5.6c4.7,3.7,7,9,7,15.6v51.6H823
		v-51.3c0-6.9-3.7-10.3-11.1-10.3c-4.1,0-7.9,1.3-11.2,3.9c-3.3,2.6-5,4.1-5,4.6v53.1H775.1z"/>
	<path fill="#646464" d="M912.6,151.7v11.2c-7,1.8-13,2.8-18.2,2.8c-14.5,0-21.7-5.3-21.7-16v-46.5h-13.4V102
		c9.8-7.3,20.6-16.8,32.3-28.4h1.8v18.5h19.2v11.1h-19.2V144c0,3.8,0.6,6.4,1.7,7.7c1.2,1.3,3.3,2,6.4,2
		C904.4,153.7,908.1,153,912.6,151.7z"/>
</g>
<g>
	<path fill="#9A9A9A" d="M430.5,198.4l-3.6-1.9c-2.3-1.2-3.9-2.3-4.8-3.5c-1-1.1-1.4-2.4-1.4-3.9c0-2.2,0.9-4,2.7-5.4
		c1.8-1.4,4.2-2.1,7.1-2.1c2.8,0,5.3,0.7,7.6,2v4.6c-2.4-1.9-5-2.9-7.7-2.9c-1.6,0-2.8,0.3-3.8,0.9c-1,0.6-1.5,1.4-1.5,2.3
		c0,0.8,0.4,1.6,1.1,2.4s1.9,1.5,3.5,2.3l3.6,1.8c4.1,2,6.1,4.6,6.1,7.8c0,2.2-0.9,4.1-2.7,5.5c-1.8,1.4-4.1,2.1-7,2.1
		c-3.3,0-6.3-0.9-9-2.6v-5.1c2.6,2.7,5.5,4.1,8.9,4.1c1.5,0,2.7-0.3,3.7-1.1c1-0.7,1.5-1.6,1.5-2.6
		C434.8,201.5,433.4,199.9,430.5,198.4z"/>
	<path fill="#9A9A9A" d="M442.1,182.1h4.8v28.1h-4.8V182.1z"/>
	<path fill="#9A9A9A" d="M478.1,182.1h4.4v28.1h-4.8v-21.8l-10.2,10.8h-0.9l-10.3-10.8v21.8h-4.8v-28.1h4.5l11,11.5L478.1,182.1z"/>
	<path fill="#9A9A9A" d="M486.9,210.1V182h10.5c3.2,0,5.7,0.7,7.6,2.2c1.9,1.4,2.8,3.4,2.8,5.8c0,1.6-0.5,3.1-1.5,4.3
		s-2.3,2.2-4,2.7c-1.7,0.6-4.1,0.9-7.2,0.9h-3.5v12.2H486.9z M496.6,185.6h-4.9v8.8h5.2c1.9,0,3.4-0.4,4.5-1.2
		c1-0.8,1.6-1.9,1.6-3.3C502.9,187,500.8,185.6,496.6,185.6z"/>
	<path fill="#9A9A9A" d="M509.4,182.1h4.8v24.4h15v3.7h-19.7V182.1z"/>
	<path fill="#9A9A9A" d="M545.4,182.1h5.8l-12.3,13.2v14.8H534v-14.8l-12.3-13.2h5.7l8.9,9.7L545.4,182.1z"/>
	<path fill="#9A9A9A" d="M552.3,182.1H570v3.6h-13v7.8h13v3.6h-13v13.1h-4.8V182.1z"/>
	<path fill="#9A9A9A" d="M572.6,182.1h4.8v28.1h-4.8V182.1z"/>
	<path fill="#9A9A9A" d="M582.2,182.1h18.8v3.6H587v8.6h13.6v3.6H587v8.7h14.5v3.6h-19.3V182.1z"/>
	<path fill="#9A9A9A" d="M604.1,182.1h4.8v24.4h15v3.7h-19.7V182.1z"/>
	<path fill="#9A9A9A" d="M625.4,210.1v-28h11.2c4.5,0,8.1,0.6,10.7,1.7c2.6,1.1,4.7,2.8,6.3,5.1c1.6,2.2,2.3,4.6,2.3,7.3
		c0,1.9-0.4,3.7-1.3,5.4c-0.9,1.7-2.1,3.2-3.7,4.5c-1.6,1.3-3.5,2.3-5.6,3c-1.3,0.4-2.4,0.7-3.4,0.8c-1,0.1-3,0.2-6,0.2H625.4z
		 M636.1,185.6h-5.9v20.9h6.1c2.4,0,4.2-0.1,5.5-0.4c1.3-0.3,2.4-0.6,3.3-1c0.9-0.4,1.7-0.9,2.4-1.6c2.3-2,3.5-4.5,3.5-7.6
		c0-3-1.2-5.5-3.6-7.4c-0.9-0.7-1.9-1.3-3.1-1.7c-1.1-0.5-2.2-0.8-3.3-0.9S638.4,185.6,636.1,185.6z"/>
	<path fill="#9A9A9A" d="M683.6,198.4l-3.6-1.9c-2.3-1.2-3.9-2.3-4.8-3.5c-1-1.1-1.4-2.4-1.4-3.9c0-2.2,0.9-4,2.7-5.4
		s4.2-2.1,7.1-2.1c2.8,0,5.3,0.7,7.6,2v4.6c-2.4-1.9-5-2.9-7.7-2.9c-1.6,0-2.8,0.3-3.8,0.9c-1,0.6-1.5,1.4-1.5,2.3
		c0,0.8,0.4,1.6,1.1,2.4s1.9,1.5,3.5,2.3l3.6,1.8c4.1,2,6.1,4.6,6.1,7.8c0,2.2-0.9,4.1-2.7,5.5c-1.8,1.4-4.1,2.1-7,2.1
		c-3.3,0-6.3-0.9-9-2.6v-5.1c2.6,2.7,5.5,4.1,8.9,4.1c1.5,0,2.7-0.3,3.7-1.1c1-0.7,1.5-1.6,1.5-2.6
		C688,201.5,686.6,199.9,683.6,198.4z"/>
	<path fill="#9A9A9A" d="M711.5,181.7c5.1,0,9.4,1.4,12.8,4.1c3.4,2.7,5.1,6.2,5.1,10.3s-1.7,7.6-5.2,10.3c-3.4,2.7-7.8,4.1-13,4.1
		c-5,0-9.2-1.4-12.5-4.1c-3.3-2.7-5-6.1-5-10.2c0-4.2,1.7-7.7,5-10.4S706.3,181.7,711.5,181.7z M711.7,185.5c-3.8,0-6.9,1-9.4,3
		c-2.4,2-3.7,4.6-3.7,7.7c0,3,1.2,5.5,3.7,7.6c2.5,2,5.5,3,9.2,3c3.7,0,6.8-1,9.3-3.1s3.7-4.6,3.7-7.7c0-3-1.2-5.5-3.7-7.5
		S715.3,185.5,711.7,185.5z"/>
	<path fill="#9A9A9A" d="M732.7,182.1h4.8v24.4h15v3.7h-19.7V182.1z"/>
	<path fill="#9A9A9A" d="M777.2,182.1h4.8V198c0,2.2-0.2,3.8-0.6,4.9c-0.4,1.1-0.8,2-1.4,2.7c-0.5,0.7-1.2,1.4-2,2
		c-2.6,1.9-6.1,2.9-10.3,2.9c-4.3,0-7.8-1-10.4-2.9c-0.8-0.6-1.5-1.2-2-2s-1-1.6-1.4-2.7s-0.5-2.7-0.5-5v-15.9h4.8V198
		c0,2.6,0.4,4.5,1.1,5.5c0.7,1,1.8,1.9,3.3,2.5c1.5,0.6,3.2,0.9,5.2,0.9c2.8,0,5.1-0.6,6.9-1.9c0.9-0.7,1.6-1.5,2-2.4
		c0.4-0.9,0.6-2.5,0.6-4.7V182.1z"/>
	<path fill="#9A9A9A" d="M783.2,182h27.7v3.6h-11.6v24.5h-4.8v-24.5h-11.4V182z"/>
	<path fill="#9A9A9A" d="M812.9,182.1h4.8v28.1h-4.8V182.1z"/>
	<path fill="#9A9A9A" d="M838.8,181.7c5.1,0,9.4,1.4,12.8,4.1c3.4,2.7,5.1,6.2,5.1,10.3s-1.7,7.6-5.2,10.3c-3.4,2.7-7.8,4.1-13,4.1
		c-5,0-9.2-1.4-12.5-4.1c-3.3-2.7-5-6.1-5-10.2c0-4.2,1.7-7.7,5-10.4S833.7,181.7,838.8,181.7z M839,185.5c-3.8,0-6.9,1-9.4,3
		c-2.4,2-3.7,4.6-3.7,7.7c0,3,1.2,5.5,3.7,7.6c2.5,2,5.5,3,9.2,3c3.7,0,6.8-1,9.3-3.1s3.7-4.6,3.7-7.7c0-3-1.2-5.5-3.7-7.5
		S842.6,185.5,839,185.5z"/>
	<path fill="#9A9A9A" d="M886.5,182.1h4.5v28.1h-4.1l-22.2-21.6v21.6h-4.5v-28.1h3.9l22.4,21.8V182.1z"/>
	<path fill="#9A9A9A" d="M903.8,198.4l-3.6-1.9c-2.3-1.2-3.9-2.3-4.8-3.5c-1-1.1-1.4-2.4-1.4-3.9c0-2.2,0.9-4,2.7-5.4
		s4.2-2.1,7.1-2.1c2.8,0,5.3,0.7,7.6,2v4.6c-2.4-1.9-5-2.9-7.7-2.9c-1.6,0-2.8,0.3-3.8,0.9c-1,0.6-1.5,1.4-1.5,2.3
		c0,0.8,0.4,1.6,1.1,2.4s1.9,1.5,3.5,2.3l3.6,1.8c4.1,2,6.1,4.6,6.1,7.8c0,2.2-0.9,4.1-2.7,5.5c-1.8,1.4-4.1,2.1-7,2.1
		c-3.3,0-6.3-0.9-9-2.6v-5.1c2.6,2.7,5.5,4.1,8.9,4.1c1.5,0,2.7-0.3,3.7-1.1c1-0.7,1.5-1.6,1.5-2.6
		C908.2,201.5,906.7,199.9,903.8,198.4z"/>
</g>
</svg>
