<?xml version="1.0" encoding="utf-8"?>
<!-- Generator: Adobe Illustrator 17.1.0, SVG Export Plug-In . SVG Version: 6.00 Build 0)  -->
<!DOCTYPE svg PUBLIC "-//W3C//DTD SVG 1.1//EN" "http://www.w3.org/Graphics/SVG/1.1/DTD/svg11.dtd">
<svg version="1.1" id="Слой_1" xmlns="http://www.w3.org/2000/svg" xmlns:xlink="http://www.w3.org/1999/xlink" x="0px" y="0px"
	 viewBox="0 0 74 74" enable-background="new 0 0 74 74" xml:space="preserve">
<path fill="none" d="M33.3,37.8H20.8L34,51.2h12.5L33.3,37.8z"/>
<path fill="#002F59" d="M37,0C16.6,0,0,16.6,0,37s16.6,37,37,37s37-16.6,37-37S57.4,0,37,0z M37,68.5C19.6,68.5,5.5,54.4,5.5,37
	C5.5,19.6,19.6,5.5,37,5.5S68.5,19.6,68.5,37C68.5,54.4,54.4,68.5,37,68.5z"/>
<path fill="none" d="M33.3,37.8H20.8L34,51.2h12.5L33.3,37.8z"/>
<path fill="#EDEDED" d="M37,5.5C19.6,5.5,5.5,19.6,5.5,37c0,17.4,14.1,31.5,31.5,31.5S68.5,54.4,68.5,37C68.5,19.6,54.4,5.5,37,5.5z
	 M46.5,51.2H34L20.8,37.8l13.7-13.3h12L33.3,37.8L46.5,51.2z"/>
<polygon fill="#449A00" points="33.3,37.8 46.5,51.2 34,51.2 20.8,37.8 34.5,24.5 46.5,24.5 "/>
</svg>
