<?xml version="1.0" encoding="utf-8"?>
<!-- Generator: Adobe Illustrator 17.1.0, SVG Export Plug-In . SVG Version: 6.00 Build 0)  -->
<!DOCTYPE svg PUBLIC "-//W3C//DTD SVG 1.1//EN" "http://www.w3.org/Graphics/SVG/1.1/DTD/svg11.dtd">
<svg version="1.1" id="Слой_1" xmlns="http://www.w3.org/2000/svg" xmlns:xlink="http://www.w3.org/1999/xlink" x="0px" y="0px"
	 viewBox="0 0 130.1 130" enable-background="new 0 0 130.1 130" xml:space="preserve">
<path fill="#FFFFFF" d="M40.9,67.3c0-5,0.2-10-0.1-15c-0.1-2.9,0.9-3.6,3.7-3.6c13.6,0.1,27.3,0.1,40.9,0c2.5,0,3.5,0.7,3.5,3.4
	c-0.1,10,0,20-0.1,29.9c0,4.4-2.2,6.9-6.7,6.8c-2.5-0.1-3.2,0.9-3.1,3.2c0.1,2.8,0.1,5.7,0,8.5c-0.2,3.1-1.9,5-5,5.2
	c-3.3,0.2-5.4-1.8-5.7-5c-0.3-3-0.2-6-0.1-9c0.2-2.7-1.3-2.9-3.4-2.9c-2.1,0.1-4-0.2-3.8,3c0.2,2.8,0.1,5.7,0,8.5
	c-0.1,3.4-1.9,5.3-5.2,5.4c-3.1,0.1-5-1.8-5.3-4.9c-0.2-2.8-0.2-5.7-0.1-8.5c0.1-2.4-0.5-3.6-3.3-3.6c-4.6,0.1-6.4-2.6-6.3-7.1
	C41,77,40.9,72.1,40.9,67.3z"/>
<path fill="#FFFFFF" d="M101.5,64.5c0,3.5,0.1,7,0,10.4c-0.2,3.5-2.2,5.7-5.7,5.6c-3.3-0.1-5.2-2.2-5.2-5.5
	c-0.1-7.3-0.1-14.6,0-21.9c0.1-3.2,1.9-5.3,5.3-5.3c3.4,0,5.3,2,5.5,5.2C101.7,56.8,101.5,60.7,101.5,64.5
	C101.5,64.5,101.5,64.5,101.5,64.5z"/>
<path fill="#FFFFFF" d="M28.1,64c0-3.5-0.1-7,0-10.4c0.1-3.5,1.8-5.7,5.5-5.7c3.7,0,5.3,2.3,5.3,5.8c0,7,0,13.9,0,20.9
	c0,3.6-1.7,5.9-5.2,6c-3.8,0.1-5.6-2.4-5.6-6.1C28.1,70.9,28.1,67.5,28.1,64z"/>
</svg>
