<?xml version="1.0" encoding="utf-8"?>
<!-- Generator: Adobe Illustrator 17.1.0, SVG Export Plug-In . SVG Version: 6.00 Build 0)  -->
<!DOCTYPE svg PUBLIC "-//W3C//DTD SVG 1.1//EN" "http://www.w3.org/Graphics/SVG/1.1/DTD/svg11.dtd">
<svg version="1.1" id="Слой_1" xmlns="http://www.w3.org/2000/svg" xmlns:xlink="http://www.w3.org/1999/xlink" x="0px" y="0px"
	 viewBox="0 0 5 5" enable-background="new 0 0 5 5" xml:space="preserve">
<g>
	<path fill="#23475F" d="M5,3.2C5,4,4.1,4,3.9,4H3V3h0.2L2.7,2.2L2.1,3h0.3V4H0.9C0.4,4-0.2,3.6,0.1,2.9c0.1-0.2,0.3-0.3,0.5-0.3
		c0.1,0,0.2-0.1,0.2-0.2c0-0.3,0.3-0.6,1.1-0.6c0.2,0.1,0.3,0,0.2-0.1C2.1,1.2,2.6,1,3,1c0.5,0,0.6,0.3,0.7,0.4
		c0,0.1,0.1,0.1,0.1,0.2c0.4,0,0.4,0.3,0.4,0.7c0,0.1,0.1,0.2,0.2,0.2C4.7,2.7,5,2.8,5,3.2z"/>
</g>
</svg>
