<?xml version="1.0" encoding="utf-8"?>
<!-- Generator: Adobe Illustrator 17.1.0, SVG Export Plug-In . SVG Version: 6.00 Build 0)  -->
<!DOCTYPE svg PUBLIC "-//W3C//DTD SVG 1.1//EN" "http://www.w3.org/Graphics/SVG/1.1/DTD/svg11.dtd">
<svg version="1.1" id="Слой_1" xmlns="http://www.w3.org/2000/svg" xmlns:xlink="http://www.w3.org/1999/xlink" x="0px" y="0px"
	 viewBox="0 0 89.2 89.2" enable-background="new 0 0 89.2 89.2" xml:space="preserve">
<path fill="#23475F" d="M0,44.7c0,25,19.5,44.6,44.5,44.6c24.8,0,44.7-19.8,44.7-44.5C89.2,20.1,69.1,0,44.5,0C19.7,0,0,19.8,0,44.7
	z M9,30.9c3-8,8.6-13.9,15.5-18.7c2.2-1.5,3.9-1.4,5.6,0.9c3.7,5,7,10.3,10.2,15.6c1.5,2.3,1.1,3.5-1.7,4.1
	c-8.5,1.9-17.1,3.2-24.1,3.7C6.8,36.7,6.8,36.7,9,30.9z M14,68.1c-4.8-6.5-7.3-13.8-8-22.5c-0.4-1.8,1-2.1,3.1-2.2
	C20.5,43,31.7,42.2,42.7,39c4.3-1.3,3.8,2.4,4.8,4.3c1.4,2.7-1.4,2.3-2.6,2.8c-11.5,4.4-20.7,11.8-27.7,21.9
	C16,69.6,15.3,69.7,14,68.1z M56.1,81.2c-3.9,1-7.7,2-13.3,1.9c-6-0.2-13.1-2.4-19.5-6.5c-1.3-0.8-2.4-1.4-0.9-3.4
	c6.7-9.2,15.1-16.1,25.5-20.6c2.5-1.1,3.6-0.6,4.5,2.1c2.4,7.5,4.5,15,6,22.7C58.7,79.5,58.2,80.6,56.1,81.2z M81.5,54.2
	c-2.3,8.1-6.7,14.9-13.2,20.3c-2,1.7-2.5,0.6-2.9-1.1c-1.3-6.8-3.3-13.5-5.5-20.1c-0.9-2.8-0.9-4.2,2.5-4.1c1.5,0.1,2.9-0.4,4.3-0.6
	c4.2,0.6,8.2,1.1,12.3,1.6C81.5,50.6,82.1,51.9,81.5,54.2z M72.2,22.7c1.3-1.4,2.1-1.8,3.3,0c3.9,5.8,6.3,12.1,6.9,18.9
	c0.2,1.8-0.1,3-2.1,2.4c-7.1-2-14.3-1.7-21.5-1.2c-4.4,0.3-4-3.4-5.1-5.6c-1.4-2.7,1.6-2.6,2.9-3.2C62.3,31,67.8,27.6,72.2,22.7z
	 M67.6,18.3c-4.4,5.1-10.1,8-16.1,10.6c-1.4,0.6-2.1-0.1-2.7-1.2c-3.6-6.9-8-13.1-13.2-19.9c12-2.6,22.2-0.1,31.6,6.5
	C69.1,15.7,68.8,16.8,67.6,18.3z"/>
</svg>
