<?xml version="1.0" encoding="utf-8"?>
<!-- Generator: Adobe Illustrator 17.1.0, SVG Export Plug-In . SVG Version: 6.00 Build 0)  -->
<!DOCTYPE svg PUBLIC "-//W3C//DTD SVG 1.1//EN" "http://www.w3.org/Graphics/SVG/1.1/DTD/svg11.dtd">
<svg version="1.1" id="Слой_1" xmlns="http://www.w3.org/2000/svg" xmlns:xlink="http://www.w3.org/1999/xlink" x="0px" y="0px"
	 viewBox="-3.5 -4 12 13" enable-background="new -3.5 -4 12 13" xml:space="preserve">
<g>
	<path fill="#23475F" d="M7.2,0.8c-0.8,0-1.7,0-2.6,0c0.3,0.7,0.4,1.4,0,2.1C4.1,4,2.8,4.5,1.7,4.1C0.5,3.7-0.1,2.4,0.3,1.2
		c0.1-0.4,0-0.4-0.3-0.4c-0.7,0-1.4,0-2.1,0c-0.2,0-0.4,0-0.4,0.3c0,1.8,0,3.6,0,5.4c0,0.5,0.4,0.9,1,0.9c2.6,0,5.3,0,7.9,0
		c0.6,0,1-0.4,1-1c0-1.8,0-3.6,0-5.4C7.5,0.9,7.4,0.8,7.2,0.8z"/>
	<path fill="#23475F" d="M-2.1,0.5c0.8,0,1.6,0,2.4,0c0.2,0,0.3-0.1,0.5-0.2c1.1-1,2.4-1,3.4,0c0.1,0.1,0.3,0.2,0.5,0.2
		c0.8,0,1.7,0,2.5,0c0.3,0,0.4-0.1,0.4-0.4c0-0.5,0-0.9,0-1.4c0-0.8-0.4-1.2-1.2-1.2c-1.3,0-2.5,0-3.8,0c-1.3,0-2.6,0-3.9,0
		c-0.8,0-1.1,0.4-1.1,1.1c0,0.5,0,1,0,1.5C-2.5,0.5-2.4,0.6-2.1,0.5z M4.8-1.4C4.8-1.9,5.4-2,6.3-1.9c0.4,0.1,0.6,0.3,0.6,0.7
		c0,1-0.2,1.2-1.1,1.2C4.6,0.1,4.6-0.6,4.8-1.4z M-0.1-1.9c0.1,0,0.1,0.1,0.1,0.2c0,0.3,0,0.6,0,0.8s0,0.6,0,0.8
		c0,0.1,0,0.2-0.2,0.2c-0.1,0-0.1-0.1-0.1-0.2c0-0.6,0-1.1,0-1.7C-0.2-1.8-0.2-1.9-0.1-1.9z M-0.8-1.7c0-0.1,0-0.2,0.2-0.2
		c0.1,0,0.1,0.1,0.1,0.2c0,0.3,0,0.6,0,0.8s0,0.6,0,0.8c0,0.1,0,0.2-0.2,0.2c-0.1,0-0.1-0.1-0.1-0.2C-0.8-0.6-0.8-1.2-0.8-1.7z
		 M-1.4-1.7c0-0.1,0-0.2,0.2-0.2c0.1,0,0.1,0.1,0.1,0.2c0,0.3,0,0.6,0,0.8c0,0.2,0,0.5,0,0.7c0,0.1,0,0.2-0.2,0.2
		c-0.1,0-0.1-0.1-0.1-0.2C-1.4-0.6-1.4-1.2-1.4-1.7z M-1.8-1.7c0,0,0.1,0,0.2-0.1c0,0.6,0,1.1,0,1.6c0,0.1,0,0.2-0.1,0.2
		C-1.9,0.1-2,0.1-2,0C-1.9-0.6-2.1-1.1-1.8-1.7z"/>
	<path fill="#23475F" d="M2.5-0.2c-1.2,0-2.1,0.9-2.1,2.1c0,1.1,1,2.1,2.1,2.1c1.2,0,2.1-0.9,2.1-2.1C4.6,0.8,3.7-0.2,2.5-0.2z
		 M2.5,3.6c-0.9,0-1.7-0.7-1.7-1.7c0-0.9,0.7-1.7,1.7-1.7c0.9,0,1.7,0.8,1.6,1.7C4.2,2.9,3.5,3.6,2.5,3.6z"/>
</g>
</svg>
