<?xml version="1.0" encoding="utf-8"?>
<!-- Generator: Adobe Illustrator 17.1.0, SVG Export Plug-In . SVG Version: 6.00 Build 0)  -->
<!DOCTYPE svg PUBLIC "-//W3C//DTD SVG 1.1//EN" "http://www.w3.org/Graphics/SVG/1.1/DTD/svg11.dtd">
<svg version="1.1" id="Слой_1" xmlns="http://www.w3.org/2000/svg" xmlns:xlink="http://www.w3.org/1999/xlink" x="0px" y="0px"
	 viewBox="0 0 90 90.2" enable-background="new 0 0 90 90.2" xml:space="preserve">
<path fill="#23475F" d="M39.8,67.3c-2.1,7-3,14.4-7.3,20.7c9.9,3.6,19.3,2.5,28.5-1c23.3-8.8,36.5-36.9,24.4-61.5
	C74.8,3.8,49.9-5.5,28.4,3.3C5.7,12.6-5,35.5,2.2,59C5.8,70.7,13.6,79.3,24.4,85c1,0.5,2.2,1.4,2.3-0.9c0.1-8.3,2.8-16.2,4.7-24.2
	c1-4.4,2.1-8.8,0.8-13.6c-1.1-4.1,0.1-8.1,3-11.3c2.1-2.3,4.7-3.5,7.8-2.2c3.1,1.3,4.3,3.8,4,7c-0.1,1.5-0.4,3-0.8,4.4
	c-1,3.6-2.2,7.1-3.2,10.7c-1.3,4.6,1.8,8.8,6.5,8.9c4.8,0.2,7.9-2.5,10.1-6.2c3.9-6.4,5-13.4,4.1-20.8C62.9,30.2,58.9,26,52.6,24
	c-4.1-1.3-8.3-1.2-12.4-0.4c-13.9,2.7-20.7,17.7-13.6,30c1.5,2.5,0.1,5-1.3,6.6c-1.2,1.4-3.2-0.2-4.5-1.3c-6.1-4.8-8.4-15.7-5-24
	C20.9,22.2,31.9,15,46,15c12.6,0,22.6,4.9,27.5,17c4,10,1.9,19.9-3.5,29C64.8,70,50.9,76.9,39.8,67.3z"/>
</svg>
