<?xml version="1.0" encoding="utf-8"?>
<!-- Generator: Adobe Illustrator 17.1.0, SVG Export Plug-In . SVG Version: 6.00 Build 0)  -->
<!DOCTYPE svg PUBLIC "-//W3C//DTD SVG 1.1//EN" "http://www.w3.org/Graphics/SVG/1.1/DTD/svg11.dtd">
<svg version="1.1" id="Слой_1" xmlns="http://www.w3.org/2000/svg" xmlns:xlink="http://www.w3.org/1999/xlink" x="0px" y="0px"
	 viewBox="0 0 5 5" enable-background="new 0 0 5 5" xml:space="preserve">
<path fill="#23475F" d="M4.9,2.6C4.8,2.8,4.9,3.1,5,3.4C5.1,4.4,4.2,5.2,3.3,5C3,4.9,2.8,4.9,2.6,4.9C1.1,4.9,0,3.7,0.2,2.3
	c0-0.2,0-0.3-0.1-0.4c-0.2-0.5-0.1-1,0.3-1.4C0.8,0,1.3-0.1,1.9,0.1c0.2,0.1,0.4,0.1,0.6,0.1C3.8,0.1,4.9,1.2,4.9,2.6z M2.6,4.1
	c0.1,0,0.3,0,0.5-0.1C3.2,4,3.3,4,3.4,3.9c0.3-0.2,0.5-0.5,0.5-0.8c0-0.4-0.2-0.6-0.6-0.8C3,2.2,2.6,2.1,2.2,2
	C2.1,2,1.9,1.9,1.9,1.7c0-0.2,0.2-0.3,0.3-0.3c0.4-0.1,0.6,0,0.9,0.4C3.2,2,3.4,2,3.6,2c0.2-0.1,0.2-0.3,0.2-0.5
	C3.6,1.3,3.4,1.1,3.2,1C2.8,0.8,2.4,0.9,2,0.9C1.5,1.1,1.2,1.4,1.2,1.7c0,0.4,0.2,0.7,0.7,0.9c0.3,0.1,0.6,0.2,0.9,0.2
	C3,2.9,3.2,3,3.1,3.2c0,0.2-0.2,0.3-0.4,0.4C2.4,3.7,2,3.6,1.8,3.2C1.7,2.9,1.6,2.8,1.3,2.9C1.1,3.1,1.1,3.3,1.2,3.5
	C1.3,3.7,1.5,3.9,1.8,4C2,4.1,2.3,4.1,2.6,4.1z"/>
</svg>
