<?xml version="1.0" encoding="utf-8"?>
<!-- Generator: Adobe Illustrator 17.1.0, SVG Export Plug-In . SVG Version: 6.00 Build 0)  -->
<!DOCTYPE svg PUBLIC "-//W3C//DTD SVG 1.1//EN" "http://www.w3.org/Graphics/SVG/1.1/DTD/svg11.dtd">
<svg version="1.1" id="Слой_1" xmlns="http://www.w3.org/2000/svg" xmlns:xlink="http://www.w3.org/1999/xlink" x="0px" y="0px"
	 viewBox="0 0 90 68.1" enable-background="new 0 0 90 68.1" xml:space="preserve">
<g>
	<path fill="#23475F" d="M50.4,23.5c0.1,0.7-0.2,1.5,0.5,2.1c2.7,2.6,11,2.3,13.3-0.5c0.3-0.3,0.4-0.8,0.4-1.2
		c0-2.6,0.2-5.3-0.2-7.9c-1.5-9.4-11.2-16.7-20.8-16C33.2,0.9,25.3,9.2,25.3,19.3c0,4.4,0,8.8,0,13.2c0,5.3,0.1,10.6,0,15.8
		c-0.1,2.8-2.4,5.1-5,5.1c-2.7,0-4.9-2.2-5.1-5c-0.1-2,0-4,0-5.9c0-6.3,0-6.4-6.4-6.3c-2.7,0-6.2-1.2-7.9,0.6
		c-1.7,1.8-0.3,5.3-0.5,8C0,50.4,1.1,55.6,4.7,60.3c5.3,6.9,13.8,9.4,22.4,6.5c7-2.4,13-10.8,13-18.3c0-8.9,0-17.8,0-26.7
		c0-4.6,1.8-7,5.1-7c3.3,0,5.1,2.5,5.2,7.1C50.3,22.4,50.3,22.9,50.4,23.5z"/>
	<path fill="#23475F" d="M89.9,45.7c0-2.7-0.1-4.6,0-6.4c0.1-1.9-0.5-2.5-2.4-2.4c-3.2,0.1-6.4,0.1-9.6,0c-1.9-0.1-2.4,0.7-2.4,2.5
		c0.1,3.1,0.1,6.2,0,9.2c-0.1,3.5-2.6,6.3-5.5,6.2c-2.9,0-5.3-2.8-5.4-6.4c0-3.1-0.1-6.2,0-9.2c0.1-2-0.5-2.4-2.4-1.8
		c-3.5,1.1-7,2.6-10.6-0.1c-0.8-0.6-1.7-0.4-1.7,1c0.2,6.3-0.8,12.6,2.2,18.7c5.2,10.7,18.8,14.5,28.5,7.8
		C87.8,59.9,90.7,53.2,89.9,45.7z"/>
</g>
</svg>
