<?xml version="1.0" encoding="utf-8"?>
<!-- Generator: Adobe Illustrator 17.1.0, SVG Export Plug-In . SVG Version: 6.00 Build 0)  -->
<!DOCTYPE svg PUBLIC "-//W3C//DTD SVG 1.1//EN" "http://www.w3.org/Graphics/SVG/1.1/DTD/svg11.dtd">
<svg version="1.1" id="Слой_1" xmlns="http://www.w3.org/2000/svg" xmlns:xlink="http://www.w3.org/1999/xlink" x="0px" y="0px"
	 viewBox="0 0 55.4 90" enable-background="new 0 0 55.4 90" xml:space="preserve">
<path fill="#23475F" d="M11.8,57.7c0-5.7,0.1-11.5,0-17.2c0-2.2-0.9-3-3.3-3c-9.3-0.1-8.8-0.2-8.2-10.6c0-0.5,0.3-0.9,0.7-1.1
	C10.9,21,17.6,13.8,18.7,2.5c0.1-1.4,0.6-1.9,2.1-2.1c9.3-0.9,9.3-1,9.3,8.3c0,3.8,0.2,7.6-0.1,11.4c-0.2,2.9,0.6,4,3.7,3.8
	c5.4-0.2,10.8,0.1,16.2-0.1c2.7-0.1,3.3,0.8,3.3,3.4c0.1,10.4,0.2,10.4-10.3,10.4c-3.4,0-6.8,0.1-10.2,0c-1.9,0-2.5,0.7-2.5,2.5
	c0.1,8.8-0.1,17.6,0.1,26.4c0.2,6.4,4.2,10.1,10.7,10.1c4.1,0,8-1.2,11.8-2.7c2.1-0.9,2.9-0.4,2.7,1.9c-0.1,1,0,2.1,0,3.2
	c0,8.1,0,8.2-8.2,9.6c-8.9,1.6-17.9,2.6-26.8-1c-5.2-2.1-8.6-7.3-8.6-12.9C11.8,69,11.8,63.4,11.8,57.7z"/>
</svg>
