<?xml version="1.0" encoding="utf-8"?>
<!-- Generator: Adobe Illustrator 17.1.0, SVG Export Plug-In . SVG Version: 6.00 Build 0)  -->
<!DOCTYPE svg PUBLIC "-//W3C//DTD SVG 1.1//EN" "http://www.w3.org/Graphics/SVG/1.1/DTD/svg11.dtd">
<svg version="1.1" id="Слой_1" xmlns="http://www.w3.org/2000/svg" xmlns:xlink="http://www.w3.org/1999/xlink" x="0px" y="0px"
	 viewBox="0 0 95 82.6" enable-background="new 0 0 95 82.6" xml:space="preserve">
<path fill="#23475F" d="M54.5,21.7C57.9,7.9,68.4-0.6,81,0C88.8,0.4,93,4.4,94.5,12.1c1.7,9-1.2,17-5.3,24.5
	c-8,14.3-17.6,27.4-30,38.2C56.7,77,54,79,50.9,80.4c-8.9,4.2-14.5,2.5-19.4-6c-3.8-6.4-4.9-13.7-7-20.7c-2.2-7.4-4.3-14.8-6.5-22.2
	c-0.4-1.4-1-2.8-1.8-4c-2.8-4.5-4.7-5.1-8.9-1.9C4.1,28,2.5,27,0.7,24.1c-1-1.6-1-2.5,0.4-3.7C7.3,15.2,13,9.3,19.7,4.6
	c9.4-6.7,17.5-3.9,20.2,7.3c2,8.5,3.2,17.3,4.9,25.9c0.8,3.9,1.8,7.8,3.5,11.4c2.1,4.3,4.3,4.7,7.5,1.2c5-5.5,8.8-11.7,11.2-18.8
	c2.7-8-1.3-12.2-9.6-10.5C56.5,21.4,55.7,21.5,54.5,21.7z"/>
</svg>
