<?xml version="1.0" encoding="utf-8"?>
<!-- Generator: Adobe Illustrator 17.1.0, SVG Export Plug-In . SVG Version: 6.00 Build 0)  -->
<!DOCTYPE svg PUBLIC "-//W3C//DTD SVG 1.1//EN" "http://www.w3.org/Graphics/SVG/1.1/DTD/svg11.dtd">
<svg version="1.1" id="Слой_1" xmlns="http://www.w3.org/2000/svg" xmlns:xlink="http://www.w3.org/1999/xlink" x="0px" y="0px"
	 viewBox="0 0 87.3 95" enable-background="new 0 0 87.3 95" xml:space="preserve">
<g>
	<path fill="#23475F" d="M83.3,50.1c3-0.1,4.1,0.7,4,3.9c-0.2,12.6-0.1,25.3,0,37.9c0,2.6-0.3,3.6-3.4,2.9c-14-3-28.2-5.7-42.3-8.3
		c-3.9-0.7-6-2-5.7-6.7c0.5-8.8,0.3-17.6,0.1-26.4c-0.1-2.9,0.8-3.8,3.7-3.8c7.3,0.2,14.7,0.1,22,0.1"/>
	<path fill="#23475F" d="M61.4,45.2c-7.4,0-14.7-0.1-22,0c-2.4,0-3.4-0.6-3.4-3.2c0.1-9.7,0.2-19.4,0-29.1c-0.1-2.8,1.3-3.5,3.5-4
		c10.7-2.1,21.3-4.2,32-6.3c4-0.8,8.1-1.5,12.1-2.5c2.9-0.7,3.9,0.1,3.9,3.2c-0.1,12.6-0.2,25.3,0,37.9c0,3.1-1.2,3.7-3.9,3.6"/>
	<path fill="#23475F" d="M31.5,28.1c0,4.5-0.1,9.1,0,13.6c0.1,2.8-0.7,4-3.7,3.9c-8.2-0.1-16.4,0-24.6,0.1C0.8,45.8,0,45.1,0,42.5
		c0.1-7.6,0.1-15.2,0-22.9c0-1.9,0.4-3,2.4-3.4c8.8-1.6,17.5-3.3,26.3-5.1c2.2-0.5,2.9,0.2,2.8,2.4C31.5,18.4,31.5,23.2,31.5,28.1z"
		/>
	<path fill="#23475F" d="M31.5,66.9c0,4.7-0.1,9.4,0,14.1c0.1,2.3-0.8,3.2-3.1,2.8C19.7,82,11,80.2,2.2,78.6c-2-0.4-2.2-1.5-2.2-3.1
		c0-7.8,0.1-15.5,0-23.3c0-2.5,1.1-2.9,3.2-2.8c8.4,0.1,16.7,0.2,25.1,0.2c2.5,0,3.4,0.9,3.3,3.3C31.5,57.6,31.5,62.3,31.5,66.9z"/>
</g>
</svg>
