<?xml version="1.0" encoding="utf-8"?>
<!-- Generator: Adobe Illustrator 17.1.0, SVG Export Plug-In . SVG Version: 6.00 Build 0)  -->
<!DOCTYPE svg PUBLIC "-//W3C//DTD SVG 1.1//EN" "http://www.w3.org/Graphics/SVG/1.1/DTD/svg11.dtd">
<svg version="1.1" id="Слой_1" xmlns="http://www.w3.org/2000/svg" xmlns:xlink="http://www.w3.org/1999/xlink" x="0px" y="0px"
	 viewBox="0 0 35 35" enable-background="new 0 0 35 35" xml:space="preserve">
<g>
	<g>
		<path fill="#FFFFFF" d="M29.9,19.7c0.3,0.6,0.6,1.3,0.6,2.1c0,2.4-1.9,4.3-4.3,4.3c-1.3,0-2.4-0.6-3.2-1.5c0,0.8,0.2,1.6,0.5,2
			c0.1,0.1,1.1,2,3.2,2c0.5,0,1.1-0.1,1.7-0.4c3.8-1.5,3.3-5.7,3.3-6.1C31.5,21.9,31.2,20.5,29.9,19.7z"/>
		<path fill="#FFFFFF" d="M33.2,19L33.2,19l-0.4-0.3c0,0-0.1-0.1-0.1-0.1L28.9,16c0,0,0,0,0,0l0,0l0,0c-1.2-0.8-2.7-1.2-4.9-1.2
			c-4.1,0-7.4,4.8-7.4,7.1c0,2.3,0.8,4.2,2.4,5.5l0,0l0.3,0.2c0,0,0.1,0.1,0.1,0.1l3.8,2.7l0,0c1.2,0.8,2.7,1.3,4.7,1.3
			c2.6,0,6.8-2.3,7-7C35,21.5,34.9,20.9,33.2,19z M28.6,29.1c-0.7,0.3-1.4,0.4-2,0.4c-2.7,0-3.9-2.4-3.9-2.5
			c-0.5-0.8-0.7-2.2-0.5-3.7c0.2-1.4,0.7-2.8,1.8-3.8c1.1-1,2.6-1.2,3.6-1.2c0.5,0,0.9,0.1,0.9,0.1c0.1,0,0.3,0,0.4,0.1
			c2.2,0.3,3.3,2.1,3.5,3.6C32.5,22.6,32.9,27.3,28.6,29.1z"/>
	</g>
	<path fill="#FFFFFF" d="M32.1,12.6c-0.2-3.8-0.2-3.7-1.7-5.4c-1.7-2-4.5-1.3-4.5-1.3l-3.4,0.4V5.1c0-0.3-0.3-0.6-0.6-0.6l-6.7,0.7
		c-0.3,0-0.5,0.3-0.5,0.6v1.4C12,7.5,8.5,7.9,5.9,8.4c-4.8,0.8-4.6,3.8-4.6,3.8l-0.1,5.3c0,0-0.1,4.3,0.3,8.2
		c0.4,3.8,8.2,1.1,8.2,1.1l7.1-1.4c-0.8-1.2-1.2-2.7-1.2-4.3c0-2.4,3.4-7.3,7.6-7.3c2.2,0,3.5,0.2,4.6,0.9l0.4,0.3l0,0c0,0,0,0,0,0
		l4,2.7C32.4,16.7,32.2,14.2,32.1,12.6z M21.3,10.3L19,10.7c-0.3,0.1-0.6-0.2-0.6-0.5V9.3c0-0.3,0.2-0.5,0.4-0.5l2.3-0.4
		c0.3-0.1,0.6,0.2,0.6,0.5v0.9C21.7,10,21.5,10.3,21.3,10.3z"/>
</g>
</svg>
