<?xml version="1.0" encoding="utf-8"?>
<!-- Generator: Adobe Illustrator 17.1.0, SVG Export Plug-In . SVG Version: 6.00 Build 0)  -->
<!DOCTYPE svg PUBLIC "-//W3C//DTD SVG 1.1//EN" "http://www.w3.org/Graphics/SVG/1.1/DTD/svg11.dtd">
<svg version="1.1" id="Слой_1" xmlns="http://www.w3.org/2000/svg" xmlns:xlink="http://www.w3.org/1999/xlink" x="0px" y="0px"
	 viewBox="0 0 16 16" enable-background="new 0 0 16 16" xml:space="preserve">
<g id="Email">
	<g>
		<path fill="#FFFFFF" d="M15.4,3.6c0-0.1,0-0.2-0.1-0.3L9.3,8.1l6,4.6c0.1-0.1,0.1-0.3,0.1-0.4V3.6z"/>
		<path fill="#FFFFFF" d="M7.6,8.2c0.2,0.2,0.5,0.2,0.8,0L15,3c-0.1-0.1-0.2-0.1-0.4-0.1H1.4C1.2,2.9,1.1,2.9,1,3L7.6,8.2z"/>
		<path fill="#FFFFFF" d="M0.7,3.4c0,0.1-0.1,0.2-0.1,0.3v8.7c0,0.2,0.1,0.3,0.1,0.4l6-4.6L0.7,3.4z"/>
		<path fill="#FFFFFF" d="M8.9,8.5L8.7,8.6C8.5,8.8,8.2,8.8,8,8.8S7.5,8.8,7.3,8.6L7.2,8.5l-6,4.6c0.1,0,0.1,0,0.2,0h13.3
			c0.1,0,0.1,0,0.2,0L8.9,8.5z"/>
	</g>
</g>
</svg>
