<?xml version="1.0" encoding="utf-8"?>
<!-- Generator: Adobe Illustrator 17.1.0, SVG Export Plug-In . SVG Version: 6.00 Build 0)  -->
<!DOCTYPE svg PUBLIC "-//W3C//DTD SVG 1.1//EN" "http://www.w3.org/Graphics/SVG/1.1/DTD/svg11.dtd">
<svg version="1.1" id="Слой_1" xmlns="http://www.w3.org/2000/svg" xmlns:xlink="http://www.w3.org/1999/xlink" x="0px" y="0px"
	 viewBox="0 0 11 11" enable-background="new 0 0 11 11" xml:space="preserve">
<path fill="#515451" d="M10.8,5.3L6,0.7C5.7,0.4,5.3,0.2,4.9,0.2L1.1,0C0.6,0,0.2,0.3,0.2,0.8L0,4.8c0,0.3,0.1,0.5,0.3,0.7l6,5.3
	c0.3,0.3,0.8,0.2,1.1-0.1l3.5-4.4C11.1,6,11.1,5.5,10.8,5.3z M2.1,3.2C1.5,3.3,1,2.7,1,2.1C1,1.5,1.5,1,2.1,1s1.1,0.5,1.1,1.1
	C3.2,2.7,2.8,3.2,2.1,3.2z"/>
</svg>
