<?xml version="1.0" encoding="utf-8"?>
<!-- Generator: Adobe Illustrator 17.1.0, SVG Export Plug-In . SVG Version: 6.00 Build 0)  -->
<!DOCTYPE svg PUBLIC "-//W3C//DTD SVG 1.1//EN" "http://www.w3.org/Graphics/SVG/1.1/DTD/svg11.dtd">
<svg version="1.1" id="Слой_1" xmlns="http://www.w3.org/2000/svg" xmlns:xlink="http://www.w3.org/1999/xlink" x="0px" y="0px"
	 viewBox="0 0 230 31.1" enable-background="new 0 0 230 31.1" xml:space="preserve">
<path fill="#38413C" d="M25.7,31.1h-6l-2.9-8.5C16.6,22,16.3,21.5,16,21c-0.3-0.5-0.7-0.9-1.2-1.3c-0.5-0.4-1-0.6-1.5-0.8
	c-0.6-0.2-1.1-0.3-1.8-0.3h-6v12.5H0V0h13.4c0.8,0,1.6,0,2.3,0.1s1.4,0.1,2.1,0.3c0.7,0.1,1.3,0.4,1.9,0.6c0.6,0.3,1.2,0.7,1.7,1.2
	c0.5,0.4,0.9,0.9,1.3,1.5c0.4,0.5,0.7,1.1,0.9,1.7c0.2,0.6,0.4,1.2,0.6,1.9c0.1,0.6,0.2,1.3,0.2,1.9c0,1.9-0.4,3.5-1.3,4.9
	c-0.9,1.4-2.1,2.4-3.6,3.1c1.3,1,2.3,2.6,3.1,4.8L25.7,31.1z M5.6,13.2H13c1,0,1.9-0.1,2.6-0.2c0.7-0.1,1.3-0.4,1.8-0.7
	c0.5-0.3,0.8-0.8,1-1.3c0.2-0.5,0.3-1.2,0.3-1.9c0-1.4-0.4-2.4-1.2-3c-0.8-0.6-2.1-1-3.8-1h-8V13.2z"/>
<path fill="#38413C" d="M82.6,0L70.1,31.1h-5.1L52.8,0l7.5,0.1l7.1,17.8l7.6-17.8L82.6,0z"/>
<path fill="#38413C" d="M105.8,31.1H86.6V0h18.9v6.8H94v4.8h10.2v6H94v6h11.7V31.1z"/>
<path fill="#38413C" d="M49.9,31.1H30.7V0h18.9v6.8H38.2v4.8h10.2v6H38.2v6h11.7V31.1z"/>
<path fill="#8B928E" d="M230,6.6h-7.5v24.5h-7.4V6.6h-9.3V0H230V6.6z"/>
<polyline fill="#8B928E" points="115.8,0.1 130.9,15.5 131.1,0 138.5,0 138.5,30.7 135.6,30.7 120.5,15.5 120.5,31.1 112.1,31.1 
	112.1,0 "/>
<polyline fill="#8B928E" points="179.8,0.1 195,15.5 195.2,0 202.6,0 202.6,30.7 199.7,30.7 184.5,15.5 184.5,31.1 176.2,31.1 
	176.2,0 "/>
<path fill="#8B928E" d="M165.5,31.1h8.3l-14.4-31L155.2,0l-13.5,31.1h7.9l1.8-4.4h12.2L165.5,31.1z M154,20.3l-2.4,5.9l5.8-14.2
	l3.5,8.3H154z"/>
</svg>
