<svg version="1.1" id="Слой_1" xmlns="http://www.w3.org/2000/svg" xmlns:xlink="http://www.w3.org/1999/xlink" x="0px" y="0px"
	 viewBox="0 0 426 82" enable-background="new 0 0 426 82" xml:space="preserve">
<g>
	<g>
		<path d="M47.9,57.4H36.8l-5.3-15.6c-0.4-1.1-0.9-2.1-1.5-3c-0.6-0.9-1.4-1.7-2.2-2.3c-0.8-0.7-1.8-1.2-2.8-1.6s-2.1-0.6-3.2-0.6 			H10.6v23.1H0.3V0h24.8c1.5,0,2.9,0,4.2,0.1s2.6,0.2,3.8,0.5c1.2,0.3,2.4,0.7,3.5,1.2c1.1,0.5,2.2,1.2,3.2,2.1	c0.9,0.8,1.7,1.7,2.4,2.7c0.7,1,1.2,2,1.7,3.2c0.4,1.1,0.8,2.3,1,3.5c0.2,1.2,0.3,2.4,0.3,3.6c0,3.5-0.8,6.5-2.4,9 			c-1.6,2.5-3.9,4.4-6.7,5.8c2.4,1.9,4.3,4.8,5.8,8.9L47.9,57.4z M10.6,24.5h13.7c1.8,0,3.4-0.1,4.8-0.4c1.3-0.3,2.4-0.7,3.2-1.3 s1.5-1.4,1.8-2.4c0.4-1,0.6-2.2,0.6-3.6c0-2.5-0.8-4.4-2.3-5.6C31,10,28.6,9.4,25.4,9.4H10.6V24.5z"/>
		<path d="M153,0l-23.1,57.4h-9.5L98.1,0L112,0.2l13.1,33l14.1-33L153,0z"/>
		<path d="M195.9,57.4h-35.5V0h35v12.7h-21.2v8.8h18.8v11.2h-18.8v11.2h21.7V57.4z"/>
		<path d="M92.6,57.4H57.1V0h35v12.7H70.9v8.8h18.8v11.2H70.9v11.2h21.7V57.4z"/>
		<path fill="#3EB5F1" d="M425.7,12.2h-13.9v45.3h-13.6V12.2H381V0h44.6V12.2z"/>
		<polyline fill="#3EB5F1" points="214.4,0.2 242.4,28.7 242.8,0 256.4,0 256.4,56.7 251.1,56.7 223.1,28.7 223.1,57.4 207.6,57.4 207.6,0 		"/>
		<polyline fill="#3EB5F1" points="332.9,0.2 360.9,28.7 361.3,0 374.9,0 374.9,56.7 369.6,56.7 341.6,28.7 341.6,57.4 326.1,57.4 326.1,0 		"/>
		<path fill="#3EB5F1" d="M306.4,57.4h15.3L295.1,0.2L287.4,0l-25,57.4h14.7l3.3-8.2h22.5L306.4,57.4z M285.2,37.5l-4.4,10.9 l10.7-26.3l6.5,15.4H285.2z"/>
	</g>
	<g>
		<path fill="#AEB3B1" d="M11,80.4c-1,0.5-2.3,0.8-3.8,0.8c-1.9,0-3.5-0.6-4.6-1.9c-1.2-1.2-1.7-2.9-1.7-4.9c0-2.2,0.7-3.9,2-5.3 c1.3-1.3,3-2,5-2c1.3,0,2.4,0.2,3.2,0.6v1.7c-1-0.5-2-0.8-3.2-0.8c-1.6,0-2.8,0.5-3.8,1.6c-1,1-1.5,2.4-1.5,4.2c0,1.7,0.5,3,1.4,4
			c0.9,1,2.1,1.5,3.6,1.5c1.4,0,2.5-0.3,3.5-0.9V80.4z"/>
		<path fill="#AEB3B1" d="M23.5,81h-1.9l-2.3-3.8c-0.2-0.4-0.4-0.7-0.6-0.9c-0.2-0.3-0.4-0.5-0.6-0.6c-0.2-0.2-0.4-0.3-0.7-0.3
			c-0.2-0.1-0.5-0.1-0.8-0.1h-1.3V81h-1.6V67.4h4.1c0.6,0,1.1,0.1,1.6,0.2c0.5,0.1,0.9,0.4,1.3,0.7c0.4,0.3,0.7,0.7,0.9,1.1
			s0.3,1,0.3,1.6c0,0.5-0.1,0.9-0.2,1.3c-0.1,0.4-0.3,0.7-0.6,1.1c-0.3,0.3-0.6,0.6-0.9,0.8c-0.4,0.2-0.8,0.4-1.2,0.5v0
			c0.2,0.1,0.4,0.2,0.6,0.3c0.2,0.1,0.3,0.3,0.5,0.5c0.2,0.2,0.3,0.4,0.5,0.6c0.1,0.2,0.3,0.5,0.5,0.8L23.5,81z M15.3,68.8v4.9h2.2
			c0.4,0,0.8-0.1,1.1-0.2s0.6-0.3,0.9-0.5s0.4-0.5,0.6-0.8c0.1-0.3,0.2-0.7,0.2-1.1c0-0.7-0.2-1.3-0.7-1.7c-0.5-0.4-1.2-0.6-2-0.6
			H15.3z"/>
		<path fill="#AEB3B1" d="M32.6,81h-7.2V67.4h6.9v1.4h-5.3v4.5h4.9v1.4h-4.9v4.8h5.6V81z"/>
		<path fill="#AEB3B1" d="M45.8,81H44l-1.4-3.8h-5.8L35.5,81h-1.8l5.2-13.6h1.7L45.8,81z M42.1,75.8L39.9,70
			c-0.1-0.2-0.1-0.5-0.2-0.9h0c-0.1,0.4-0.1,0.7-0.2,0.9l-2.1,5.8H42.1z"/>
		<path fill="#AEB3B1" d="M54.4,68.8h-3.9V81h-1.6V68.8H45v-1.4h9.4V68.8z"/>
		<path fill="#AEB3B1" d="M59.5,67.4v1.4h-1.3v10.9h1.3V81h-4.2v-1.4h1.3V68.8h-1.3v-1.4H59.5z"/>
		<path fill="#AEB3B1" d="M71.9,67.4l-5,13.6h-1.8l-4.9-13.6h1.8l3.8,10.8c0.1,0.3,0.2,0.8,0.3,1.2h0c0.1-0.4,0.2-0.8,0.3-1.2
			l3.8-10.8H71.9z"/>
		<path fill="#AEB3B1" d="M81,81h-7.2V67.4h6.9v1.4h-5.3v4.5h4.9v1.4h-4.9v4.8H81V81z"/>
		<path fill="#AEB3B1" d="M89,81V67.4h3.9c1.2,0,2.1,0.3,2.8,0.9c0.7,0.6,1,1.3,1,2.2c0,0.8-0.2,1.4-0.6,2c-0.4,0.6-1,1-1.7,1.2v0
			c0.9,0.1,1.7,0.5,2.2,1s0.8,1.3,0.8,2.3c0,1.2-0.4,2.1-1.3,2.8S94.2,81,92.9,81H89z M90.6,68.8v4.4h1.6c0.9,0,1.6-0.2,2.1-0.6
			c0.5-0.4,0.7-1,0.7-1.8c0-1.3-0.9-2-2.6-2H90.6z M90.6,74.7v4.9h2.2c0.9,0,1.7-0.2,2.2-0.7c0.5-0.4,0.8-1,0.8-1.8
			c0-1.6-1.1-2.4-3.3-2.4H90.6z"/>
		<path fill="#AEB3B1" d="M110,75.5c0,3.8-1.7,5.7-5.2,5.7c-3.3,0-5-1.8-5-5.5v-8.3h1.6v8.2c0,2.8,1.2,4.2,3.5,4.2
			c2.3,0,3.4-1.3,3.4-4v-8.4h1.6V75.5z"/>
		<path fill="#AEB3B1" d="M112.8,80.5v-1.9c0.2,0.2,0.5,0.4,0.8,0.5s0.6,0.3,0.9,0.4c0.3,0.1,0.7,0.2,1,0.2c0.3,0.1,0.6,0.1,0.9,0.1
			c1,0,1.7-0.2,2.2-0.5c0.5-0.4,0.7-0.9,0.7-1.6c0-0.4-0.1-0.7-0.2-1c-0.2-0.3-0.4-0.5-0.7-0.7s-0.6-0.4-1-0.6
			c-0.4-0.2-0.8-0.4-1.3-0.6c-0.5-0.2-0.9-0.5-1.3-0.7c-0.4-0.2-0.8-0.5-1.1-0.8c-0.3-0.3-0.5-0.6-0.7-1c-0.2-0.4-0.3-0.8-0.3-1.3
			c0-0.6,0.1-1.2,0.4-1.6c0.3-0.5,0.6-0.8,1.1-1.1c0.4-0.3,0.9-0.5,1.5-0.7s1.1-0.2,1.7-0.2c1.3,0,2.3,0.2,2.9,0.5v1.8
			c-0.8-0.6-1.8-0.8-3.1-0.8c-0.3,0-0.7,0-1,0.1c-0.3,0.1-0.7,0.2-0.9,0.4c-0.3,0.2-0.5,0.4-0.7,0.6c-0.2,0.3-0.3,0.6-0.3,0.9
			c0,0.3,0.1,0.6,0.2,0.9c0.1,0.3,0.3,0.5,0.6,0.7c0.3,0.2,0.6,0.4,0.9,0.6c0.4,0.2,0.8,0.4,1.3,0.6c0.5,0.2,0.9,0.5,1.4,0.8
			s0.8,0.6,1.1,0.9c0.3,0.3,0.6,0.7,0.8,1.1c0.2,0.4,0.3,0.8,0.3,1.3c0,0.7-0.1,1.2-0.4,1.7c-0.3,0.5-0.6,0.8-1.1,1.1
			s-1,0.5-1.5,0.6c-0.6,0.1-1.2,0.2-1.8,0.2c-0.2,0-0.5,0-0.8-0.1c-0.3,0-0.6-0.1-1-0.2s-0.6-0.1-0.9-0.2
			C113.2,80.7,113,80.6,112.8,80.5z"/>
		<path fill="#AEB3B1" d="M126.7,67.4v1.4h-1.3v10.9h1.3V81h-4.2v-1.4h1.3V68.8h-1.3v-1.4H126.7z"/>
		<path fill="#AEB3B1" d="M139.9,81h-2l-7-10.8c-0.2-0.3-0.3-0.6-0.4-0.9h-0.1c0.1,0.3,0.1,0.9,0.1,1.9V81h-1.6V67.4h2.1l6.8,10.7
			c0.3,0.4,0.5,0.7,0.5,0.9h0c-0.1-0.4-0.1-1.1-0.1-2v-9.6h1.6V81z"/>
		<path fill="#AEB3B1" d="M150.7,81h-7.2V67.4h6.9v1.4h-5.3v4.5h4.9v1.4h-4.9v4.8h5.6V81z"/>
		<path fill="#AEB3B1" d="M152.7,80.5v-1.9c0.2,0.2,0.5,0.4,0.8,0.5s0.6,0.3,0.9,0.4c0.3,0.1,0.7,0.2,1,0.2c0.3,0.1,0.6,0.1,0.9,0.1
			c1,0,1.7-0.2,2.2-0.5c0.5-0.4,0.7-0.9,0.7-1.6c0-0.4-0.1-0.7-0.2-1c-0.2-0.3-0.4-0.5-0.7-0.7s-0.6-0.4-1-0.6
			c-0.4-0.2-0.8-0.4-1.3-0.6c-0.5-0.2-0.9-0.5-1.3-0.7c-0.4-0.2-0.8-0.5-1.1-0.8c-0.3-0.3-0.5-0.6-0.7-1c-0.2-0.4-0.3-0.8-0.3-1.3
			c0-0.6,0.1-1.2,0.4-1.6c0.3-0.5,0.6-0.8,1.1-1.1c0.4-0.3,0.9-0.5,1.5-0.7s1.1-0.2,1.7-0.2c1.3,0,2.3,0.2,2.9,0.5v1.8
			c-0.8-0.6-1.8-0.8-3.1-0.8c-0.3,0-0.7,0-1,0.1c-0.3,0.1-0.7,0.2-0.9,0.4c-0.3,0.2-0.5,0.4-0.7,0.6c-0.2,0.3-0.3,0.6-0.3,0.9
			c0,0.3,0.1,0.6,0.2,0.9c0.1,0.3,0.3,0.5,0.6,0.7c0.3,0.2,0.6,0.4,0.9,0.6c0.4,0.2,0.8,0.4,1.3,0.6c0.5,0.2,0.9,0.5,1.4,0.8
			s0.8,0.6,1.1,0.9c0.3,0.3,0.6,0.7,0.8,1.1c0.2,0.4,0.3,0.8,0.3,1.3c0,0.7-0.1,1.2-0.4,1.7c-0.3,0.5-0.6,0.8-1.1,1.1
			s-1,0.5-1.5,0.6c-0.6,0.1-1.2,0.2-1.8,0.2c-0.2,0-0.5,0-0.8-0.1c-0.3,0-0.6-0.1-1-0.2s-0.6-0.1-0.9-0.2
			C153.1,80.7,152.8,80.6,152.7,80.5z"/>
		<path fill="#AEB3B1" d="M163,80.5v-1.9c0.2,0.2,0.5,0.4,0.8,0.5s0.6,0.3,0.9,0.4c0.3,0.1,0.7,0.2,1,0.2c0.3,0.1,0.6,0.1,0.9,0.1
			c1,0,1.7-0.2,2.2-0.5c0.5-0.4,0.7-0.9,0.7-1.6c0-0.4-0.1-0.7-0.2-1c-0.2-0.3-0.4-0.5-0.7-0.7s-0.6-0.4-1-0.6
			c-0.4-0.2-0.8-0.4-1.3-0.6c-0.5-0.2-0.9-0.5-1.3-0.7c-0.4-0.2-0.8-0.5-1.1-0.8c-0.3-0.3-0.5-0.6-0.7-1c-0.2-0.4-0.3-0.8-0.3-1.3
			c0-0.6,0.1-1.2,0.4-1.6c0.3-0.5,0.6-0.8,1.1-1.1c0.4-0.3,0.9-0.5,1.5-0.7s1.1-0.2,1.7-0.2c1.3,0,2.3,0.2,2.9,0.5v1.8
			c-0.8-0.6-1.8-0.8-3.1-0.8c-0.3,0-0.7,0-1,0.1c-0.3,0.1-0.7,0.2-0.9,0.4c-0.3,0.2-0.5,0.4-0.7,0.6c-0.2,0.3-0.3,0.6-0.3,0.9
			c0,0.3,0.1,0.6,0.2,0.9c0.1,0.3,0.3,0.5,0.6,0.7c0.3,0.2,0.6,0.4,0.9,0.6c0.4,0.2,0.8,0.4,1.3,0.6c0.5,0.2,0.9,0.5,1.4,0.8
			s0.8,0.6,1.1,0.9c0.3,0.3,0.6,0.7,0.8,1.1c0.2,0.4,0.3,0.8,0.3,1.3c0,0.7-0.1,1.2-0.4,1.7c-0.3,0.5-0.6,0.8-1.1,1.1
			s-1,0.5-1.5,0.6c-0.6,0.1-1.2,0.2-1.8,0.2c-0.2,0-0.5,0-0.8-0.1c-0.3,0-0.6-0.1-1-0.2s-0.6-0.1-0.9-0.2
			C163.4,80.7,163.2,80.6,163,80.5z"/>
		<path fill="#AEB3B1" d="M187.3,68.8h-3.9V81h-1.6V68.8h-3.9v-1.4h9.4V68.8z"/>
		<path fill="#AEB3B1" d="M199.7,81h-1.6v-6.2h-7V81h-1.6V67.4h1.6v6h7v-6h1.6V81z"/>
		<path fill="#AEB3B1" d="M210.4,81h-7.2V67.4h6.9v1.4h-5.3v4.5h4.9v1.4h-4.9v4.8h5.6V81z"/>
		<path fill="#AEB3B1" d="M226.9,81h-1.6v-9.1c0-0.7,0-1.6,0.1-2.6h0c-0.2,0.6-0.3,1.1-0.4,1.3L220.4,81h-0.8L215,70.6
			c-0.1-0.3-0.3-0.8-0.4-1.4h0c0.1,0.5,0.1,1.4,0.1,2.7V81H213V67.4h2.1l4.2,9.5c0.3,0.7,0.5,1.3,0.6,1.6h0.1
			c0.3-0.7,0.5-1.3,0.7-1.7l4.3-9.4h2V81z"/>
		<path fill="#AEB3B1" d="M237.7,81h-7.2V67.4h6.9v1.4h-5.3v4.5h4.9v1.4h-4.9v4.8h5.6V81z"/>
		<path fill="#AEB3B1" d="M252.5,68.8h-5.3v4.7h4.9V75h-4.9v6h-1.6V67.4h6.9V68.8z"/>
		<path fill="#AEB3B1" d="M260.6,81.2c-1.9,0-3.5-0.6-4.6-1.9c-1.2-1.3-1.7-2.9-1.7-5c0-2.2,0.6-3.9,1.8-5.2s2.8-2,4.8-2
			c1.9,0,3.4,0.6,4.5,1.9s1.7,2.9,1.7,5c0,2.2-0.6,4-1.8,5.3C264.2,80.6,262.6,81.2,260.6,81.2z M260.7,68.6c-1.4,0-2.6,0.5-3.5,1.5
			c-0.9,1-1.3,2.4-1.3,4.1s0.4,3,1.3,4s2,1.5,3.4,1.5c1.5,0,2.7-0.5,3.5-1.5c0.9-1,1.3-2.3,1.3-4.1c0-1.8-0.4-3.2-1.3-4.2
			C263.3,69.1,262.2,68.6,260.7,68.6z"/>
		<path fill="#AEB3B1" d="M279.5,81h-1.9l-2.3-3.8c-0.2-0.4-0.4-0.7-0.6-0.9c-0.2-0.3-0.4-0.5-0.6-0.6c-0.2-0.2-0.4-0.3-0.7-0.3
			c-0.2-0.1-0.5-0.1-0.8-0.1h-1.3V81h-1.6V67.4h4.1c0.6,0,1.1,0.1,1.6,0.2c0.5,0.1,0.9,0.4,1.3,0.7s0.7,0.7,0.9,1.1
			c0.2,0.5,0.3,1,0.3,1.6c0,0.5-0.1,0.9-0.2,1.3c-0.1,0.4-0.3,0.7-0.6,1.1c-0.3,0.3-0.6,0.6-0.9,0.8c-0.4,0.2-0.8,0.4-1.2,0.5v0
			c0.2,0.1,0.4,0.2,0.6,0.3c0.2,0.1,0.3,0.3,0.5,0.5c0.2,0.2,0.3,0.4,0.5,0.6c0.1,0.2,0.3,0.5,0.5,0.8L279.5,81z M271.4,68.8v4.9
			h2.2c0.4,0,0.8-0.1,1.1-0.2c0.3-0.1,0.6-0.3,0.9-0.5c0.2-0.2,0.4-0.5,0.6-0.8c0.1-0.3,0.2-0.7,0.2-1.1c0-0.7-0.2-1.3-0.7-1.7
			c-0.5-0.4-1.2-0.6-2-0.6H271.4z"/>
		<path fill="#AEB3B1" d="M296,80.4c-1,0.5-2.3,0.8-3.8,0.8c-1.9,0-3.5-0.6-4.6-1.9c-1.2-1.2-1.7-2.9-1.7-4.9c0-2.2,0.7-3.9,2-5.3
			c1.3-1.3,3-2,5-2c1.3,0,2.4,0.2,3.2,0.6v1.7c-1-0.5-2-0.8-3.2-0.8c-1.6,0-2.8,0.5-3.8,1.6c-1,1-1.5,2.4-1.5,4.2c0,1.7,0.5,3,1.4,4
			s2.1,1.5,3.6,1.5c1.4,0,2.5-0.3,3.5-0.9V80.4z"/>
		<path fill="#AEB3B1" d="M304,81.2c-1.9,0-3.5-0.6-4.6-1.9c-1.2-1.3-1.7-2.9-1.7-5c0-2.2,0.6-3.9,1.8-5.2s2.8-2,4.8-2
			c1.9,0,3.4,0.6,4.5,1.9s1.7,2.9,1.7,5c0,2.2-0.6,4-1.8,5.3C307.5,80.6,305.9,81.2,304,81.2z M304.1,68.6c-1.4,0-2.6,0.5-3.5,1.5
			c-0.9,1-1.3,2.4-1.3,4.1s0.4,3,1.3,4s2,1.5,3.4,1.5c1.5,0,2.7-0.5,3.5-1.5c0.9-1,1.3-2.3,1.3-4.1c0-1.8-0.4-3.2-1.3-4.2
			C306.7,69.1,305.5,68.6,304.1,68.6z"/>
		<path fill="#AEB3B1" d="M322.9,81H321l-2.3-3.8c-0.2-0.4-0.4-0.7-0.6-0.9c-0.2-0.3-0.4-0.5-0.6-0.6c-0.2-0.2-0.4-0.3-0.7-0.3
			c-0.2-0.1-0.5-0.1-0.8-0.1h-1.3V81h-1.6V67.4h4.1c0.6,0,1.1,0.1,1.6,0.2c0.5,0.1,0.9,0.4,1.3,0.7s0.7,0.7,0.9,1.1
			c0.2,0.5,0.3,1,0.3,1.6c0,0.5-0.1,0.9-0.2,1.3c-0.1,0.4-0.3,0.7-0.6,1.1c-0.3,0.3-0.6,0.6-0.9,0.8c-0.4,0.2-0.8,0.4-1.2,0.5v0
			c0.2,0.1,0.4,0.2,0.6,0.3c0.2,0.1,0.3,0.3,0.5,0.5c0.2,0.2,0.3,0.4,0.5,0.6c0.1,0.2,0.3,0.5,0.5,0.8L322.9,81z M314.7,68.8v4.9
			h2.2c0.4,0,0.8-0.1,1.1-0.2c0.3-0.1,0.6-0.3,0.9-0.5c0.2-0.2,0.4-0.5,0.6-0.8c0.1-0.3,0.2-0.7,0.2-1.1c0-0.7-0.2-1.3-0.7-1.7
			c-0.5-0.4-1.2-0.6-2-0.6H314.7z"/>
		<path fill="#AEB3B1" d="M326.3,75.9V81h-1.6V67.4h3.7c1.5,0,2.6,0.4,3.4,1.1c0.8,0.7,1.2,1.7,1.2,3s-0.4,2.3-1.3,3.2
			c-0.9,0.8-2.1,1.2-3.6,1.2H326.3z M326.3,68.8v5.6h1.7c1.1,0,1.9-0.3,2.5-0.8c0.6-0.5,0.9-1.2,0.9-2.1c0-1.8-1.1-2.7-3.2-2.7
			H326.3z"/>
		<path fill="#AEB3B1" d="M341.1,81.2c-1.9,0-3.5-0.6-4.6-1.9c-1.2-1.3-1.7-2.9-1.7-5c0-2.2,0.6-3.9,1.8-5.2s2.8-2,4.8-2
			c1.9,0,3.4,0.6,4.5,1.9s1.7,2.9,1.7,5c0,2.2-0.6,4-1.8,5.3C344.7,80.6,343.1,81.2,341.1,81.2z M341.2,68.6c-1.4,0-2.6,0.5-3.5,1.5
			c-0.9,1-1.3,2.4-1.3,4.1s0.4,3,1.3,4s2,1.5,3.4,1.5c1.5,0,2.7-0.5,3.5-1.5c0.9-1,1.3-2.3,1.3-4.1c0-1.8-0.4-3.2-1.3-4.2
			C343.8,69.1,342.7,68.6,341.2,68.6z"/>
		<path fill="#AEB3B1" d="M360,81h-1.9l-2.3-3.8c-0.2-0.4-0.4-0.7-0.6-0.9c-0.2-0.3-0.4-0.5-0.6-0.6c-0.2-0.2-0.4-0.3-0.7-0.3
			c-0.2-0.1-0.5-0.1-0.8-0.1h-1.3V81h-1.6V67.4h4.1c0.6,0,1.1,0.1,1.6,0.2c0.5,0.1,0.9,0.4,1.3,0.7s0.7,0.7,0.9,1.1
			c0.2,0.5,0.3,1,0.3,1.6c0,0.5-0.1,0.9-0.2,1.3c-0.1,0.4-0.3,0.7-0.6,1.1c-0.3,0.3-0.6,0.6-0.9,0.8c-0.4,0.2-0.8,0.4-1.2,0.5v0
			c0.2,0.1,0.4,0.2,0.6,0.3c0.2,0.1,0.3,0.3,0.5,0.5c0.2,0.2,0.3,0.4,0.5,0.6c0.1,0.2,0.3,0.5,0.5,0.8L360,81z M351.9,68.8v4.9h2.2
			c0.4,0,0.8-0.1,1.1-0.2c0.3-0.1,0.6-0.3,0.9-0.5c0.2-0.2,0.4-0.5,0.6-0.8c0.1-0.3,0.2-0.7,0.2-1.1c0-0.7-0.2-1.3-0.7-1.7
			c-0.5-0.4-1.2-0.6-2-0.6H351.9z"/>
		<path fill="#AEB3B1" d="M372.4,81h-1.8l-1.4-3.8h-5.8l-1.4,3.8h-1.8l5.2-13.6h1.7L372.4,81z M368.7,75.8l-2.1-5.8
			c-0.1-0.2-0.1-0.5-0.2-0.9h0c-0.1,0.4-0.1,0.7-0.2,0.9l-2.1,5.8H368.7z"/>
		<path fill="#AEB3B1" d="M381.1,68.8h-3.9V81h-1.6V68.8h-3.9v-1.4h9.4V68.8z"/>
		<path fill="#AEB3B1" d="M386.1,67.4v1.4h-1.3v10.9h1.3V81h-4.3v-1.4h1.3V68.8h-1.3v-1.4H386.1z"/>
		<path fill="#AEB3B1" d="M393.9,81.2c-1.9,0-3.5-0.6-4.6-1.9c-1.2-1.3-1.7-2.9-1.7-5c0-2.2,0.6-3.9,1.8-5.2s2.8-2,4.8-2
			c1.9,0,3.4,0.6,4.5,1.9s1.7,2.9,1.7,5c0,2.2-0.6,4-1.8,5.3C397.4,80.6,395.8,81.2,393.9,81.2z M394,68.6c-1.4,0-2.6,0.5-3.5,1.5
			c-0.9,1-1.3,2.4-1.3,4.1s0.4,3,1.3,4s2,1.5,3.4,1.5c1.5,0,2.7-0.5,3.5-1.5c0.9-1,1.3-2.3,1.3-4.1c0-1.8-0.4-3.2-1.3-4.2
			C396.6,69.1,395.4,68.6,394,68.6z"/>
		<path fill="#AEB3B1" d="M414,81h-2l-7-10.8c-0.2-0.3-0.3-0.6-0.4-0.9h-0.1c0.1,0.3,0.1,0.9,0.1,1.9V81H403V67.4h2.1l6.8,10.7
			c0.3,0.4,0.5,0.7,0.6,0.9h0c-0.1-0.4-0.1-1.1-0.1-2v-9.6h1.6V81z"/>
		<path fill="#AEB3B1" d="M416.9,80.5v-1.9c0.2,0.2,0.5,0.4,0.8,0.5c0.3,0.2,0.6,0.3,0.9,0.4c0.3,0.1,0.7,0.2,1,0.2s0.6,0.1,0.9,0.1
			c1,0,1.7-0.2,2.2-0.5c0.5-0.4,0.7-0.9,0.7-1.6c0-0.4-0.1-0.7-0.2-1c-0.2-0.3-0.4-0.5-0.7-0.7s-0.6-0.4-1-0.6
			c-0.4-0.2-0.8-0.4-1.3-0.6c-0.5-0.2-0.9-0.5-1.3-0.7c-0.4-0.2-0.8-0.5-1.1-0.8s-0.5-0.6-0.7-1c-0.2-0.4-0.3-0.8-0.3-1.3
			c0-0.6,0.1-1.2,0.4-1.6c0.3-0.5,0.6-0.8,1.1-1.1c0.4-0.3,0.9-0.5,1.5-0.7c0.6-0.1,1.1-0.2,1.7-0.2c1.3,0,2.3,0.2,2.9,0.5v1.8
			c-0.8-0.6-1.8-0.8-3.1-0.8c-0.3,0-0.7,0-1,0.1c-0.3,0.1-0.7,0.2-0.9,0.4c-0.3,0.2-0.5,0.4-0.7,0.6c-0.2,0.3-0.3,0.6-0.3,0.9
			c0,0.3,0.1,0.6,0.2,0.9c0.1,0.3,0.3,0.5,0.6,0.7c0.3,0.2,0.6,0.4,0.9,0.6c0.4,0.2,0.8,0.4,1.3,0.6c0.5,0.2,0.9,0.5,1.4,0.8
			s0.8,0.6,1.1,0.9c0.3,0.3,0.6,0.7,0.8,1.1c0.2,0.4,0.3,0.8,0.3,1.3c0,0.7-0.1,1.2-0.4,1.7c-0.3,0.5-0.6,0.8-1.1,1.1
			c-0.4,0.3-1,0.5-1.5,0.6c-0.6,0.1-1.2,0.2-1.8,0.2c-0.2,0-0.5,0-0.8-0.1c-0.3,0-0.6-0.1-1-0.2c-0.3-0.1-0.6-0.1-0.9-0.2
			C417.3,80.7,417.1,80.6,416.9,80.5z"/>
	</g>
</g>
</svg>
