<?xml version="1.0" encoding="utf-8"?>
<!-- Generator: Adobe Illustrator 17.1.0, SVG Export Plug-In . SVG Version: 6.00 Build 0)  -->
<!DOCTYPE svg PUBLIC "-//W3C//DTD SVG 1.1//EN" "http://www.w3.org/Graphics/SVG/1.1/DTD/svg11.dtd">
<svg version="1.1" id="Слой_1" xmlns="http://www.w3.org/2000/svg" xmlns:xlink="http://www.w3.org/1999/xlink" x="0px" y="0px"
	 viewBox="0 0 28 28" enable-background="new 0 0 28 28" xml:space="preserve">
<g id="Search">
	<g>
		<polygon fill="#40B4E9" points="15,17.4 20,22.9 22.6,20.5 17.7,15 		"/>
		<path fill="#40B4E9" d="M14.2,17.1c0.1,0,0.3-0.1,0.4-0.2c2.2-1.5,3.1-3.6,3.1-5.5c0-3.8-3.6-7.2-8.6-5.7C9,5.7,8.8,5.8,8.7,5.9
			c-2.2,1.5-3.1,3.6-3.1,5.5C5.6,15.2,9.2,18.6,14.2,17.1z M7.5,10l1-1.6c1.3-1.3,3.1-1.7,4.6-1.1c1.8,0.6,3,2.3,3,4.2
			c0,0.5-0.1,1-0.2,1.4c-0.4,1.1-1.2,2-2.2,2.5c-1.1,0.5-2.3,0.6-3.4,0.2c-1.8-0.6-3-2.3-3-4.2C7.2,10.9,7.3,10.4,7.5,10z"/>
	</g>
</g>
</svg>
