<?xml version="1.0" encoding="utf-8"?>
<!-- Generator: Adobe Illustrator 17.1.0, SVG Export Plug-In . SVG Version: 6.00 Build 0)  -->
<!DOCTYPE svg PUBLIC "-//W3C//DTD SVG 1.1//EN" "http://www.w3.org/Graphics/SVG/1.1/DTD/svg11.dtd">
<svg version="1.1" id="Слой_1" xmlns="http://www.w3.org/2000/svg" xmlns:xlink="http://www.w3.org/1999/xlink" x="0px" y="0px"
	 viewBox="0 0 74 74" enable-background="new 0 0 74 74" xml:space="preserve">
<path fill="#FFFFFF" d="M62.1,46.6c-5.2,8.9-19.1,15.9-30.2,6.3c-2.1,7-2.9,14.3-7.2,20.5c-2.2-0.6-4.3-1.4-6.3-2.4
	c0.2-0.2,0.3-0.6,0.3-1.2c0.1-8.3,2.9-16.2,4.7-24.2c1-4.5,2.1-8.8,0.8-13.6c-1.1-4.1,0.1-8.1,3-11.3c2.1-2.3,4.7-3.5,7.8-2.2
	c3.1,1.3,4.3,3.8,4,7c-0.1,1.5-0.4,3-0.8,4.4c-1,3.6-2.2,7.1-3.2,10.7c-1.3,4.6,1.8,8.8,6.6,8.9s7.9-2.5,10.1-6.2
	c3.9-6.4,5-13.4,4.1-20.8C55,15.8,51,11.6,44.7,9.6c-4-1.3-8.3-1.2-12.4-0.4c-13.9,2.7-20.7,17.7-13.6,30c1.5,2.5,0.1,5-1.3,6.6
	c-1.2,1.4-3.2-0.2-4.5-1.3c-6.1-4.8-8.4-15.7-5-24C13,7.8,24,0.6,38.2,0.6c12.6,0,22.6,4.9,27.5,17C69.6,27.6,67.5,37.5,62.1,46.6z"
	/>
</svg>
