<?xml version="1.0" encoding="utf-8"?>
<!-- Generator: Adobe Illustrator 17.1.0, SVG Export Plug-In . SVG Version: 6.00 Build 0)  -->
<!DOCTYPE svg PUBLIC "-//W3C//DTD SVG 1.1//EN" "http://www.w3.org/Graphics/SVG/1.1/DTD/svg11.dtd">
<svg version="1.1" id="Слой_1" xmlns="http://www.w3.org/2000/svg" xmlns:xlink="http://www.w3.org/1999/xlink" x="0px" y="0px"
	 viewBox="0 0 102.2 102.2" enable-background="new 0 0 102.2 102.2" xml:space="preserve">
<path fill="#FFFFFF" d="M99.1,21.7c-1,2.8-3.3,4.4-5.4,6.1c-1.7,1.4-2.4,2.8-2.5,5.1c-0.6,44.4-46.3,71.3-85.4,50.3
	c1.1-0.9,2.5-0.8,3.8-0.9c7.2-0.3,13.7-2.7,19.7-6.5c1-0.6,2.6-1.2,2.4-2.6c-0.2-1.2-1.9-0.9-2.9-1.1c-6.9-1.6-11.9-5.4-14.4-12.3
	c2.6-0.4,5.1,0.5,7.7-1.6C13.2,55,7.5,49.4,6.8,39.5c2.7,0.3,5,2,8.3,1.2c-7.9-7.5-10.4-16.1-6-26.6c5.8,6.6,12,11.7,19.4,15.3
	c6.2,3.1,12.8,5,19.7,5.7c2.7,0.3,3.5-0.6,3.3-3.3C51,23.3,54,16.5,61.8,12.6c8-4,15.8-3.1,22.8,2.5c1.5,1.2,2.7,1.5,4.4,0.9
	c2.7-1,5.4-1.9,8.4-3c-0.4,3.2-2.5,5.1-4.4,7c-0.6,0.6-2.2,0.8-1.4,2.1c0.7,1.1,1.8,0.2,2.7,0.1C95.9,22.2,97.3,21,99.1,21.7z"/>
</svg>
