<?xml version="1.0" encoding="utf-8"?>
<!-- Generator: Adobe Illustrator 17.1.0, SVG Export Plug-In . SVG Version: 6.00 Build 0)  -->
<!DOCTYPE svg PUBLIC "-//W3C//DTD SVG 1.1//EN" "http://www.w3.org/Graphics/SVG/1.1/DTD/svg11.dtd">
<svg version="1.1" id="Слой_1" xmlns="http://www.w3.org/2000/svg" xmlns:xlink="http://www.w3.org/1999/xlink" x="0px" y="0px"
	 viewBox="0 0 94.7 94.7" enable-background="new 0 0 94.7 94.7" xml:space="preserve">
<path fill="#FFFFFF" d="M35.8,67.1c0-5.8-0.2-11.7,0.1-17.5c0.1-3.1-0.9-4.3-3.9-3.8c-4.2,0.7-5.8-1.1-5.1-5.2
	c0.2-1.1,0.2-2.3,0-3.5c-0.5-3.4,1-4.7,4.2-4.1c4.1,0.7,5.4-1.1,4.8-4.9c-0.1-0.7,0-1.3,0-2C34.6,9.7,43.6,3.6,59.1,5.4
	c8.7,1,10.9,5.1,6.9,13c-0.6,1.2-1.2,1.4-2.3,1.2c-1.5-0.3-3-0.6-4.4-0.6c-5.2-0.1-6.9,1.5-6.9,6.7c0,9-0.7,7.2,6.8,7.4
	c6.9,0.1,6.5,0,6.6,6.8c0.1,5.2-1.8,6.9-6.7,6.1c-1-0.2-2,0.1-3,0c-3.1-0.4-3.9,1-3.9,3.9c0.1,11.8,0,23.7,0.1,35.5
	c0,3.2-0.8,4.3-4.2,4.3c-12.4,0.1-12.4,0.2-12.4-11.9C35.8,74.1,35.8,70.6,35.8,67.1z"/>
</svg>
