<?xml version="1.0" encoding="utf-8"?>
<!-- Generator: Adobe Illustrator 17.1.0, SVG Export Plug-In . SVG Version: 6.00 Build 0)  -->
<!DOCTYPE svg PUBLIC "-//W3C//DTD SVG 1.1//EN" "http://www.w3.org/Graphics/SVG/1.1/DTD/svg11.dtd">
<svg version="1.1" id="Слой_1" xmlns="http://www.w3.org/2000/svg" xmlns:xlink="http://www.w3.org/1999/xlink" x="0px" y="0px"
	 viewBox="0 0 70 70" enable-background="new 0 0 70 70" xml:space="preserve">
<path fill="#FFFFFF" d="M3.1,9.1c0,1.1,0.1,2.3,0,3.4C2.7,15.1,3.6,16,6.4,16c3.8-0.1,7.5,0.8,11.1,1.8c21.1,5.8,33.1,23,36.4,40.5
	c0.5,2.8-0.6,6.6,1.4,8.1c1.9,1.4,5.5,0.2,8.3,0.5c3,0.3,3.5-1,3.4-3.6C66.3,46,59.3,31.5,47.1,19.7C36.8,9.6,23.8,5,9.7,3.4
	C3.1,2.6,3.1,2.6,3.1,9.1z M39.2,66.7c0.8,0,1.6,0,2.4,0c4,0,4.1,0,3.7-4.1c-0.7-8.6-4.1-16.1-9.2-22.9C28.4,29.1,17,25.5,4.6,24.1
	c-1.4-0.2-1.5,0.6-1.5,1.6c0,2.9,0.1,5.7,0,8.6c-0.1,2.2,0.4,2.9,2.8,3.1c13.8,1.1,24,10.2,26.4,23.5C33.4,66.7,33.4,66.7,39.2,66.7
	z M12.2,49.5c-4.7,0-8.4,3.5-8.6,8.1c-0.1,4.8,3.9,8.8,8.7,8.8c4.6,0,8.4-3.8,8.4-8.4C20.8,53.5,16.8,49.5,12.2,49.5z"/>
</svg>
