<?xml version="1.0" encoding="utf-8"?>
<!-- Generator: Adobe Illustrator 17.1.0, SVG Export Plug-In . SVG Version: 6.00 Build 0)  -->
<!DOCTYPE svg PUBLIC "-//W3C//DTD SVG 1.1//EN" "http://www.w3.org/Graphics/SVG/1.1/DTD/svg11.dtd">
<svg version="1.1" id="Слой_1" xmlns="http://www.w3.org/2000/svg" xmlns:xlink="http://www.w3.org/1999/xlink" x="0px" y="0px"
	 viewBox="0 0 16 16" enable-background="new 0 0 16 16" xml:space="preserve">
<g id="Clock">
</g>
<g id="Alarm">
	<g>
		<path fill="#FFFFFF" d="M8,0C3.6,0,0,3.6,0,8s3.6,8,8,8s8-3.6,8-8S12.4,0,8,0z M8,14.6c-3.6,0-6.6-3-6.6-6.6
			c0-3.7,2.9-6.6,6.6-6.6s6.6,3,6.6,6.6C14.6,11.7,11.6,14.6,8,14.6z"/>
		<path fill="#FFFFFF" d="M10.7,2.6c-0.2-0.1-0.4,0-0.5,0.2L8.5,8.4l-4-1.5c-0.4-0.1-0.8,0-0.9,0.4C3.5,7.6,3.7,8,4,8.1l4.4,1.7
			c0.1,0,0.2,0,0.2,0c0.3,0,0.5-0.2,0.6-0.4c0.1-0.2,0-0.5-0.1-0.7L11,3.1C11,2.9,10.9,2.7,10.7,2.6z"/>
	</g>
</g>
</svg>
