<?xml version="1.0" encoding="utf-8"?>
<!-- Generator: Adobe Illustrator 17.1.0, SVG Export Plug-In . SVG Version: 6.00 Build 0)  -->
<!DOCTYPE svg PUBLIC "-//W3C//DTD SVG 1.1//EN" "http://www.w3.org/Graphics/SVG/1.1/DTD/svg11.dtd">
<svg version="1.1" id="Слой_1" xmlns="http://www.w3.org/2000/svg" xmlns:xlink="http://www.w3.org/1999/xlink" x="0px" y="0px"
	 viewBox="0 0 41.2 84.5" enable-background="new 0 0 41.2 84.5" xml:space="preserve">
<path fill="#FFFFFF" d="M9.1,62.1c0-5.8-0.2-11.7,0.1-17.5c0.1-3.1-0.9-4.3-3.9-3.8c-4.2,0.7-5.8-1.1-5.1-5.2c0.2-1.1,0.2-2.3,0-3.5
	c-0.5-3.4,1-4.7,4.2-4.1c4.1,0.7,5.4-1.1,4.8-4.9c-0.1-0.7,0-1.3,0-2C7.9,4.6,16.9-1.5,32.4,0.3c8.7,1,10.9,5.1,6.9,13
	c-0.6,1.2-1.2,1.4-2.3,1.2c-1.5-0.3-3-0.6-4.4-0.6c-5.2-0.1-6.9,1.5-6.9,6.7c0,9-0.7,7.2,6.8,7.4c6.9,0.1,6.5,0,6.6,6.8
	c0.1,5.2-1.8,6.9-6.7,6.1c-1-0.2-2,0.1-3,0c-3.1-0.4-3.9,1-3.9,3.9c0.1,11.8,0,23.7,0.1,35.5c0,3.2-0.8,4.3-4.2,4.3
	C9.1,84.6,9.1,84.8,9.1,72.6C9.1,69.1,9.1,65.6,9.1,62.1z"/>
</svg>
