<?xml version="1.0" encoding="utf-8"?>
<!-- Generator: Adobe Illustrator 17.1.0, SVG Export Plug-In . SVG Version: 6.00 Build 0)  -->
<!DOCTYPE svg PUBLIC "-//W3C//DTD SVG 1.1//EN" "http://www.w3.org/Graphics/SVG/1.1/DTD/svg11.dtd">
<svg version="1.1" id="Слой_1" xmlns="http://www.w3.org/2000/svg" xmlns:xlink="http://www.w3.org/1999/xlink" x="0px" y="0px"
	 viewBox="0 0 306.7 268.3" enable-background="new 0 0 306.7 268.3" xml:space="preserve">
<path fill="#FFFFFF" d="M163.5,183.2c-4.2-13.4-13.9-22.9-24.2-31.7c-5.6-4.8-11.4-9.2-16.7-14.3c-9.7-9.1-9.5-15.6,0.3-24.7
	c3.3-3.1,6.8-5.8,10.3-8.7c10.4-8.7,18.1-19.1,20-32.9c1.2-8.6,0.8-17.3,0-25.9c-1.2-13.2-6.2-24.1-18.9-30.2
	c-0.7-0.3-1.8-0.8-1.4-1.7c0.4-0.8,1.4-1.5,2.3-1.7c4.7-0.9,9.5-1.6,14.2-2.4c4.8-0.8,9.6-1.2,13.8-3.8c1.5-0.9,3-2.2,2.7-3.9
	c-0.4-2-2.5-1.1-3.9-1.1c-11.8-0.1-23.7,0-35.5,0c-9.3,0-18.7,0.1-28,0C89.8,0.1,81.3,1,72.8,2.9C65,4.7,57.4,7.2,50.3,10.8
	C21,25.7,12.7,50.2,17.1,79.4c3.6,23.4,18.3,36.4,40.7,41.7c6.5,1.5,13.2,2.3,19.8,1.8c3.6-0.2,4.6,1,4.5,4.4
	c-0.3,7.7-1.3,15.7,7,20.8c2.2,1.4,3.6,5,2.4,7.6c-1,2.3-4.2,0.9-6.4,1c-20.1,0.9-39.8,3.6-57.9,13c-13,6.8-22.4,16.6-25.7,31.4
	c-5.8,25.7,6.2,48.7,31.8,58.4c32,12.2,64.3,11.4,95.8-2C165.1,242.3,171,207.2,163.5,183.2z M74.1,103.3
	c-14.4-9.2-21.5-23.3-24.5-39.5c-2.3-12.3-1.3-24.2,4.9-35.4C63,13.2,79.4,8.7,94,18.3c18.1,11.9,24.7,30,25.8,50.7
	c0.1,8.4-1.6,16.3-5.5,23.6C105.9,108.5,89.2,113.1,74.1,103.3z M130.9,231.8c-14.3,13.8-32,18.4-51.4,17.5
	c-12.6-0.6-24.2-4.2-34.4-11.9c-18.2-13.9-19.7-35.6-3.6-51.9c11.2-11.3,28.8-18,47.3-18c14.3,0.2,27.7,3.4,39.2,12.4
	C146.2,194.1,147.5,215.9,130.9,231.8z"/>
<path fill="#FFFFFF" d="M306.7,56.7c-0.1,10.8,0.1,10.8-10.5,10.8c-12.5,0-25,0.1-37.5-0.1c-3.3,0-4.3,1-4.2,4.3
	c0.1,14.5,0,29,0.1,43.5c0,3.6-1.1,4.5-4.5,4.5c-10.6,0-10.6,0.1-10.7-10.7c0-12.2-0.2-24.3,0.1-36.5c0.1-4.1-1.3-5-5.1-5
	c-14.1,0.2-28.3,0-42.5,0.1c-3.4,0-4.6-0.7-4.6-4.4c0.1-10.9-0.1-10.9,10.9-10.9c12.2,0,24.3-0.1,36.5,0.1c3.8,0.1,4.9-1.1,4.7-4.8
	c-0.1-1.4-0.1-2.8-0.1-4.2c0-0.2,0-0.3,0-0.5c-0.1-3.7,0-7.3,0-11c0-0.8,0-1.5,0-2.3c0-1.2,0-2.4,0-3.5c0-4.2,0-8.4,0-12.6
	c0-3.3,0-6.6-0.1-9.9c0-2.5,0.7-3.4,3.3-3.5c11.8-0.5,11.8-0.6,11.8,11.1c0,12.3,0.1,24.6-0.1,37c0,3.3,0.9,4.3,4.2,4.3
	c14.5-0.2,29,0,43.5-0.1C305.5,52.3,306.7,53.2,306.7,56.7z"/>
</svg>
