<?xml version="1.0" encoding="utf-8"?>
<!-- Generator: Adobe Illustrator 17.1.0, SVG Export Plug-In . SVG Version: 6.00 Build 0)  -->
<!DOCTYPE svg PUBLIC "-//W3C//DTD SVG 1.1//EN" "http://www.w3.org/Graphics/SVG/1.1/DTD/svg11.dtd">
<svg version="1.1" id="Слой_1" xmlns="http://www.w3.org/2000/svg" xmlns:xlink="http://www.w3.org/1999/xlink" x="0px" y="0px"
	 viewBox="0 0 93.2 80.4" enable-background="new 0 0 93.2 80.4" xml:space="preserve">
<path fill="#FFFFFF" d="M93.2,11.7c-1,2.8-3.3,4.4-5.4,6.1c-1.7,1.4-2.4,2.8-2.5,5.1C84.7,67.2,39,94.1,0,73.1
	c1.1-0.9,2.5-0.8,3.8-0.9c7.2-0.3,13.7-2.7,19.7-6.5c1-0.6,2.6-1.2,2.4-2.6c-0.2-1.2-1.9-0.9-2.9-1.1C16,60.5,11,56.7,8.5,49.8
	c2.6-0.4,5.1,0.5,7.7-1.6C7.3,45,1.6,39.3,0.9,29.4c2.7,0.3,5,2,8.3,1.2C1.3,23.1-1.1,14.6,3.3,4c5.8,6.6,12,11.7,19.4,15.3
	c6.2,3.1,12.8,5,19.7,5.7c2.7,0.3,3.5-0.6,3.3-3.3c-0.6-8.5,2.4-15.3,10.2-19.2c8-4,15.8-3.1,22.8,2.5c1.5,1.2,2.7,1.5,4.4,0.9
	c2.7-1,5.4-1.9,8.4-3C91.1,6.2,89,8,87.1,10c-0.6,0.6-2.2,0.8-1.4,2.1c0.7,1.1,1.8,0.2,2.7,0.1C90,12.1,91.4,10.9,93.2,11.7z"/>
</svg>
