<?xml version="1.0" encoding="utf-8"?>
<!-- Generator: Adobe Illustrator 17.1.0, SVG Export Plug-In . SVG Version: 6.00 Build 0)  -->
<!DOCTYPE svg PUBLIC "-//W3C//DTD SVG 1.1//EN" "http://www.w3.org/Graphics/SVG/1.1/DTD/svg11.dtd">
<svg version="1.1" id="Слой_1" xmlns="http://www.w3.org/2000/svg" xmlns:xlink="http://www.w3.org/1999/xlink" x="0px" y="0px"
	 viewBox="0 0 100 100" enable-background="new 0 0 100 100" xml:space="preserve">
<path fill="#FFFFFF" d="M56.6,31C59.9,17.2,70.5,8.7,83,9.3c7.8,0.4,12.1,4.4,13.5,12.1c1.7,9-1.2,17-5.3,24.5
	c-8,14.3-17.6,27.4-30,38.2c-2.5,2.2-5.2,4.1-8.3,5.6c-8.9,4.2-14.5,2.5-19.4-6c-3.8-6.4-4.9-13.7-7-20.7
	c-2.2-7.4-4.3-14.8-6.5-22.2c-0.4-1.4-1-2.8-1.8-4c-2.8-4.5-4.7-5.1-8.9-1.9c-3.2,2.4-4.8,1.4-6.6-1.5c-1-1.6-1-2.5,0.4-3.7
	c6.2-5.3,11.9-11.1,18.6-15.9c9.4-6.7,17.5-3.9,20.2,7.3c2,8.5,3.2,17.3,4.9,25.9c0.8,3.9,1.8,7.8,3.5,11.4c2.1,4.3,4.3,4.7,7.5,1.2
	C62.8,54.3,66.6,48,69,41c2.7-8-1.3-12.2-9.6-10.5C58.6,30.7,57.8,30.8,56.6,31z"/>
</svg>
