<?xml version="1.0" encoding="utf-8"?>
<!-- Generator: Adobe Illustrator 17.1.0, SVG Export Plug-In . SVG Version: 6.00 Build 0)  -->
<!DOCTYPE svg PUBLIC "-//W3C//DTD SVG 1.1//EN" "http://www.w3.org/Graphics/SVG/1.1/DTD/svg11.dtd">
<svg version="1.1" id="Слой_1" xmlns="http://www.w3.org/2000/svg" xmlns:xlink="http://www.w3.org/1999/xlink" x="0px" y="0px"
	 viewBox="0 0 32 32" enable-background="new 0 0 32 32" xml:space="preserve">
<path fill="#23475F" stroke="#23475F" stroke-miterlimit="10" d="M11.6,0.5L8,8.8v4.9H6.7V8.8L3.2,0.5h1.5l2.5,5.9
	c0.1,0.1,0.1,0.3,0.3,0.8l0,0C7.5,7,7.6,6.8,7.7,6.4l2.5-5.9H11.6z"/>
<path fill="#23475F" stroke="#23475F" stroke-miterlimit="10" d="M15.6,13.8c-1.2,0-2.1-0.4-2.8-1.3c-0.7-0.9-1.1-2-1.1-3.5
	c0-1.5,0.4-2.8,1.1-3.7C13.6,4.4,14.6,4,15.8,4c1.2,0,2.1,0.4,2.8,1.3c0.7,0.9,1,2,1,3.6c0,1.5-0.3,2.7-1.1,3.6
	C17.8,13.4,16.8,13.8,15.6,13.8z M15.7,5.3c-0.8,0-1.4,0.3-1.9,1C13.3,7,13.1,7.9,13.1,9c0,1.1,0.2,2,0.7,2.6
	c0.5,0.7,1.1,0.9,1.9,0.9s1.4-0.3,1.9-0.9C18,11,18.3,10.1,18.3,9s-0.2-2-0.7-2.7C17.2,5.6,16.5,5.3,15.7,5.3z"/>
<path fill="#23475F" stroke="#23475F" stroke-miterlimit="10" d="M27.2,13.6h-1.3v-1.5l0,0c-0.5,1.1-1.3,1.7-2.4,1.7
	c-1.9,0-2.8-1.3-2.8-4V4.3H22v5.4c0,2,0.7,3,1.9,3c0.6,0,1.1-0.3,1.5-0.8c0.4-0.6,0.6-1.3,0.6-2.1V4.3h1.3v9.3H27.2z"/>
<g>
	<path fill="#23475F" d="M26.2,22.4c-0.3,0-0.5,0.2-0.7,0.5c-0.2,0.4-0.3,0.9-0.4,1.4h2.1C27.2,23,26.8,22.4,26.2,22.4z"/>
	<path fill="#23475F" d="M24.3,14.8H7.7c-3,0-5.5,2.4-5.5,5.4v6.5c0,3,2.5,5.4,5.5,5.4h16.6c3,0,5.5-2.4,5.5-5.4v-6.5
		C29.8,17.2,27.3,14.8,24.3,14.8z M10.6,19.3L10.6,19.3H8.3v10.5H6.6V19.3H4.4V17h6.2V19.3z M16.3,29.7h-1.7v-1.4
		c-0.4,1.1-1,1.6-1.7,1.6c-1.3,0-1.9-1.3-1.9-3.8v-5.5h1.7v5.3c0,1.3,0.3,1.9,0.9,1.9c0.3,0,0.6-0.2,0.7-0.5
		c0.2-0.4,0.3-0.8,0.3-1.5v-5.2h1.7V29.7z M22.5,28.6C22,29.5,21.4,30,20.6,30c-0.7,0.1-1.3-0.4-1.6-1.2v1.1h-1.7V16.3H19V22
		c0.4-1.1,1.1-1.6,1.8-1.6c0.7,0,1.3,0.4,1.7,1.2c0.4,0.8,0.6,1.9,0.6,3.3C23.1,26.4,22.9,27.6,22.5,28.6z M26.7,28
		c0.6,0,1.2-0.2,1.6-0.7v2c-0.5,0.4-1.2,0.7-2,0.7c-0.9,0-1.6-0.4-2.1-1.2c-0.5-0.8-0.8-1.9-0.8-3.4c0-1.5,0.3-2.7,0.8-3.6
		c0.6-0.9,1.2-1.3,2-1.3c0.8,0,1.4,0.4,1.9,1.2c0.4,0.8,0.7,1.9,0.7,3.2V26h-3.6C25.2,27.4,25.7,28,26.7,28z"/>
</g>
<path fill="#23475F" d="M20.6,22.4c-0.4,0-0.7,0.2-1,0.7c-0.3,0.4-0.4,1.1-0.4,1.7v0.9c0,0.6,0.1,1.1,0.4,1.5
	c0.3,0.4,0.6,0.6,0.9,0.6c0.4,0,0.8-0.3,1.1-0.8c0.3-0.5,0.4-1.2,0.4-2.2c0-0.8-0.1-1.4-0.3-1.8C21.3,22.6,21,22.4,20.6,22.4z"/>
</svg>
