<?xml version="1.0" encoding="utf-8"?>
<!-- Generator: Adobe Illustrator 17.1.0, SVG Export Plug-In . SVG Version: 6.00 Build 0)  -->
<!DOCTYPE svg PUBLIC "-//W3C//DTD SVG 1.1//EN" "http://www.w3.org/Graphics/SVG/1.1/DTD/svg11.dtd">
<svg version="1.1" id="Слой_1" xmlns="http://www.w3.org/2000/svg" xmlns:xlink="http://www.w3.org/1999/xlink" x="0px" y="0px"
	 viewBox="0 0 50 57.9" enable-background="new 0 0 50 57.9" xml:space="preserve">
<path fill="#FFFFFF" d="M17.1,0l-6.6,14.9v8.8H8.2V15L1.8,0h2.7l4.5,10.7c0.1,0.1,0.2,0.6,0.5,1.5h0c0.1-0.4,0.3-0.9,0.5-1.5L14.6,0
	H17.1z"/>
<path fill="#FFFFFF" d="M24.3,24.1c-2.1,0-3.8-0.8-5.1-2.4c-1.3-1.6-1.9-3.7-1.9-6.3c0-2.8,0.7-5.1,2-6.7c1.3-1.6,3.1-2.4,5.3-2.4
	c2.1,0,3.8,0.8,5,2.3c1.2,1.6,1.8,3.7,1.8,6.5c0,2.7-0.6,4.9-1.9,6.5C28.2,23.3,26.5,24.1,24.3,24.1z M24.5,8.7
	c-1.5,0-2.6,0.6-3.5,1.8c-0.9,1.2-1.3,2.8-1.3,4.9c0,2,0.4,3.6,1.3,4.7c0.9,1.2,2,1.7,3.5,1.7c1.5,0,2.6-0.6,3.4-1.7
	c0.8-1.1,1.2-2.7,1.2-4.8c0-2.1-0.4-3.7-1.2-4.9C27.1,9.2,25.9,8.7,24.5,8.7z"/>
<path fill="#FFFFFF" d="M45.3,23.7H43V21H43c-0.9,2-2.4,3.1-4.4,3.1c-3.4,0-5.1-2.4-5.1-7.2V6.8h2.3v9.7c0,3.6,1.2,5.4,3.5,5.4
	c1.1,0,2-0.5,2.8-1.5c0.7-1,1.1-2.3,1.1-3.8V6.8h2.3V23.7z"/>
<g>
	<path fill="#FFFFFF" d="M42.4,39.4c-0.5,0-0.9,0.3-1.3,1c-0.4,0.7-0.6,1.6-0.7,2.6h3.7C44.2,40.9,43.6,39.4,42.4,39.4z"/>
	<path fill="#FFFFFF" d="M31.6,39.9c-0.6,0-1.3,0.4-1.7,1.2S29,42.9,29,44.2v1.7c0,1.1,0.4,2,0.8,2.7c0.4,0.7,1,1.1,1.5,1.1
		c0.7,0,1.3-0.5,1.7-1.4c0.4-0.9,0.6-2.2,0.6-3.9c0-1.4-0.2-2.5-0.5-3.3C32.7,40.3,32.2,39.9,31.6,39.9z"/>
	<path fill="#FFFFFF" d="M42.7,24.9H6.3c-3.5,0-6.3,2.8-6.3,6.3v19.3c0,3.5,2.8,6.3,6.3,6.3h36.3c3.5,0,6.3-2.8,6.3-6.3V31.3
		C49,27.8,46.2,24.9,42.7,24.9z M14,33.9h-4v19H7v-19H3v-4h11V33.9z M25,52.9h-4v-2h0.4c-0.8,2-1.7,2.9-3,2.9
		c-2.4,0-3.4-2.5-3.4-7.3V35.9h3v10.1c0,2.4,0.5,3.6,1.6,3.6c0.6,0,0.8-0.3,1.1-1C21.1,48,21,47.2,21,46V35.9h4V52.9z M35.6,51.1
		c-0.8,1.7-1.9,2.4-3.3,2.4c-1.2,0-2.2-0.6-2.8-2.6H29v2h-3v-25h3v11h0.5c0.8-2,1.9-3,3.3-3c1.3,0,2.3,0.7,3,2.2
		c0.7,1.5,1.1,3.5,1.1,6.1C36.8,47.2,36.4,49.4,35.6,51.1z M47,45.9h-6.5c0.1,3,0.9,3.9,2.7,3.9c1.1,0,1.8-0.3,2.8-1.1v3.8
		c-1,0.8-2.1,1.3-3.6,1.3c-1.6,0-2.9-0.8-3.8-2.3s-1.3-3.6-1.3-6.3c0-2.8,0.5-5,1.5-6.7c1-1.6,2.2-2.5,3.6-2.5
		c1.5,0,2.6,0.7,3.4,2.2c0.8,1.5,1.2,3.5,1.2,6V45.9z"/>
</g>
</svg>
