<?xml version="1.0" encoding="utf-8"?>
<!-- Generator: Adobe Illustrator 17.1.0, SVG Export Plug-In . SVG Version: 6.00 Build 0)  -->
<!DOCTYPE svg PUBLIC "-//W3C//DTD SVG 1.1//EN" "http://www.w3.org/Graphics/SVG/1.1/DTD/svg11.dtd">
<svg version="1.1" id="Слой_1" xmlns="http://www.w3.org/2000/svg" xmlns:xlink="http://www.w3.org/1999/xlink" x="0px" y="0px"
	 viewBox="0 0 190 296.8" enable-background="new 0 0 190 296.8" xml:space="preserve">
<g id="Слой_2">
	<rect x="16.5" y="60.5" fill="#34495E" stroke="#618392" stroke-miterlimit="10" width="153" height="236"/>
</g>
<g>
	<g id="XMLID_1_">
		<g>
			<path fill="#85DADF" d="M5,131.2v-15c0,0,0,0,0,0v-6.3c0,0,0,0,0,0v-15c0,0,0,0,0,0V33C5,17,16.7,6.6,30.3,6.6l128.1,0.1
				c14.3-0.1,26.5,9.9,26.5,25.9l0.1,263.8h-15.5V60.8h-153v235.5H5L5,131.2C5,131.2,5,131.2,5,131.2z M110.5,38.9v-0.2
				c0-1.6-1.3-2.9-2.9-2.9H79.4c-1.6,0-2.9,1.3-2.9,2.9v0.2c0,1.6,1.3,2.9,2.9,2.9h28.2C109.2,41.8,110.5,40.5,110.5,38.9z"/>
			<path fill="#85DADF" d="M153.5,6.6h-30c0-2.1,1.7-3.8,3.8-3.8h22.4C151.8,2.8,153.5,4.5,153.5,6.6z"/>
			<path fill="#FFFFFF" d="M110.5,38.8v0.2c0,1.6-1.3,2.9-2.9,2.9H79.4c-1.6,0-2.9-1.3-2.9-2.9v-0.2c0-1.6,1.3-2.9,2.9-2.9h28.2
				C109.2,35.8,110.5,37.1,110.5,38.8z"/>
			<path fill="#85DADF" d="M5,116.2v15c-1.6,0-2.9-0.9-2.9-1.9v-11.2C2.1,117,3.4,116.2,5,116.2z"/>
			<path fill="#85DADF" d="M5,94.9v15c-1.6,0-2.9-0.8-2.9-1.9V96.8C2.1,95.7,3.4,94.9,5,94.9z"/>
			<path fill="#85DADF" d="M4.8,57.9V77c-1.3,0-2.4-1.1-2.4-2.4V60.3C2.4,59,3.5,57.9,4.8,57.9z"/>
		</g>
		<g>
			<path fill="none" stroke="#618392" stroke-miterlimit="10" d="M110.5,38.9c0,1.6-1.3,2.9-2.9,2.9H79.4c-1.6,0-2.9-1.3-2.9-2.9
				v-0.2c0-1.6,1.3-2.9,2.9-2.9h28.2c1.6,0,2.9,1.3,2.9,2.9V38.9z"/>
			<path fill="none" stroke="#618392" stroke-miterlimit="10" d="M16.5,296.3H5V131.2v-15v-6.3v-15V33C5,17,16.7,6.6,30.3,6.6
				l128.1,0.1c14.3-0.1,26.5,9.9,26.5,25.9l0.1,263.8h-15.5"/>
			<polyline fill="none" stroke="#618392" stroke-miterlimit="10" points="153.5,6.6 153.5,6.6 123.5,6.6 			"/>
			<path fill="none" stroke="#618392" stroke-miterlimit="10" d="M123.5,6.6C123.5,6.6,123.5,6.6,123.5,6.6c0-2.1,1.7-3.8,3.8-3.8
				h22.4c2.1,0,3.8,1.7,3.8,3.8"/>
			<path fill="none" stroke="#618392" stroke-miterlimit="10" d="M4.8,57.9C4.8,57.9,4.8,57.9,4.8,57.9l0,19.1"/>
			<path fill="none" stroke="#618392" stroke-miterlimit="10" d="M4.8,77L4.8,77c-1.3,0-2.4-1.1-2.4-2.4V60.3c0-1.3,1.1-2.4,2.4-2.4
				"/>
			<path fill="none" stroke="#618392" stroke-miterlimit="10" d="M5.1,94.9C5,94.9,5,94.9,5.1,94.9l0,15"/>
			<path fill="none" stroke="#618392" stroke-miterlimit="10" d="M5.1,109.9L5.1,109.9C5,109.9,5,109.9,5.1,109.9
				c-1.6,0-2.9-0.8-2.9-1.9V96.8c0-1,1.3-1.9,2.9-1.9c0,0,0,0,0,0"/>
			<path fill="none" stroke="#618392" stroke-miterlimit="10" d="M5.1,116.2C5,116.2,5,116.2,5.1,116.2l0,15"/>
			<path fill="none" stroke="#618392" stroke-miterlimit="10" d="M5.1,131.2L5.1,131.2C5,131.2,5,131.2,5.1,131.2
				c-1.6,0-2.9-0.9-2.9-1.9v-11.2c0-1,1.3-1.9,2.9-1.9c0,0,0,0,0,0"/>
			<polygon fill="none" stroke="#618392" stroke-miterlimit="10" points="16.5,296.3 16.5,296.8 169.5,296.8 169.5,296.3 
				169.5,60.8 16.5,60.8 			"/>
		</g>
	</g>
	<circle fill="#BDEBEF" stroke="#618392" stroke-miterlimit="10" cx="94.8" cy="24" r="3.5"/>
</g>
<linearGradient id="SVGID_1_" gradientUnits="userSpaceOnUse" x1="52.573" y1="191.3717" x2="134.9519" y2="157.6314">
	<stop  offset="0.4354" style="stop-color:#FFFFFF;stop-opacity:0"/>
	<stop  offset="0.5742" style="stop-color:#FFFFFF"/>
</linearGradient>
<rect x="-1" y="60" opacity="0.13" fill="url(#SVGID_1_)" width="170" height="237"/>
</svg>
