<?xml version="1.0" encoding="utf-8"?>
<!-- Generator: Adobe Illustrator 17.1.0, SVG Export Plug-In . SVG Version: 6.00 Build 0)  -->
<!DOCTYPE svg PUBLIC "-//W3C//DTD SVG 1.1//EN" "http://www.w3.org/Graphics/SVG/1.1/DTD/svg11.dtd">
<svg version="1.1" id="Слой_1" xmlns="http://www.w3.org/2000/svg" xmlns:xlink="http://www.w3.org/1999/xlink" x="0px" y="0px"
	 viewBox="0 0 8 5.5" enable-background="new 0 0 8 5.5" xml:space="preserve">
<g id="Email">
	<g>
		<path fill="#FFFFFF" d="M8,0.4c0-0.1,0-0.1,0-0.2L4.7,2.8l3.2,2.5C8,5.3,8,5.2,8,5.1V0.4z"/>
		<path fill="#FFFFFF" d="M3.8,2.9C3.9,3,4.1,3,4.2,2.9l3.6-2.8C7.7,0,7.7,0,7.6,0H0.4C0.3,0,0.3,0,0.2,0.1L3.8,2.9z"/>
		<path fill="#FFFFFF" d="M0,0.3c0,0,0,0.1,0,0.2v4.7c0,0.1,0,0.2,0.1,0.2l3.2-2.5L0,0.3z"/>
		<path fill="#FFFFFF" d="M4.5,3L4.5,3C4.3,3.2,4.1,3.2,4,3.2s-0.3,0-0.4-0.1L3.5,3L0.3,5.5c0,0,0.1,0,0.1,0h7.2c0,0,0.1,0,0.1,0
			L4.5,3z"/>
	</g>
</g>
</svg>
