<?xml version="1.0" encoding="utf-8"?>
<!-- Generator: Adobe Illustrator 17.1.0, SVG Export Plug-In . SVG Version: 6.00 Build 0)  -->
<!DOCTYPE svg PUBLIC "-//W3C//DTD SVG 1.1//EN" "http://www.w3.org/Graphics/SVG/1.1/DTD/svg11.dtd">
<svg version="1.1" id="Слой_1" xmlns="http://www.w3.org/2000/svg" xmlns:xlink="http://www.w3.org/1999/xlink" x="0px" y="0px"
	 viewBox="0 0 62.4 62" enable-background="new 0 0 62.4 62" xml:space="preserve">
<g id="XMLID_1_">
	<g>
		<path fill="#86D6DF" d="M5.7,45.3L31.2,31h0l-7.5,28.5C16,57.4,9.5,52.2,5.7,45.3z"/>
		<path fill="#86D6DF" d="M31.2,31l7.5-28.5c7.9,1.9,14.5,7.1,18.5,13.9L31.2,31z"/>
		<path fill="#A0DFE6" d="M5.7,45.3C3.4,41.1,2.1,36.2,2.1,31c0-2.6,0.3-5.1,1-7.4L31.2,31L5.7,45.3z"/>
		<path fill="#B5E6EC" d="M31.2,31l28.9,7.5C58,46.4,52.8,53,45.8,56.9L31.2,31z"/>
		<path fill="#A0DFE6" d="M45.8,56.9c-4.2,2.3-9.1,3.6-14.2,3.6c-2.7,0-5.3-0.4-7.8-1.1L31.2,31l0,0L45.8,56.9z"/>
		<path fill="#A0DFE6" d="M31.2,31L16.9,5.5c4.3-2.5,9.3-3.9,14.7-3.9c2.4,0,4.8,0.3,7.1,0.9L31.2,31z"/>
		<path fill="#B5E6EC" d="M31.2,31L3,23.6c2-7.7,7.1-14.2,13.9-18.1L31.2,31L31.2,31z"/>
		<path fill="#A0DFE6" d="M60.1,38.5L31.2,31l0,0l25.9-14.6c2.5,4.3,3.9,9.3,3.9,14.7C61.1,33.6,60.7,36.1,60.1,38.5z"/>
	</g>
	<g>
	</g>
</g>
<g>
	<path fill="#FFFFFF" d="M31.2,2c16,0,29,13,29,29s-13,29-29,29s-29-13-29-29S15.2,2,31.2,2 M31.2,0c-17.1,0-31,13.9-31,31
		s13.9,31,31,31s31-13.9,31-31S48.3,0,31.2,0L31.2,0z"/>
</g>
</svg>
