<?xml version="1.0" encoding="utf-8"?>
<!-- Generator: Adobe Illustrator 17.1.0, SVG Export Plug-In . SVG Version: 6.00 Build 0)  -->
<!DOCTYPE svg PUBLIC "-//W3C//DTD SVG 1.1//EN" "http://www.w3.org/Graphics/SVG/1.1/DTD/svg11.dtd">
<svg version="1.1" id="Слой_1" xmlns="http://www.w3.org/2000/svg" xmlns:xlink="http://www.w3.org/1999/xlink" x="0px" y="0px"
	 viewBox="0 0 76.2 77" enable-background="new 0 0 76.2 77" xml:space="preserve">
<path fill="#FFFFFF" d="M74.8,39.9c-0.8,3.9,0.1,8.4,1.1,13.2C78.6,67.3,64.5,80,50.3,76.4c-3.8-1-7.4-1.3-11.2-1.3
	c-22,0.3-38.8-18.1-36.5-40c0.3-2.5-0.3-4.5-1.1-6.7c-3-8.3-1.3-15.9,4.8-22.1C12.5,0,20.1-1.5,28.4,1.4c3.1,1.1,5.9,1.6,9.2,1.5
	C58.1,2.3,74.7,18.5,74.8,39.9z M39.2,63.8c1.8-0.2,4.5-0.4,7-1c2.1-0.5,4.1-1.4,6-2.4c4.9-2.8,7.4-7.1,7.3-12.7
	c-0.1-5.8-3.5-9.5-8.6-11.7c-5.5-2.4-11.6-3-17.2-4.9c-2.2-0.7-4.7-1.7-4.6-4.6c0.1-3,2.6-4,5.2-4.6c5.7-1.5,9-0.1,13.3,5.9
	c1.8,2.5,3.9,3.7,6.8,2.3c3.2-1.5,3.5-4.3,2.4-7.2c-1.3-3.5-4.1-5.6-7.4-7.1C43,13,36.6,13.1,30.2,14.5c-7.3,1.7-11.6,6.3-12,12.3
	c-0.4,5.9,3.4,10.7,10.9,13.1c4.6,1.5,9.3,2.4,14,3.8c2.8,0.8,5.3,2.3,5,5.9c-0.3,3.4-2.8,4.9-5.7,5.5c-5.4,1.2-12,1.1-14.8-6.5
	c-1.2-3.3-3.9-5.2-7.5-3.4c-3.7,1.9-3.1,5.1-1.8,8.2c1.9,4.1,5.1,6.9,9.3,8.6C31,63.3,34.7,63.6,39.2,63.8z"/>
</svg>
