<svg width="47" height="54" viewBox="0 0 47 54" fill="none" xmlns="http://www.w3.org/2000/svg">
<path d="M6.85725 36.6198L1.31079 33.3762L6.85725 30.1002M6.85725 36.6198L1.31079 39.8958L12.4037 46.3829L23.4966 39.8958L29.0431 36.6198L34.5896 33.3761M6.85725 36.6198L12.4037 39.8958L17.9502 36.6198L23.4966 33.3763L29.0431 30.1003L34.5895 26.8568M6.85725 36.6198L12.404 33.3762M6.85725 30.1002L12.404 33.3762M6.85725 30.1002L1.31079 26.8567L6.85725 23.6131M6.85725 30.1002L17.9505 23.6131L29.0434 17.0936L34.5898 13.8176L40.1363 17.0936M40.1363 17.0936L34.5898 20.3372M40.1363 17.0936L45.6824 20.3372L40.136 23.6132M40.1363 17.0936L45.6824 13.8501L40.136 10.5741L34.5895 7.33055L29.0431 10.5741L23.4966 13.8501L12.4037 20.3372L6.85725 23.6131M34.5898 20.3372L29.0434 23.6131L17.9505 30.1002L12.404 33.3762M34.5898 20.3372L40.136 23.6132M11.8847 26.5647L6.85725 23.6131M6.85725 23.6131L1.31079 20.3371L6.85725 17.0936M6.85725 17.0936L12.4037 13.85L17.9502 10.5741L23.4966 7.33051L29.0431 4.05453M6.85725 17.0936L11.8525 20.0128M6.85725 17.0936L1.31095 13.8501L6.85741 10.5741L12.4039 7.33055L17.9503 4.05458L23.4968 0.811035M23.4967 52.9023L29.0431 49.6587L34.5896 46.3827L45.6825 39.8957L40.136 36.6197M40.136 36.6197L34.5896 33.3761M40.136 36.6197L45.6824 33.3762L40.1359 30.1002M40.136 36.6197L34.5895 39.8957L23.4966 46.3828L17.9501 49.6588M34.5896 33.3761L40.1359 30.1002M40.1359 30.1002L45.6824 26.8567L40.136 23.6132M40.1359 30.1002L34.5895 26.8568M40.136 23.6132L34.5895 26.8568" stroke="#483A48" stroke-width="1.62177" stroke-miterlimit="10" stroke-linecap="round" stroke-linejoin="round"/>
</svg>
