<svg width="45" height="53" viewBox="0 0 45 53" fill="none" xmlns="http://www.w3.org/2000/svg">
<path d="M6.37047 35.6725L1 32.5319L6.37047 29.3599M6.37047 35.6725L1 38.8446L11.7409 45.1259L22.4819 38.8446L27.8524 35.6726L33.2229 32.5318M6.37047 35.6725L11.7409 38.8446L17.1114 35.6726L22.4819 32.532L27.8524 29.3599L33.2228 26.2193M6.37047 35.6725L11.7413 32.5319M6.37047 29.3599L11.7413 32.5319M6.37047 29.3599L1 26.2192L6.37047 23.0786M6.37047 29.3599L17.1117 23.0786L27.8527 16.766L33.2231 13.5939L38.5936 16.766M38.5936 16.766L33.2231 19.9066M38.5936 16.766L43.9638 19.9066L38.5933 23.0786M38.5936 16.766L43.9638 13.6253L38.5933 10.4533L33.2228 7.31266L27.8524 10.4533L22.4819 13.6253L11.7409 19.9066L6.37047 23.0786M33.2231 19.9066L27.8527 23.0786L17.1117 29.3599L11.7413 32.5319M33.2231 19.9066L38.5933 23.0786M11.2384 25.9365L6.37047 23.0786M6.37047 23.0786L1 19.9065L6.37047 16.7659M6.37047 16.7659L11.7409 13.6253L17.1114 10.4532L22.4819 7.31262L27.8524 4.14059M6.37047 16.7659L11.2072 19.5925M6.37047 16.7659L1.00016 13.6253L6.37063 10.4533L11.7411 7.31266L17.1116 4.14063L22.482 1M22.4819 51.4384L27.8524 48.2978L33.2229 45.1258L43.9638 38.8445L38.5933 35.6725M38.5933 35.6725L33.2229 32.5318M38.5933 35.6725L43.9638 32.5319L38.5933 29.3599M38.5933 35.6725L33.2228 38.8446L22.4819 45.1258L17.1114 48.2979M33.2229 32.5318L38.5933 29.3599M38.5933 29.3599L43.9638 26.2193L38.5933 23.0786M38.5933 29.3599L33.2228 26.2193M38.5933 23.0786L33.2228 26.2193" stroke="#7B7B7D" stroke-width="1.57031" stroke-miterlimit="10" stroke-linecap="round" stroke-linejoin="round"/>
</svg>
