<svg width="101" height="22" viewBox="0 0 101 22" fill="none" xmlns="http://www.w3.org/2000/svg">
<path d="M68.9893 3.75629V0.809385H69.332V3.75629H68.9893Z" fill="#C7C7C7"/>
<path d="M72.5061 3.75629H72.1151L70.5045 1.28307H70.4884C70.5099 1.57332 70.5207 1.83939 70.5207 2.08127V3.75629H70.2042V0.809385H70.5912L72.1977 3.27253H72.2138C72.2111 3.23625 72.2051 3.12001 72.1957 2.92382C72.1863 2.72629 72.1829 2.58519 72.1856 2.50053V0.809385H72.5061V3.75629Z" fill="#C7C7C7"/>
<path d="M74.2854 3.75629H73.9427V1.11375H73.0095V0.809385H75.2186V1.11375H74.2854V3.75629Z" fill="#C7C7C7"/>
<path d="M77.3688 3.75629H75.726V0.809385H77.3688V1.11375H76.0687V2.06313H77.2902V2.36548H76.0687V3.44991H77.3688V3.75629Z" fill="#C7C7C7"/>
<path d="M78.4285 2.53077V3.75629H78.0858V0.809385H78.8941C79.2556 0.809385 79.5223 0.87859 79.6943 1.017C79.8676 1.15541 79.9543 1.36369 79.9543 1.64186C79.9543 2.03155 79.7568 2.29493 79.3617 2.432L80.1619 3.75629H79.7568L79.0432 2.53077H78.4285ZM78.4285 2.23648H78.8981C79.14 2.23648 79.3174 2.18877 79.4302 2.09337C79.5431 1.99661 79.5996 1.85216 79.5996 1.66C79.5996 1.46515 79.5418 1.32472 79.4262 1.23872C79.312 1.15272 79.1279 1.10972 78.8739 1.10972H78.4285V2.23648Z" fill="#C7C7C7"/>
<path d="M83.0015 3.75629H82.6104L80.9999 1.28307H80.9838C81.0053 1.57332 81.016 1.83939 81.016 2.08127V3.75629H80.6996V0.809385H81.0866L82.6931 3.27253H82.7092C82.7065 3.23625 82.7004 3.12001 82.691 2.92382C82.6816 2.72629 82.6783 2.58519 82.681 2.50053V0.809385H83.0015V3.75629Z" fill="#C7C7C7"/>
<path d="M85.7261 3.75629L85.3592 2.81901H84.178L83.8152 3.75629H83.4685L84.6336 0.797291H84.9218L86.0808 3.75629H85.7261ZM85.2524 2.51061L84.9097 1.59751C84.8654 1.48195 84.8197 1.34018 84.7727 1.17221C84.7431 1.30121 84.7008 1.44298 84.6457 1.59751L84.299 2.51061H85.2524Z" fill="#C7C7C7"/>
<path d="M87.4549 3.75629H87.1123V1.11375H86.179V0.809385H88.3882V1.11375H87.4549V3.75629Z" fill="#C7C7C7"/>
<path d="M88.8956 3.75629V0.809385H89.2383V3.75629H88.8956Z" fill="#C7C7C7"/>
<path d="M92.6684 2.27881C92.6684 2.75047 92.5488 3.12136 92.3096 3.39146C92.0717 3.66156 91.7405 3.79661 91.3158 3.79661C90.8818 3.79661 90.5465 3.66424 90.31 3.39952C90.0749 3.13345 89.9573 2.75854 89.9573 2.27478C89.9573 1.79505 90.0755 1.42349 90.312 1.16011C90.5485 0.895387 90.8845 0.763025 91.3199 0.763025C91.7432 0.763025 92.0737 0.897403 92.3116 1.16616C92.5494 1.43491 92.6684 1.8058 92.6684 2.27881ZM90.3201 2.27881C90.3201 2.67791 90.4048 2.98093 90.5741 3.18787C90.7447 3.39347 90.992 3.49627 91.3158 3.49627C91.6424 3.49627 91.889 3.39347 92.0556 3.18787C92.2222 2.98228 92.3055 2.67925 92.3055 2.27881C92.3055 1.88239 92.2222 1.58206 92.0556 1.3778C91.8903 1.17221 91.6451 1.06941 91.3199 1.06941C90.9933 1.06941 90.7447 1.17288 90.5741 1.37982C90.4048 1.58542 90.3201 1.88508 90.3201 2.27881Z" fill="#C7C7C7"/>
<path d="M95.6913 3.75629H95.3003L93.6897 1.28307H93.6736C93.6951 1.57332 93.7059 1.83939 93.7059 2.08127V3.75629H93.3894V0.809385H93.7764L95.3829 3.27253H95.399C95.3963 3.23625 95.3903 3.12001 95.3809 2.92382C95.3715 2.72629 95.3681 2.58519 95.3708 2.50053V0.809385H95.6913V3.75629Z" fill="#C7C7C7"/>
<path d="M98.4159 3.75629L98.0491 2.81901H96.8679L96.5051 3.75629H96.1584L97.3234 0.797291H97.6117L98.7707 3.75629H98.4159ZM97.9422 2.51061L97.5996 1.59751C97.5552 1.48195 97.5095 1.34018 97.4625 1.17221C97.4329 1.30121 97.3906 1.44298 97.3355 1.59751L96.9888 2.51061H97.9422Z" fill="#C7C7C7"/>
<path d="M99.2377 3.75629V0.809385H99.5804V3.44588H100.881V3.75629H99.2377Z" fill="#C7C7C7"/>
<path d="M70.8579 7.23201C70.8579 7.53033 70.7557 7.76011 70.5515 7.92137C70.3486 8.08127 70.0576 8.16123 69.6787 8.16123H69.332V9.32024H68.9893V6.37333H69.7533C70.4897 6.37333 70.8579 6.65956 70.8579 7.23201ZM69.332 7.86694H69.6404C69.9441 7.86694 70.1638 7.81789 70.2995 7.7198C70.4352 7.6217 70.5031 7.46448 70.5031 7.24813C70.5031 7.05328 70.4393 6.90816 70.3116 6.81275C70.1839 6.71734 69.9851 6.66963 69.715 6.66963H69.332V7.86694Z" fill="#C7C7C7"/>
<path d="M71.7368 8.09471V9.32024H71.3941V6.37333H72.2024C72.5639 6.37333 72.8306 6.44254 73.0026 6.58095C73.176 6.71935 73.2626 6.92764 73.2626 7.2058C73.2626 7.5955 73.0651 7.85888 72.67 7.99594L73.4702 9.32024H73.0651L72.3515 8.09471H71.7368ZM71.7368 7.80043H72.2064C72.4483 7.80043 72.6257 7.75272 72.7386 7.65731C72.8514 7.56056 72.9079 7.4161 72.9079 7.22394C72.9079 7.0291 72.8501 6.88867 72.7345 6.80267C72.6203 6.71667 72.4362 6.67367 72.1822 6.67367H71.7368V7.80043Z" fill="#C7C7C7"/>
<path d="M76.4213 7.84275C76.4213 8.31442 76.3017 8.6853 76.0625 8.9554C75.8246 9.2255 75.4934 9.36055 75.0687 9.36055C74.6347 9.36055 74.2994 9.22819 74.0629 8.96347C73.8278 8.6974 73.7102 8.32248 73.7102 7.83872C73.7102 7.35899 73.8284 6.98744 74.0649 6.72406C74.3014 6.45933 74.6374 6.32697 75.0728 6.32697C75.4961 6.32697 75.8266 6.46135 76.0645 6.73011C76.3023 6.99886 76.4213 7.36974 76.4213 7.84275ZM74.073 7.84275C74.073 8.24186 74.1577 8.54488 74.327 8.75182C74.4976 8.95742 74.7449 9.06022 75.0687 9.06022C75.3953 9.06022 75.6419 8.95742 75.8085 8.75182C75.9751 8.54622 76.0584 8.2432 76.0584 7.84275C76.0584 7.44634 75.9751 7.146 75.8085 6.94175C75.6432 6.73615 75.398 6.63335 75.0728 6.63335C74.7462 6.63335 74.4976 6.73682 74.327 6.94377C74.1577 7.14936 74.073 7.44903 74.073 7.84275Z" fill="#C7C7C7"/>
<path d="M78.8663 7.23201C78.8663 7.53033 78.7642 7.76011 78.56 7.92137C78.3571 8.08127 78.0661 8.16123 77.6872 8.16123H77.3405V9.32024H76.9978V6.37333H77.7618C78.4981 6.37333 78.8663 6.65956 78.8663 7.23201ZM77.3405 7.86694H77.6489C77.9526 7.86694 78.1723 7.81789 78.308 7.7198C78.4437 7.6217 78.5116 7.46448 78.5116 7.24813C78.5116 7.05328 78.4478 6.90816 78.3201 6.81275C78.1924 6.71734 77.9936 6.66963 77.7235 6.66963H77.3405V7.86694Z" fill="#C7C7C7"/>
<path d="M81.0454 9.32024H79.4026V6.37333H81.0454V6.6777H79.7453V7.62708H80.9668V7.92943H79.7453V9.01386H81.0454V9.32024Z" fill="#C7C7C7"/>
<path d="M81.9606 8.09471V9.32024H81.6179V6.37333H82.4262C82.7877 6.37333 83.0544 6.44254 83.2264 6.58095C83.3997 6.71935 83.4864 6.92764 83.4864 7.2058C83.4864 7.5955 83.2889 7.85888 82.8938 7.99594L83.694 9.32024H83.2889L82.5753 8.09471H81.9606ZM81.9606 7.80043H82.4302C82.6721 7.80043 82.8495 7.75272 82.9623 7.65731C83.0752 7.56056 83.1317 7.4161 83.1317 7.22394C83.1317 7.0291 83.0739 6.88867 82.9583 6.80267C82.8441 6.71667 82.66 6.67367 82.406 6.67367H81.9606V7.80043Z" fill="#C7C7C7"/>
<path d="M84.9942 9.32024H84.6516V6.6777H83.7183V6.37333H85.9275V6.6777H84.9942V9.32024Z" fill="#C7C7C7"/>
<path d="M87.0402 7.84679L87.8263 6.37333H88.1972L87.2136 8.17736V9.32024H86.8669V8.19348L85.8852 6.37333H86.2601L87.0402 7.84679Z" fill="#C7C7C7"/>
<path d="M70.2935 14.8842L69.2937 12.2719H69.2776C69.2964 12.4788 69.3058 12.7247 69.3058 13.0096V14.8842H68.9893V11.9373H69.5053L70.4386 14.3682H70.4547L71.396 11.9373H71.908V14.8842H71.5654V12.9854C71.5654 12.7677 71.5748 12.5312 71.5936 12.2759H71.5774L70.5696 14.8842H70.2935Z" fill="#C7C7C7"/>
<path d="M74.3404 14.8842H72.6977V11.9373H74.3404V12.2416H73.0403V13.191H74.2618V13.4934H73.0403V14.5778H74.3404V14.8842Z" fill="#C7C7C7"/>
<path d="M76.8273 14.8842L76.4604 13.9469H75.2793L74.9164 14.8842H74.5697L75.7348 11.9252H76.023L77.1821 14.8842H76.8273ZM76.3536 13.6385L76.0109 12.7254C75.9666 12.6098 75.9209 12.4681 75.8739 12.3001C75.8443 12.4291 75.802 12.5709 75.7469 12.7254L75.4002 13.6385H76.3536Z" fill="#C7C7C7"/>
<path d="M79.2295 14.1001C79.2295 14.3594 79.1354 14.5617 78.9473 14.7068C78.7592 14.8519 78.5038 14.9245 78.1813 14.9245C77.832 14.9245 77.5632 14.8795 77.3751 14.7894V14.4589C77.496 14.5099 77.6277 14.5503 77.7701 14.5798C77.9126 14.6094 78.0537 14.6242 78.1934 14.6242C78.4219 14.6242 78.5939 14.5812 78.7094 14.4952C78.825 14.4078 78.8828 14.2869 78.8828 14.1323C78.8828 14.0302 78.862 13.9469 78.8203 13.8824C78.78 13.8166 78.7115 13.7561 78.6147 13.701C78.5193 13.6459 78.3735 13.5834 78.1773 13.5135C77.9032 13.4154 77.707 13.2992 77.5887 13.1648C77.4718 13.0304 77.4134 12.8551 77.4134 12.6387C77.4134 12.4116 77.4987 12.2309 77.6694 12.0965C77.84 11.9621 78.0658 11.8949 78.3466 11.8949C78.6396 11.8949 78.909 11.9487 79.1549 12.0562L79.0481 12.3545C78.8049 12.2524 78.5683 12.2013 78.3386 12.2013C78.1572 12.2013 78.0154 12.2403 77.9133 12.3182C77.8111 12.3962 77.7601 12.5044 77.7601 12.6428C77.7601 12.7449 77.7789 12.8289 77.8165 12.8947C77.8541 12.9592 77.9173 13.019 78.006 13.0741C78.096 13.1279 78.2331 13.1877 78.4172 13.2535C78.7262 13.3637 78.9386 13.482 79.0541 13.6083C79.171 13.7346 79.2295 13.8985 79.2295 14.1001Z" fill="#C7C7C7"/>
<path d="M82.0368 11.9373V13.8441C82.0368 14.18 81.9354 14.4441 81.7325 14.6363C81.5296 14.8284 81.2507 14.9245 80.896 14.9245C80.5412 14.9245 80.2664 14.8277 80.0716 14.6342C79.8781 14.4407 79.7813 14.1747 79.7813 13.836V11.9373H80.124V13.8602C80.124 14.1061 80.1912 14.2949 80.3255 14.4266C80.4599 14.5583 80.6574 14.6242 80.9181 14.6242C81.1667 14.6242 81.3582 14.5583 81.4926 14.4266C81.627 14.2936 81.6942 14.1035 81.6942 13.8562V11.9373H82.0368Z" fill="#C7C7C7"/>
<path d="M83.1409 13.6587V14.8842H82.7983V11.9373H83.6066C83.968 11.9373 84.2348 12.0065 84.4068 12.1449C84.5801 12.2833 84.6668 12.4916 84.6668 12.7697C84.6668 13.1594 84.4693 13.4228 84.0742 13.5599L84.8744 14.8842H84.4693L83.7557 13.6587H83.1409ZM83.1409 13.3644H83.6106C83.8525 13.3644 84.0298 13.3167 84.1427 13.2213C84.2556 13.1245 84.312 12.9801 84.312 12.7879C84.312 12.593 84.2543 12.4526 84.1387 12.3666C84.0245 12.2806 83.8404 12.2376 83.5864 12.2376H83.1409V13.3644Z" fill="#C7C7C7"/>
<path d="M86.9722 14.8842H85.3295V11.9373H86.9722V12.2416H85.6721V13.191H86.8936V13.4934H85.6721V14.5778H86.9722V14.8842Z" fill="#C7C7C7"/>
<path d="M88.9108 14.8842L87.9111 12.2719H87.8949C87.9137 12.4788 87.9231 12.7247 87.9231 13.0096V14.8842H87.6067V11.9373H88.1227L89.056 14.3682H89.0721L90.0134 11.9373H90.5254V14.8842H90.1827V12.9854C90.1827 12.7677 90.1921 12.5312 90.2109 12.2759H90.1948L89.187 14.8842H88.9108Z" fill="#C7C7C7"/>
<path d="M92.9578 14.8842H91.315V11.9373H92.9578V12.2416H91.6577V13.191H92.8792V13.4934H91.6577V14.5778H92.9578V14.8842Z" fill="#C7C7C7"/>
<path d="M95.8941 14.8842H95.5031L93.8926 12.411H93.8765C93.898 12.7012 93.9087 12.9673 93.9087 13.2092V14.8842H93.5922V11.9373H93.9793L95.5857 14.4004H95.6019C95.5992 14.3641 95.5931 14.2479 95.5837 14.0517C95.5743 13.8542 95.571 13.7131 95.5737 13.6284V11.9373H95.8941V14.8842Z" fill="#C7C7C7"/>
<path d="M97.5909 14.8842H97.2482V12.2416H96.3149V11.9373H98.5241V12.2416H97.5909V14.8842Z" fill="#C7C7C7"/>
<path d="M70.6523 19.664C70.6523 19.9234 70.5582 20.1256 70.3701 20.2708C70.1819 20.4159 69.9266 20.4884 69.6041 20.4884C69.2547 20.4884 68.986 20.4434 68.7978 20.3534V20.0228C68.9188 20.0739 69.0505 20.1142 69.1929 20.1438C69.3354 20.1733 69.4764 20.1881 69.6162 20.1881C69.8446 20.1881 70.0166 20.1451 70.1322 20.0591C70.2478 19.9718 70.3056 19.8508 70.3056 19.6963C70.3056 19.5942 70.2847 19.5108 70.2431 19.4463C70.2028 19.3805 70.1342 19.32 70.0375 19.2649C69.9421 19.2098 69.7963 19.1474 69.6001 19.0775C69.3259 18.9794 69.1298 18.8631 69.0115 18.7288C68.8946 18.5944 68.8361 18.419 68.8361 18.2027C68.8361 17.9756 68.9215 17.7948 69.0921 17.6605C69.2628 17.5261 69.4885 17.4589 69.7694 17.4589C70.0623 17.4589 70.3318 17.5126 70.5777 17.6201L70.4708 17.9185C70.2276 17.8163 69.9911 17.7653 69.7613 17.7653C69.5799 17.7653 69.4381 17.8042 69.336 17.8822C69.2339 17.9601 69.1828 18.0683 69.1828 18.2067C69.1828 18.3088 69.2016 18.3928 69.2393 18.4587C69.2769 18.5232 69.3401 18.583 69.4287 18.6381C69.5188 18.6918 69.6558 18.7516 69.8399 18.8175C70.149 18.9276 70.3613 19.0459 70.4769 19.1722C70.5938 19.2985 70.6523 19.4625 70.6523 19.664Z" fill="#C7C7C7"/>
<path d="M72.1414 20.4481H71.7987V17.8056H70.8654V17.5012H73.0746V17.8056H72.1414V20.4481Z" fill="#C7C7C7"/>
<path d="M75.3518 20.4481L74.985 19.5108H73.8038L73.441 20.4481H73.0943L74.2593 17.4891H74.5476L75.7066 20.4481H75.3518ZM74.8781 19.2024L74.5355 18.2894C74.4911 18.1738 74.4454 18.032 74.3984 17.864C74.3688 17.993 74.3265 18.1348 74.2714 18.2894L73.9247 19.2024H74.8781Z" fill="#C7C7C7"/>
<path d="M78.393 20.4481H78.0019L76.3914 17.9749H76.3753C76.3968 18.2652 76.4076 18.5312 76.4076 18.7731V20.4481H76.0911V17.5012H76.4781L78.0846 19.9644H78.1007C78.098 19.9281 78.092 19.8119 78.0826 19.6157C78.0732 19.4181 78.0698 19.277 78.0725 19.1924V17.5012H78.393V20.4481Z" fill="#C7C7C7"/>
<path d="M81.5349 18.9465C81.5349 19.4329 81.4026 19.8051 81.1378 20.0631C80.8745 20.3198 80.4948 20.4481 79.999 20.4481H79.1826V17.5012H80.0857C80.5439 17.5012 80.9 17.6282 81.154 17.8822C81.4079 18.1362 81.5349 18.4909 81.5349 18.9465ZM81.1721 18.9586C81.1721 18.5742 81.0754 18.2846 80.8819 18.0898C80.6897 17.895 80.4035 17.7975 80.0232 17.7975H79.5253V20.1518H79.9426C80.3511 20.1518 80.6581 20.0517 80.8637 19.8515C81.0693 19.6499 81.1721 19.3523 81.1721 18.9586Z" fill="#C7C7C7"/>
<path d="M84.0258 20.4481L83.659 19.5108H82.4778L82.115 20.4481H81.7683L82.9333 17.4891H83.2216L84.3806 20.4481H84.0258ZM83.5521 19.2024L83.2095 18.2894C83.1651 18.1738 83.1194 18.032 83.0724 17.864C83.0428 17.993 83.0005 18.1348 82.9454 18.2894L82.5987 19.2024H83.5521Z" fill="#C7C7C7"/>
<path d="M85.1077 19.2226V20.4481H84.7651V17.5012H85.5734C85.9348 17.5012 86.2016 17.5704 86.3736 17.7088C86.5469 17.8472 86.6336 18.0555 86.6336 18.3337C86.6336 18.7234 86.4361 18.9868 86.041 19.1238L86.8412 20.4481H86.4361L85.7225 19.2226H85.1077ZM85.1077 18.9283H85.5774C85.8193 18.9283 85.9967 18.8806 86.1095 18.7852C86.2224 18.6885 86.2788 18.544 86.2788 18.3518C86.2788 18.157 86.2211 18.0166 86.1055 17.9306C85.9913 17.8446 85.8072 17.8016 85.5532 17.8016H85.1077V18.9283Z" fill="#C7C7C7"/>
<path d="M89.6486 18.9465C89.6486 19.4329 89.5162 19.8051 89.2515 20.0631C88.9881 20.3198 88.6085 20.4481 88.1126 20.4481H87.2963V17.5012H88.1993C88.6575 17.5012 89.0136 17.6282 89.2676 17.8822C89.5216 18.1362 89.6486 18.4909 89.6486 18.9465ZM89.2857 18.9586C89.2857 18.5742 89.189 18.2846 88.9955 18.0898C88.8033 17.895 88.5171 17.7975 88.1368 17.7975H87.6389V20.1518H88.0562C88.4647 20.1518 88.7717 20.0517 88.9773 19.8515C89.1829 19.6499 89.2857 19.3523 89.2857 18.9586Z" fill="#C7C7C7"/>
<path d="M91.95 19.664C91.95 19.9234 91.8559 20.1256 91.6678 20.2708C91.4797 20.4159 91.2243 20.4884 90.9018 20.4884C90.5524 20.4884 90.2837 20.4434 90.0956 20.3534V20.0228C90.2165 20.0739 90.3482 20.1142 90.4906 20.1438C90.6331 20.1733 90.7742 20.1881 90.9139 20.1881C91.1424 20.1881 91.3144 20.1451 91.4299 20.0591C91.5455 19.9718 91.6033 19.8508 91.6033 19.6963C91.6033 19.5942 91.5824 19.5108 91.5408 19.4463C91.5005 19.3805 91.4319 19.32 91.3352 19.2649C91.2398 19.2098 91.094 19.1474 90.8978 19.0775C90.6237 18.9794 90.4275 18.8631 90.3092 18.7288C90.1923 18.5944 90.1339 18.419 90.1339 18.2027C90.1339 17.9756 90.2192 17.7948 90.3898 17.6605C90.5605 17.5261 90.7863 17.4589 91.0671 17.4589C91.3601 17.4589 91.6295 17.5126 91.8754 17.6201L91.7686 17.9185C91.5253 17.8163 91.2888 17.7653 91.059 17.7653C90.8776 17.7653 90.7359 17.8042 90.6337 17.8822C90.5316 17.9601 90.4806 18.0683 90.4806 18.2067C90.4806 18.3088 90.4994 18.3928 90.537 18.4587C90.5746 18.5232 90.6378 18.583 90.7265 18.6381C90.8165 18.6918 90.9536 18.7516 91.1377 18.8175C91.4467 18.9276 91.659 19.0459 91.7746 19.1722C91.8915 19.2985 91.95 19.4625 91.95 19.664Z" fill="#C7C7C7"/>
<path d="M26.0593 0.615553C26.1472 0.610872 26.2212 0.606192 26.2953 0.606192C27.605 0.606192 28.2013 0.610872 29.511 0.601511C29.6776 0.601511 29.7748 0.657678 29.8673 0.793414C31.9036 3.86853 34.4875 7.84106 36.5284 10.9115C36.5793 10.9864 36.6302 11.066 36.6996 11.1643C36.769 11.0613 36.8338 10.977 36.8894 10.8881C38.9117 7.82702 41.293 3.87321 43.3108 0.812136C43.4126 0.662358 43.5144 0.596831 43.6995 0.596831C44.8194 0.606192 45.7552 0.601511 46.8752 0.601511C46.9585 0.601511 47.0418 0.601511 47.1436 0.601511C47.1436 7.58021 47.1436 14.5402 47.1436 21.5189C45.7876 21.5189 44.6065 21.5189 43.2275 21.5189C43.2275 16.8102 43.2275 11.9221 43.2275 7.14798C43.1395 7.26499 43.0886 7.33052 43.047 7.39604C41.3162 10.0031 39.4013 12.7897 37.6751 15.4014C37.5779 15.5465 37.4853 15.612 37.3049 15.6073C36.805 15.5933 36.3006 15.5933 35.8008 15.6073C35.6342 15.612 35.5417 15.5559 35.4491 15.4154C33.7599 12.8177 31.8821 10.0452 30.1883 7.44753C30.1374 7.37264 30.0865 7.29775 29.9893 7.23691C29.9893 11.9315 29.9893 16.8056 29.9893 21.5189C28.6056 21.5189 27.4337 21.5189 26.0639 21.5189C26.0593 14.5636 26.0593 7.60361 26.0593 0.615553Z" fill="#C7C7C7"/>
<path d="M9.75396 0.616171C9.80507 0.611239 9.84765 0.606308 9.88598 0.606308C12.0878 0.611239 14.2853 0.586581 16.487 0.630966C17.7689 0.655625 19.004 1.00578 20.124 1.77514C21.572 2.77628 22.3556 4.28047 22.5643 6.194C22.7048 7.47625 22.6282 8.73879 22.2108 9.952C21.6188 11.6732 20.503 12.7582 19.0295 13.3894C18.0969 13.7889 17.1216 13.9566 16.1293 13.9813C15.3627 13.996 14.5962 13.9862 13.8296 13.9862C13.7529 13.9862 13.6763 13.9862 13.5826 13.9862C13.5826 16.8811 13.5826 18.6745 13.5826 21.5695C12.3007 21.5695 11.0316 21.5695 9.7497 21.5695C9.75396 14.2359 9.75396 7.9793 9.75396 0.616171ZM13.5911 11.1543C14.413 11.1247 15.2179 11.1296 16.0143 11.0507C16.6829 10.9866 17.2962 10.6907 17.786 10.1384C18.5994 9.22104 18.8421 7.1261 18.3481 5.82905C17.9265 4.72926 17.1514 4.13252 16.1634 3.99443C15.3287 3.87607 14.4812 3.91552 13.6379 3.89086C13.6252 3.89086 13.6166 3.90566 13.5954 3.92045C13.5911 6.18413 13.5911 8.81664 13.5911 11.1543Z" fill="#C7C7C7"/>
<path d="M5.06179 21.5282C3.66882 21.5282 2.29899 21.5282 0.910645 21.5282C0.910645 14.5542 0.910645 7.59425 0.910645 0.62023C2.29436 0.62023 3.66882 0.62023 5.06179 0.62023C5.06179 7.58956 5.06179 14.5495 5.06179 21.5282Z" fill="#C7C7C7"/>
<path d="M52.076 17.0815C51.6005 17.8517 50.9147 18.9743 50.2958 19.9907C51.0631 20.4353 52.0861 21.0191 52.3091 21.1164C54.498 22.0743 56.7719 22.1946 59.0882 21.6902C60.5601 21.3709 61.8339 20.6813 62.7821 19.4966C63.5935 18.4831 63.9474 17.3077 64.004 16.0396C64.0747 14.5726 63.7209 13.2259 62.7397 12.0782C61.9801 11.1897 61.0319 10.5418 60.027 9.95407C59.6449 9.73072 59.2603 9.51144 58.8756 9.29213C58.3438 8.98888 57.8118 8.68557 57.2861 8.37136C56.654 7.98725 55.8942 7.54298 55.4602 6.93674C54.762 5.96027 55.0639 4.30551 56.1537 3.79183C56.3282 3.70853 56.5122 3.62985 56.7009 3.5882C58.5597 3.16244 60.4799 3.65199 62.1075 4.60995C62.3187 4.73553 62.5213 4.87815 62.7254 5.02191C62.8222 5.09006 62.9194 5.15847 63.018 5.22545C63.0196 5.22068 63.0212 5.21605 63.0228 5.21156C63.0304 5.18987 63.0369 5.17136 63.0369 5.15603C63.0369 4.86429 63.0372 4.57284 63.0375 4.28153C63.0383 3.40837 63.0392 2.71598 63.0322 1.84151C63.0322 1.76747 62.9708 1.66565 62.9048 1.624C62.8302 1.57858 62.7563 1.53157 62.6822 1.48449C62.4467 1.3349 62.2102 1.18463 61.9518 1.08255C59.7204 0.19401 57.4512 0.101453 55.1585 0.841904C53.9697 1.22601 52.9271 1.8554 52.1675 2.85038C50.8844 4.53953 50.8136 6.40454 51.4599 8.32508C51.8845 9.58847 52.795 10.5187 53.9036 11.236C54.5615 11.6662 55.2474 12.0528 55.9334 12.4395C56.2215 12.6018 56.5095 12.7642 56.7955 12.9298C56.9072 12.994 57.0191 13.0577 57.131 13.1213C57.8084 13.5063 58.483 13.8897 59.0741 14.406C60.1497 15.3501 60.1072 16.5626 59.5506 17.4326C59.1024 18.136 58.3806 18.4461 57.5833 18.5711C55.6916 18.8719 53.9791 18.4137 52.4317 17.3447C52.359 17.295 52.2345 17.2024 52.076 17.0815Z" fill="#C7C7C7"/>
</svg>
