<svg width="101" height="31" viewBox="0 0 101 31" fill="none" xmlns="http://www.w3.org/2000/svg">
<path d="M100.558 3.49462C100.497 3.46771 100.416 3.48789 100.342 3.48789H93.4408C93.3668 3.48789 93.2861 3.46771 93.2256 3.49462C93.1247 3.53498 93.0305 3.60897 92.9363 3.66951C93.0171 3.76368 93.0843 3.91167 93.192 3.9453C93.4812 4.0462 93.7973 4.07311 94.0866 4.17401C94.9745 4.48343 95.331 4.99466 95.1898 5.92294C95.109 6.47452 94.9476 7.03284 94.6987 7.53061C93.609 9.68987 92.4722 11.8289 91.3556 13.9747C91.3354 14.0151 91.2749 14.0353 91.2076 14.0824C91.1336 13.9411 91.0596 13.82 90.9991 13.699C89.9833 11.5195 88.9676 9.34008 87.9653 7.16064C87.777 6.75032 87.6088 6.31981 87.4743 5.88931C87.1716 4.90721 87.4743 4.36908 88.4698 4.07984C88.6649 4.02602 88.8667 4.01257 89.0551 3.9453C89.1492 3.91167 89.203 3.78386 89.277 3.69642C89.1896 3.62242 89.1156 3.52152 89.0214 3.49462C88.9071 3.46098 88.7658 3.48116 88.638 3.48116H74.9963C74.9224 3.48116 74.8416 3.46098 74.7811 3.48789C74.6398 3.54843 74.512 3.63588 74.3775 3.7166C74.4918 3.80404 74.5927 3.93185 74.7138 3.97221C75.0434 4.07311 75.3865 4.12019 75.7228 4.20764C77.8283 4.75923 78.6153 5.65387 78.6691 7.81986C78.77 11.3917 78.7969 14.9636 78.8574 18.5354C78.8642 18.8852 78.8574 19.235 78.8574 19.7462C78.5547 19.4301 78.3798 19.2484 78.2117 19.0668C73.4021 13.9949 68.5993 8.92976 63.7897 3.86458C63.635 3.70314 63.413 3.50807 63.218 3.50134C61.7045 3.47444 60.1842 3.48116 58.6708 3.49462C58.5631 3.49462 58.4622 3.62915 58.3613 3.70314C58.4488 3.79732 58.5228 3.93185 58.6304 3.97221C59.0743 4.12692 59.5385 4.24127 59.9892 4.38253C61.6439 4.89376 62.6193 5.95657 62.7404 7.72568C62.7673 8.1091 62.774 8.49252 62.774 8.86922C62.774 11.459 62.8009 14.0487 62.7673 16.6318C62.7471 17.9233 62.6866 19.2215 62.5319 20.4996C62.3704 21.8449 61.8861 23.0625 60.5273 23.6746C60.0833 23.8697 59.5856 23.9504 59.1214 24.1051C58.9802 24.1522 58.8658 24.28 58.7447 24.3674C58.8927 24.428 59.034 24.5423 59.182 24.5423C60.0968 24.5558 61.0049 24.5491 61.9197 24.5491H63.6956C63.709 24.5961 63.7292 24.6432 63.7426 24.697C63.5408 24.8316 63.339 24.9661 63.1372 25.0939C59.1483 27.6635 54.7289 28.7868 50.0203 28.9214C46.4888 29.0223 42.9775 28.7398 39.4998 28.1478C35.8405 27.529 32.2619 26.6074 28.8986 24.993C28.6833 24.8921 28.4748 24.7845 28.2663 24.6769C28.2797 24.6298 28.2999 24.5827 28.3133 24.5423H28.8986C31.9996 24.5423 35.1073 24.5289 38.2083 24.5558C38.7262 24.5625 39.0155 24.4482 39.1029 23.9033C39.1836 23.4392 39.3854 22.9952 39.4594 22.5311C39.6747 21.1925 39.8496 19.8471 40.0446 18.5018C39.9572 18.4682 39.8697 18.4278 39.7756 18.3874C39.6612 18.522 39.5065 18.6363 39.4527 18.791C39.3383 19.0937 39.2913 19.4233 39.1904 19.7395C38.6926 21.2664 37.8988 22.5849 36.3517 23.2239C34.3068 24.0715 32.1879 24.0782 30.0825 23.4459C28.9457 23.1028 28.2528 22.2822 28.2192 21.0781C28.1654 18.8919 28.1788 16.7058 28.1721 14.5196C28.1721 14.4725 28.2192 14.4254 28.2394 14.3783C28.2999 14.3649 28.3537 14.3447 28.4075 14.3447C29.7932 14.3447 31.1856 14.338 32.5713 14.3514C34.1655 14.3716 35.4907 14.829 35.8674 16.7932C35.8943 16.921 36.0961 17.0085 36.3046 17.1968V10.2616C36.2508 10.2347 36.1903 10.2078 36.1365 10.1809C36.0356 10.3491 35.8741 10.5105 35.8338 10.6921C35.5647 11.9568 34.8046 12.8043 33.5265 12.9254C31.7708 13.0936 30.0017 13.0801 28.273 13.1406C28.2057 12.9792 28.1654 12.9321 28.1654 12.885C28.1586 10.0935 28.1519 7.30863 28.1654 4.51707C28.1654 4.40944 28.4075 4.20764 28.5353 4.20764C30.2506 4.21437 31.9726 4.18073 33.6812 4.30181C36.0826 4.47671 37.1051 5.50589 37.4751 7.88712C37.4952 8.0082 37.6365 8.1091 37.7239 8.22346C37.7979 8.12256 37.9392 8.02166 37.9459 7.91403C38.067 6.46107 38.1679 5.01484 38.2823 3.48789H22.219C22.1248 3.48789 22.0306 3.46098 21.9499 3.49462C21.8288 3.5417 21.7279 3.62242 21.6203 3.68969C21.7279 3.78386 21.8221 3.92512 21.9432 3.95876C22.2728 4.05293 22.6226 4.08656 22.9589 4.16728C24.7415 4.59779 25.3469 5.30409 25.4074 7.13374C25.4612 8.80867 25.4949 10.4836 25.4882 12.1586C25.4814 15.1116 25.4411 18.0646 25.4007 21.0108C25.394 21.6431 25.2998 22.2687 24.876 22.8136C20.4768 20.1835 17.9274 15.9793 15.23 11.9298C15.9363 11.4993 16.6224 11.1496 17.2345 10.6989C19.2929 9.18537 19.9925 7.12701 19.4476 4.67851C19.0104 2.7076 17.5843 1.61788 15.7816 0.951939C14.0394 0.312907 12.2232 0.171647 10.3935 0.20528C8.01902 0.24564 5.64451 0.34654 3.27673 0.42726C2.59061 0.454166 1.89777 0.494526 1.21165 0.521433C1.18474 0.581973 1.15111 0.635786 1.1242 0.689599C1.27219 0.797226 1.39999 0.958666 1.56143 0.999026C2.05921 1.11338 2.57043 1.14701 3.0682 1.25464C4.24537 1.51698 4.95167 2.26364 5.12656 3.44753C5.23419 4.18746 5.32836 4.93412 5.33509 5.67405C5.35527 9.85131 5.35527 14.0218 5.34854 18.1991C5.34854 19.0736 5.30818 19.948 5.24091 20.8225C5.12656 22.3965 4.47408 23.2104 2.96058 23.6544C2.40227 23.8158 1.82377 23.9167 1.25201 24.0109C0.882041 24.0715 0.848407 24.2396 0.98294 24.5087H13.4205C13.4542 24.4549 13.4811 24.4011 13.508 24.3473C13.36 24.2396 13.2322 24.0647 13.0707 24.0311C12.3644 23.8629 11.6312 23.7755 10.9317 23.5871C9.15583 23.1163 8.5437 22.3562 8.51007 20.5131C8.46298 18.1251 8.47644 15.7371 8.46971 13.3492C8.46971 13.2281 8.50334 13.107 8.53025 12.9658C9.1222 13.0263 9.68051 13.1205 10.2388 13.1272C11.7052 13.1339 12.721 13.8402 13.4609 15.0443C15.6 18.5085 18.4453 21.3068 21.7145 23.6948C21.8356 23.7822 21.9432 23.8898 22.0172 23.9571C21.8558 24.1185 21.7347 24.2396 21.6069 24.3607C21.775 24.4212 21.9297 24.502 22.1046 24.5423C22.5351 24.6432 23.006 24.65 23.3962 24.8316C25.1653 25.6522 26.8537 26.668 28.6699 27.3473C35.7799 30.0111 43.1322 30.8923 50.6728 30.0111C55.5765 29.4393 60.0833 27.7509 64.1261 24.8988C64.4893 24.6432 64.8525 24.5356 65.2898 24.5423C66.1777 24.5625 67.0723 24.5491 67.9603 24.5491C67.9804 24.4885 68.0006 24.428 68.0208 24.3674C67.5499 23.7284 66.5948 24.0311 66.0364 23.4795C66.1642 23.3584 66.2988 23.2441 66.4266 23.1163C67.9266 21.549 69.4267 19.9884 70.9133 18.4143C71.0478 18.2731 71.1151 18.078 71.216 17.9098C69.5881 19.531 67.9872 21.1655 66.3324 22.7598C65.5723 23.4862 65.3436 23.4257 64.6777 22.5647C63.9579 21.6364 63.783 20.5198 63.7628 19.4166C63.6956 15.7909 63.6956 12.1653 63.6754 8.54634C63.6754 8.47907 63.709 8.4118 63.7426 8.27727C64.2001 8.75486 64.6104 9.17864 65.0207 9.60915C66.6284 11.2908 68.2428 12.9792 69.8505 14.6609L71.8079 16.773L72.1241 17.1161L78.3798 23.8629C78.6624 24.1858 78.9382 24.5154 79.2341 24.8316C79.3485 24.9594 79.557 24.9997 79.7252 25.0805C79.7655 24.919 79.8126 24.7576 79.8463 24.5894C79.8597 24.5356 79.8463 24.4818 79.8463 24.428C79.8395 19.4166 79.7992 14.4053 79.853 9.39389C79.8664 8.13601 80.0212 6.82431 80.4248 5.64042C80.9091 4.20091 81.7499 3.75023 83.1154 4.77941C84.0841 5.50589 84.7029 6.48798 85.194 7.55079C86.4855 10.3222 87.7501 13.107 89.0281 15.8851C89.0954 16.0331 89.1627 16.1945 89.1627 16.3493C89.129 17.9368 89.1358 19.5175 89.0281 21.0983C88.9474 22.3225 88.2882 23.2239 87.0909 23.6342C86.5393 23.8226 85.9608 23.9302 85.4092 24.0984C85.2612 24.1455 85.1469 24.2867 85.0191 24.3876C85.046 24.4414 85.0796 24.502 85.1065 24.5625H87.8913C90.3937 24.5625 92.896 24.5692 95.3983 24.5558C95.5799 24.5558 95.7683 24.4414 95.9499 24.3809C95.775 24.2665 95.6135 24.1185 95.4252 24.0513C95.0485 23.9302 94.6449 23.8697 94.2615 23.7553C92.8623 23.3383 92.0551 22.4167 91.9946 20.9503C91.9206 19.0803 91.9072 17.1968 91.8803 15.3268C91.8803 15.1586 91.9677 14.977 92.0484 14.8156C93.2054 12.5218 94.322 10.2145 95.5328 7.94766C96.6225 5.90276 98.0688 4.23455 100.591 3.95203C100.692 3.93858 100.786 3.79059 100.881 3.70987C100.766 3.62915 100.672 3.54843 100.558 3.49462ZM13.2187 11.1294C11.8532 11.8559 10.3935 12.1653 8.86658 12.2729C8.53698 12.2931 8.45626 12.1518 8.46298 11.8626C8.46971 11.1496 8.46298 10.4433 8.46298 9.73023V0.797226C10.5012 0.837586 12.351 1.18737 13.9587 2.37799C16.5619 4.31527 17.0193 9.09792 13.2187 11.1294Z" fill="#C7C7C7"/>
<path d="M56.1415 15.4815C55.5496 15.0443 54.8702 14.681 54.1841 14.4053C53.2289 14.0151 52.2266 13.7393 51.1234 13.3761C51.4329 13.2819 51.6414 13.2415 51.8365 13.1608C52.8186 12.737 53.8343 12.3671 54.7693 11.8491C55.637 11.3715 56.229 10.5912 56.4913 9.60914C57.0294 7.63823 56.2088 5.69423 54.3993 4.67178C52.8993 3.82422 51.2445 3.49461 49.5561 3.48116C47.1144 3.45425 44.6658 3.56861 42.2241 3.62242C41.733 3.63587 41.2487 3.66951 40.7577 3.68969C40.7308 3.7435 40.7038 3.79731 40.6702 3.85113C40.8182 3.95875 40.9527 4.10674 41.1209 4.15383C41.6119 4.29509 42.1164 4.36908 42.6075 4.51706C43.5829 4.81976 44.1008 5.52606 44.2353 6.51488C44.3026 6.9992 44.3497 7.49697 44.3564 7.98129C44.3699 11.9366 44.3699 15.8918 44.3631 19.8471C44.3631 20.4122 44.3093 20.9772 44.2488 21.5355C44.1344 22.6454 43.5627 23.3988 42.473 23.7082C41.9281 23.8629 41.3698 23.9571 40.8317 24.1051C40.7038 24.1387 40.6097 24.3002 40.502 24.4011C40.5357 24.4482 40.5693 24.502 40.6029 24.5491C41.168 24.5491 41.733 24.5491 42.2981 24.5491C45.3452 24.5423 48.3924 24.5827 51.4396 24.5087C53.0204 24.4683 54.5406 24.0446 55.8926 23.1634C58.6775 21.3404 58.812 17.4592 56.1415 15.4815ZM47.1009 4.16728C49.9395 3.95875 53.0136 5.20318 53.5249 7.99475C53.9217 10.1876 53.0136 11.9433 50.9418 12.7774C49.7781 13.2483 48.1032 13.5039 47.1009 13.3559V4.16728ZM52.906 23.1499C51.7423 23.9437 50.4373 24.0984 49.0785 23.836C47.9754 23.6275 47.3969 22.8741 47.2018 21.8113C47.1345 21.4346 47.0874 21.0512 47.0874 20.6745C47.074 18.596 47.0807 16.5174 47.0807 14.4389C47.0807 14.3313 47.0942 14.2236 47.1076 14.0891C50.1952 13.5241 52.7984 14.6474 54.1168 17.0959C55.3007 19.309 54.8029 21.8651 52.906 23.1499Z" fill="#C7C7C7"/>
</svg>
