<svg width="81" height="27" viewBox="0 0 81 27" fill="none" xmlns="http://www.w3.org/2000/svg">
<path fill-rule="evenodd" clip-rule="evenodd" d="M9.99365 19.1285H0.910645V0.714101H8.74927C12.3575 0.714101 15.9657 1.58516 15.9657 5.81557C15.9657 7.43326 15.0951 9.05048 13.4774 9.54823V9.67267C15.468 10.4193 16.8368 11.7881 16.8368 14.0275C16.8368 17.8846 13.2286 19.1285 9.99365 19.1285ZM7.13159 5.19385V7.80657L7.75378 7.80703C8.74881 7.80703 9.86875 7.68259 9.86875 6.43822C9.86875 5.1716 8.69709 5.18359 7.83198 5.19244C7.76218 5.19315 7.69437 5.19385 7.62934 5.19385H7.13159ZM7.75378 11.6632H7.13159V14.7737H7.87821C8.99815 14.7737 10.6154 14.7737 10.6154 13.1565C10.6154 11.6632 8.87371 11.6632 7.75378 11.6632Z" fill="#C7C7C7"/>
<path fill-rule="evenodd" clip-rule="evenodd" d="M17.8318 9.92154C17.8318 4.19835 22.4355 0.341248 28.0343 0.341248C33.6335 0.341248 38.2368 4.19835 38.2368 9.92154C38.2368 15.8945 33.6331 19.5023 28.0343 19.5023C22.4355 19.5023 17.8318 15.8941 17.8318 9.92154ZM31.5181 10.046C31.5181 8.05544 30.1493 6.43776 28.0343 6.43776C25.9193 6.43776 24.5505 8.05544 24.5505 10.046C24.5505 12.161 26.0438 13.6547 28.0343 13.6547C30.0248 13.6547 31.5181 12.161 31.5181 10.046Z" fill="#C7C7C7"/>
<path fill-rule="evenodd" clip-rule="evenodd" d="M48.8121 0.714562H41.845L38.859 19.129H45.4528L46.1989 11.2908C46.3234 10.5442 46.3234 9.79807 46.3234 9.05147L46.5718 9.0514C46.5718 9.54847 46.6824 10.0458 46.7931 10.5431C46.8485 10.7923 46.904 11.0416 46.9455 11.2908L49.4343 19.129H53.2914L56.0281 10.9175C56.1235 10.4442 56.2182 9.97057 56.3128 9.4969C56.3425 9.34841 56.3722 9.1999 56.4019 9.0514H56.5263L57.5218 19.1294L67.1026 19.1285L67.6003 16.8891H72.7013L73.3235 19.1285H80.416L73.8213 0.714111H66.3564L62.7179 11.2731L61.0056 0.715023H54.0385L52.0475 7.93147C51.7999 8.67521 51.6754 9.54304 51.5509 10.4113L51.5497 10.4198H51.4253L48.8121 0.714562ZM70.0895 6.81108L68.8447 12.5343H71.5823L70.7117 9.17493L70.705 9.13465C70.5828 8.40185 70.4601 7.66647 70.3379 6.81108H70.0895Z" fill="#C7C7C7"/>
<path d="M36.9929 26.221H0.910645V21.8662H36.9929V26.221Z" fill="#C7C7C7"/>
<path d="M39.4812 20.9956H38.7345V26.221H39.4812V20.9956Z" fill="#C7C7C7"/>
<path d="M42.4672 22.8612C41.9694 22.8612 41.5966 23.1096 41.3473 23.4834V22.9847H40.6011V26.2201H41.3473V24.7268C41.3473 24.1051 41.3473 23.4829 42.2188 23.4829C42.9649 23.4829 43.0894 23.8567 43.0894 24.3544V26.2205H43.8365V24.3544C43.8365 23.4834 43.5871 22.8612 42.4672 22.8612Z" fill="#C7C7C7"/>
<path d="M44.9559 26.221H45.5781V23.6078H46.3243V22.9856H45.5781V21.8662H44.9559V22.9856H44.4582V23.6078H44.9559V26.221Z" fill="#C7C7C7"/>
<path fill-rule="evenodd" clip-rule="evenodd" d="M50.4298 24.6033V24.7273H47.5677C47.5677 25.225 47.9415 25.7228 48.6877 25.7228C49.1854 25.7228 49.5592 25.5984 49.8076 25.1006L50.4298 25.4744C50.2272 25.7449 49.9642 25.9644 49.6619 26.1156C49.3596 26.2667 49.0261 26.3452 48.6881 26.345C47.5682 26.345 46.822 25.5988 46.822 24.6033C46.822 23.6078 47.4442 22.8617 48.6881 22.8617C49.8076 22.8617 50.4298 23.7327 50.4298 24.6033ZM48.6881 23.4838C48.066 23.4838 47.6931 23.8572 47.5682 24.23H49.6836C49.5597 23.7332 49.1859 23.4838 48.6881 23.4838Z" fill="#C7C7C7"/>
<path d="M52.7946 22.8612C52.4213 22.8612 52.0475 23.1096 51.7991 23.4834V22.9852H51.052V26.2205H51.7991V24.6029C51.7991 24.1051 51.9235 23.4829 52.6697 23.4829C52.7946 23.4829 52.919 23.4829 53.1674 23.6074L53.4168 23.1096C53.2923 22.9856 53.043 22.8612 52.7946 22.8612Z" fill="#C7C7C7"/>
<path d="M55.7806 22.8612C55.2829 22.8612 54.9091 23.1096 54.6607 23.4834V22.9847H53.9145V26.2201H54.6607V24.7268C54.6607 24.1051 54.6607 23.4829 55.5322 23.4829C56.2784 23.4829 56.4028 23.8567 56.4028 24.3544V26.2205H57.149V24.3544C57.149 23.4834 56.7761 22.8612 55.7806 22.8612Z" fill="#C7C7C7"/>
<path fill-rule="evenodd" clip-rule="evenodd" d="M60.8816 22.9856H61.6278V26.2201H60.8816V25.7223C60.6332 26.0961 60.1355 26.3445 59.6377 26.3445C58.3938 26.3445 57.7716 25.4744 57.7716 24.6029C57.7716 23.7327 58.5178 22.8612 59.6377 22.8612C60.1355 22.8612 60.6332 23.1096 60.8816 23.4834V22.9856ZM58.5182 24.6033C58.5182 25.2255 58.8915 25.7233 59.7621 25.7233C60.5083 25.7233 60.8821 25.2255 60.8821 24.6033C60.8821 23.9811 60.5083 23.4834 59.7621 23.4834C59.016 23.4834 58.5182 23.9811 58.5182 24.6033Z" fill="#C7C7C7"/>
<path d="M62.6233 26.221H63.3708V23.6078H64.117V22.9856H63.3708V21.7417H62.6233V22.9856H62.2509V23.6078H62.6233V26.221Z" fill="#C7C7C7"/>
<path d="M65.3609 22.9856H64.6147V26.221H65.3609V22.9856Z" fill="#C7C7C7"/>
<path d="M64.988 21.9901C65.2365 21.9901 65.4849 21.7417 65.4849 21.4933C65.4849 21.244 65.2365 21.1195 64.988 21.1195C64.7387 21.1195 64.4903 21.244 64.4903 21.4933C64.4903 21.7417 64.7387 21.9901 64.988 21.9901Z" fill="#C7C7C7"/>
<path fill-rule="evenodd" clip-rule="evenodd" d="M66.2324 24.6033C66.2324 23.6078 67.1026 22.8617 68.2225 22.8617C69.3424 22.8617 70.2135 23.6078 70.2135 24.6033C70.2135 25.5988 69.342 26.345 68.2225 26.345C67.103 26.345 66.2324 25.5988 66.2324 24.6033ZM69.4664 24.6033C69.4664 23.9811 68.8447 23.4834 68.2225 23.4834C67.4763 23.4834 66.8541 23.9811 66.8541 24.6033C66.8541 25.2255 67.4763 25.7233 68.2225 25.7233C68.8442 25.7233 69.4664 25.2255 69.4664 24.6033Z" fill="#C7C7C7"/>
<path d="M72.7018 22.8612C72.204 22.8612 71.8312 23.1096 71.5818 23.4834V22.9847H70.8357V26.2201H71.5818V24.7268C71.5818 24.1051 71.5818 23.4829 72.4534 23.4829C73.1995 23.4829 73.324 23.8567 73.324 24.3544V26.2205H74.0711V24.3544C74.0711 23.4834 73.8217 22.8612 72.7018 22.8612Z" fill="#C7C7C7"/>
<path fill-rule="evenodd" clip-rule="evenodd" d="M77.8028 22.9856H78.5499V26.2201H77.8028V25.7223C77.5544 26.0961 77.0566 26.3445 76.5589 26.3445C75.4389 26.3445 74.6928 25.4744 74.6928 24.6029C74.6928 23.7327 75.4389 22.8612 76.5589 22.8612C77.0566 22.8612 77.5544 23.1096 77.8028 23.4834V22.9856ZM75.4389 24.6033C75.4389 25.2255 75.9367 25.7233 76.6829 25.7233C77.4299 25.7233 77.9277 25.2255 77.9277 24.6033C77.9277 23.9811 77.4299 23.4834 76.6829 23.4834C75.9367 23.4834 75.4389 23.9811 75.4389 24.6033Z" fill="#C7C7C7"/>
<path d="M80.2915 20.2485H79.5444V26.221H80.2915V20.2485Z" fill="#C7C7C7"/>
</svg>
